<svg width="1800" height="740" version="1.1" viewBox="0 0 476.25 195.79" xmlns="http://www.w3.org/2000/svg" xmlns:xlink="http://www.w3.org/1999/xlink"><defs><clipPath id="clipPath20"><path d="m0 600h2200v-600h-2200z"/></clipPath><clipPath id="clipPath624"><path d="m0 600h2200v-600h-2200z"/></clipPath><clipPath id="clipPath642"><path d="m-33.088 31.176h66.176v-62.353h-66.176z"/></clipPath><clipPath id="clipPath372"><path d="m0 600h2200v-600h-2200z"/></clipPath><clipPath id="clipPath382"><path d="m-31.947 32h63.894v-64h-63.894z"/></clipPath><clipPath id="clipPath352"><path d="m882.02 48.455h9.404v9.404h-9.404z"/></clipPath><linearGradient id="linearGradient362" x2="1" gradientTransform="matrix(0 -37.619 -37.619 0 886.72 86.074)" gradientUnits="userSpaceOnUse"><stop stop-color="#fff" offset="0"/><stop stop-color="#c6e7ff" offset="1"/></linearGradient><clipPath id="clipPath332"><path d="m882.02 62.563h9.404v9.404h-9.404z"/></clipPath><clipPath id="clipPath312"><path d="m882.02 76.669h9.404v9.405h-9.404z"/></clipPath><clipPath id="clipPath292"><path d="m867.91 48.455h9.404v9.404h-9.404z"/></clipPath><linearGradient id="linearGradient302" x2="1" gradientTransform="matrix(0 -37.619 -37.619 0 872.61 86.074)" gradientUnits="userSpaceOnUse"><stop stop-color="#fff" offset="0"/><stop stop-color="#c6e7ff" offset="1"/></linearGradient><clipPath id="clipPath272"><path d="m867.91 62.563h9.404v9.404h-9.404z"/></clipPath><clipPath id="clipPath252"><path d="m867.91 76.669h9.404v9.405h-9.404z"/></clipPath><clipPath id="clipPath232"><path d="m853.8 48.455h9.404v9.404h-9.404z"/></clipPath><linearGradient id="linearGradient242" x2="1" gradientTransform="matrix(0 -37.619 -37.619 0 858.51 86.074)" gradientUnits="userSpaceOnUse"><stop stop-color="#fff" offset="0"/><stop stop-color="#c6e7ff" offset="1"/></linearGradient><clipPath id="clipPath212"><path d="m853.8 62.563h9.404v9.404h-9.404z"/></clipPath><clipPath id="clipPath192"><path d="m853.8 76.669h9.404v9.405h-9.404z"/></clipPath><clipPath id="clipPath172"><path d="m839.7 48.455h9.404v9.404h-9.404z"/></clipPath><linearGradient id="linearGradient182" x2="1" gradientTransform="matrix(0 -37.619 -37.619 0 844.4 86.074)" gradientUnits="userSpaceOnUse"><stop stop-color="#fff" offset="0"/><stop stop-color="#c6e7ff" offset="1"/></linearGradient><clipPath id="clipPath152"><path d="m839.7 62.563h9.404v9.404h-9.404z"/></clipPath><clipPath id="clipPath132"><path d="m839.7 76.669h9.404v9.405h-9.404z"/></clipPath><clipPath id="clipPath112"><path d="m836.49 90.777h51.725v4.702h-51.725z"/></clipPath><linearGradient id="linearGradient122" x2="1" gradientTransform="matrix(0 -4.7023 -4.7023 0 862.35 95.478)" gradientUnits="userSpaceOnUse"><stop stop-color="#0093ff" offset="0"/><stop stop-color="#0076b7" offset="1"/></linearGradient><clipPath id="clipPath92"><path d="m836.49 95.478h51.725v4.702h-51.725z"/></clipPath><linearGradient id="linearGradient102" x2="1" gradientTransform="matrix(0 -4.7023 -4.7023 0 862.35 100.18)" gradientUnits="userSpaceOnUse"><stop stop-color="#c6e7ff" offset="0"/><stop stop-color="#6aceff" offset="1"/></linearGradient><linearGradient id="linearGradient16708" x2="1" gradientTransform="matrix(0 -37.619 -37.619 0 844.4 86.074)" gradientUnits="userSpaceOnUse" xlink:href="#linearGradient182"/><linearGradient id="linearGradient16714" x2="1" gradientTransform="matrix(0 -37.619 -37.619 0 858.51 86.074)" gradientUnits="userSpaceOnUse" xlink:href="#linearGradient242"/><linearGradient id="linearGradient16720" x2="1" gradientTransform="matrix(0 -37.619 -37.619 0 872.61 86.074)" gradientUnits="userSpaceOnUse" xlink:href="#linearGradient302"/><linearGradient id="linearGradient16726" x2="1" gradientTransform="matrix(0 -37.619 -37.619 0 886.72 86.074)" gradientUnits="userSpaceOnUse" xlink:href="#linearGradient362"/></defs><g transform="translate(0 -101.21)"><g transform="matrix(.35278 0 0 -.35278 -274.21 208.8)"><g clip-path="url(#clipPath20)"></g></g><g transform="matrix(.98917 0 0 .98917 254.83 95.884)"><g transform="matrix(.35278 0 0 -.35278 174.52 167.14)"><path d="m0 0c-59.883-30.008-125.62-46.136-191.72-55.153-67.935-9.268-136.62-11.318-205.1-12.618-64.674-1.227-129.21-3.812-193.77 1.56-67.803 5.644-135.1 16.556-201.91 29.233-64.797 12.296-129.2 26.529-193.63 40.589-7.189 1.569-14.378 3.133-21.568 4.691-3.765 0.815-5.374-4.967-1.596-5.785 63.988-13.859 127.88-28.195 192.12-40.822 67.315-13.229 135.07-24.856 203.36-31.761 31.935-3.229 64.006-5.399 96.109-5.739 32.823-0.347 65.702 1.064 98.52 1.633 69.036 1.196 138.24 2.537 206.89 10.44 65.939 7.589 131.7 21.277 192.75 47.959 7.614 3.328 15.131 6.869 22.559 10.591 3.453 1.731 0.418 6.909-3.027 5.182" fill="#0073ca"/></g><g transform="matrix(.35278 0 0 -.35278 -178.05 69.989)"><path d="m0 0 6e-3 3.459c-4.132 7e-3 -7.488 3.375-7.482 7.508 8e-3 4.132 3.376 7.488 7.508 7.481l3.231-6e-3 7e-3 3.459-3.231 6e-3c-6.04 0.01-10.962-4.894-10.973-10.934-0.01-6.04 4.894-10.962 10.934-10.973" fill="#0073ca"/></g><g transform="matrix(.35278 0 0 -.35278 -182.71 62.863)"><path d="m0 0 3.458-6e-3c7e-3 3.496 2.856 6.336 6.353 6.33 3.497-7e-3 6.336-2.856 6.33-6.352l3.459-7e-3c9e-3 5.404-4.379 9.808-9.783 9.817-5.404 0.01-9.808-4.379-9.817-9.782" fill="#0073ca"/></g><g transform="matrix(.35278 0 0 -.35278 -178.46 73.649)"><path d="m0 0c6.675-0.012 12.115 5.41 12.127 12.085l-3.459 6e-3c-8e-3 -4.768-3.894-8.64-8.662-8.632-6.351 0.012-8.851 3.809-11.024 10.365-0.685 2.07-1.377 3.74-1.986 5.214-1.46 3.528-2.515 6.078-2.505 11.541 0.013 7.31 5.97 13.246 13.28 13.234 7.31-0.013 13.247-5.97 13.234-13.281l3.459-6e-3c0.015 9.217-7.47 16.729-16.687 16.745-9.216 0.017-16.728-7.468-16.745-16.686-0.011-6.153 1.277-9.266 2.768-12.869 0.616-1.489 1.253-3.029 1.899-4.981 1-3.017 2.226-6.146 4.403-8.587 2.484-2.784 5.721-4.14 9.898-4.148" fill="#0073ca"/></g><g transform="matrix(.35278 0 0 -.35278 -178.05 69.989)"><path d="m0 0c1.691-3e-3 3.282 0.652 4.48 1.846 1.198 1.193 1.859 2.782 1.862 4.473 3e-3 1.692-0.653 3.283-1.846 4.48l-0.323 0.325c-0.706 0.708-0.739 1.98-0.071 2.779 1.462 1.751 2.271 3.975 2.275 6.26l-3.458 7e-3c-3e-3 -1.48-0.525-2.917-1.472-4.049-1.825-2.184-1.705-5.452 0.275-7.439l0.324-0.325c0.541-0.543 0.839-1.264 0.837-2.032-1e-3 -0.766-0.301-1.487-0.844-2.029-0.544-0.541-1.266-0.839-2.033-0.837z" fill="#0073ca"/></g><g transform="matrix(.35278 0 0 -.35278 -219.93 54.408)"><path d="m0 0-7e-3 3.459c4.133 7e-3 7.489 3.375 7.482 7.508s-3.375 7.488-7.508 7.481l-3.231-6e-3 -6e-3 3.459 3.231 6e-3c6.04 0.011 10.962-4.894 10.973-10.934 0.01-6.04-4.895-10.962-10.934-10.973" fill="#0073ca"/></g><g transform="matrix(.35278 0 0 -.35278 -215.27 47.283)"><path d="m0 0-3.459-6e-3c-6e-3 3.496-2.855 6.336-6.353 6.33-3.496-7e-3 -6.335-2.856-6.329-6.352l-3.459-6e-3c-9e-3 5.403 4.379 9.807 9.783 9.817 5.404 9e-3 9.807-4.38 9.817-9.783" fill="#0073ca"/></g><g transform="matrix(.35278 0 0 -.35278 -219.52 58.068)"><path d="m0 0c-6.675-0.012-12.115 5.409-12.127 12.084l3.458 6e-3c9e-3 -4.768 3.895-8.64 8.663-8.632 6.351 0.012 8.851 3.81 11.024 10.365 0.685 2.07 1.377 3.74 1.986 5.214 1.46 3.528 2.515 6.078 2.505 11.541-0.013 7.311-5.971 13.246-13.28 13.234-7.31-0.013-13.247-5.97-13.234-13.281l-3.459-6e-3c-0.016 9.217 7.469 16.729 16.687 16.746 9.216 0.016 16.728-7.469 16.745-16.687 0.011-6.153-1.277-9.266-2.768-12.869-0.616-1.489-1.253-3.029-1.899-4.98-1-3.018-2.226-6.147-4.403-8.588-2.484-2.783-5.721-4.14-9.898-4.147" fill="#0073ca"/></g><g transform="matrix(.35278 0 0 -.35278 -219.93 54.408)"><path d="m0 0c-1.691-3e-3 -3.282 0.652-4.48 1.847-1.198 1.193-1.86 2.781-1.863 4.472-3e-3 1.692 0.654 3.283 1.847 4.48l0.323 0.325c0.706 0.708 0.738 1.98 0.071 2.779-1.463 1.751-2.272 3.975-2.276 6.261l3.459 6e-3c3e-3 -1.479 0.525-2.917 1.472-4.049 1.825-2.184 1.705-5.452-0.276-7.439l-0.323-0.325c-0.542-0.543-0.839-1.264-0.838-2.032 2e-3 -0.766 0.302-1.487 0.845-2.028 0.544-0.542 1.266-0.84 2.032-0.838z" fill="#0073ca"/></g><g transform="matrix(.35278 0 0 -.35278 -223.19 66.611)"><path d="m0 0c0.434-0.896 0.791-1.803 1.007-2.775 1.526-6.887 1.326 16.677 0.014 10.176-0.392-1.95-1.223-3.793-2.253-5.486-2.306-3.793-5.607-6.953-9.072-9.683-7.452-5.87-16.46-10.117-25.351-13.315-7.971-2.867-16.175-3.954-24.626-3.623-2.289 0.09-4.574 0.26-6.855 0.475-1.386 0.129-2.772 0.278-4.156 0.438-1.141 0.132-0.879 0.03-1.521 0.938-0.484 0.682-0.714 1.803-0.993 2.594-0.718 2.047-1.298 4.148-1.614 6.296-0.127 0.863-0.182 1.72-0.245 2.589 0.749-10.28-0.141-15.468 0.018-11.113 0.013 0.399 0.028 0.799 0.04 1.199 0.137 4.71 0.104 9.431 0.057 14.143-0.02 2.043-0.03 4.086-0.371 6.107-0.303 1.801-0.684 3.699-2.5 4.47-1.975 0.839-2.576 1.489-3.127 3.756v-15c2.901 1.887 3.196 6.037 3.268 9.164 0.114 5.027 0.165 10.09-0.015 15.117-0.07 1.963-0.299 3.923-0.82 5.82-1.076 3.914-3.745 6.165-6.492 8.99-3.645 3.749-7.33 7.561-10.336 11.855v-15c5.161 4.113 10.25 8.485 14.02 13.958 3.785 5.495 5.988 11.868 7.53 18.314 3.671 15.354 2.511 32.747 11.651 46.342 8.422 12.527 22.371 21.116 36.45 25.896 7.389 2.508 15.214 4.131 23.039 4.089 9.271-0.049 18.408-2.163 27.238-4.838 7.875-2.387 16.091-4.753 23.248-8.906 6.286-3.647 11.829-8.506 16.449-14.103 9.764-11.833 15.333-26.646 16.565-41.881 0.1-1.225 0.147-2.449 0.215-3.676 0.256-4.613 0.109 9.839 0.02 8.145-0.028-0.526-0.036-1.054-0.061-1.58-0.119-2.547-0.342-5.089-0.657-7.621-0.559-4.474-1.396-8.913-2.474-13.291-2.166-8.792-5.276-17.34-9.065-25.56-6.486-14.069-14.413-27.29-18.454-42.367-5.25-19.59-9.845-39.557-12.455-59.684-0.641-4.945-1.14-9.92-1.289-14.907-0.225-7.569-0.588-15.391 0.277-22.939 0.334-2.918 0.952-5.836 2.953-8.078 5.266-5.904 12.592-9.51 20.017-11.902 3.651-1.176 7.37-1.962 11.093-2.852 1.061-0.253 2.079-0.622 3.042-1.139 2.043-1.097 3.728-2.753 5.104-4.603 3.664-4.921 5.507-11.123 6.895-17.015 4.111-17.442 4.634-35.745 5.413-53.573 0.823-18.811 1.134-37.748 3.533-56.445 0.91-7.091 2.084-14.292 4.542-21.033 1.605-4.4 3.968-9.297 8.25-11.658 1.77-0.977 3.747-1.367 5.756-1.268 0.355 0.018-0.131 14.993 0 15-11.302-0.556-14.944 14.29-16.718 22.795-3.651 17.492-4.012 35.682-4.754 53.474-0.783 18.774-1.195 37.703-3.909 56.324-1.044 7.163-2.406 14.435-5.117 21.178-1.834 4.561-4.505 9.413-8.995 11.824-0.963 0.517-1.981 0.885-3.042 1.139-3.723 0.89-7.443 1.675-11.093 2.852-7.417 2.392-14.764 5.991-20.017 11.902-1.998 2.248-2.619 5.156-2.953 8.078-0.104 0.898-0.168 1.798-0.21 2.7-0.246 5.35-0.232-14.019 0.015-8.015 0.104 2.519 0.303 5.031 0.555 7.538 2.108 20.922 6.95 41.682 12.235 62.004 1.122 4.313 2.271 8.611 3.816 12.798 3.104 8.411 7.331 16.342 11.357 24.333 8.079 16.035 14.449 32.923 16.072 50.937 0.484 5.383 0.475 10.786 0.476 16.188 1e-3 5.394 0.035 10.803-0.478 16.179-0.746 7.798-2.579 15.45-5.619 22.676-5.644 13.422-15.299 25.458-28.124 32.599-7.173 3.994-15.372 6.335-23.204 8.67-8.831 2.632-17.988 4.683-27.25 4.599-15.305-0.137-30.999-6.006-43.407-14.799-6.037-4.279-11.644-9.519-15.668-15.773-4.325-6.723-6.23-14.599-7.493-22.401-2.313-14.279-2.94-29.864-11.599-42.094-3.737-5.278-8.696-9.524-13.721-13.53-0.147-0.117-0.055-2.367-0.053-2.196-0.019-1.768-0.023-3.537-0.022-5.304 0-1.768 3e-3 -3.536 0.022-5.304 5e-3 -0.48-0.208-1.823 0.053-2.196 2.368-3.382 5.175-6.443 8.01-9.435 2.374-2.506 5.6-4.926 7.39-7.897 0.737-1.223 1.208-2.608 1.551-3.988 0.183-0.737 0.325-1.484 0.433-2.235 0.062-0.428 0.107-0.856 0.153-1.286 0.62-5.858 0.619 16.438 0.04 11.264-0.298-2.662-0.738-5.779-3.182-7.369-0.132-0.085-0.056-2.415-0.054-2.197-0.018-1.767-0.022-3.536-0.021-5.303 1e-3 -2.338-0.481-5.208 0.075-7.5 0.485-1.995 1.028-2.911 2.857-3.669 1.831-0.76 2.313-2.162 2.684-4.079 0.147-0.756 0.254-1.523 0.316-2.292 0.522-6.486 0.212 16.594 3e-3 9.829-0.133-4.354-0.112-8.714-0.086-13.069 0.027-4.798 0.282-9.237 1.845-13.815 0.288-0.844 0.726-3.209 1.451-3.744 0.385-0.285 1.863-0.218 2.351-0.272 0.752-0.083 1.505-0.162 2.258-0.236 2.737-0.27 5.482-0.479 8.231-0.568 9.114-0.297 17.822 1.188 26.309 4.524 9.528 3.744 19.209 8.455 26.68 15.593 3.512 3.355 6.968 7.577 7.763 12.52 0.734 4.557 0.254 9.492 0.215 14.075-0.023 2.852-0.064 5.407-1.329 8.017 0.145-0.298-0.053-2.106-0.054-2.197-0.018-1.768-0.022-3.535-0.021-5.303 1e-3 -1.769 3e-3 -3.536 0.021-5.304 7e-3 -0.573-0.19-1.692 0.054-2.196" fill="#0073ca"/></g><g transform="matrix(.35278 0 0 -.35278 -177.53 77.974)"><path d="m0 0c-7.986-12.579 4.367-26.574 13.825-34.011 10.012-7.872 22.073-14.892 34.653-17.519 7.582-1.584 15.369-1.83 23.088-1.784 1.567 9e-3 3.111 0.846 3.886 2.228 1.938 3.454 3.698 7.128 4.622 10.998 0.652 2.726 0.824 5.521 1.075 8.301 0.031 0.339 0.223 1.833 0.066 0.809 0.098 0.644 0.211 1.284 0.356 1.917 0.144 0.624 0.297 1.259 0.517 1.862 0.291 0.797 0.406 1.131-0.489 0.286-0.308-0.29-0.147-0.039 0.26 0.036 0.177 0.033 0.36 0.056 0.534 0.1 0.742 0.186 1.475 0.449 2.136 0.841 2.071 1.23 3.062 3.386 3.851 5.552 0.498 1.365-0.022 3.447-1.157 4.378-0.026 0.022-0.805 0.723-0.35 0.237 0.432-0.46-0.155 0.248-0.23 0.396-0.506 0.993 0.193-0.836-0.114 0.309-0.068 0.259-0.135 0.517-0.201 0.777-0.309 1.231 0.023-0.831-0.089 0.495-0.031 0.376-0.047 0.753-0.054 1.13-0.015 0.789 0.025 1.576 0.101 2.361 0.04 0.422-0.057-0.223 0.066 0.492 0.069 0.403 0.149 0.802 0.237 1.201 0.175 0.785 0.387 1.561 0.64 2.324 0.124 0.369 0.25 0.738 0.397 1.098-0.284-0.694 0.269 0.531 0.278 0.549 0.129 0.249 0.272 0.49 0.407 0.736 0.063 0.114 0.811 1.145 0.181 0.373 2.098 2.575 5.36 4.523 7.895 6.654 3.206 2.695 6.399 5.46 9.175 8.607 1.606 1.824 1.807 4.556 0 6.365-3.808 3.806-7.402 7.575-10.164 11.958-2.667 4.231-4.117 8.148-5.229 13.173-2.826 12.777-1.275 25.972-3.016 38.876-0.894 6.631-2.724 13.025-6.114 18.834-3.043 5.218-6.966 9.983-11.33 14.147-9.117 8.702-20.303 15.269-32.22 19.317-13.726 4.663-27.837 4.195-41.957 1.751-12.587-2.178-25.213-4.742-36.001-11.941-21.495-14.343-32.765-39.081-33.988-64.403-0.694-14.381 1.622-28.918 5.718-42.68 1.84-6.183 3.494-12.194 4.595-18.563 1.025-5.922 2.003-11.919 4.214-17.54 1.181-3.003 2.57-5.913 4.426-8.561 1.877-2.677 4.095-5.107 6.145-7.651 3.677-4.565 7.152-9.292 10.453-14.137 6.578-9.656 12.434-19.798 17.566-30.293 9.582-19.596 16.513-40.448 21.19-61.747 4.179-19.034 6.43-37.477 7.06-57.068 0.486-15.149-0.04-30.374-2.02-45.41 0.172 1.314-0.018-0.106-0.056-0.374-0.043-0.308-0.088-0.617-0.133-0.925-0.117-0.8-0.239-1.601-0.366-2.4-0.219-1.369-0.453-2.735-0.706-4.099-0.445-2.403-0.947-4.798-1.534-7.171-0.477-1.92-1.005-3.831-1.637-5.706-0.258-0.763-0.56-1.508-0.832-2.266-0.255-0.707 0.55 1.165-5e-3 -1e-3 -0.142-0.298-0.277-0.599-0.428-0.893-0.239-0.469-0.527-0.904-0.786-1.36-0.521-0.918 0.26 0.746 0.263 0.317 1e-3 -0.102-0.33-0.363-0.404-0.433-4.215-3.991 2.157-10.347 6.363-6.364 2.166 2.051 3.312 5.212 4.278 7.943 1.415 4.003 2.364 8.176 3.172 12.338 2.609 13.432 3.682 27.195 3.941 40.86 0.345 18.288-0.961 36.581-3.671 54.666-3.12 20.825-8.293 41.37-15.749 61.072-8.192 21.646-19.015 42.297-32.757 60.945-3.635 4.93-7.811 9.482-11.391 14.435-3.424 4.737-5.165 10.249-6.378 15.907-1.267 5.914-1.978 11.939-3.423 17.818-1.605 6.536-3.952 12.843-5.403 19.434-5.459 24.788-3.644 52.413 12.479 73.041 6.65 8.508 15.512 15.701 25.752 19.361 6.125 2.189 12.703 3.336 19.077 4.555 7.044 1.348 14.167 2.314 21.353 2.244 12.291-0.12 24.092-4.288 34.543-10.6 9.764-5.898 18.783-14.013 24.014-24.291 5.781-11.36 4.391-25.022 5.007-37.341 0.566-11.354 2.478-23.028 8.977-32.617 3.096-4.567 6.856-8.63 10.747-12.522v6.365c-3.117-3.535-6.752-6.605-10.372-9.607-3.021-2.505-6.544-4.699-8.492-8.211-1.973-3.556-2.962-7.73-3.134-11.775-0.159-3.744 0.585-8.354 3.659-10.875-0.385 1.46-0.771 2.919-1.157 4.379-0.727-1.997 0.558 0.818 0.832 0.03 9e-3 -0.024-1.152-0.255-1.2-0.267-1.664-0.436-3.013-1.359-4.046-2.725-2.067-2.734-2.651-6.422-3.029-9.748-0.123-1.081-0.192-2.168-0.284-3.252-0.048-0.561-0.104-1.119-0.166-1.678 0.108 0.976 4e-3 0.027-0.033-0.176-0.061-0.342-0.119-0.686-0.188-1.028-0.712-3.485-2.175-6.621-3.906-9.708 1.295 0.742 2.59 1.485 3.885 2.229-5.927-0.036-12.627 0.086-17.974 0.959-4.927 0.802-10.217 2.391-14.314 4.281-5.579 2.574-10.878 5.813-15.982 9.22-4.664 3.115-9.135 6.96-12.567 11.452-1.876 2.455-3.313 4.89-3.998 7.67-0.525 2.137-0.327 4.037 1.04 6.19 3.113 4.904-4.672 9.424-7.771 4.542" fill="#0073ca"/></g><g transform="matrix(.35278 0 0 -.35278 -163.07 167.1)"><path d="m0 0c0-32.319-26.2-58.519-58.519-58.519-32.318 0-58.517 26.2-58.517 58.519 0 32.318 26.199 58.518 58.517 58.518 32.319 0 58.519-26.2 58.519-58.518" fill="#fff"/></g><g transform="matrix(.35278 0 0 -.35278 -163.07 167.1)"><path d="m0 0c0-32.319-26.2-58.519-58.519-58.519-32.318 0-58.517 26.2-58.517 58.519 0 32.318 26.199 58.518 58.517 58.518 32.319 0 58.519-26.2 58.519-58.518z" fill="none" stroke="#0073ca" stroke-miterlimit="10" stroke-width="3"/></g><g transform="matrix(.35278 0 0 -.35278 50.767 182.14)"><path d="m0 0c0-32.319-26.199-58.519-58.519-58.519-32.318 0-58.517 26.2-58.517 58.519 0 32.318 26.199 58.518 58.517 58.518 32.32 0 58.519-26.2 58.519-58.518" fill="#fff"/></g><g transform="matrix(.35278 0 0 -.35278 50.767 182.14)"><path d="m0 0c0-32.319-26.199-58.519-58.519-58.519-32.318 0-58.517 26.2-58.517 58.519 0 32.318 26.199 58.518 58.517 58.518 32.32 0 58.519-26.2 58.519-58.518z" fill="none" stroke="#0073ca" stroke-miterlimit="10" stroke-width="3"/></g><g transform="matrix(.35278 0 0 -.35278 -274.21 208.8)"><g clip-path="url(#clipPath92)"><path d="m836.49 95.478h51.725v4.702h-51.725z" fill="url(#linearGradient102)"/></g></g><g transform="matrix(.35278 0 0 -.35278 -274.21 208.8)"><g clip-path="url(#clipPath112)"><path d="m836.49 90.777h51.725v4.702h-51.725z" fill="url(#linearGradient122)"/></g></g><g transform="matrix(.35278 0 0 -.35278 -274.21 208.8)"><g clip-path="url(#clipPath132)"><path d="m839.7 76.669h9.404v9.405h-9.404z" fill="url(#linearGradient16708)"/></g></g><g transform="matrix(.35278 0 0 -.35278 -274.21 208.8)"><g clip-path="url(#clipPath152)"><path d="m839.7 62.563h9.404v9.404h-9.404z" fill="url(#linearGradient16708)"/></g></g><g transform="matrix(.35278 0 0 -.35278 -274.21 208.8)"><g clip-path="url(#clipPath172)"><path d="m839.7 48.455h9.404v9.404h-9.404z" fill="url(#linearGradient16708)"/></g></g><g transform="matrix(.35278 0 0 -.35278 -274.21 208.8)"><g clip-path="url(#clipPath192)"><path d="m853.8 76.669h9.404v9.405h-9.404z" fill="url(#linearGradient16714)"/></g></g><g transform="matrix(.35278 0 0 -.35278 -274.21 208.8)"><g clip-path="url(#clipPath212)"><path d="m853.8 62.563h9.404v9.404h-9.404z" fill="url(#linearGradient16714)"/></g></g><g transform="matrix(.35278 0 0 -.35278 -274.21 208.8)"><g clip-path="url(#clipPath232)"><path d="m853.8 48.455h9.404v9.404h-9.404z" fill="url(#linearGradient16714)"/></g></g><g transform="matrix(.35278 0 0 -.35278 -274.21 208.8)"><g clip-path="url(#clipPath252)"><path d="m867.91 76.669h9.404v9.405h-9.404z" fill="url(#linearGradient16720)"/></g></g><g transform="matrix(.35278 0 0 -.35278 -274.21 208.8)"><g clip-path="url(#clipPath272)"><path d="m867.91 62.563h9.404v9.404h-9.404z" fill="url(#linearGradient16720)"/></g></g><g transform="matrix(.35278 0 0 -.35278 -274.21 208.8)"><g clip-path="url(#clipPath292)"><path d="m867.91 48.455h9.404v9.404h-9.404z" fill="url(#linearGradient16720)"/></g></g><g transform="matrix(.35278 0 0 -.35278 -274.21 208.8)"><g clip-path="url(#clipPath312)"><path d="m882.02 76.669h9.404v9.405h-9.404z" fill="url(#linearGradient16726)"/></g></g><g transform="matrix(.35278 0 0 -.35278 -274.21 208.8)"><g clip-path="url(#clipPath332)"><path d="m882.02 62.563h9.404v9.404h-9.404z" fill="url(#linearGradient16726)"/></g></g><g transform="matrix(.35278 0 0 -.35278 -274.21 208.8)"><g clip-path="url(#clipPath352)"><path d="m882.02 48.455h9.404v9.404h-9.404z" fill="url(#linearGradient16726)"/></g></g><g transform="matrix(.35278 0 0 -.35278 -274.21 208.8)"><g clip-path="url(#clipPath372)"><g transform="matrix(1.0469 0 0 -1.0452 867.58 75.166)"><g clip-path="url(#clipPath382)"><g transform="translate(-7.6357 -21.898)"><path d="m0 0v-2.074h5.845v2.074c0 1.098 0.899 2 2 2h0.5c1.099 0 2-0.902 2-2v-2.074h5.845v2.074c0 1.098 0.899 2 2 2h0.5c1.1 0 2-0.902 2-2v-2.074h1.192l3.807 3.738v5.98h4v-7.66l-6.172-6.058h-2.827v-2.028c0-1.097-0.9-2-2-2h-0.5c-1.101 0-2 0.903-2 2v2.028h-5.845v-2.028c0-1.097-0.901-2-2-2h-0.5c-1.101 0-2 0.903-2 2v2.028h-5.845v-2.028c0-1.097-0.9-2-2-2h-0.5c-1.101 0-2 0.903-2 2v2.028h-5.845v-2.028c0-1.097-0.901-2-2-2h-0.5c-1.101 0-2 0.903-2 2v2.028h-9.466v59.972h17.666l1.002-4h-14.668v-51.972h5.466v2.074c0 1.098 0.899 2 2 2h0.5c1.099 0 2-0.902 2-2v-2.074h5.845v2.074c0 1.098 0.899 2 2 2h0.5c1.1 0 2-0.902 2-2" fill="#0073ca"/></g><g transform="translate(7.0269 20.734)"><path d="m0 0-4.996-4.996 16.726-16.727 4.996 4.996zm-10.429-3.357 8.81 8.808-8.272 2.072-2.583-2.718zm34.163-18.971-6.402-6.402c-1.556-1.559-4.074-1.586-5.597-0.067-1e-3 2e-3 -2e-3 4e-3 -4e-3 6e-3l-1e-3 -2e-3 -23.343 23.344-0.47 0.465-4.041 16.132 16.116-4.043 1.505-1.531 22.3-22.304h-2e-3c1e-3 -2e-3 3e-3 -2e-3 4e-3 -4e-3 1.52-1.52 1.491-4.039-0.065-5.594" fill="#0073ca"/></g></g></g><g transform="translate(739.49 75.549)"><path d="m0 0c0-32.319-26.199-58.519-58.518-58.519-32.318 0-58.518 26.2-58.518 58.519 0 32.318 26.2 58.518 58.518 58.518 32.319 0 58.518-26.2 58.518-58.518" fill="#fff"/></g><g transform="translate(739.49 75.549)"><path d="m0 0c0-32.319-26.199-58.519-58.518-58.519-32.318 0-58.518 26.2-58.518 58.519 0 32.318 26.2 58.518 58.518 58.518 32.319 0 58.518-26.2 58.518-58.518z" fill="none" stroke="#0073ca" stroke-miterlimit="10" stroke-width="3"/></g><g transform="translate(657.78 92.124)"><path d="m0 0c1.676 7.449 6.197 14.43 13.1 17.986 7.542 3.887 17.618 3.476 24.482-1.68 3.134-2.355 5.455-5.684 6.43-9.493 0.23-0.897 0.387-1.814 0.471-2.738 0.015-0.193 0.029-0.387 0.043-0.581 0.035-0.871 0.038-0.452 0.01 1.256-9e-3 3.149 2e-3 1.455-0.062 0.769-0.046-0.491-0.113-0.979-0.199-1.463-0.303-1.707-0.864-3.363-1.654-4.907-2.923-5.712-8.457-9.144-12.952-13.466-2.092-2.01-4.041-4.386-4.55-7.325-0.427-2.469-0.216-5.155-0.12-7.643 0.063-1.627 0.194-3.316 0.634-4.892v5h-5.745c-0.216 0-0.664-0.094-0.858 8e-3 -0.244 0.127-0.46 0.697-0.585 0.924-0.466 0.848-0.818 1.76-1.071 2.691-0.157 0.578-0.279 1.168-0.359 1.762-0.051 0.373-0.07 0.747-0.112 1.12 0.526-4.636-0.112-4.183 0.037-2.57 0.089 0.953 0.274 1.897 0.554 2.812 2.111 6.887 9.013 10.289 13.678 15.202 2.778 2.927 4.172 6.196 4.213 10.232 0.011 1.179 0.013 2.357 0 3.535-9e-3 0.726-0.026 0.96-0.035 0-0.034-3.298-2.133-6.718-4.604-9.204-2.561-2.578-5.562-4.665-8.183-7.18-2.692-2.583-4.883-5.666-5.497-9.42-0.434-2.664-0.324-5.55-0.176-8.228 0.116-2.101 0.641-4.238 1.729-6.057 0.152-0.255 0.277-0.522 0.523-0.627 0.49-0.207 1.451 0 1.981 0h4.51c-0.021 0 0.118 4.577 0 5-0.408 1.466-0.476 2.989-0.612 4.494 0.464-5.132-0.131-3.802 2e-3 -2.685 0.021 0.174 0.038 0.347 0.063 0.521 0.046 0.306 0.107 0.61 0.184 0.91 0.167 0.657 0.409 1.292 0.707 1.901 1.195 2.439 3.234 4.371 5.246 6.14 4.738 4.166 10.171 8.044 12.344 14.25 0.584 1.664 0.896 3.409 0.978 5.169 0.114 2.439 0.157 4.95-0.048 7.385-0.333 3.968-2.02 7.7-4.806 10.549-6.013 6.152-15.915 7.534-23.832 4.724-8.361-2.969-13.956-10.723-15.859-19.181-0.171-0.759-0.024-1.724-0.024-2.5 0-0.77 0.193-1.748 0.024-2.5" fill="#0073ca"/></g><g transform="translate(687.29 46.424)"><path d="m0 0c8e-3 0.646-0.021-0.075-0.038-0.214-0.022-0.182-0.051-0.364-0.086-0.545-0.068-0.35-0.163-0.696-0.283-1.033-0.233-0.646-0.562-1.259-0.98-1.804-0.801-1.043-1.914-1.814-3.159-2.225-2.601-0.86-5.691-0.23-7.552 1.836-0.939 1.044-1.506 2.381-1.672 3.771-6e-3 0.062-0.013 0.124-0.02 0.186-0.061 0.962-0.067 0.382-0.021-1.74v-2.027c8e-3 0.158 0.022 0.316 0.041 0.474 0.043 0.361 0.113 0.719 0.209 1.071 0.185 0.67 0.468 1.313 0.847 1.896 1.526 2.348 4.413 3.361 7.121 2.899 1.485-0.253 2.871-0.973 3.882-2.095 0.516-0.572 0.923-1.235 1.21-1.948 0.144-0.357 0.257-0.726 0.34-1.101 0.04-0.178 0.072-0.358 0.099-0.539 0.019-0.133 0.071-1.082 0.062-0.397-1e-3 0.114 5e-3 -0.733 0.018-0.733s0.019 0.847 0.018 0.733c0.012 1.178 0.014 2.356 0 3.535-0.019 1.655-0.207 3.226-1.13 4.646-0.81 1.247-2.042 2.174-3.452 2.64-2.919 0.963-6.38 0.035-8.121-2.57-0.935-1.399-1.157-2.973-1.176-4.619-0.017-1.665-0.097-3.368 0.045-5.032 0.068-0.778 0.248-1.544 0.559-2.263 1.268-2.936 4.466-4.388 7.555-3.897 1.662 0.264 3.199 1.106 4.245 2.433 1.186 1.505 1.453 3.265 1.475 5.127 0.014 1.178 0.012 2.356 0 3.535-1e-3 0.072-4e-3 0.732-0.018 0.732-0.015 0-0.018-0.789-0.018-0.732" fill="#0073ca"/></g><g transform="translate(1162.4 409.42)"><path d="m0 0c0.508-1.045 0.92-2.112 1.15-3.256 1.307-6.488 1.258 16.668-0.011 10.088-0.424-2.197-1.361-4.265-2.522-6.166-2.55-4.171-6.195-7.638-10.021-10.631-8.164-6.386-18.032-11.03-27.761-14.492-8.703-3.098-17.66-4.229-26.873-3.843-2.577 0.108-5.15 0.307-7.717 0.556-1.391 0.135-3.13 0.055-4.459 0.48-1.311 0.419-0.545 0.023-1.204 0.952-0.584 0.823-0.87 2.201-1.197 3.154-0.745 2.167-1.341 4.389-1.667 6.66-0.144 1.002-0.212 2.003-0.266 3.013 0.989-18.508-0.123-15.325 0.027-11.12 0.017 0.497 0.035 0.995 0.049 1.494 0.135 4.747 0.106 9.505 0.055 14.254-0.024 2.31-0.053 4.618-0.494 6.894-0.377 1.94-0.896 3.604-2.791 4.396-2.049 0.855-2.694 1.736-3.252 4.044v-15c3.184 2.068 3.492 6.638 3.565 10.064 0.109 5.105 0.192 10.258-0.027 15.361-0.09 2.086-0.355 4.17-0.922 6.183-1.224 4.339-4.341 6.884-7.385 10.022-3.858 3.98-7.749 8.029-10.933 12.581v-15.001c5.555 4.428 11.035 9.129 15.131 14.993 4.078 5.839 6.488 12.591 8.192 19.46 4.103 16.534 2.844 35.095 12.079 50.04 8.465 13.699 23.409 23.19 38.23 28.677 7.642 2.83 15.768 4.791 23.925 5.213 9.9 0.512 19.773-1.388 29.268-4.034 8.753-2.439 17.951-5.048 26.102-9.124 6.787-3.393 12.88-8.085 18.075-13.601 10.804-11.475 17.779-26.373 20.298-41.886 0.361-2.224 0.64-4.459 0.837-6.703 0.128-1.451 0.208-2.903 0.279-4.357 0.154-3.186-0.577-6.604 0.048 7.813-0.033-0.732-0.044-1.462-0.078-2.194-0.227-4.978-0.819-9.937-1.7-14.842-1.707-9.502-4.508-18.793-8.083-27.755-6.974-17.484-17.801-33.367-22.889-51.605-5.467-19.594-9.974-39.608-13.162-59.697-2.203-13.891-2.871-27.536-2.646-41.607 0.061-3.792 0.146-7.765 1.328-11.407 1.634-5.033 6.836-8.587 11.138-11.196 7.138-4.332 15.299-6.717 23.401-8.484 2.836-0.62 5.322-1.441 7.584-3.329 4.579-3.826 6.985-9.817 8.652-15.381 2.396-8 3.482-16.381 4.259-24.675 0.941-10.043 1.309-20.136 1.576-30.217 0.531-20.057 0.32-40.216 2.324-60.2 0.771-7.693 1.824-15.528 4.327-22.876 1.646-4.831 4.151-10.191 8.838-12.752 1.984-1.084 4.206-1.493 6.452-1.382 0.356 0.018-0.132 14.993 0 15-12.553-0.62-16.242 15.383-17.967 24.889-3.385 18.657-3.224 37.955-3.601 56.849-0.394 19.668-0.356 39.67-3.663 59.12-1.187 6.988-2.806 14.241-6.305 20.479-1.302 2.321-2.912 4.515-4.977 6.216-2.356 1.94-4.927 2.691-7.858 3.338-8.099 1.785-16.241 4.212-23.35 8.594-4.197 2.588-9.232 6.083-10.83 11.007-0.517 1.595-0.796 3.267-0.983 4.93-0.116 1.023-0.187 2.05-0.232 3.078-0.236 5.454-0.242-14.4 0.016-7.805 0.217 5.53 0.832 11.041 1.584 16.521 2.922 21.281 7.761 42.391 13.316 63.13 4.3 16.048 12.608 30.174 19.607 45.109 8.016 17.107 13.44 35.621 13.961 54.593 0.31 11.29 0.563 22.879-1.414 34.051-1.374 7.754-3.87 15.301-7.397 22.343-6.913 13.805-17.91 25.837-31.987 32.485-8.356 3.945-17.68 6.614-26.588 8.997-9.371 2.506-19.116 4.192-28.845 3.486-16.13-1.172-32.352-7.645-45.237-17.335-6.226-4.681-12.028-10.38-16.024-17.118-4.381-7.393-6.264-15.897-7.571-24.301-2.382-15.311-3.281-31.977-12.634-45.013-4.057-5.656-9.396-10.222-14.806-14.534-0.147-0.118-0.055-2.368-0.053-2.198-0.02-1.767-0.023-3.535-0.022-5.302 1e-3 -1.768 3e-3 -3.537 0.022-5.304 5e-3 -0.482-0.208-1.823 0.053-2.197 2.642-3.776 5.789-7.187 8.958-10.523 2.519-2.652 5.912-5.208 7.82-8.348 0.789-1.298 1.3-2.769 1.675-4.235 0.224-0.872 0.393-1.759 0.52-2.65 0.072-0.504 0.126-1.01 0.166-1.519 0.37-4.623-1.801-6.175 0.049 11.293-0.313-2.957-0.764-6.461-3.486-8.228-0.132-0.085-0.056-2.415-0.053-2.197-0.019-1.767-0.023-3.536-0.022-5.303 1e-3 -2.34-0.48-5.206 0.075-7.5 0.491-2.031 1.05-3.188 2.969-3.957 1.893-0.761 2.506-1.909 2.967-3.958 0.22-0.977 0.364-1.98 0.448-2.977 0.546-6.525 0.241 15.96 0.031 9.915-0.143-4.093-0.13-8.191-0.118-12.286 0.015-5.39 0.114-10.473 1.797-15.644 0.342-1.05 0.925-4.09 1.8-4.734 0.412-0.303 1.984-0.232 2.505-0.289 0.803-0.089 1.606-0.174 2.409-0.253 2.925-0.289 5.858-0.517 8.796-0.62 9.91-0.352 19.409 1.192 28.655 4.791 10.43 4.059 21.024 9.2 29.238 16.948 3.823 3.608 7.572 8.113 8.596 13.419 0.864 4.476 0.339 9.5 0.311 14.014-0.019 3.249-7e-3 6.179-1.45 9.154 0.145-0.297-0.052-2.106-0.053-2.196-0.018-1.768-0.022-3.536-0.021-5.304 0-1.768 3e-3 -3.535 0.021-5.303 6e-3 -0.574-0.191-1.693 0.053-2.197" fill="#0073ca"/></g><g transform="translate(1297.5 347.7)"><path d="m0 0c-8.653-13.564 4.945-28.71 15.112-36.679 5.929-4.646 12.458-8.688 19.145-12.151 5.801-3.004 11.928-5.427 18.333-6.77 8.249-1.729 16.723-1.993 25.124-1.942 1.567 0.01 3.109 0.848 3.886 2.229 2.129 3.791 4.054 7.824 5.043 12.079 0.676 2.916 0.851 5.898 1.125 8.868 0.031 0.345 0.255 2.008 0.085 0.946 0.111 0.692 0.23 1.382 0.389 2.066 0.173 0.746 0.356 1.518 0.631 2.234 0.103 0.266 0.347 0.573 0.393 0.842 0.067 0.398-0.198-0.16-0.485-0.39-0.613-0.489-0.635-0.168-0.046-0.069 0.215 0.035 0.437 0.07 0.648 0.123 0.773 0.194 1.536 0.468 2.233 0.863 2.176 1.233 3.238 3.594 4.045 5.83 0.492 1.363-0.016 3.451-1.157 4.379-0.258 0.209-0.468 0.422-0.7 0.656 0.689-0.696 0.123-0.093-0.045 0.207-0.424 0.759 0.078-0.693-0.097 0.28-0.057 0.315-0.164 0.639-0.246 0.948-0.045 0.199-0.083 0.398-0.115 0.599 0.052-0.436 0.06-0.486 0.026-0.15-0.032 0.364-0.057 0.728-0.069 1.093-0.031 0.92 0.01 1.839 0.091 2.755 0.217 2.471 1.148 5.914 2.901 8.265-0.577-0.774 0.604 0.527 0.871 0.754 0.684 0.582 1.398 1.133 2.095 1.699 1.814 1.47 3.625 2.946 5.412 4.45 3.452 2.905 6.893 5.887 9.879 9.28 1.606 1.824 1.81 4.555 0 6.364-5.019 5.017-9.457 9.727-12.762 15.895-1.506 2.812-2.343 4.984-3.269 8.259-1.003 3.539-1.697 7.19-2.125 10.843-2.064 17.581 0.977 36.136-7.102 52.574-7.097 14.439-20.655 25.739-34.678 33.111-7.033 3.697-14.571 6.663-22.334 8.403-9.527 2.136-19.356 2.042-28.999 0.828-9.482-1.193-19.067-2.977-28.301-5.46-7.329-1.97-14.343-5.313-20.55-9.67-13.015-9.132-22.78-22.119-28.785-36.773-6.905-16.851-8.13-35.744-5.83-53.668 1.233-9.606 3.351-19.052 6.298-28.276 2.78-8.7 4.545-17.597 6.854-26.42 1.17-4.473 2.57-8.866 4.362-13.13 1.923-4.574 4.406-8.771 6.897-13.05 4.894-8.408 9.609-16.923 14.107-25.551 7.688-14.744 14.773-29.822 20.868-45.297 5.097-12.939 9.544-26.148 13.03-39.614 1.479-5.71 2.782-11.466 3.876-17.262 0.506-2.683 0.968-5.376 1.38-8.075 0.092-0.604 0.182-1.208 0.27-1.812 0.04-0.284 0.302-2.18 0.17-1.19 0.173-1.298 0.333-2.597 0.481-3.899 1.041-9.127 1.48-18.336 1.082-27.518-0.166-3.841-0.494-7.669-0.963-11.484-0.163-1.319 0.127 0.853-0.059-0.45-0.058-0.406-0.115-0.811-0.176-1.215-0.139-0.923-0.288-1.844-0.448-2.764-0.277-1.592-0.586-3.178-0.93-4.757-1.237-5.673-3.053-11.068-5.121-16.479 0.637 1.667-0.103-0.219-0.292-0.641-0.259-0.574-0.523-1.145-0.796-1.713-0.477-0.993-0.977-1.976-1.503-2.945-0.936-1.729-1.951-3.417-3.062-5.039-0.343-0.501-1.381-1.462-1.477-2.038 0.112 0.676 0.769 0.96 0.259 0.343-0.111-0.135-0.22-0.273-0.33-0.409-0.248-0.301-0.5-0.599-0.757-0.892-0.81-0.922-1.675-1.777-2.593-2.588-0.206-0.183-0.99-0.796-0.14-0.131 0.846 0.662 0.075 0.052-0.161-0.095-0.31-0.192-0.653-0.361-0.954-0.564-0.709-0.478 1.299 0.468 0.591 0.244-0.13-0.041-0.257-0.088-0.39-0.115 0.601 0.124 1.022 0.182 1.708-8e-3 0.9-0.251 1.789-0.911 2.272-1.741-0.193 0.332 0.539-1.512 0.354-0.788 0.083-0.325 0.133-1.576 0.142-0.827 8e-3 0.688-0.421-1.445-0.107-0.792 0.066 0.138 0.093 0.346 0.132 0.497 0.34 1.293-0.66-1.176 0.044 0.102 0.583 1.057 1.224 2.049 1.93 3.029 0.834 1.156-0.628-0.749 0.043 0.06 0.272 0.327 0.533 0.662 0.807 0.987 0.618 0.737 1.258 1.454 1.911 2.16 1.53 1.651 3.14 3.228 4.788 4.761 4.251 3.952-2.124 10.306-6.363 6.364-3.247-3.019-6.322-6.216-8.956-9.79-1.541-2.087-3.138-4.586-3.22-7.264-0.117-3.799 3.397-6.421 7.019-5.402 2.375 0.669 4.41 2.367 6.128 4.068 5.981 5.92 9.886 13.917 12.811 21.689 4.964 13.192 6.835 27.54 6.993 41.573 0.245 21.707-3.693 43.427-9.63 64.241-8.804 30.867-22.159 60.399-37.432 88.565-2.37 4.368-4.79 8.707-7.261 13.019-2.515 4.389-5.294 8.675-7.5 13.231-3.885 8.025-5.714 16.864-7.709 25.496-2.122 9.178-5.309 18.026-7.521 27.173-2.197 9.084-3.563 18.336-3.787 27.686-0.407 17.084 3.112 34.185 12.144 48.812 7.573 12.266 18.947 22.847 32.539 27.805 3.931 1.434 7.999 2.31 12.078 3.21 4.673 1.03 9.36 2.004 14.081 2.785 9.061 1.499 18.62 2.361 27.74 0.871 15.438-2.522 30.464-10.289 41.898-20.888 5.663-5.248 10.908-11.5 13.956-18.668 3.244-7.628 3.853-16.065 4.133-24.25 0.543-15.952 0.105-32.893 8.361-47.179 3.558-6.16 8.467-11.464 13.473-16.467v6.364c-3.392-3.852-7.354-7.193-11.296-10.463-3.263-2.707-7.098-5.079-9.206-8.868-2.157-3.876-3.238-8.463-3.383-12.877-0.128-3.909 0.655-8.735 3.881-11.356-0.386 1.459-0.772 2.919-1.158 4.378-0.044-0.119-0.403-1.087-0.515-1.046-0.091 0.033 0.852 0.671 0.888 0.699 0.389 0.31 0.114 0.029-0.235-0.035-0.215-0.04-0.435-0.07-0.647-0.123-1.934-0.487-3.452-1.529-4.607-3.158-2.019-2.853-2.611-6.711-2.992-10.113-0.131-1.175-0.207-2.355-0.308-3.533-0.03-0.361-0.065-0.723-0.099-1.084-0.011-0.124-0.129-1.159-0.049-0.519 0.081 0.647-0.066-0.436-0.088-0.558-0.058-0.337-0.117-0.672-0.184-1.007-0.781-3.862-2.398-7.348-4.318-10.766 1.296 0.744 2.591 1.487 3.886 2.229-3.757-0.022-7.516 0.014-11.268 0.22-3.029 0.167-6.041 0.444-8.565 0.86-2.784 0.459-5.541 1.086-8.241 1.908-2.694 0.821-5.173 1.781-7.34 2.78-6.222 2.867-12.152 6.482-17.821 10.314-4.983 3.367-9.955 7.666-13.583 12.522-2.088 2.794-3.639 5.452-4.361 8.585-0.184 0.801-0.318 2.346-0.207 3.246 0.155 1.246 0.603 2.247 1.443 3.565 3.125 4.897-4.662 9.416-7.771 4.542" fill="#0073ca"/></g><g transform="translate(1299.2 375.82)"><path d="m0 0 7e-3 3.772c-4.508 8e-3 -8.169 3.682-8.161 8.19s3.682 8.169 8.19 8.161l3.524-6e-3 6e-3 3.773-3.523 6e-3c-6.589 0.012-11.958-5.338-11.97-11.927-0.011-6.588 5.339-11.957 11.927-11.969" fill="#0073ca"/></g><g transform="translate(1284.8 397.85)"><path d="m0 0 3.773-7e-3c7e-3 3.815 3.116 6.912 6.929 6.905 3.815-6e-3 6.912-3.115 6.905-6.929l3.774-6e-3c0.01 5.894-4.777 10.698-10.672 10.708-5.895 0.011-10.698-4.776-10.709-10.671" fill="#0073ca"/></g><g transform="translate(1298 364.5)"><path d="m0 0c7.281-0.013 13.216 5.901 13.229 13.183l-3.773 6e-3c-9e-3 -5.201-4.248-9.425-9.449-9.416-6.928 0.012-9.654 4.155-12.025 11.306-0.748 2.258-1.502 4.08-2.167 5.689-1.592 3.848-2.743 6.628-2.732 12.588 0.014 7.974 6.513 14.45 14.486 14.436 7.974-0.015 14.45-6.513 14.436-14.486l3.772-7e-3c0.019 10.054-8.147 18.248-18.201 18.265-10.055 0.018-18.248-8.147-18.266-18.201-0.012-6.713 1.392-10.107 3.019-14.038 0.672-1.625 1.366-3.304 2.071-5.432 1.092-3.293 2.429-6.706 4.803-9.368 2.71-3.037 6.241-4.516 10.797-4.525" fill="#0073ca"/></g><g transform="translate(1299.2 375.82)"><path d="m0 0c1.845-4e-3 3.58 0.712 4.887 2.014 1.306 1.301 2.028 3.034 2.031 4.879 4e-3 1.844-0.712 3.581-2.014 4.886l-0.352 0.355c-0.771 0.772-0.806 2.161-0.078 3.031 1.596 1.91 2.478 4.336 2.483 6.83l-3.773 6e-3c-3e-3 -1.612-0.573-3.181-1.605-4.416-1.991-2.383-1.859-5.947 0.3-8.114l0.352-0.355c0.591-0.593 0.915-1.38 0.915-2.217-2e-3 -0.837-0.33-1.623-0.922-2.212-0.593-0.591-1.38-0.916-2.217-0.915z" fill="#0073ca"/></g><g transform="translate(1163.3 446.48)"><path d="m0 0-7e-3 3.772c4.508 8e-3 8.169 3.682 8.161 8.19-8e-3 4.509-3.681 8.17-8.189 8.161l-3.525-6e-3 -6e-3 3.774 3.524 5e-3c6.588 0.012 11.957-5.338 11.969-11.927 0.011-6.588-5.339-11.957-11.927-11.969" fill="#0073ca"/></g><g transform="translate(1177.7 468.51)"><path d="m0 0-3.773-7e-3c-6e-3 3.815-3.116 6.912-6.929 6.905-3.815-6e-3 -6.912-3.115-6.905-6.929l-3.773-6e-3c-0.011 5.894 4.776 10.698 10.671 10.709 5.895 0.01 10.698-4.777 10.709-10.672" fill="#0073ca"/></g><g transform="translate(1164.6 435.16)"><path d="m0 0c-7.281-0.014-13.216 5.9-13.229 13.182l3.773 6e-3c0.01-5.201 4.248-9.424 9.449-9.416 6.928 0.013 9.655 4.155 12.025 11.306 0.748 2.258 1.502 4.08 2.168 5.689 1.591 3.848 2.742 6.629 2.731 12.588-0.014 7.974-6.513 14.45-14.486 14.436-7.974-0.015-14.45-6.513-14.436-14.486l-3.772-7e-3c-0.018 10.054 8.147 18.248 18.201 18.265 10.055 0.018 18.249-8.147 18.266-18.201 0.012-6.713-1.392-10.107-3.018-14.038-0.673-1.625-1.367-3.304-2.072-5.432-1.091-3.292-2.428-6.706-4.803-9.368-2.709-3.037-6.241-4.516-10.797-4.524" fill="#0073ca"/></g><g transform="translate(1163.3 446.48)"><path d="m0 0c-1.845-4e-3 -3.58 0.712-4.887 2.014-1.306 1.301-2.028 3.035-2.031 4.88-3e-3 1.844 0.712 3.58 2.014 4.885l0.352 0.355c0.771 0.772 0.806 2.161 0.078 3.032-1.596 1.91-2.478 4.335-2.483 6.829l3.773 6e-3c3e-3 -1.612 0.574-3.181 1.605-4.416 1.992-2.383 1.86-5.947-0.3-8.114l-0.352-0.355c-0.591-0.593-0.915-1.38-0.915-2.217 2e-3 -0.837 0.33-1.622 0.922-2.212 0.593-0.591 1.38-0.916 2.217-0.915z" fill="#0073ca"/></g><g transform="translate(1121.8 95.102)"><path d="m0 0c0-32.318-26.2-58.519-58.519-58.519-32.318 0-58.518 26.201-58.518 58.519s26.2 58.519 58.518 58.519c32.319 0 58.519-26.201 58.519-58.519" fill="#fff"/></g><g transform="translate(1121.8 95.102)"><path d="m0 0c0-32.318-26.2-58.519-58.519-58.519-32.318 0-58.518 26.201-58.518 58.519s26.2 58.519 58.518 58.519c32.319 0 58.519-26.201 58.519-58.519z" fill="none" stroke="#0073ca" stroke-miterlimit="10" stroke-width="3"/></g><g transform="translate(1094.8 63.651)"><path d="m0 0h-61.771c-0.622 0-1.145 0.53-1.145 1.149v40.382h64.06v-40.382c0-0.619-0.523-1.149-1.144-1.149m-55.94 62.871c0 1.899 1.537 3.446 3.431 3.446h0.085c1.89 0 3.432-1.547 3.432-3.446v-10.219c0-1.898-1.542-3.447-3.432-3.447h-0.085c-1.894 0-3.431 1.549-3.431 3.447zm43.156 0c0 1.899 1.537 3.446 3.431 3.446h0.085c1.89 0 3.432-1.547 3.432-3.446v-10.219c0-1.898-1.542-3.447-3.432-3.447h-0.085c-1.894 0-3.431 1.549-3.431 3.447zm12.784-1.055h-3.548v1.055c0 3.159-2.574 5.744-5.72 5.744h-0.085c-3.145 0-5.719-2.585-5.719-5.744v-1.055h-31.632v1.055c0 3.159-2.574 5.744-5.72 5.744h-0.085c-3.145 0-5.72-2.585-5.72-5.744v-1.055h-3.542c-3.147 0-5.72-2.585-5.72-5.744v-54.923c0-3.16 2.573-5.745 5.72-5.745h61.771c3.146 0 5.72 2.585 5.72 5.745v54.923c0 3.159-2.574 5.744-5.72 5.744" fill="#0073ca"/></g></g></g><g transform="matrix(.35278 0 0 -.35278 -274.21 208.8)"><g clip-path="url(#clipPath624)"><g transform="translate(1335.1 137.07)"><path d="m0 0c0-34.043-27.597-61.641-61.64-61.641s-61.639 27.598-61.639 61.641 27.596 61.64 61.639 61.64 61.64-27.597 61.64-61.64" fill="#fff"/></g><g transform="translate(1335.1 137.07)"><path d="m0 0c0-34.043-27.597-61.641-61.64-61.641s-61.639 27.598-61.639 61.641 27.596 61.64 61.639 61.64 61.64-27.597 61.64-61.64z" fill="none" stroke="#0073ca" stroke-miterlimit="10" stroke-width="3"/></g><g transform="matrix(-1.2905 0 0 1.2674 1272.9 138.36)"><g clip-path="url(#clipPath642)"><g transform="translate(-33.088 -9.7197)"><path d="m0 0v19.491h13.394l16.707 13.051v-45.591l-16.706 13.049z" fill="#0073ca"/></g><g transform="translate(17.181 -31.176)"><path d="m0 0-3.928 6.182c7.149 3.078 12.569 13.287 12.569 25.02 0 11.633-5.328 21.767-12.386 24.94l3.843 6.211c9.233-4.712 15.809-16.879 15.809-31.151 0-14.322-6.622-26.528-15.907-31.202" fill="#0073ca"/></g><g transform="translate(9.541 -19.154)"><path d="m0 0-3.845 6.051c3.167 2.825 5.314 7.704 5.314 13.129 0 5.266-2.02 10.022-5.036 12.881l3.791 6.126c5.123-4.05 8.512-11.047 8.512-19.007 0-8.075-3.488-15.159-8.736-19.18" fill="#0073ca"/></g></g></g><g transform="translate(223.62 134.93)"><path d="m0 0c-2.803 0-5.437-1.091-7.419-3.073-4.092-4.092-4.092-10.751 0-14.843 2.699-2.7 5.199-4.904 7.617-7.035 3.521-3.104 6.847-6.035 10.387-10.112 3.539 4.077 6.865 7.008 10.386 10.112 2.418 2.131 4.918 4.335 7.617 7.035 4.092 4.092 4.092 10.751 0 14.843-1.982 1.982-4.616 3.073-7.419 3.073-6.061 0-8.264-4.301-8.285-4.345l-2.3-4.638-2.3 4.638c-0.081 0.156-2.34 4.345-8.284 4.345m10.584-43.378-2.028 2.618c-0.563 0.726-1.553 1.989-1.813 2.29-3.328 3.84-6.539 6.67-9.939 9.667-2.478 2.184-5.039 4.442-7.854 7.257-6.093 6.094-6.093 16.009 0 22.103 2.951 2.952 6.876 4.577 11.05 4.577 5.203 0 8.594-2.204 10.584-4.174 1.991 1.97 5.381 4.174 10.585 4.174 4.174 0 8.099-1.625 11.05-4.577 6.093-6.094 6.093-16.009 0-22.103-2.815-2.815-5.376-5.073-7.854-7.257-3.4-2.997-6.611-5.827-9.939-9.668-0.261-0.3-1.25-1.563-1.813-2.289z" fill="#0073ca"/></g><g transform="translate(268.41 126.81)"><path d="m0 0c-2.804 0-5.438-1.092-7.42-3.074-4.092-4.092-4.092-10.75 0-14.843 2.7-2.7 5.2-4.904 7.618-7.034 3.521-3.104 6.847-6.035 10.386-10.113 3.54 4.078 6.866 7.009 10.387 10.113 2.417 2.131 4.917 4.334 7.617 7.034 4.092 4.093 4.092 10.751 0 14.843-1.982 1.982-4.616 3.074-7.42 3.074-6.061 0-8.263-4.302-8.284-4.345l-2.3-4.639-2.3 4.639c-0.081 0.155-2.34 4.345-8.284 4.345m10.584-43.379-2.028 2.618c-0.563 0.726-1.553 1.99-1.814 2.291-3.327 3.839-6.539 6.67-9.938 9.667-2.478 2.184-5.039 4.442-7.854 7.256-6.093 6.094-6.093 16.009 0 22.103 2.95 2.952 6.875 4.578 11.05 4.578 5.203 0 8.593-2.204 10.584-4.175 1.991 1.971 5.381 4.175 10.584 4.175 4.175 0 8.1-1.626 11.051-4.578 6.092-6.094 6.092-16.009 0-22.103-2.815-2.814-5.376-5.072-7.854-7.256-3.4-2.997-6.612-5.828-9.939-9.668-0.261-0.3-1.251-1.564-1.814-2.29z" fill="#0073ca"/></g><g transform="translate(524.69 97.102)"><path d="m0 0c0-32.318-26.199-58.519-58.519-58.519-32.318 0-58.517 26.201-58.517 58.519s26.199 58.519 58.517 58.519c32.32 0 58.519-26.201 58.519-58.519" fill="#fff"/></g><g transform="translate(524.69 97.102)"><path d="m0 0c0-32.318-26.199-58.519-58.519-58.519-32.318 0-58.517 26.201-58.517 58.519s26.199 58.519 58.517 58.519c32.32 0 58.519-26.201 58.519-58.519z" fill="none" stroke="#0073ca" stroke-miterlimit="10" stroke-width="3"/></g><g transform="translate(447.55 93.805)"><path d="m0 0h-3e-3c-7.053-1e-3 -12.768-5.72-12.767-12.772 2e-3 -7.051 5.719-12.767 12.77-12.767h3e-3c7.053 2e-3 12.768 5.721 12.767 12.772-2e-3 7.052-5.718 12.768-12.77 12.767m1e-3 -5.473c4.021 0 7.295-3.272 7.296-7.295 1e-3 -1.949-0.758-3.781-2.136-5.16-1.378-1.378-3.21-2.137-5.161-2.138-4.022 0-7.296 3.273-7.297 7.295 0 1.95 0.758 3.782 2.136 5.161 1.378 1.378 3.211 2.137 5.158 2.137h4e-3" fill="#0073ca"/></g><g transform="translate(455.08 88.644)"><path d="m0 0-4.729 2.752 21.97 37.766 5.878-2.75c3.143-1.489 4.56-3.506 5.594-4.98 0.752-1.069 1.179-1.645 1.942-2.015 0.811-0.392 1.633-0.423 3.018-0.444 1.982-0.03 4.45-0.067 7.638-1.649l-2.434-4.903c-2.076 1.032-3.636 1.055-5.287 1.079-1.584 0.025-3.38 0.051-5.32 0.992-2.077 1.006-3.118 2.488-4.036 3.796-0.905 1.29-1.621 2.308-3.445 3.171l-1.334 0.625z" fill="#0073ca"/></g><g transform="translate(488.23 102.27)"><path d="m0 0c-1.463 0.692-2.851 0.693-4.457 0.693-1.957 0-4.176 1e-3 -6.536 1.296-2.306 1.266-3.421 2.955-4.317 4.312-0.782 1.184-1.347 2.042-2.662 2.683l-3.893 1.822 2.318 4.958 3.948-1.847c2.677-1.3 3.885-3.13 4.856-4.601 0.734-1.112 1.264-1.916 2.383-2.529 1.131-0.621 2.294-0.621 3.904-0.621 1.883 0 4.225-1e-3 6.799-1.221z" fill="#0073ca"/></g><g transform="translate(472.39 118.4)"><path d="m0 0-4.729 2.753 7.102 12.202 4.73-2.753z" fill="#0073ca"/></g></g></g></g></g></svg>
