<svg width="570" height="530" version="1.1" viewBox="0 0 150.81 140.23" xmlns="http://www.w3.org/2000/svg"><defs><clipPath id="clipPath566"><path d="m0 600h2200v-600h-2200z"/></clipPath><clipPath id="clipPath554"><path d="m581.68 335.15c0.58-90.239 73.151-162.92 162.09-162.32 88.938 0.589 163.27 74.279 159.98 164.46-3.282 90.078-77.514 162.73-161.02 162.33-0.358-1e-3 -0.719-1e-3 -1.076-3e-3l-5.449 0.405c-88.938-0.591-155.12-74.627-154.54-164.87"/></clipPath><clipPath id="clipPath474"><path d="m0 600h2200v-600h-2200z"/></clipPath></defs><g transform="translate(0 -156.77)"><g transform="matrix(1.0157 0 0 1.0157 9.5488 157.08)"><g transform="matrix(.35278 0 0 -.35278 -191.59 198.41)"><g clip-path="url(#clipPath474)"><g transform="translate(543.22 447.67)"><path d="m0 0c2.271 3.839 3.441 5.718 5.848 9.395 2.441-1.608 3.661-2.411 6.102-4.017 1.959-1.29 4.184-3.155 4.184-3.155 0.049 0.075 0.073 0.113 0.122 0.187 0 0-1.184 3.115-1.804 6.574-0.756 4.132-1.091 6.22-1.671 10.433 2.923 4.001 4.427 5.948 7.511 9.735 0.264-6.571 0.51-9.823 1.218-16.236 8.032 0.334 11.991 0.293 19.755-0.162-2.648-3.229-3.939-4.888-6.452-8.293-4.879 0.02-7.344-0.045-12.32-0.338 0.436-2.602 0.671-3.894 1.179-6.461 1.76-1.158 2.64-1.736 4.399-2.894-2.129-3.252-3.164-4.914-5.172-8.31-9.159 5.417-13.74 8.126-22.899 13.542"/></g><g transform="translate(589.11 472.76)"><path d="m0 0c1.803 1.949 1.077 4.063-1.135 6.204s-4.397 2.774-6.289 0.73c-1.89-2.046-1.112-4.201 1.173-6.261 2.286-2.061 4.447-2.623 6.251-0.673m-12.488-6.641c-5.108 4.203-3.708 11.569 1.353 17.04 5.062 5.473 12.133 7.28 16.682 2.472 4.55-4.808 2.766-11.362-1.836-16.338-4.602-4.975-11.092-7.378-16.199-3.174"/></g><g transform="translate(609.66 501.29)"><path d="m0 0c5.729-1.523 8.536-2.381 14.021-4.27-3.032-2.148-4.527-3.259-7.474-5.562-3.179 0.896-4.787 1.315-8.041 2.09-0.133-1.425-0.193-2.136-0.301-3.556 1.058-1.263 1.587-1.894 2.644-3.157-2.684-2.261-4.006-3.425-6.608-5.82-7.517 8.228-11.277 12.343-18.796 20.571 2.957 2.723 4.46 4.046 7.511 6.614 3.074-3.671 4.611-5.506 7.686-9.178 1.582-1.888 2.752-3.923 2.752-3.923 0.062 0.052 0.093 0.08 0.156 0.132 0 0-0.28 2.582-0.215 4.48 0.099 2.514 0.166 3.775 0.337 6.305 3.466 2.739 5.227 4.059 8.801 6.602-1.12-4.539-1.615-6.807-2.473-11.328"/></g><g transform="translate(623.69 511.63)"><path d="m0 0c2.551 1.658 3.838 2.462 6.437 4.021-1.012 1.682-3.042 1.678-4.61 0.702-1.349-0.841-2.619-2.483-1.827-4.723m2.267-3.67c1.72-2.187 3.817-1.564 5.392-0.585 1.656 1.03 2.412 2.511 1.896 3.95 3.118 0.427 4.671 0.607 7.757 0.899-0.578-2.953-2.84-6.324-7.089-8.967-5.665-3.522-12.162-3.834-15.991 1.568-3.828 5.403-0.979 11.809 5.069 15.577 6.05 3.769 12.335 2.936 14.933-1.786 0.892-1.619 1.059-2.843 1.059-2.843-5.302-2.922-7.911-4.484-13.026-7.813"/></g><g transform="translate(636.97 527.89)"><path d="m0 0c3.344 1.762 5.032 2.604 8.436 4.215 3.337-7.006 5.006-10.508 8.345-17.514-3.108-1.47-4.649-2.239-7.704-3.847-3.631 6.858-5.446 10.288-9.077 17.146m6.502 9.133c0.891-1.878-0.542-4.205-3.064-5.465-2.521-1.26-5.258-1.016-6.234 0.82-0.975 1.836 0.417 4.278 3.019 5.577 2.601 1.3 5.387 0.946 6.279-0.932"/></g><g transform="translate(646.45 541.9)"><path d="m0 0c3.563 1.589 5.359 2.344 8.977 3.775 4.138-10.347 6.208-15.521 10.347-25.869-3.182-1.26-4.762-1.924-7.898-3.321z"/></g><g transform="translate(663.08 539.55)"><path d="m0 0c3.471 1.287 5.217 1.894 8.73 3.033 1.403-4.269 2.104-6.404 3.507-10.674 0.529-1.608 1.368-2.621 3.201-2.049 1.834 0.571 2.353 1.841 1.776 3.757-1.278 4.244-1.917 6.365-3.196 10.609 3.537 1.05 5.314 1.539 8.884 2.441 1.93-7.511 2.894-11.265 4.823-18.777-3.26-0.824-4.884-1.27-8.114-2.23-0.211 1.222-0.316 1.833-0.523 3.055-0.073-0.021-0.109-0.032-0.183-0.054-0.744-2.146-1.938-4.254-5.488-5.435-4.081-1.359-7.362 0.183-8.984 4.507-1.773 4.726-2.66 7.09-4.433 11.817"/></g><g transform="translate(709.35 543.58)"><path d="m0 0c4.134-4.146 6.112-6.269 9.886-10.595-3.574-0.384-5.357-0.617-8.913-1.158-2.268 2.347-3.431 3.505-5.814 5.789-0.769-1.166-1.148-1.751-1.893-2.924 0.308-1.616 0.462-2.425 0.769-4.041-3.299-0.618-4.943-0.961-8.219-1.713-2.533 10.847-3.798 16.27-6.332 27.117 3.723 0.855 5.592 1.245 9.343 1.947 0.895-4.7 1.343-7.05 2.237-11.749 0.461-2.418 0.506-4.757 0.506-4.757 0.076 0.015 0.116 0.022 0.193 0.036 0 0 0.955 2.37 1.884 3.979 1.245 2.124 1.884 3.181 3.201 5.289 4.193 0.66 6.297 0.941 10.512 1.404-3.067-3.4-4.539-5.127-7.36-8.624"/></g><g transform="translate(719.15 552.46)"><path d="m0 0c3.692 0.365 5.543 0.51 9.246 0.724 0.456-7.738 0.685-11.606 1.14-19.343-3.381-0.195-5.071-0.328-8.444-0.661-0.777 7.712-1.166 11.568-1.942 19.28m9.3 6.002c0.119-2.072-2.051-3.689-4.815-3.906-2.763-0.217-5.165 1.043-5.376 3.108-0.212 2.067 1.955 3.797 4.807 4.02s5.265-1.149 5.384-3.222"/></g><g transform="translate(733.28 553.41)"><path d="m0 0c3.707 0.135 5.562 0.164 9.27 0.147-0.036-7.75-0.053-11.625-0.088-19.376-3.387 0.016-5.081-0.011-8.466-0.133-0.286 7.745-0.43 11.618-0.716 19.362m9.658 5.412c-0.012-2.075-2.281-3.555-5.051-3.6-2.771-0.043-5.086 1.364-5.166 3.438-0.08 2.075 2.192 3.667 5.05 3.713 2.859 0.045 5.18-1.474 5.167-3.551"/></g><g transform="translate(768.82 532.39)"><path d="m0 0c-3.324 0.44-4.99 0.627-8.327 0.933 0.418 4.471 0.627 6.707 1.044 11.178 0.158 1.684-0.322 2.971-2.307 3.13-1.885 0.151-2.946-0.786-3.166-2.582-0.307-4.526-0.46-6.79-0.766-11.315-3.343 0.221-5.017 0.299-8.365 0.385 0.295 11.13 0.442 16.695 0.738 27.824 3.805-0.099 5.708-0.186 9.506-0.439-0.182-2.7-0.274-4.05-0.457-6.751-0.166-2.454-0.722-4.73-0.722-4.73 0.08-5e-3 0.12-8e-3 0.201-0.013 1.526 1.75 3.7 3.313 7.767 2.91 4.676-0.462 7.161-3.46 6.542-8.032-0.674-4.999-1.012-7.499-1.688-12.498"/></g><g transform="translate(789.15 538.59)"><path d="m0 0c0.687 2.999-0.301 4.963-2.453 5.41s-3.85-0.958-4.436-3.977c-0.587-3.021 0.405-4.927 2.463-5.355 2.059-0.428 3.74 0.923 4.426 3.922m-1.475-6.449c-1.74-1.658-4.06-2.716-7.168-2.119-4.568 0.876-7.949 5.252-7.004 11.487 0.944 6.235 5.871 9.405 10.895 8.44 3.417-0.655 5.092-2.607 5.97-4.222 0.078-0.018 0.118-0.027 0.196-0.044 0.971 4.261 1.455 6.39 2.426 10.65 3.706-0.83 5.553-1.283 9.227-2.265-2.917-10.751-4.375-16.127-7.292-26.878-3.233 0.863-4.857 1.262-8.119 1.993 0.42 1.167 0.631 1.751 1.054 2.917-0.073 0.016-0.11 0.025-0.185 0.041"/></g><g transform="translate(811.42 529.86)"><path d="m0 0s1.662 2.683 3.197 4.752c1.605 2.175 2.417 3.257 4.064 5.409 3.593-1.307 5.379-2 8.922-3.465-6.296-6.092-9.312-9.232-15.069-15.674-2.579-2.905-5.368-4.734-9.532-4.429-1.92 2.455-2.912 3.672-4.963 6.076 2.601-0.273 5.372-0.224 6.983 1.682-0.812 8.415-1.381 12.64-2.846 21.097 3.808-1.058 5.703-1.631 9.468-2.859 0.011-2.578 6e-3 -3.865-0.027-6.437-0.037-2.585-0.381-6.089-0.381-6.089 0.074-0.025 0.111-0.038 0.184-0.063"/></g><g transform="translate(852.52 502.95)"><path d="m0 0c-0.877 0.061-3.606 0.482-6.136 1.998-4.241 2.542-5.714 5.759-3.655 9.504 1.61 2.928 2.415 4.393 4.025 7.32-1.105 0.605-1.66 0.904-2.772 1.491 0.954 1.795 1.431 2.693 2.384 4.488 1.138-0.602 1.705-0.907 2.836-1.527 0.683 1.242 1.024 1.863 1.707 3.104 4.01-0.51 6.027-0.816 10.079-1.535-1.499-2.478-2.249-3.716-3.748-6.193 1.86-1.124 2.784-1.697 4.621-2.87-1.095-1.713-1.642-2.569-2.737-4.282-1.793 1.147-2.698 1.707-4.515 2.805-1.587-2.622-2.38-3.934-3.966-6.555-0.639-1.055-0.396-1.693 0.354-2.154 0.709-0.434 1.304-0.217 1.633-0.06-0.018-2.22-0.041-3.327-0.11-5.534m-15.088 8.796c-0.873-0.02-3.609 0.153-6.238 1.434-4.409 2.149-6.131 5.218-4.397 9.124 1.357 3.052 2.036 4.579 3.391 7.631-1.366 0.603-2.052 0.898-3.427 1.475 0.794 1.87 1.191 2.806 1.984 4.677 1.406-0.591 2.108-0.893 3.505-1.509 0.577 1.294 0.864 1.941 1.439 3.236 4.017-0.154 6.04-0.28 10.111-0.634-1.283-2.593-1.925-3.891-3.208-6.486 1.599-0.785 2.395-1.187 3.981-2.006-0.938-1.803-1.407-2.705-2.344-4.509-1.549 0.801-2.327 1.193-3.89 1.96-1.358-2.746-2.037-4.119-3.395-6.866-0.546-1.104-0.255-1.718 0.525-2.107 0.738-0.369 1.309-0.1 1.624 0.086 0.161-2.207 0.23-3.309 0.339-5.506"/></g><g transform="translate(885.28 507.97)"><path d="m0 0c-1.211-1.496-3.618-1.314-5.726 0.327-2.108 1.642-2.865 3.926-1.716 5.471 1.148 1.545 3.605 1.451 5.775-0.239s2.879-4.063 1.667-5.559m-15.087-7.867c-0.83-0.094-1.907 0.246-3.254 0.849-1.443 0.646-2.529 0.936-3.111 0.122-0.494-0.688-0.188-1.613 1.082-2.547 1.43-1.052 3.12-1.277 4.236 0.195 0.419 0.553 0.628 0.829 1.047 1.381m5.949 14.916c-1.133-1.555-3.536-1.508-5.71 0.013-2.173 1.519-3.035 3.753-1.965 5.354 1.069 1.601 3.518 1.64 5.756 0.075 2.238-1.564 3.054-3.887 1.919-5.442m-10.275-8.213c-1.875 2.812-2.846 4.206-4.848 6.963 3.746 1.235 8.791 0.299 13.726-3.363 5.103-3.788 7.255-9.004 4.127-12.812-1.759-2.142-2.639-3.213-4.399-5.354-1.269-1.547-2.34-2.858-2.97-4.538-1.977 1.643-2.976 2.446-4.994 4.016-0.141 1.084-0.076 1.811 0.174 2.783-0.062 0.047-0.093 0.072-0.156 0.119-1.313-0.353-3.934-0.466-6.906 1.654-3.363 2.398-5.022 6.051-3.075 9.011 2.454 3.732 7.464 1.796 10.946 0.029 2.93-1.487 4.607-2.357 5.305-1.436 0.464 0.614-0.077 1.704-1.242 2.567-1.663 1.232-3.911 1.556-5.688 0.361"/></g><g transform="translate(887.2 499.83)"><path d="m0 0c2.848-2.465 4.251-3.731 7.012-6.337-0.967-0.781-1.45-1.173-2.413-1.957 0.061-0.058 0.092-0.087 0.154-0.145 2.24 0.216 5.097 0.075 8.005-2.865 2.295-2.32 3.025-4.739 2.071-7.044 0.059-0.063 0.088-0.094 0.147-0.158 2.78-0.052 5.448-0.896 8.046-3.909 3.321-3.849 3.201-7.692-0.265-10.501-4.016-3.256-6.024-4.883-10.04-8.139-2.238 2.79-3.382 4.153-5.715 6.814 3.549 3.141 5.322 4.713 8.871 7.855 1.037 0.918 1.165 2.181-0.053 3.536-1.218 1.356-2.621 1.507-3.972 0.247-3.332-3.106-4.998-4.659-8.33-7.764-2.386 2.584-3.601 3.844-6.073 6.299 3.379 3.432 5.07 5.149 8.45 8.583 0.816 0.979 0.811 2.183-0.402 3.359-1.289 1.249-2.689 1.294-3.952-0.055-3.114-3.327-4.671-4.99-7.785-8.316-2.521 2.379-3.803 3.536-6.402 5.786 5.058 5.884 7.587 8.826 12.646 14.711"/></g><g transform="translate(936.1 449.58)"><path d="m0 0c-1.64-1.004-3.938 0.118-5.498 2.552-1.561 2.433-1.604 4.965-0.012 6.042 1.594 1.076 3.965 0.043 5.572-2.462 1.605-2.505 1.577-5.127-0.062-6.132m-22.478-1.592c1.552-2.286 3.798-2.096 6.37-0.407 2.57 1.687 3.639 3.736 2.011 6.135-1.628 2.397-3.907 2.133-6.414 0.351-2.508-1.782-3.518-3.793-1.967-6.079m15.695 12.064c-1.582-1.093-3.914-0.126-5.572 2.185-1.66 2.311-1.817 4.814-0.285 5.975 1.533 1.161 3.935 0.281 5.642-2.098 1.708-2.379 1.797-4.971 0.215-6.062m-19.547 1.888c5.21 4.075 12.067 1.055 16.423-5.361 4.356-6.417 4.788-14.152-0.904-17.519-5.691-3.366-11.896 0.231-15.857 6.065-3.96 5.835-4.873 12.74 0.338 16.815"/></g><g transform="translate(736.21 500.01)"><path d="m0 0c-88.938-0.59-155.12-74.627-154.54-164.87 0.581-90.239 73.151-162.92 162.09-162.32 88.938 0.588 163.27 74.279 159.98 164.46-3.281 90.078-77.514 162.73-161.02 162.33-0.358-2e-3 -0.718-1e-3 -1.076-4e-3" fill="#ffa6ca"/></g></g></g><g transform="matrix(.35278 0 0 -.35278 -191.59 198.41)"><g clip-path="url(#clipPath554)"><g transform="translate(1131.4 171.15)"><path d="m0 0v79.655h-1.09c-2.559 0-4.739 1.578-5.615 3.884-0.043 0.098-4.439 12.996-4.439 12.996s-1.138 3.447-5.436 3.447c-2.492 0-4.625-1.497-5.555-3.766-0.047-0.146-4.299-12.677-4.299-12.677s-1.35-3.884-5.625-3.884c-2.555 0-4.735 1.578-5.615 3.884-0.041 0.098-4.357 12.841-4.357 12.841s-1.162 3.602-5.475 3.602c-2.493 0-4.626-1.497-5.555-3.766-0.047-0.146-4.299-12.677-4.299-12.677s-1.353-3.884-5.623-3.884c-2.557 0-4.739 1.578-5.616 3.884-0.042 0.098-4.328 12.841-4.328 12.841s-1.477 3.602-5.44 3.602c-2.491 0-4.626-1.497-5.555-3.766-0.047-0.146-4.298-12.677-4.298-12.677s-1.352-3.884-5.624-3.884c-2.558 0-4.738 1.578-5.615 3.884-0.042 0.098-4.36 12.841-4.36 12.841s-1.161 3.602-5.473 3.602c-2.492 0-4.628-1.497-5.555-3.766-0.049-0.146-4.299-12.677-4.299-12.677s-1.352-3.884-5.625-3.884c-2.557 0-4.738 1.578-5.615 3.884-0.041 0.098-4.363 12.841-4.363 12.841s-1.451 3.602-5.479 3.602c-2.493 0-4.627-1.497-5.556-3.766-0.048-0.146-4.3-12.677-4.3-12.677s-1.351-3.884-5.622-3.884c-2.559 0-4.738 1.578-5.615 3.884-0.041 0.098-4.361 12.841-4.361 12.841s-1.161 3.602-5.472 3.602c-2.492 0-4.626-1.497-5.555-3.766-0.049-0.146-4.3-12.677-4.3-12.677s-1.351-3.884-5.624-3.884c-2.557 0-4.737 1.578-5.613 3.886-0.043 0.096-4.44 12.994-4.44 12.994s-1.136 3.447-5.436 3.447c-2.491 0-4.625-1.497-5.554-3.766-0.049-0.146-4.301-12.675-4.301-12.675s-1.35-3.886-5.622-3.886c-2.557 0-4.738 1.578-5.616 3.886-0.041 0.096-4.358 12.839-4.358 12.839s-1.163 3.602-5.474 3.602c-2.493 0-4.626-1.497-5.557-3.766-0.046-0.146-4.297-12.675-4.297-12.675s-1.352-3.886-5.622-3.886c-2.56 0-4.74 1.578-5.618 3.886-0.041 0.096-4.326 12.839-4.326 12.839s-1.48 3.602-5.441 3.602c-2.492 0-4.626-1.497-5.555-3.766-0.048-0.146-4.299-12.675-4.299-12.675s-1.352-3.886-5.624-3.886c-2.556 0-4.739 1.578-5.615 3.886-0.042 0.096-4.359 12.839-4.359 12.839s-1.161 3.602-5.474 3.602c-2.493 0-4.627-1.497-5.555-3.766-0.048-0.146-4.299-12.675-4.299-12.675s-1.353-3.886-5.624-3.886c-2.557 0-4.739 1.578-5.615 3.886-0.041 0.096-4.364 12.839-4.364 12.839s-1.45 3.602-5.478 3.602c-2.494 0-4.627-1.497-5.556-3.766-0.048-0.146-4.298-12.675-4.298-12.675s-1.353-3.886-5.625-3.886c-2.559 0-4.737 1.578-5.615 3.886-0.042 0.096-4.36 12.839-4.36 12.839s-1.161 3.602-5.473 3.602c-2.493 0-4.627-1.497-5.555-3.766-0.049-0.146-4.3-12.675-4.3-12.675s-1.35-3.886-5.623-3.886h-1.09c-2.559 0-4.738 1.578-5.615 3.886-0.041 0.096-4.438 12.994-4.438 12.994s-1.137 3.447-5.437 3.447c-2.492 0-4.625-1.497-5.555-3.766-0.046-0.146-4.298-12.675-4.298-12.675s-1.351-3.886-5.623-3.886c-2.558 0-4.738 1.578-5.616 3.886-0.043 0.096-4.359 12.839-4.359 12.839s-1.162 3.602-5.475 3.602c-2.493 0-4.626-1.497-5.554-3.766-0.048-0.146-4.3-12.675-4.3-12.675s-1.352-3.886-5.622-3.886c-2.56 0-4.739 1.578-5.616 3.886-0.042 0.096-4.327 12.839-4.327 12.839s-1.479 3.602-5.44 3.602c-2.493 0-4.627-1.497-5.557-3.766-0.046-0.146-4.298-12.675-4.298-12.675s-1.352-3.886-5.624-3.886c-2.557 0-4.738 1.578-5.615 3.886-0.042 0.096-4.36 12.839-4.36 12.839s-1.161 3.602-5.473 3.602c-2.492 0-4.628-1.497-5.555-3.766-0.046-0.146-4.298-12.675-4.298-12.675s-1.353-3.886-5.625-3.886c-2.557 0-4.739 1.578-5.616 3.886-0.041 0.096-4.363 12.839-4.363 12.839s-1.451 3.602-5.478 3.602c-2.494 0-4.627-1.497-5.556-3.766-0.049-0.146-4.299-12.675-4.299-12.675s-1.352-3.886-5.624-3.886c-2.558 0-4.738 1.578-5.614 3.886-0.042 0.096-4.36 12.839-4.36 12.839s-1.163 3.602-5.474 3.602c-2.492 0-4.626-1.497-5.555-3.766-0.049-0.146-4.3-12.675-4.3-12.675s-1.351-3.886-5.622-3.886c-2.559 0-4.739 1.578-5.617 3.886-0.04 0.096-4.437 12.994-4.437 12.994s-1.138 3.447-5.436 3.447c-2.492 0-4.626-1.497-5.554-3.766-0.049-0.146-4.3-12.675-4.3-12.675s-1.352-3.886-5.622-3.886c-2.56 0-4.74 1.578-5.616 3.886-0.042 0.096-4.36 12.839-4.36 12.839s-1.162 3.602-5.474 3.602c-2.492 0-4.626-1.497-5.554-3.766-0.049-0.146-4.3-12.675-4.3-12.675s-1.352-3.886-5.622-3.886c-2.56 0-4.74 1.578-5.617 3.886-0.041 0.096-4.326 12.839-4.326 12.839s-1.48 3.602-5.442 3.602c-2.492 0-4.626-1.497-5.555-3.766-0.047-0.146-4.298-12.675-4.298-12.675s-1.352-3.886-5.625-3.886c-2.556 0-4.737 1.578-5.615 3.886-0.042 0.096-4.357 12.839-4.357 12.839s-1.163 3.602-5.476 3.602c-2.493 0-4.626-1.497-5.554-3.766-0.048-0.146-4.3-12.675-4.3-12.675s-1.353-3.886-5.623-3.886c-2.558 0-4.738 1.578-5.616 3.886-0.041 0.096-4.364 12.839-4.364 12.839s-1.45 3.602-5.479 3.602c-2.492 0-4.626-1.497-5.555-3.766-0.047-0.146-4.298-12.675-4.298-12.675s-1.352-3.886-5.624-3.886c-2.558 0-4.738 1.578-5.616 3.886-0.041 0.096-4.359 12.839-4.359 12.839s-1.162 3.602-5.474 3.602c-2.493 0-4.627-1.497-5.555-3.766-0.048-0.146-4.3-12.675-4.3-12.675s-1.35-3.886-5.623-3.886v-79.655z" fill="#0073ca"/></g></g></g><g transform="matrix(.35278 0 0 -.35278 -191.59 198.41)"><g clip-path="url(#clipPath566)"><g><path d="m592.84 299.53h-76.404v2.957h76.404z"/><path d="m610.98 282.16h-76.403v2.957h76.403z"/><path d="m610.98 316.9h-76.403v2.957h76.403z"/></g><g transform="translate(690.9 330.36)"><path d="m0 0c0.189 17.192 12.493 31.312 29.593 33.718 1.502 0.211 2.678 0.641 3.761 1.868 24.885 28.155 49.809 56.275 74.756 84.375 10.692 12.042 21.435 24.038 32.21 36.005 0.846 0.939 2.085 1.968 3.226 2.077 1.196 0.116 2.749-0.541 3.685-1.376 1.228-1.094 1.236-2.784 0.427-4.288-1.589-2.952-3.211-5.886-4.846-8.812-24.869-44.471-49.748-88.937-74.568-133.44-0.555-0.993-0.809-2.42-0.602-3.532 3.492-18.724-8.327-36.27-27.072-40.06-18.01-3.641-35.805 8.195-39.717 26.488-0.488 2.281-0.579 4.646-0.853 6.972"/></g><g transform="translate(902.72 338.92)"><path d="m0 0h-40.127c0 0.795-0.019 1.771 3e-3 2.746 0.604 27.416-6.557 52.631-21.444 75.653-5.342 8.262-11.582 15.794-18.59 22.691-0.701 0.689-1.049 1.162-0.478 2.177 4.506 8.002 8.947 16.041 13.413 24.065 0.095 0.17 0.257 0.301 0.544 0.628 18.932-14.231 34.169-31.648 45.658-52.327 12.989-23.38 19.852-48.484 21.021-75.633"/></g><g transform="translate(581.8 340.79)"><path d="m0 0c0.213 5.745 0.208 11.508 0.679 17.231 1.516 18.429 6.242 36.029 14.302 52.685 14.828 30.64 37.328 53.986 67.261 70.105 20.818 11.211 43.143 17.194 66.744 18.358 25.282 1.247 49.545-3.185 72.727-13.36 4.654-2.043 9.18-4.378 13.922-6.654-0.387-0.56-0.573-0.901-0.823-1.183-5.403-6.061-10.838-12.093-16.197-18.193-0.928-1.055-1.55-1.199-2.808-0.441-23.69 14.282-49.443 20.882-77.017 19.772-33.591-1.351-63.169-13.298-88.428-35.431-25.566-22.405-41.297-50.584-47.612-83.964-1.181-6.241-1.723-12.605-2.56-18.912-0.063-4e-3 -0.127-8e-3 -0.19-0.013"/></g><g transform="translate(861.6 352.49)"><path d="m0 0 40.521 1.729" fill="#fff"/></g><g transform="translate(861.66 351.01)"><path d="m0 0-0.127 2.954 40.522 1.729 0.127-2.954z" fill="#ffa6ca"/></g><g transform="translate(860.55 366.5)"><path d="m0 0 38.147 6.61" fill="#fff"/></g><g transform="translate(860.8 365.05)"><path d="m0 0-0.506 2.914 38.148 6.61 0.504-2.914z" fill="#ffa6ca"/></g><g transform="translate(857.73 379.19)"><path d="m0 0 35.59 11.125" fill="#fff"/></g><g transform="translate(858.17 377.78)"><path d="m0 0-0.884 2.822 35.59 11.125 0.884-2.821z" fill="#ffa6ca"/></g><g transform="translate(852.12 393.74)"><path d="m0 0 32.938 14.521" fill="#fff"/></g><g transform="translate(852.72 392.39)"><path d="m0 0-1.192 2.706 32.937 14.522 1.193-2.707z" fill="#ffa6ca"/></g></g></g></g></g></svg>
