<svg width="722" height="722" version="1.1" viewBox="0 0 191.03 191.03" xmlns="http://www.w3.org/2000/svg" xmlns:xlink="http://www.w3.org/1999/xlink"><defs><clipPath><path d="m0 600h2200v-600h-2200z"/></clipPath><clipPath id="clipPath642"><path d="m-33.088 31.176h66.176v-62.353h-66.176z"/></clipPath><clipPath id="clipPath382"><path d="m-31.947 32h63.894v-64h-63.894z"/></clipPath><clipPath id="clipPath352"><path d="m882.02 48.455h9.404v9.404h-9.404z"/></clipPath><linearGradient id="linearGradient362" x2="1" gradientTransform="matrix(0,-37.619,-37.619,0,886.72,86.074)" gradientUnits="userSpaceOnUse"><stop stop-color="#fff" offset="0"/><stop stop-color="#c6e7ff" offset="1"/></linearGradient><clipPath id="clipPath332"><path d="m882.02 62.563h9.404v9.404h-9.404z"/></clipPath><clipPath id="clipPath312"><path d="m882.02 76.669h9.404v9.405h-9.404z"/></clipPath><clipPath id="clipPath292"><path d="m867.91 48.455h9.404v9.404h-9.404z"/></clipPath><linearGradient id="linearGradient302" x2="1" gradientTransform="matrix(0,-37.619,-37.619,0,872.61,86.074)" gradientUnits="userSpaceOnUse"><stop stop-color="#fff" offset="0"/><stop stop-color="#c6e7ff" offset="1"/></linearGradient><clipPath id="clipPath272"><path d="m867.91 62.563h9.404v9.404h-9.404z"/></clipPath><clipPath id="clipPath252"><path d="m867.91 76.669h9.404v9.405h-9.404z"/></clipPath><clipPath id="clipPath232"><path d="m853.8 48.455h9.404v9.404h-9.404z"/></clipPath><linearGradient id="linearGradient242" x2="1" gradientTransform="matrix(0,-37.619,-37.619,0,858.51,86.074)" gradientUnits="userSpaceOnUse"><stop stop-color="#fff" offset="0"/><stop stop-color="#c6e7ff" offset="1"/></linearGradient><clipPath id="clipPath212"><path d="m853.8 62.563h9.404v9.404h-9.404z"/></clipPath><clipPath id="clipPath192"><path d="m853.8 76.669h9.404v9.405h-9.404z"/></clipPath><clipPath id="clipPath172"><path d="m839.7 48.455h9.404v9.404h-9.404z"/></clipPath><linearGradient id="linearGradient182" x2="1" gradientTransform="matrix(0,-37.619,-37.619,0,844.4,86.074)" gradientUnits="userSpaceOnUse"><stop stop-color="#fff" offset="0"/><stop stop-color="#c6e7ff" offset="1"/></linearGradient><clipPath id="clipPath152"><path d="m839.7 62.563h9.404v9.404h-9.404z"/></clipPath><clipPath id="clipPath132"><path d="m839.7 76.669h9.404v9.405h-9.404z"/></clipPath><clipPath id="clipPath112"><path d="m836.49 90.777h51.725v4.702h-51.725z"/></clipPath><linearGradient id="linearGradient122" x2="1" gradientTransform="matrix(0,-4.7023,-4.7023,0,862.35,95.478)" gradientUnits="userSpaceOnUse"><stop stop-color="#0093ff" offset="0"/><stop stop-color="#0076b7" offset="1"/></linearGradient><clipPath id="clipPath92"><path d="m836.49 95.478h51.725v4.702h-51.725z"/></clipPath><linearGradient id="linearGradient102" x2="1" gradientTransform="matrix(0,-4.7023,-4.7023,0,862.35,100.18)" gradientUnits="userSpaceOnUse"><stop stop-color="#c6e7ff" offset="0"/><stop stop-color="#6aceff" offset="1"/></linearGradient><linearGradient id="linearGradient16708" x2="1" gradientTransform="matrix(0,-37.619,-37.619,0,844.4,86.074)" gradientUnits="userSpaceOnUse" xlink:href="#linearGradient182"/><linearGradient id="linearGradient16714" x2="1" gradientTransform="matrix(0,-37.619,-37.619,0,858.51,86.074)" gradientUnits="userSpaceOnUse" xlink:href="#linearGradient242"/><linearGradient id="linearGradient16720" x2="1" gradientTransform="matrix(0,-37.619,-37.619,0,872.61,86.074)" gradientUnits="userSpaceOnUse" xlink:href="#linearGradient302"/><linearGradient id="linearGradient16726" x2="1" gradientTransform="matrix(0,-37.619,-37.619,0,886.72,86.074)" gradientUnits="userSpaceOnUse" xlink:href="#linearGradient362"/></defs><g transform="matrix(.35278 0 0 -.35278 -274.21 102.83)"></g><path d="m56.934 28.438c-6.5538-0.18334-13.178 2.0977-19.492 7.6328l2.4414 2.7852c7.6709-6.7242 14.966-7.9195 22.605-5.8652 7.4333 1.9988 15.165 7.3613 22.887 14.264-0.19183 17.311-5.7115 26.489-13.426 32.975-7.8429 6.5933-18.189 10.287-27.492 16l-0.95312 0.58594 0.07422 1.1172c0.84443 12.504 4.1933 23.198 10.896 31.334 6.7032 8.1356 16.712 13.58 30.381 15.773l0.29102 0.0469 0.29102-0.0469c28.471-4.4951 47.885-18.033 55.4-38.684 12.341 4.8205 18.119 12.174 21.111 21.096 3.1258 9.321 3.0568 20.42 3.4961 31.492l0.76563-0.79688v2.5762h3.0117l-0.0762-1.9258c-0.43436-10.947-0.27805-22.362-3.6855-32.523-3.4075-10.161-10.615-18.968-25.008-24.07l-1.7969-0.63867-0.58398 1.8164c-6.4855 20.164-24.634 33.393-52.902 37.936-12.851-2.1161-21.807-7.0892-27.836-14.406-5.87-7.1243-8.979-16.624-9.916-28.07 8.6407-5.1219 18.693-8.8663 26.914-15.777 8.5302-7.1711 14.768-17.958 14.781-36.635v-0.82226l-0.60938-0.55078c-8.1345-7.3625-16.435-13.323-25.055-15.641-2.1549-0.57944-4.331-0.91545-6.5156-0.97656z" color="#000000" color-rendering="auto" dominant-baseline="auto" fill="#0073ca" fill-rule="evenodd" image-rendering="auto" shape-rendering="auto" solid-color="#000000" style="font-feature-settings:normal;font-variant-alternates:normal;font-variant-caps:normal;font-variant-ligatures:normal;font-variant-numeric:normal;font-variant-position:normal;isolation:auto;mix-blend-mode:normal;shape-padding:0;text-decoration-color:#000000;text-decoration-line:none;text-decoration-style:solid;text-indent:0;text-orientation:mixed;text-transform:none;white-space:normal"/><path d="m57.135 28.9c0 15.552-12.607 28.159-28.159 28.159-15.551 0-28.158-12.607-28.158-28.159 0-15.551 12.607-28.158 28.158-28.158 15.552 0 28.159 12.607 28.159 28.158" fill="#fff" stroke-width=".48119"/><path d="m57.135 28.9c0 15.552-12.607 28.159-28.159 28.159-15.551 0-28.158-12.607-28.158-28.159 0-15.551 12.607-28.158 28.158-28.158 15.552 0 28.159 12.607 28.159 28.158z" fill="none" stroke="#0073ca" stroke-miterlimit="10" stroke-width="1.4436"/><path d="m115.67 145.66c0 15.552-12.607 28.159-28.159 28.159-15.551 0-28.158-12.607-28.158-28.159 0-15.551 12.607-28.158 28.158-28.158 15.552 0 28.159 12.607 28.159 28.158" fill="#fff" stroke-width=".48119"/><path d="m115.67 145.66c0 15.552-12.607 28.159-28.159 28.159-15.551 0-28.158-12.607-28.158-28.159 0-15.551 12.607-28.158 28.158-28.158 15.552 0 28.159 12.607 28.159 28.158z" fill="none" stroke="#0073ca" stroke-miterlimit="10" stroke-width="1.4436"/><g transform="matrix(.48119 0 0 -.48119 -323.43 180.1)" clip-path="url(#clipPath92)"><path d="m836.49 95.478h51.725v4.702h-51.725z" fill="url(#linearGradient102)"/></g><g transform="matrix(.48119 0 0 -.48119 -323.43 180.1)" clip-path="url(#clipPath112)"><path d="m836.49 90.777h51.725v4.702h-51.725z" fill="url(#linearGradient122)"/></g><g transform="matrix(.48119 0 0 -.48119 -323.43 180.1)" clip-path="url(#clipPath132)"><path d="m839.7 76.669h9.404v9.405h-9.404z" fill="url(#linearGradient16708)"/></g><g transform="matrix(.48119 0 0 -.48119 -327.59 182.02)" clip-path="url(#clipPath152)"><path d="m839.7 62.563h9.404v9.404h-9.404z" fill="url(#linearGradient16708)"/></g><g transform="matrix(.48119 0 0 -.48119 -327.59 182.02)" clip-path="url(#clipPath172)"><path d="m839.7 48.455h9.404v9.404h-9.404z" fill="url(#linearGradient16708)"/></g><g transform="matrix(.48119 0 0 -.48119 -323.43 180.1)" clip-path="url(#clipPath192)"><path d="m853.8 76.669h9.404v9.405h-9.404z" fill="url(#linearGradient16714)"/></g><g transform="matrix(.48119 0 0 -.48119 -327.59 182.02)" clip-path="url(#clipPath212)"><path d="m853.8 62.563h9.404v9.404h-9.404z" fill="url(#linearGradient16714)"/></g><g transform="matrix(.48119 0 0 -.48119 -327.59 182.02)" clip-path="url(#clipPath232)"><path d="m853.8 48.455h9.404v9.404h-9.404z" fill="url(#linearGradient16714)"/></g><g transform="matrix(.48119 0 0 -.48119 -323.43 180.1)" clip-path="url(#clipPath252)"><path d="m867.91 76.669h9.404v9.405h-9.404z" fill="url(#linearGradient16720)"/></g><g transform="matrix(.48119 0 0 -.48119 -327.59 182.02)" clip-path="url(#clipPath272)"><path d="m867.91 62.563h9.404v9.404h-9.404z" fill="url(#linearGradient16720)"/></g><g transform="matrix(.48119 0 0 -.48119 -327.59 182.02)" clip-path="url(#clipPath292)"><path d="m867.91 48.455h9.404v9.404h-9.404z" fill="url(#linearGradient16720)"/></g><g transform="matrix(.48119 0 0 -.48119 -323.43 180.1)" clip-path="url(#clipPath312)"><path d="m882.02 76.669h9.404v9.405h-9.404z" fill="url(#linearGradient16726)"/></g><g transform="matrix(.48119 0 0 -.48119 -327.59 182.02)" clip-path="url(#clipPath332)"><path d="m882.02 62.563h9.404v9.404h-9.404z" fill="url(#linearGradient16726)"/></g><g transform="matrix(.48119 0 0 -.48119 -327.59 182.02)" clip-path="url(#clipPath352)"><path d="m882.02 48.455h9.404v9.404h-9.404z" fill="url(#linearGradient16726)"/></g><g transform="matrix(.50376 0 0 .50294 89.878 145.85)"><g clip-path="url(#clipPath382)"><g transform="translate(-7.6357,-21.898)"><path d="m0 0v-2.074h5.845v2.074c0 1.098 0.899 2 2 2h0.5c1.099 0 2-0.902 2-2v-2.074h5.845v2.074c0 1.098 0.899 2 2 2h0.5c1.1 0 2-0.902 2-2v-2.074h1.192l3.807 3.738v5.98h4v-7.66l-6.172-6.058h-2.827v-2.028c0-1.097-0.9-2-2-2h-0.5c-1.101 0-2 0.903-2 2v2.028h-5.845v-2.028c0-1.097-0.901-2-2-2h-0.5c-1.101 0-2 0.903-2 2v2.028h-5.845v-2.028c0-1.097-0.9-2-2-2h-0.5c-1.101 0-2 0.903-2 2v2.028h-5.845v-2.028c0-1.097-0.901-2-2-2h-0.5c-1.101 0-2 0.903-2 2v2.028h-9.466v59.972h17.666l1.002-4h-14.668v-51.972h5.466v2.074c0 1.098 0.899 2 2 2h0.5c1.099 0 2-0.902 2-2v-2.074h5.845v2.074c0 1.098 0.899 2 2 2h0.5c1.1 0 2-0.902 2-2" fill="#0073ca"/></g><g transform="translate(7.0269,20.734)"><path d="m0 0-4.996-4.996 16.726-16.727 4.996 4.996zm-10.429-3.357 8.81 8.808-8.272 2.072-2.583-2.718zm34.163-18.971-6.402-6.402c-1.556-1.559-4.074-1.586-5.597-0.067-1e-3 2e-3 -2e-3 4e-3 -4e-3 6e-3l-1e-3 -2e-3 -23.343 23.344-0.47 0.465-4.041 16.132 16.116-4.043 1.505-1.531 22.3-22.304h-2e-3c1e-3 -2e-3 3e-3 -2e-3 4e-3 -4e-3 1.52-1.52 1.491-4.039-0.065-5.594" fill="#0073ca"/></g></g></g><g transform="matrix(.48119 0 0 -.48119 72.705 93.905)"><path d="m0 0c0-32.319-26.199-58.519-58.518-58.519-32.318 0-58.518 26.2-58.518 58.519 0 32.318 26.2 58.518 58.518 58.518 32.319 0 58.518-26.2 58.518-58.518" fill="#fff"/></g><g transform="matrix(.48119 0 0 -.48119 72.705 93.905)"><path d="m0 0c0-32.319-26.199-58.519-58.518-58.519-32.318 0-58.518 26.2-58.518 58.519 0 32.318 26.2 58.518 58.518 58.518 32.319 0 58.518-26.2 58.518-58.518z" fill="none" stroke="#0073ca" stroke-miterlimit="10" stroke-width="3"/></g><g transform="matrix(.48119 0 0 -.48119 33.387 85.929)"><path d="m0 0c1.676 7.449 6.197 14.43 13.1 17.986 7.542 3.887 17.618 3.476 24.482-1.68 3.134-2.355 5.455-5.684 6.43-9.493 0.23-0.897 0.387-1.814 0.471-2.738 0.015-0.193 0.029-0.387 0.043-0.581 0.035-0.871 0.038-0.452 0.01 1.256-9e-3 3.149 2e-3 1.455-0.062 0.769-0.046-0.491-0.113-0.979-0.199-1.463-0.303-1.707-0.864-3.363-1.654-4.907-2.923-5.712-8.457-9.144-12.952-13.466-2.092-2.01-4.041-4.386-4.55-7.325-0.427-2.469-0.216-5.155-0.12-7.643 0.063-1.627 0.194-3.316 0.634-4.892v5h-5.745c-0.216 0-0.664-0.094-0.858 8e-3 -0.244 0.127-0.46 0.697-0.585 0.924-0.466 0.848-0.818 1.76-1.071 2.691-0.157 0.578-0.279 1.168-0.359 1.762-0.051 0.373-0.07 0.747-0.112 1.12 0.526-4.636-0.112-4.183 0.037-2.57 0.089 0.953 0.274 1.897 0.554 2.812 2.111 6.887 9.013 10.289 13.678 15.202 2.778 2.927 4.172 6.196 4.213 10.232 0.011 1.179 0.013 2.357 0 3.535-9e-3 0.726-0.026 0.96-0.035 0-0.034-3.298-2.133-6.718-4.604-9.204-2.561-2.578-5.562-4.665-8.183-7.18-2.692-2.583-4.883-5.666-5.497-9.42-0.434-2.664-0.324-5.55-0.176-8.228 0.116-2.101 0.641-4.238 1.729-6.057 0.152-0.255 0.277-0.522 0.523-0.627 0.49-0.207 1.451 0 1.981 0h4.51c-0.021 0 0.118 4.577 0 5-0.408 1.466-0.476 2.989-0.612 4.494 0.464-5.132-0.131-3.802 2e-3 -2.685 0.021 0.174 0.038 0.347 0.063 0.521 0.046 0.306 0.107 0.61 0.184 0.91 0.167 0.657 0.409 1.292 0.707 1.901 1.195 2.439 3.234 4.371 5.246 6.14 4.738 4.166 10.171 8.044 12.344 14.25 0.584 1.664 0.896 3.409 0.978 5.169 0.114 2.439 0.157 4.95-0.048 7.385-0.333 3.968-2.02 7.7-4.806 10.549-6.013 6.152-15.915 7.534-23.832 4.724-8.361-2.969-13.956-10.723-15.859-19.181-0.171-0.759-0.024-1.724-0.024-2.5 0-0.77 0.193-1.748 0.024-2.5" fill="#0073ca"/></g><g transform="matrix(.48119 0 0 -.48119 45.721 102.37)"><path d="m0 0c8e-3 0.646-0.021-0.075-0.038-0.214-0.022-0.182-0.051-0.364-0.086-0.545-0.068-0.35-0.163-0.696-0.283-1.033-0.233-0.646-0.562-1.259-0.98-1.804-0.801-1.043-1.914-1.814-3.159-2.225-2.601-0.86-5.691-0.23-7.552 1.836-0.939 1.044-1.506 2.381-1.672 3.771-6e-3 0.062-0.013 0.124-0.02 0.186-0.061 0.962-0.067 0.382-0.021-1.74v-2.027c8e-3 0.158 0.022 0.316 0.041 0.474 0.043 0.361 0.113 0.719 0.209 1.071 0.185 0.67 0.468 1.313 0.847 1.896 1.526 2.348 4.413 3.361 7.121 2.899 1.485-0.253 2.871-0.973 3.882-2.095 0.516-0.572 0.923-1.235 1.21-1.948 0.144-0.357 0.257-0.726 0.34-1.101 0.04-0.178 0.072-0.358 0.099-0.539 0.019-0.133 0.071-1.082 0.062-0.397-1e-3 0.114 5e-3 -0.733 0.018-0.733s0.019 0.847 0.018 0.733c0.012 1.178 0.014 2.356 0 3.535-0.019 1.655-0.207 3.226-1.13 4.646-0.81 1.247-2.042 2.174-3.452 2.64-2.919 0.963-6.38 0.035-8.121-2.57-0.935-1.399-1.157-2.973-1.176-4.619-0.017-1.665-0.097-3.368 0.045-5.032 0.068-0.778 0.248-1.544 0.559-2.263 1.268-2.936 4.466-4.388 7.555-3.897 1.662 0.264 3.199 1.106 4.245 2.433 1.186 1.505 1.453 3.265 1.475 5.127 0.014 1.178 0.012 2.356 0 3.535-1e-3 0.072-4e-3 0.732-0.018 0.732-0.015 0-0.018-0.789-0.018-0.732" fill="#0073ca"/></g><g transform="matrix(.48119 0 0 -.48119 165.7 99.291)"><path d="m0 0c0-32.318-26.2-58.519-58.519-58.519-32.318 0-58.518 26.201-58.518 58.519s26.2 58.519 58.518 58.519c32.319 0 58.519-26.201 58.519-58.519" fill="#fff"/></g><g transform="matrix(.48119 0 0 -.48119 165.7 99.291)"><path d="m0 0c0-32.318-26.2-58.519-58.519-58.519-32.318 0-58.518 26.201-58.518 58.519s26.2 58.519 58.518 58.519c32.319 0 58.519-26.201 58.519-58.519z" fill="none" stroke="#0073ca" stroke-miterlimit="10" stroke-width="3"/></g><g transform="matrix(.48119 0 0 -.48119 152.71 114.43)"><path d="m0 0h-61.771c-0.622 0-1.145 0.53-1.145 1.149v40.382h64.06v-40.382c0-0.619-0.523-1.149-1.144-1.149m-55.94 62.871c0 1.899 1.537 3.446 3.431 3.446h0.085c1.89 0 3.432-1.547 3.432-3.446v-10.219c0-1.898-1.542-3.447-3.432-3.447h-0.085c-1.894 0-3.431 1.549-3.431 3.447zm43.156 0c0 1.899 1.537 3.446 3.431 3.446h0.085c1.89 0 3.432-1.547 3.432-3.446v-10.219c0-1.898-1.542-3.447-3.432-3.447h-0.085c-1.894 0-3.431 1.549-3.431 3.447zm12.784-1.055h-3.548v1.055c0 3.159-2.574 5.744-5.72 5.744h-0.085c-3.145 0-5.719-2.585-5.719-5.744v-1.055h-31.632v1.055c0 3.159-2.574 5.744-5.72 5.744h-0.085c-3.145 0-5.72-2.585-5.72-5.744v-1.055h-3.542c-3.147 0-5.72-2.585-5.72-5.744v-54.923c0-3.16 2.573-5.745 5.72-5.745h61.771c3.146 0 5.72 2.585 5.72 5.745v54.923c0 3.159-2.574 5.744-5.72 5.744" fill="#0073ca"/></g><path d="m191.51 160.65c0 16.381-13.279 29.661-29.661 29.661-16.381 0-29.66-13.28-29.66-29.661 0-16.381 13.279-29.661 29.66-29.661 16.381 0 29.661 13.279 29.661 29.661" fill="#fff" stroke-width=".48119"/><path d="m191.51 160.65c0 16.381-13.279 29.661-29.661 29.661-16.381 0-29.66-13.28-29.66-29.661 0-16.381 13.279-29.661 29.66-29.661 16.381 0 29.661 13.279 29.661 29.661z" fill="none" stroke="#0073ca" stroke-miterlimit="10" stroke-width="1.4436"/><g transform="matrix(-.62098 0 0 -.60986 161.58 160.03)" clip-path="url(#clipPath642)"><g transform="translate(-33.088,-9.7197)"><path d="m0 0v19.491h13.394l16.707 13.051v-45.591l-16.706 13.049z" fill="#0073ca"/></g><g transform="translate(17.181,-31.176)"><path d="m0 0-3.928 6.182c7.149 3.078 12.569 13.287 12.569 25.02 0 11.633-5.328 21.767-12.386 24.94l3.843 6.211c9.233-4.712 15.809-16.879 15.809-31.151 0-14.322-6.622-26.528-15.907-31.202" fill="#0073ca"/></g><g transform="translate(9.541,-19.154)"><path d="m0 0-3.845 6.051c3.167 2.825 5.314 7.704 5.314 13.129 0 5.266-2.02 10.022-5.036 12.881l3.791 6.126c5.123-4.05 8.512-11.047 8.512-19.007 0-8.075-3.488-15.159-8.736-19.18" fill="#0073ca"/></g></g><g stroke-width=".48119"><path d="m13.144 20.852c-1.3488 0-2.6162 0.52498-3.57 1.4787-1.969 1.969-1.969 5.1733 0 7.1423 1.2987 1.2992 2.5017 2.3598 3.6652 3.3852 1.6943 1.4936 3.2947 2.904 4.9981 4.8658 1.7029-1.9618 3.3034-3.3722 4.9976-4.8658 1.1635-1.0254 2.3665-2.086 3.6652-3.3852 1.969-1.969 1.969-5.1733 0-7.1423-0.95372-0.95372-2.2212-1.4787-3.57-1.4787-2.9165 0-3.9766 2.0696-3.9867 2.0908l-1.1067 2.2318-1.1068-2.2318c-0.03897-0.0751-1.126-2.0908-3.9862-2.0908m5.0929 20.873-0.97586-1.2598c-0.27091-0.34934-0.74729-0.95709-0.8724-1.1019-1.6014-1.8478-3.1465-3.2096-4.7826-4.6517-1.1924-1.0509-2.4247-2.1374-3.7793-3.492-2.9319-2.9324-2.9319-7.7034 0-10.636 1.42-1.4205 3.3087-2.2024 5.3172-2.2024 2.5036 0 4.1354 1.0606 5.0929 2.0085 0.95804-0.94794 2.5893-2.0085 5.0934-2.0085 2.0085 0 3.8972 0.78194 5.3172 2.2024 2.9319 2.9324 2.9319 7.7034 0 10.636-1.3546 1.3546-2.5869 2.4411-3.7793 3.492-1.636 1.4421-3.1812 2.8039-4.7826 4.6522-0.12562 0.14435-0.60149 0.7521-0.8724 1.1014z" fill="#0073ca"/><path d="m34.696 24.759c-1.3493 0-2.6167 0.52546-3.5704 1.4792-1.969 1.969-1.969 5.1728 0 7.1423 1.2992 1.2992 2.5022 2.3598 3.6657 3.3847 1.6943 1.4936 3.2947 2.904 4.9977 4.8663 1.7034-1.9623 3.3039-3.3727 4.9981-4.8663 1.163-1.0254 2.366-2.0855 3.6652-3.3847 1.969-1.9695 1.969-5.1733 0-7.1423-0.95372-0.95372-2.2212-1.4792-3.5704-1.4792-2.9165 0-3.9761 2.0701-3.9862 2.0908l-1.1067 2.2322-1.1067-2.2322c-0.03897-0.0746-1.126-2.0908-3.9862-2.0908m5.0929 20.874-0.97585-1.2598c-0.27092-0.34935-0.7473-0.95757-0.87289-1.1024-1.6009-1.8473-3.1465-3.2096-4.7821-4.6517-1.1924-1.0509-2.4247-2.1374-3.7793-3.4915-2.9319-2.9324-2.9319-7.7034 0-10.636 1.4195-1.4205 3.3082-2.2029 5.3172-2.2029 2.5036 0 4.1349 1.0606 5.0929 2.009 0.95805-0.94843 2.5893-2.009 5.0929-2.009 2.009 0 3.8976 0.78242 5.3176 2.2029 2.9314 2.9324 2.9314 7.7034 0 10.636-1.3546 1.3541-2.5869 2.4406-3.7793 3.4915-1.636 1.4421-3.1816 2.8044-4.7826 4.6522-0.12562 0.14436-0.60196 0.75258-0.87287 1.1019z" fill="#0073ca"/><path d="m120.76 42.357c0 15.551-12.607 28.159-28.159 28.159-15.551 0-28.158-12.608-28.158-28.159 0-15.551 12.607-28.159 28.158-28.159 15.552 0 28.159 12.608 28.159 28.159" fill="#fff"/></g><path d="m120.76 42.357c0 15.551-12.607 28.159-28.159 28.159-15.551 0-28.158-12.608-28.158-28.159 0-15.551 12.607-28.159 28.158-28.159 15.552 0 28.159 12.608 28.159 28.159z" fill="none" stroke="#0073ca" stroke-miterlimit="10" stroke-width="1.4436"/><g fill="#0073ca" stroke-width=".48119"><path d="m83.638 43.944h-9.89e-4c-3.3938 4.8e-4 -6.1438 2.7524-6.1434 6.1458 9.5e-4 3.3929 2.7519 6.1434 6.1448 6.1434h9.9e-4c3.3938-9.6e-4 6.1438-2.7529 6.1434-6.1458-9.7e-4 -3.3934-2.7514-6.1438-6.1448-6.1434m4.75e-4 2.6336c1.9349 0 3.5103 1.5745 3.5108 3.5103 4.8e-4 0.93784-0.36474 1.8194-1.0278 2.4829-0.66308 0.66309-1.5446 1.0283-2.4834 1.0288-1.9354 0-3.5108-1.5749-3.5113-3.5103 0-0.93832 0.36475-1.8199 1.0278-2.4834 0.66308-0.66309 1.5451-1.0283 2.482-1.0283h9.89e-4"/><path d="m87.261 46.427-2.2756-1.3242 10.572-18.173 2.8284 1.3233c1.5124 0.71649 2.1942 1.687 2.6918 2.3963 0.36186 0.51439 0.56733 0.79156 0.93448 0.9696 0.39024 0.18862 0.78578 0.20354 1.4522 0.21365 0.95372 0.0144 2.1413 0.0322 3.6754 0.79348l-1.1712 2.3593c-0.99895-0.49659-1.7496-0.50766-2.5441-0.51921-0.7622-0.012-1.6264-0.0245-2.5599-0.47734-0.99943-0.48407-1.5004-1.1972-1.9421-1.8266-0.43546-0.62074-0.78-1.1106-1.6577-1.5258l-0.64191-0.30075z"/><path d="m103.21 39.871c-0.70398-0.33298-1.3719-0.33347-2.1447-0.33347-0.94169 0-2.0095-4.8e-4 -3.1451-0.62362-1.1096-0.60919-1.6461-1.4219-2.0773-2.0749-0.3763-0.56974-0.64817-0.9826-1.2809-1.291l-1.8733-0.87673 1.1154-2.3858 1.8997 0.88876c1.2882 0.62555 1.8694 1.5061 2.3367 2.214 0.35319 0.53509 0.60823 0.92197 1.1467 1.2169 0.54423 0.29882 1.1039 0.29882 1.8786 0.29882 0.90609 0 2.033 4.8e-4 3.2716 0.58753z"/><path d="m95.59 32.109-2.2755-1.3247 3.4174-5.8715 2.276 1.3247z"/></g></svg>
