<svg id="helsinki-logo" xmlns="http://www.w3.org/2000/svg" viewBox="0 0 655.1 230"><style>.st0{fill:#1d1d1b}</style><path class="st0" d="M335 221.3c10.2-10.1 23.7-15.7 38-15.7l221.5-.2c33.4 0 60.5-26.8 60.5-59.7V0H0v145.9c0 32.9 27 59.7 60.2 59.7H282c14.4 0 27.9 5.6 38 15.7l7.5 7.4 7.5-7.4zM640.8 14.2v131.5c0 25.1-20.8 45.5-46.3 45.5l-221.5.2c-17 0-33 6.1-45.5 17.4-12.5-11.3-28.5-17.4-45.5-17.4H60.2c-25.3 0-45.9-20.4-45.9-45.5V14.2h626.5z"/><path class="st0" d="M358.8 102.7c0 7.5 4.5 11.8 9.8 13.9v.3c-5.7 1.2-11.3 4.2-11.3 9.7 0 4.2 3.3 6.6 7 7.7v.3c-4.9.9-10.3 4-10.3 9.2 0 8.6 12.2 12.4 25.6 12.4 14.4 0 27.2-4.5 27.2-15.9 0-9.5-7-13.7-17.5-13.7-5.3 0-9.9.8-14 .8s-5.8-.9-5.8-2.9c0-2.6 4.6-4.3 9.9-4.3 11.5 0 20.8-6.1 20.8-15.7 0-5.6-3.3-9.1-6-11.2v-.4c.9.3 2.6.6 3.9.6 5.5 0 8.4-3 8.6-9.4L394 76.8c.2 1.2.5 2.9.5 4.6 0 3.7-1.5 6-5.6 6-3.3 0-5.8-.9-10.2-.9-11.5 0-19.9 6.6-19.9 16.2m6.9 39.7c0-4.5 11.4-5 17.3-5 5.8 0 10.6 1.1 10.6 4.3 0 4.1-5.2 5.8-14.2 5.8-8-.1-13.7-1.7-13.7-5.1m5.5-39.1c0-4.6 3.7-7.6 8.3-7.6 4.6 0 8.3 3 8.3 7.6s-3.7 7.6-8.3 7.6c-4.6.1-8.3-2.9-8.3-7.6m66.9-27.8c3.3 0 4.7 3 4.9 5.9l11.8-7.2c-3-4.3-8.7-8.9-17.4-8.9-10.4 0-17.9 5.8-17.9 17.2v5.2H412v10.4h7.5v38.3h13.6V98.1h10.7V87.7h-10.7v-5.3c0-4.3 1.6-6.9 5-6.9m36 62c13.3 0 23.5-9.7 23.5-25.5s-10.3-25.5-23.5-25.5c-13.4 0-23.6 9.7-23.6 25.5s10.2 25.5 23.6 25.5m-9.8-25.5c0-8.7 3-15.1 9.8-15.1 6.7 0 9.7 6.4 9.7 15.1s-3 15.1-9.7 15.1c-6.8 0-9.8-6.4-9.8-15.1m41.6 24.4h13.7v-27.8c0-6.3 1.7-10.3 6-10.3 3.4 0 4.6 3 4.6 6.2 0 3.3-.6 6.6-.8 8l12.3-7.1s.5-2.5.5-5.7c0-7.1-3.8-12.9-10.7-12.9-6.2 0-9.9 4.3-12.3 9h-.3l.7-8h-13.7v48.6zm63.8-8.8c-6.5 0-10.7-4-12.3-9.3l-11.9 6.7c4 7.7 13 12.6 24.4 12.6 10.6 0 19.7-5.8 19.7-15.6 0-8.9-7-12.4-14.6-14.8-7.3-2.3-13.7-2.7-13.7-6.4 0-2.8 2.9-4.3 6.4-4.3 5.3 0 9 3.4 10.2 7.7l11.7-6.6c-3.8-6.5-12.7-11.1-22.4-11.1-10.5 0-19.3 5.8-19.3 15 0 9.3 9.2 12.9 16.6 14.9 6.3 1.7 11.7 2.6 11.7 6.5 0 3-2.7 4.7-6.5 4.7M346.4 105.1c0-12.1-5.9-18.6-15.3-18.6-8 0-12.2 4.7-14.6 9.2h-.3l.7-8h-13.6v48.7h13.6v-28.9c0-5.6 3.3-9.5 8.4-9.5 5.1 0 7.4 3.4 7.4 9.8v28.5h13.7v-31.2zM290 74.2c0 4.4-3.5 7.6-7.9 7.6-4.5 0-7.9-3.2-7.9-7.6 0-4.4 3.5-7.6 7.9-7.6s7.9 3.2 7.9 7.6m-14.8 62.1h13.7V87.6h-13.7v48.7zm-24.8-13.5c0-3.9-5.4-4.7-11.7-6.5-7.4-1.9-16.5-5.6-16.5-14.9 0-9.2 8.8-15 19.3-15 9.7 0 18.6 4.6 22.4 11.1l-11.7 6.6c-1.2-4.3-4.8-7.7-10.2-7.7-3.5 0-6.4 1.5-6.4 4.3 0 3.7 6.4 4.1 13.6 6.4 7.6 2.4 14.6 5.9 14.6 14.8 0 9.8-9.1 15.5-19.6 15.5-11.4 0-20.4-4.8-24.4-12.6l11.9-6.7c1.5 5.3 5.8 9.3 12.3 9.3 3.7.1 6.4-1.5 6.4-4.6m-45.2-55.9h-13.7v56c0 5 1.1 8.7 3.2 11 2.2 2.3 5.6 3.4 10.3 3.4 1.6 0 3.3-.2 4.9-.5 1.7-.4 3-.9 4.1-1.5l1.2-9.2c-1.1.4-2 .7-2.9.8-.8.2-1.8.2-2.9.2-1.8 0-2.6-.4-3.2-1.4-.7-.9-1-2.5-1-4.8v-54zm-46.6 29.4c-5 0-9.1 3.6-10.2 10.2h19.3c0-5.8-3.8-10.2-9.1-10.2m21.1 19.3h-31.6c.6 7.9 5 11.8 10.7 11.8 5.1 0 8.6-3.4 9.4-8l11.5 6.5c-3.4 6.2-10.7 11.6-20.9 11.6-13.6 0-23.6-9.5-23.6-25.5 0-15.8 10.2-25.5 23.3-25.5 13.1 0 21.8 9.3 21.8 22.5.1 3.9-.6 6.6-.6 6.6m-69.5 20.7h14.2V69.5h-14.2V96H83.5V69.5H69.3v66.8h14.2v-27.7h26.7v27.7z"/></svg>