<?xml version="1.0" encoding="UTF-8"?>
<svg width="1291.5" height="1051.2" version="1.1" viewBox="0 0 1291.5 1051.2" xmlns="http://www.w3.org/2000/svg">
 <g fill="none" fill-rule="evenodd">
  <path d="m206.395 196.483 7.6 12.642 35.045 115.04v23.597l3.8 17.278-42.645 23.176 46.445 96.078 25.333-4.635-5.91 17.276 56.578-8.006 11.4-3.792 22.8-18.962 39.267-10.115 44.334 19.806 14.357-21.07V437.52l21.11-24.863-2.11-32.447 24.912-24.44-13.512-8.008 69.285-72.5-11.44-25.683 1.267-10.957-3.376-15.17 4.22-13.484 8.868-8.428v-9.692l-9.289-2.95-36.312 9.27-19 14.328-9.289-3.371-33.779.843-15.411-6.409v.72l-9.71 5.056-8.235-5.267-28.077-16.856v-8.85l-14.78-21.49 4.434-11.588 1.479-7.374-10.346-3.161-5.277-10.746H351.22l-39.688 20.017-22.38 1.475-17.733 12.641h-11.612l-15.2 10.956-9.288 1.687-26.763 11.475zm580.425 408.47-3.168 4.565-2.04 3.582v3.09l1.618 3.231 3.59 3.582 5.136-.562 4.293-3.16 1.055-4.917-.28-3.3-3.238-4.706-2.464-1.897zm79.519 78.66 6.756-3.512 7.6-.562 2.252 4.074-1.407 4.635-6.897 4.214h-7.741l-.563-3.371-3.237-1.123zm43.349 24.441 4.222 3.511 2.815 1.546 6.897-1.968 1.547 4.496-6.332 5.619-9.15 1.264-7.6-7.234 2.112-4.706zm-29.978 11.377 5.348 4.214.562 6.742-4.362 4.215h-5.208l-4.362-4.215v-6.18l1.97-4.776h4.996zm-21.675 35.397 10.134-2.81h9.852v5.338l-2.956 4.074-2.04 3.09h-4.434l-6.615-4.214-2.251-.702zm-1.548 16.996 10.274-2.248 6.263 1.125 8.093 4.494 3.237 5.478-3.096 5.62-3.942 1.123-7.88-5.197-5.349-2.81-6.052-.912zm32.089 13.485 6.193 1.405 1.97 3.23.845 4.073-2.393 3.091h-2.815l-3.8-5.057v-3.933zm62.35-4.074 4.926 3.09v3.934l-1.83 2.949-4.786-1.826-3.096-4.916 1.126-2.247zm28.148-12.922 8.022 2.81 7.32 4.073-.704 6.04-3.8 2.809-9.852-1.405-5.49-4.916-1.97-7.304 2.955-2.107zm-9.57-24.793-.845-7.374 4.926-4.073 6.615-3.09 2.674 3.933-.704 6.742-8.163 6.883h-2.814zm30.682-71.285.844-12.36 5.207-.844 1.267 5.057 5.489 1.546v7.585l-6.404.702zm8.444 11.799 4.364 5.76 5.77 8.006-1.97 4.776h-6.194l-4.785-7.024-3.8-5.478 1.126-4.073zm111.469-119.044h14.99l17.1 3.162 10.554 12.22 5.068 2.738 7.6 2.318-1.69 10.746-7.177 3.581-6.334-5.688-8.022-10.324-4.433 2.738-1.9 7.375-7.178-3.16-11.612-8.323-6.966-10.85z" fill="#fdc523"/>
  <path d="m1277.38 53-17.102-21.703 26.602-11.377-4.646-16.645-44.334 15.38-26.811-15.38-9.712 10.746 6.334 1.053-19.423 25.705-64.812 21.913 11.19 10.956-24.068 20.016-1.9 7.796-16.888-24.02-8.023 35.186-28.5 13.906-10.556-5.267-2.955.421-3.59 11.8-93.523 41.717 2.533 20.226-2.955 6.11v14.644l6.755 9.587v12.22l9.71 10.114 10.557-.21 9.923 7.162 2.956 9.692 7.177 5.268-.634 21.28 6.968-.631 3.378 12.43-27.657 20.227-17.522.843-7.178 5.057-21.534 46.564-135.114-49.936-25.544-24.44.28-1.082-62.137-7.346-5.911 19.384-46.867 45.932-12.245-.843-8.023-2.95-7.177 8.428 3.8 4.214 1.266 8.428-5.066 7.374 11.822-2.317 10.556 2.317 22.8 26.127-24.7 72.69 7.389 24.44v23.177l4.644 14.75 14.779 8.849h38.845l3.378 34.132h16.467l2.63 23.697 18.692.533 9.289-13.906 33.145.632 16.256-1.685 2.744-7.796-9.923-8.428 5.068-5.268 4.01-14.116 20.268-1.686 2.322-4.214 11.19-1.685 2.743 4.425 8.234 5.899-15.2 17.067-21.323 29.919 8.867 9.48.845 4.004-21.535 5.056-4.855 12.22-18.155 13.907-3.38 15.802 2.535 4.003 8.233-.422 6.123-3.581 2.955-9.481 7.811-5.057 13.511-2.318 5.067-8.006 10.978-3.582-1.266-9.27 29.978 4.003 4.855-2.318 21.956-13.485 18.368-10.534.844 17.065-5.067 7.165 1.056 6.321 9.5 3.16v10.535l-6.967 8.849-.634 8.217h20.9c1.901 0 13.301 10.956 13.301 10.956l8.445 1.054 19.845 18.33 7.177-2.106 1.267-5.058-4.434-4.845-9.288-8.639.634-17.276-14.567-9.482-2.111-7.165 4.222-1.684 3.8-3.793 14.356-5.69 1.477-8.216-8.233-2.107-5.489 5.057-8.867-1.896-9.29 11.587-7.599 2.107-8.234-5.899-5.7-9.482 10.344-5.477 4.012-3.582-1.69-7.163-6.966-1.264-2.955 4.845-7.178 1.054-.211-15.802 7.39-1.686 10.765 6.32 14.99-.42 13.511-9.271 11.823 1.686 9.289-4.214 1.9-6.111 4.855-.21-.845 6.952 4.434 1.476 3.8-8.218 2.534 4.636-6.545 9.06 1.9 16.433 13.3-.631 4.856 4.845.21 8.64 9.29-.844 2.533 2.53-8.022 4.845-1.477 1.686 2.11 10.956 21.111-16.013 4.223-8.64 1.9 26.76 8.233-6.11 2.534-19.175 14.356-26.547 9.71 2.95 1.901-3.792-13.3-21.281-3.8 1.475.211 7.796h-3.378l-6.755-9.903-7.39-20.016 16.257-17.909 14.143-.632.423 9.06-11.822 17.277 4.433 2.95 5.91-8.85 5.702-8.007 1.9-6.952 2.533-1.475 2.322 5.9 13.722-3.582-8.655-1.475-1.267-3.793 6.545-6.742-23.434-26.127v-6.532l9.289 6.111-3.8-8.85 1.267-3.16 25.544 33.29 3.378-1.474.634-13.274 2.744-4.635h10.344l-22.589-24.44.211-3.584 8.656 1.686 1.478-2.528-6.122-7.164 3.8-1.053 1.478-4.003-9.079-3.16 2.534-10.114-1.478-6.11-8.655-.632-.212 13.062h-10.766l-1.479-16.434h-10.978l-2.744-5.267-1.9-8.428-13.511-1.053.422-5.479-9.5-2.107.845-10.323 10.978-1.475 20.9 17.066-2.534 4.004 1.69 5.267 8.022-2.529 4.855-10.324 1.69-7.795-9.923-7.796-10.556-8.007 1.055-19.805 5.49-7.585 10.345-1.264 8.655 16.012 24.912 1.686 13.933 10.745 9.077 2.53 3.59-4.215-4.644-8.849v-8.639l3.589-10.534 10.766-4.214-.844-5.478-23.646-.212-5.277-3.582-.21-5.899 26.388.21 2.745 4.005 4.644 1.264 6.756-5.69 1.69-5.056-1.69-9.27-18.366-20.228 27.233-.421 2.111 8.428 6.756.421 4.011-3.792-.423-5.268-3.378-4.214 11.4-3.792 12.668-1.686.21 7.164-9.499 2.95-1.478 3.582 2.322 3.371 15.834-1.686 2.533-2.738 9.923-13.696.845-12.431-20.057-34.344-19.844-1.053-3.378 2.528-18.79-1.264-21.955 18.12-7.179-3.37 5.278-11.38 5.278-9.059 6.967-3.581 17.523-1.476 1.477 5.057 6.756.633 16.256-7.375 9.711-5.689-9.5-12.642 10.767-.21.21-5.69 6.545-1.053-1.055-5.267-1.267-22.965 9.078-26.127 24.49-1.264v-3.792l23.645-5.69 4.644-15.17-26.811-16.856 10.555.212.21-31.395-10.977-6.952 31.667-31.183-7.81.21ZM46.792 928.442l-1.266 5.267 4.222 2.108h6.333v-3.688zm-4.011 13.484-1.266 8.429 4.01 3.581 3.8-2.528 4.434-9.482zm124.347 45.721-4.012 18.7-5.805 11.43-8.762 12.642 3.589 11.167 7.178 5.689 1.478-2.95 20.479-18.33 5.91 8.006 6.123 1.053 5.277-4.846 1.056-6.953-7.177-3.16.844-11.378-10.556-13.484-8.656-5.689zm69.104-1.755v-7.164l9.43-10.816 5.489-5.479h7.318l3.942 4.215 5.207-2.107v-8.568h9.289l5.63 3.932v14.187l-3.519 8.008-3.237-.141-3.378-4.776-4.222-.14-1.408 4.073-5.348 11.939-7.459 1.404-12.527-1.404-3.94-2.95zm243.556-110.756-1.69 4.845 1.69 5.268h5.49l4.01-4.003-4.01-6.11zm63.123-10.956 2.956 7.163-1.478 9.692-3.589 9.271 2.533 10.745 8.023 7.375 4.856-1.475 5.278-10.325 5.066-11.377-2.111-8.85-10.766-7.795-3.378-5.478zM506.6 962.153l2.533 4.846 11.189-1.054 9.711-3.792h7.179L542.7 967l2.744 1.686v25.775l3.8-1.967 4.433-6.742 7.811-.421 2.534-4.214 7.178.632 2.534 3.371 5.066-2.317v-9.061l7.178-.421 3.378 3.371v6.11l-6.123 3.793-.422 8.849 4.223 3.371 2.322 4.635-2.322 5.478-10.135 7.375h-9.288l-15.412-10.324-4.222-5.9-7.177 4.635-6.756.633-6.545-.633-.21 9.272-13.3 7.585-5.068 1.895-3.589 3.583h-9.29l-6.755-7.375 3.167-4.424 5.067-.843 4.855.632v-2.95l-7.6-1.897.423-36.66-2.534-2.108-.844-2.949 11.61-8.217zm-22.906-52.463 5.595 14.327 6.755 12.431-.844 6.532-1.267 4.003-10.24 1.896v23.599l-.949 8.216-16.678-1.474-5.489-20.649-8.867-8.427v-8.007l-9.079-8.428-9.077-.422-2.533-10.744-6.967-2.53v-8.637s6.545-4.214 7.6-4.214c1.056 0 6.333 1.264 6.333 1.264l1.9-4.004 2.744 4.004 1.056 6.742 3.378 4.214-2.955 8.85.633 4.845 5.7-4.846h5.489l5.278-1.686-7.177-8.849-6.334-1.054-1.9-8.216 1.478-10.746 8.444 1.474 1.478 3.161-.423 9.271-1.688 2.107 2.744.421 3.167-5.688 22.695 1.264Zm-275.61-81.118-20.127 2.81.14-9.271-1.828-3.583-5.841-1.615-11.19-1.123 12.949-7.165 18.155-2.948 3.38 6.881 5.91 1.827-1.548 14.187Zm232.014-47.197-4.433-1.896-.845 5.69-18.366 4.845-4.644-3.37-13.724-.634-.632-8.637 5.278-3.793-.212-5.056-.633-6.954 9.289 1.475 7.178 4.215 5.488-3.373.423-7.163-10.344-3.16-13.09-.843-2.533-7.584 3.173.186-10.562-9.036-21.533 10.114h-13.934l-12.891-15.823.223 5.71 4.434 6.32-3.167 2.106-14.355-12.43 1.267-5.268 7.867-1.018-.373-.457-16.361-1.262v3.58l-6.967 3.16-3.8 5.268h-5.279l-1.688-29.708 8.867-1.264 3.378 18.54-1.267-18.54L320.396 686l-7.177-39.048h-11.4l-27.023 17.698h-15.412l-14.988 12.642-5.912 15.17h-15.199v4.635l-6.968 3.793-5.066 4.425 2.11 8.427 2.956 6.11 9.29.949h5.488l6.756-7.27 2.322-5.688 5.49 6.11v9.481l-5.068 7.374 10.345 12.221-1.055 5.056-5.278 1.264-13.09-13.062-2.322 3.37.422 14.75-32.405 25.283 2.005 3.792 10.133 3.161h10.134l5.912-4.214 12.033-.421 2.744 6.742v9.06l-5.91 4.214-6.334-2.74h-13.724l-18.366 2.74-29.978 7.796h-11.19l-5.277-5.057-7.39 5.057-7.6 4.214-5.488 3.371h-4.222l-2.533 5.478h-5.912l-12.245-10.746-10.978-1.474-1.688-9.903 2.744-.843 3.588 4.425 9.29.21 3.589-5.268-.211-9.69-6.334-2.318-6.122 2.738-5.278 2.528-2.745-5.056 5.701-1.053.422-4.847-2.533-1.264.21-10.113 4.223-4.846V755.25l-8.023-6.744-6.317-.63-.108.26-1.386 3.953-.246.034-3.508 8.567 1.855-.174 8.866 12.432-2.11 9.691-2.957-3.37-7.6-1.686-4.855 9.481 2.533 15.17-.633 10.536-9.5 2.528-5.068-7.585-17.31-2.95-4.434 2.529v6.531l13.09 1.896 2.532 4.636-5.91 5.056-1.479 7.375s5.912 5.899 6.545 5.899c.634 0 5.91-5.9 5.91-5.9l7.39-11.166 6.966 3.792 1.056 4.846-7.177 1.896v9.482l12.244.843 4.434 10.534-16.467 14.749-1.478 5.267 1.688 7.796 16.679 15.592 9.077-7.586-1.899-12.22 4.644 1.476 4.223 13.063 5.278-.422 1.266-3.371-2.534-6.953 14.145-.21 2.322-2.95 7.179-.21 5.489 23.386 4.433 21.913h-11.4l-3.166 4.424.421 8.85 4.856 5.688 16.467-.21 1.055-10.535 8.022-2.318 8.235 9.06 9.711-.21 12.666-4.846-2.322-5.268-2.534-5.689.212-19.384 10.344 4.635 5.7-2.528-.632-6.11-5.49.632-2.744-4.004 3.8-7.163 1.478 1.896 3.377 1.054-.421-8.428-3.801-2.739-10.344 12.01-1.9-20.86s-9.923.632-10.556.211c-.634-.422 1.267-12.01 1.267-12.01l23.855-3.793 1.056-5.477.21-14.539 16.68-4.213 13.088 15.17 17.1-10.324 2.112 2.95-21.956 19.173 12.666 2.74-18.577 10.955 21.744 33.501 17.1-17.698-.21 6.742-3.379 7.796 6.968 5.056 10.133-3.371 2.112-8.639-.423-6.32 9.5-10.746.633-41.506 21.745 14.537-7.6 3.582-6.756-1.897-1.266 30.762-5.49 1.897-4.643 5.056.843 3.371-3.166 10.535-5.7 12.642 11.4 5.478 14.356 1.686v-5.478l8.867-8.006s0-6.532-.21-7.165c-.213-.631.21-8.849.21-8.849l6.334-2.107 2.533-8.85 4.644-5.266 6.122 1.475 9.922 8.849 2.322 8.85h8.445l1.9-6.533 2.323-2.107 2.322 6.743 6.122 7.164h6.755l-2.533-4.214v-5.9h14.567l1.056 10.114 10.345 10.534 12.245 6.321 2.955-1.686-6.333-7.585-4.856-8.85-1.9-14.326 13.089-16.013 3.166-12.43 10.979-8.85-1.056-18.752-11.61.42.42 15.171-4.643 1.054-8.867-12.22-13.3-17.278-4.223-13.274 3.8-1.264 4.645-3.582 10.978 9.903 32.933 17.699 31.668-29.92-15.412-11.378.211-4.635Z" fill="#fdc523"/>
  <g fill="#FBDBE9">
   <path d="M766.27 908.426c1.056.21 8.023-1.264 8.023-1.264l1.69-3.582s2.743 1.054 3.377 1.264c.633.21 4.222 5.689 4.222 5.689l-3.377 6.531-6.968-2.74-8.656-2.948 1.69-2.95Zm20.479 32.236 8.233 2.318 6.123 4.845.844 5.69-3.8 1.054-2.744-3.161-18.157-.422v-5.056l2.745-5.268zm2.85-24.652 10.24-7.585v-19.383l5.065-3.266h10.346l4.644 5.584v18.962l1.9 5.689-3.59 3.16-7.177 2.318 1.478 4.845-2.956 2.53-12.245-2.108zM766.27 730.387l8.585 3.09 5.63 3.09v8.288l-.562 4.495-4.645 1.545h-7.882l-7.88-9.41-2.534-4.917 1.83-3.653 3.799-2.528zm54.89 1.686 6.475-1.123 4.363 3.23 2.11 7.585 1.126 9.13-1.829 5.198h-7.741l-3.237-4.074 2.533-4.916 1.83-2.248-.562-6.04-4.364-2.81zm215.337 49.162 9.993 9.973v5.9l-2.533 2.388-7.46-4.495-9.57-8.147 2.956-4.355zm3.237 28.795 6.756 7.866-1.97 5.057-8.585 5.478-2.252-1.545.844-16.855zM842.22 926.967s12.93-10.166 13.089-10.377c.158-.21 10.133-3.95 10.133-3.95s3.958.632 4.116.737c.159.106 3.167 2.37 3.273 2.581.105.21-1.003 6.742-1.003 6.742l-8.18.896-5.859 3.687-8.55 2.897-4.698-.421-2.322-2.792Zm110.043 31.043c.14-.211 10.204-8.147 10.204-8.147l6.895-3.441 2.674 4.776-3.377 6.811-6.509 7.235-9.887 1.615-1.478-5.058 1.478-3.792Zm-138.28-116.796 7.037-.984 3.237 3.793 3.66 7.585 1.688 1.685h7.038l2.954-7.304-7.177-4.635-2.111-4.355 6.334-5.618h3.94l3.66-5.479h4.644l1.267 4.075 13.37.28.564-2.668 5.066-.703 1.97 3.091 11.54 1.123 4.223 3.792 6.756-3.65 9.992-3.935 2.112 7.164-2.392 4.074-12.808 7.865-4.363 6.883-2.112 8.006-.421 8.148h4.081l9.852-6.882 9.852-6.041 6.474-4.495 3.66-3.23 6.614-1.826 3.238-6.462 17.31-.42 3.801-.564 2.251-2.387 2.535 1.405v4.073s2.25 3.09 2.533 3.09c.282 0 9.007 1.124 9.007 1.124l-1.97 4.776-9.43 7.445-13.37 5.197-7.319 4.354-7.179 2.388h-16.888l2.393 10.254 9.57-1.405.422-2.247 7.6-.562L942.2 888.55l3.94 8.849-.28 12.922-.424 11.09-3.377 5.767-5.49 5.197-8.022 2.81-6.474-3.231-9.57-11.8-3.66-5.337h-5.067l-13.51-17.84-7.882-8.146-6.896-3.055-6.897 2.634-7.741 5.197-5.63.281h-12.104l-3.94-4.073-9.15-1.125s-2.813-3.651-2.813-4.776c0-1.123-.564-8.99-.564-8.99l-4.855.984-4.434 4.635-11.664.422-7.618-3.231-4.221-8.427 1.266-5.9 5.911-6.461 5.49-4.635 4.503-6.603 2.956-4.494Z"/>
   <g fill="#fbe978">
    <path d="M878.02 820.846v4.214l5.63 3.372h2.675l.844-3.794v-3.792l-6.615-.983zm-392.954-118.06-10.556-.843-14.144 12.43-3.167-.657-5.686 20.52 4.42 5.211-8.867 17.699 1.476 5.688 9.924 6.532h11.61l5.279-5.689 7.81-9.27-3.799-7.375-11.824-6.11 3.167-3.371 11.612.422 7.388-2.74 8.657-4.846 7.389-6.32 7.6-4.004 2.745-5.477-10.133-5.058z"/>
    <path d="m795.615 802.867.634-13.907-4.434-2.317-6.544.632-.845 12.641-7.811 6.743 4.011 8.428-10.345 5.268.212-8.217 3.589-10.956 2.322-18.331-4.857-11.8-9.5-6.742-10.343 4.004-12.034 10.534 2.956 8.428 4.644 8.006-17.944 1.476-8.234 13.274-10.346 4.002h-15.621s-5.49-7.163-5.7-8.427c-.212-1.265 1.055-5.478 1.055-5.478l5.912-2.107 4.855 5.9h10.345l1.267-9.271h3.167l1.054-4.635 4.645-.422 3.8 2.74h6.756l3.166-5.268-1.9-4.425h-15.2l-2.11-4.425-4.645-8.638-5.278-5.689 2.956-4.004.422-2.738-3.589-3.16-.212-13.064 3.8-4.846 9.078-6.531-10.133-11.379-.633-14.959-2.957-13.694-8.867-7.586v-6.32l11.824 2.106 5.277-4.003.633 10.956.423 7.796 4.433 5.267-3.165 4.846-2.113 7.164 5.49 8.85 5.277 6.952 2.746-3.792 9.92-.843 5.49 11.167h5.278l-.845-14.96 9.924-1.264 4.433-6.953 7.6-6.321 7.81-7.374-1.266-24.02-3.378-8.849-8.445.21-6.332 7.165-5.278.843-4.856-6.321-10.345 1.474-1.267 13.274-5.489 3.16.634 8.85-5.912 2.107-3.8-8.218-1.267-12.43 4.433-4.003 8.235-11.589 13.723-1.264 7.81 8.428 6.334-6.11-2.534-3.792-3.8-3.583 3.379-4.213-.634-5.478-5.7.842-6.122 8.638h-10.345l1.478-10.744-4.223-6.954-19.633-9.691-.422-8.218 3.166-4.425 20.716.591-5.093-12.811-3.095-14.327-16.609 3.37 1.689-33.149-33.78 1.124-14.917-3.09-8.445-8.428-3.097-14.608-5.066-44.948-43.91 50.847-29.838-19.665-8.082 12.753c3.97 5.825 11.36 16.734 11.67 17.658.422 1.264-1.267 11.588-1.267 11.588l-10.978 10.535 6.544 15.802 10.345 2.739 6.966 4.846-5.277 40.243-2.956-5.9-7.177-10.535-4.857-6.742-11.189-.842-6.754-4.214-3.8 2.739-.845 7.374-4.012 4.636-8.233-2.108-9.5-6.32-5.7 5.267-8.235 2.74 13.725 12.851 9.076 5.9 11.4 7.374-6.333 11.377-13.934 1.054-4.855 9.06-7.811 2.107-9.71 9.903-12.457 4.424-9.289.212-.938 3.433-.176 1.246 8.503 2.484 12.244 8.639 21.956 8.428 15.834 15.38 12.878 6.532 12.245 1.686 6.333-8.007-1.056-7.164s-3.8-6.11-4.644-6.952c-.844-.844-3.59-5.479-3.59-5.479l8.446-10.535 6.966-9.06-5.066-8.638-5.067-4.213 6.544-1.897 3.59-6.321 8.866-3.16 3.589 8.848 2.745 8.85-5.278 6.952 2.956 5.69 6.755-5.057v8.85l12.245 3.58 5.489-2.948 10.133-.422 2.745-4.846 19.844-.633-7.6 12.853 15.623 3.582.844 15.591h-16.677l-2.534 5.057-7.39 2.318 2.745-8.218-5.912-3.16.212-16.013-6.755-.42-1.9 13.694-17.523 2.95 2.533 5.689 2.956 4.845-6.756-.21-2.744-2.739-3.59 5.268-14.355.421-8.445 22.334-6.967-2.528-18.788 22.333-1.479 20.016 10.557 1.897 6.543 2.528-5.066 8.006-5.489 6.742.845 31.816 6.334-1.054 3.588-13.695 14.778-2.317 4.435 9.903 3.8 14.115 8.654 4.425.422-8.006-4.643-7.796 4.22-4.635-2.11-3.793-7.389-4.635-2.11-6.532 9.71-.421 21.323 24.862 7.39 3.372.843-6.11-4.223-11.589-.844-6.953 4.011-7.374-7.6-11.378 8.022 1.686 5.701 10.534-1.267 12.853 4.856 1.264 2.322-2.95 4.645-2.318 1.9 4.425 5.91 17.698 6.967.422 10.767-5.057 1.69 24.652-12.879 9.692-10.766-4.846 4.012 10.956 1.054 9.691-19.21 12.853-.635 8.218-6.755 5.477-11.4 1.054-3.8 14.539-10.134 3.581 3.379 6.953 18.366 2.318-3.8 8.849-6.544.632-1.688-3.582h-12.246l-.633 9.902 6.333 2.95 4.433-4.214 5.912 1.264-7.178 7.586 4.433 7.795 12.878.422 1.056 6.743-4.433 1.685-7.813 1.475-4.01 7.163 8.022 16.224 5.7 2.528 5.067-9.902 4.012-7.586 5.7-2.317 13.3 5.268 6.755-1.264 13.089-16.014 5.49 1.897 16.044 1.896 3.166 4.635h18.79l6.756-3.16 1.054-8.217-2.32-.843-1.267-9.482-9.501-1.685-6.122-3.793 1.9-7.584-2.534-7.375 2.956-7.585 6.545-1.054 4.01 8.64h4.434l3.378-10.325.634-9.06 5.7 5.9 6.755 2.106 3.166-6.953 3.379 6.11 10.767 4.636 18.578-6.953 7.81-6.11-1.477-7.164-11.189-6.531-2.744-11.378-6.966-2.529-12.246 1.686-7.811-10.745-3.801-4.636-5.91 2.528-.844-3.581-6.968-.633-3.589 6.322-12.032-6.532-8.657-6.532-.634-14.538-3.377-.42-14.145 2.738-.21-17.487 11.188 5.9 3.589-1.054 12.667-5.268 5.7-1.264 14.989 13.905 30.19.843 5.91-26.969 5.701 2.739 1.9 7.585-4.011 7.585v6.111l4.644 2.739.423 6.531-2.745 2.528-.422 7.796h7.81l.634-13.484-2.11-6.11 16.044-12.432h20.69l6.121-3.37 4.434-5.267v-18.542l-11.4-10.324-2.745-4.846Z"/>
    <path d="m446.854 189.74-5.912 5.69v8.849l-.982.511 11.469 3.071 46.642 3.446 29.922-14.122 27.17-6.81 7.735 6.249-10.135 14.607-3.377 12.361 3.94 16.294-1.125 7.305 12.284 26.91-43.811 43.884-25.052 27.53 9.851 11.8-25.896 25.635 4.504 6.952.563 15.17-12.386 25.285-10.133 6.18 2.25 17.417-11.82 19.103-.563 19.104 9.007 6.18 9.57 9.867-1.051 15.91 6.47 4.844 12.878 21.28 10.767-.42-.633 6.53-7.812 8.007-3.166 8.427 1.478 13.274 10.767.21 1.267-7.162 4.221-11.588 15.833-8.85 5.702-15.802v-28.444l13.932-2.107 5.912 8.006.21 7.796-7.177 8.429-1.267 7.794 4.01 3.793 6.125-3.793 5.91-8.217-.21-8.849 1.266-7.375 6.756 4.425s2.384 3.48 5.192 7.622l5.082-15.067 30.963 18.542 40.886-49.443 23.293-70.232v-12.923l-23.293-22.474-22.138 1.894 5.826-6.977v-8.14l-4.307-4.195 6.755-10.114 4.543 5.006 13.982 1.163 44.529-38.756 8.443-12.36v-14.609l64.671 5.433 15.554-60.074-4.012-3.792 6.968-38.978v-11.168l-2.113-17.593-32.51-27.285-46.025 1.264-3.8-6.742-22.166 5.057-4.643-11.378-6.124-5.056s-9.922 4.635-10.134 4.002c-.21-.631-14.143-20.858-14.143-20.858l3.8-3.583-4.223-10.744-6.967-15.381-4.222-12.01-3.167-.843-2.321 3.793-6.968 4.846-2.322 9.692-13.09-1.265-7.178-10.324-9.921-6.953-3.8-6.742h-21.112l-2.955 4.846-8.234 6.11-2.111-3.582-8.867.843-1.056 6.321-8.233 5.057-10.133-3.793-5.49 3.16-.844 8.85-12.455 20.647H497.1l-11.4 9.272-20.056-1.054-4.645 9.903-4.644 5.689v12.22l-9.5 10.324-2.746 14.327-4.433 9.692-1.9 13.907 9.078-2.53v2.95ZM153.616 685.93l-.844 11.8-7.389 6.742-2.323 8.217 5.278 8.112v18.646l7.6 5.268h16.678l2.323-11.167-4.223-8.006 1.69-2.74 8.022-2.001v-12.326l-8.233-11.799-4.223-9.481-4.433-2.95z"/>
    <path d="M181.905 599.334v15.381l-3.484 4.635-3.482-2.528 6.966-17.488ZM14.702 346.71l2.745 27.39 4.223 39.61 10.344 31.185 3.379 29.075 25.333-26.547 2.956 1.474-10.346 18.12-1.477 8.85 1.69 6.953-2.957 3.16-2.533 57.309 6.544 2.107 5.912 5.267 1.9 14.328-13.934 3.793-1.478 13.062-.633 7.375 3.378.843 4.222-6.11.423-8.007 5.488-.21 3.379 6.742-.634 9.903 16.467 6.742 16.255 9.482 16.046 14.537 9.288 12.642-1.266 17.067 3.377 4.213.634 4.214h-11.612l-9.711 6.742-12.878 5.478-26.81 19.385-6.335 6.11h-4.645l-7.388 8.849-6.334 16.224 6.546 12.01 9.5 10.534 12.877 15.17 12.112-1.134 1.147-8.262-3.97.547-5.278-3.371v-6.742l9.5-7.691 6.333-7.48-3.8-13.484-4.854-5.268 12.243-3.581 2.533-5.058 14.357-2.107 7.177-9.27 12.879-9.903 11.4-6.32 5.278-11.378-.211-11.8h10.766l-1.266 11.167 4.433 8.008-2.321 3.16h-5.701v6.953h14.99l2.743-6.953 6.334 4.846 14.144.632 2.323 10.745 5.277 7.796 2.745 3.16 9.712-4.635 4.643-1.896 1.057-12.22 7.388 1.896 2.534 8.217v1.642l15.095-1.01 20.688-26.337 12.563.948 13.933-10.745-2.64-12.22-5.91-8.85s-6.36-5.546-6.147-6.178c.21-.632-6.52-36.487-6.52-36.487l-4.223-20.86-26.283-21.175 21.956-60.997-46.164-100.29 44.897-22.756-5.91-19.384.844-18.541-23.646-83.858-13.934-39.61-7.177-8.85.669-11.798h-13.97l-2.11 11.588-39.901 34.555-24.278 44.034-12.456 4.425-6.333-6.11-3.166 1.054-4.434 3.581-10.133-1.053-30.401-15.381-34.201-20.016-8.023 3.37-4.01 22.967-9.079 5.268 4.434 19.594 7.388 55.835Z"/>
   </g>
  </g>
  <path d="m236.232 548.767 19.563-57.73 3.59-8.85h20.478l-3.8 15.17 43.49-7.584 24.489-4.635 23.644-21.492 40.112-8.006 44.334 18.12v18.54l16.467 12.642-3.589 15.803-1.477 52.463-8.445 5.057-6.334 10.113 6.756 4.635 1.055 8.217-3.166 5.689 8.023 1.475 7.177 13.274v14.96l3.167 5.688-6.123 4.214.845 9.482 2.745 10.746.21 7.373 8.023 5.9-1.267 6.32-11.61 1.897.421 8.006-.422 6.953-11.611.843-2.744 8.218 10.133 2.106-9.234 19.411-2.166-2.555-4.222 2.739 1.055 11.167-8.445 7.585-8.656-6.742-6.966-13.695 12.666-21.492-6.122-3.37-11.189 15.38-11.188 4.425-1.9-10.114 1.055-5.899-3.378-.422-.423 11.167 1.69 8.428-2.534 9.693 6.122 3.37-.632 1.265-17.946-4.32-12.245.211-7.388 5.795-9.184-.106-11.927-3.687-4.434-6.322-.423-10.744-25.756-1.686-3.377-18.542 8.867-16.118-6.017-22.017-4.75-21.07-27.129 9.376-4.327-19.595-14.04-12.537-2.532-38.346-1.056-11.905z" fill="#fdf6d0"/>
  <g stroke-width="5.063">
   <g stroke="#000">
    <path d="m153.62 685.93-0.844 11.8-7.389 6.742-2.323 8.217 5.278 8.112v18.646l7.6 5.268h16.678l2.323-11.167-4.223-8.006 1.69-2.74 8.022-2.001v-12.326l-8.233-11.799-4.223-9.481-4.433-2.95z"/>
    <path d="m344.041 744.715-14.355-12.431 1.266-5.268 11.401-1.474.422 10.745 4.433 6.32-3.167 2.108Zm-21.956-16.856-6.966 3.16-3.8 5.268h-5.278l-1.69-29.708 8.867-1.264 3.378 18.54h5.49v4.004Zm-72.2 20.227-5.279 1.264-13.088-13.063-2.322 3.37.422 14.75-32.407 25.284 2.007 3.792 10.133 3.16h10.133l5.911-4.214 12.034-.42 2.744 6.741v9.06l-5.911 4.214-6.334-2.74h-13.722l-18.367 2.74-29.977 7.796h-11.19l-5.278-5.057-7.389 5.057-7.6 4.214-5.49 3.371h-4.222l-2.533 5.478h-5.91l-12.245-10.746-10.978-1.474-1.69-9.903 2.745-.843 3.589 4.425 9.289.21 3.59-5.268-.213-9.69-6.332-2.318-6.123 2.738-5.278 2.528-2.744-5.056 5.7-1.053.421-4.847-2.533-1.264.211-10.113 4.223-4.846V755.25l-8.022-6.743-6.334-.632-1.477 4.214-6.123.842-5.277-3.37v-6.743l9.5-7.69 6.333-7.48-3.8-13.484-4.856-5.267 12.245-3.582 2.533-5.057 14.356-2.107 7.178-9.27 12.877-9.903 11.401-6.321 5.279-11.378-.213-11.8h10.768l-1.267 11.168 4.434 8.006-2.323 3.16h-5.7v6.954h14.989l2.745-6.954 6.333 4.847 14.145.632 2.322 10.745 5.278 7.796 2.744 3.16 9.711-4.634 4.645-1.897 1.055-12.22 7.39 1.895 2.533 8.218v6.742l-6.967 3.793-5.067 4.425 2.111 8.427 2.956 6.11 9.289.949h5.489l6.756-7.27 2.322-5.688 5.489 6.11v9.481l-5.066 7.374 10.344 12.222-1.056 5.056Zm-41.8 80.486-20.127 2.81.14-9.272-1.829-3.582-5.84-1.615-11.19-1.123 12.949-7.164 18.155-2.95 3.378 6.882 5.91 1.827-1.547 14.187Zm-26.18-229.237v15.38l-3.483 4.636-3.483-2.528 6.967-17.488ZM1277.38 52.999l-17.1-21.701 26.6-11.378-4.644-16.645-44.335 15.38-26.81-15.38-9.712 10.745 6.333 1.054-19.423 25.705-64.811 21.912 11.189 10.957-24.068 20.016-1.899 7.795-16.89-24.02-8.022 35.187-28.501 13.905-10.555-5.266-2.956.42-3.589 11.8-93.523 41.717 2.533 20.228-2.956 6.11v14.643l6.755 9.587v12.22l9.712 10.113 10.556-.21 9.923 7.164 2.955 9.692 7.178 5.267-.634 21.28 6.967-.631 3.379 12.43-27.656 20.227-17.523.843-7.179 5.057-21.533 46.564-135.113-49.935-25.545-24.44 16.256-62.788-4.012-3.794 6.967-38.978v-11.167l-2.111-17.593-32.512-27.286-46.022 1.265-3.8-6.742-22.168 5.056-4.644-11.377-6.123-5.057s-9.921 4.636-10.133 4.004c-.211-.633-14.144-20.86-14.144-20.86l3.8-3.581-4.223-10.746-6.967-15.38-4.222-12.01-3.167-.843-2.322 3.792-6.967 4.846-2.322 9.692-13.09-1.264-7.178-10.323-9.92-6.954-3.802-6.742h-21.111l-2.956 4.846-8.233 6.11-2.111-3.582-8.867.843-1.056 6.32-8.233 5.058-10.133-3.792-5.489 3.159-.845 8.85-12.455 20.648H497.1l-11.4 9.271-20.055-1.054-4.644 9.904-4.646 5.688v12.22l-9.5 10.324-2.745 14.328-4.433 9.692-1.9 13.905 9.079-2.528v2.95l-5.912 5.689v8.85l-9.71 5.055-8.235-5.266-28.078-16.857v-8.85l-14.777-21.49 4.433-11.587 1.477-7.375-10.344-3.16-5.278-10.747H351.22l-39.69 20.016-22.378 1.476-17.733 12.641h-11.612l-15.2 10.957-9.29 1.685-28.5 12.221h-15.412l-2.11 11.588-39.9 34.554-24.279 44.036-12.455 4.424-6.334-6.11-3.167 1.053-4.433 3.583-10.134-1.054-30.4-15.38-34.2-20.017-8.024 3.371-4.01 22.966-9.08 5.267 4.434 19.595 7.39 55.835 2.745 27.39 4.221 39.61 10.346 31.184 3.377 29.077 25.334-26.548 2.955 1.474-10.344 18.12-1.478 8.85 1.689 6.953-2.955 3.16-2.534 57.309 6.544 2.107 5.911 5.268 1.9 14.327-13.932 3.792-1.479 13.064-.633 7.374 3.378.842 4.222-6.11.422-8.006 5.49-.21 3.377 6.742-.634 9.902 16.468 6.743 16.256 9.48 16.044 14.539 9.29 12.642-1.267 17.066 3.378 4.214.633 4.214h-11.611l-9.712 6.742-12.878 5.479-26.811 19.383-6.334 6.11h-4.645l-7.388 8.85-6.334 16.223 6.545 12.01 9.5 10.535 12.878 15.17 13.511-1.265 8.867 12.432-2.111 9.692-2.955-3.372-7.6-1.685-4.857 9.481 2.534 15.17-.633 10.536-9.5 2.528-5.067-7.585-17.312-2.95-4.433 2.529v6.532l13.089 1.895 2.533 4.636-5.91 5.056-1.478 7.375s5.91 5.9 6.544 5.9c.633 0 5.911-5.9 5.911-5.9l7.39-11.167 6.966 3.792 1.056 4.846-7.179 1.896v9.482l12.245.843 4.433 10.535-16.466 14.748-1.478 5.268 1.69 7.795 16.677 15.592 9.078-7.586-1.9-12.22 4.645 1.476 4.221 13.062 5.279-.421 1.266-3.371-2.533-6.953 14.145-.21 2.322-2.95 7.177-.21 5.49 23.386 4.433 21.912h-11.4l-3.167 4.424.422 8.85 4.856 5.69 16.467-.211 1.056-10.535 8.022-2.318 8.233 9.06 9.712-.21 12.667-4.846-2.323-5.268-2.533-5.689.21-19.384 10.346 4.635 5.7-2.528-.634-6.11-5.489.632-2.744-4.004 3.8-7.163 1.477 1.897 3.38 1.053-.424-8.428-3.8-2.739-10.345 12.009-1.899-20.858s-9.922.631-10.556.21c-.633-.422 1.266-12.01 1.266-12.01l23.857-3.793 1.055-5.477.211-14.539 16.678-4.213 13.09 15.17 17.1-10.324 2.11 2.95-21.955 19.173 12.667 2.74-18.578 10.955 21.744 33.5 17.1-17.697-.21 6.742-3.378 7.796 6.967 5.056 10.133-3.371 2.111-8.639-.422-6.32 9.5-10.746.634-41.506 21.744 14.538-7.6 3.581-6.755-1.897-1.268 30.762-5.489 1.897-4.644 5.056.845 3.371-3.167 10.535-5.7 12.642 11.4 5.478 14.356 1.686v-5.478l8.867-8.006s0-6.532-.211-7.165c-.211-.631.21-8.849.21-8.849l6.334-2.107 2.533-8.85 4.645-5.267 6.123 1.476 9.922 8.849 2.322 8.85h8.445l1.9-6.532 2.321-2.107 2.324 6.742 6.122 7.164h6.755l-2.533-4.214v-5.9h14.567l1.055 10.114 10.345 10.534 12.244 6.321 2.956-1.686-6.334-7.585-4.855-8.85-1.9-14.327 13.09-16.012 3.166-12.43 10.978-8.85-1.055-18.752-11.612.42.423 15.171-4.645 1.054-8.867-12.22-13.3-17.278-4.222-13.274 3.8-1.264 4.644-3.581 10.978 9.902 32.934 17.699 31.668-29.919-15.412-11.378.211-4.635-4.433-1.897-.845 5.69-18.368 4.845-4.644-3.37-13.722-.633-.634-8.638 5.278-3.793-.21-5.056-.634-6.954 9.29 1.476 7.177 4.214 5.489-3.373.423-7.163-10.346-3.16-13.089-.843-2.533-7.584 7.177.42 1.057-2.106-6.123-3.372 2.533-9.692-1.688-8.428.422-11.167 3.378.422-1.056 5.9 1.9 10.113 11.19-4.425 11.188-15.381 6.123 3.371-5.489 9.692-7.178 11.8 6.967 13.695 8.655 6.742 8.445-7.584-1.056-11.168 4.223-2.739 6.966 8.217-8.867 17.698 1.478 5.69 9.922 6.53h11.612l5.278-5.688 7.812-9.27-3.801-7.375-11.823-6.11 3.167-3.37 11.612.42 7.388-2.74 8.656-4.845 7.39-6.321 7.6-4.003 2.744-5.478-10.134-5.057-20.9-6.742-10.555-.843-14.145 12.432-10.134-2.107 2.744-8.218 11.612-.842.422-6.954-.422-8.006 11.611-1.897 1.268-6.32-8.024-5.9-.21-7.374-2.744-10.745-.845-9.482 6.122-4.214-3.167-5.689v-14.959l-7.178-13.274-8.022-1.474 3.167-5.69-1.055-8.217-6.756-4.635 6.333-10.113 8.445-5.057 1.477-52.463 10.978 8.217 12.879 21.28 10.766-.421-.633 6.531-7.811 8.007-3.167 8.428 1.477 13.274 10.767.21 1.267-7.164 4.222-11.588 15.834-8.85 5.7-15.801v-28.444l13.934-2.107 5.91 8.006.211 7.796-7.177 8.428-1.266 7.796 4.01 3.792 6.123-3.792 5.91-8.217-.21-8.85 1.266-7.374 6.756 4.424s1.172 1.71 2.843 4.162c4.043 5.937 11.004 16.224 11.302 17.119.422 1.264-1.267 11.588-1.267 11.588l-10.978 10.535 6.545 15.802 10.344 2.74 6.967 4.845-5.277 40.243-2.956-5.9-7.178-10.534-4.856-6.742-11.19-.843-6.755-4.214-3.8 2.74-.844 7.373-4.012 4.635-8.233-2.106-9.5-6.321-5.7 5.268-8.233 2.738 13.722 12.853 9.078 5.899 11.4 7.375-6.333 11.377-13.934 1.054-4.855 9.06-7.812 2.106-9.711 9.903-12.456 4.425-9.29.21-1.266 4.635 8.656 2.53 12.245 8.637 21.956 8.428 15.833 15.381 12.878 6.532 12.245 1.685 6.334-8.006-1.056-7.163s-3.8-6.111-4.644-6.954c-.845-.842-3.59-5.478-3.59-5.478l8.445-10.534 6.967-9.06-5.067-8.639-5.067-4.214 6.545-1.897 3.589-6.32 8.866-3.16 3.59 8.849 2.744 8.85-5.278 6.952 2.956 5.688 6.756-5.056v8.85l12.244 3.581 5.49-2.95 10.133-.42 2.745-4.846 19.843-.633-7.6 12.852 15.624 3.582.843 15.592h-16.678l-2.533 5.056-7.39 2.317 2.746-8.216-5.912-3.16.212-16.013-6.756-.422-1.9 13.696-17.523 2.949 2.533 5.69 2.956 4.845-6.755-.21-2.744-2.74-3.59 5.268-14.356.42-8.444 22.335-6.967-2.529-18.79 22.334-1.477 20.017 10.556 1.895 6.544 2.53-5.066 8.006-5.49 6.742.845 31.815 6.334-1.053 3.589-13.696 14.777-2.318 4.434 9.903 3.8 14.117 8.655 4.425.423-8.007-4.644-7.795 4.221-4.637-2.11-3.792-7.39-4.635-2.11-6.531 9.711-.421 21.322 24.861 7.39 3.371.843-6.11-4.222-11.588-.844-6.953 4.01-7.375-7.6-11.377 8.024 1.685 5.7 10.535-1.267 12.853 4.855 1.264 2.322-2.95 4.645-2.317 1.9 4.424 5.911 17.699 6.968.42 10.766-5.055 1.69 24.65-12.88 9.693-10.765-4.847 4.01 10.957 1.056 9.692-19.211 12.853-.634 8.217-6.756 5.478-11.4 1.053-3.8 14.538-10.134 3.582 3.378 6.954 18.368 2.317-3.8 8.85-6.545.63-1.69-3.58h-12.244l-.634 9.902 6.334 2.95 4.434-4.214 5.912 1.264-7.179 7.585 4.434 7.796 12.878.42 1.056 6.743-4.434 1.686-7.812 1.475-4.01 7.164 8.021 16.223 5.7 2.529 5.068-9.903 4.011-7.585 5.7-2.318 13.3 5.268 6.756-1.265 13.088-16.012 5.49 1.896 16.044 1.896 3.167 4.636h18.79l6.755-3.16 1.056-8.219-2.322-.843-1.267-9.48-9.5-1.686-6.122-3.792 1.899-7.586-2.533-7.374 2.956-7.586 6.545-1.052 4.01 8.638h4.433l3.378-10.324.634-9.06 5.7 5.9 6.756 2.106 3.166-6.952 3.378 6.11 10.766 4.634 18.579-6.952 7.81-6.11-1.477-7.164-11.189-6.532-2.745-11.377-6.966-2.528-12.245 1.685-7.81-10.745-3.8-4.636-5.912 2.529-.844-3.582-6.968-.632-3.588 6.321-12.034-6.532-8.656-6.531-.633-14.538-3.377-.422-14.145 2.74-.211-17.489 11.189 5.9 3.588-1.054 12.668-5.267 5.7-1.265 14.988 13.907 30.19.843 5.911-26.969 5.7 2.739 1.9 7.585-4.01 7.585v6.11l4.643 2.74.423 6.531-2.745 2.528-.421 7.796h7.81l.633-13.485-2.11-6.11 16.044-12.431h20.69l6.122-3.371 4.433-5.268v-18.542l-11.4-10.323-2.745-4.846.634-13.906-4.433-2.318-6.545.633-.845 12.641-7.81 6.742 4.01 8.429-10.345 5.267.212-8.218 3.59-10.956 2.321-18.33-4.856-11.8-9.5-6.741-10.344 4.002-12.034 10.535 2.955 8.429 4.646 8.006-17.945 1.474-8.234 13.274-10.344 4.004h-15.623s-5.489-7.164-5.7-8.428c-.212-1.264 1.055-5.478 1.055-5.478l5.912-2.108 4.855 5.9h10.346l1.266-9.27h3.167l1.054-4.636 4.646-.42 3.8 2.738h6.755l3.167-5.268-1.9-4.424h-15.2l-2.111-4.425-4.644-8.638-5.279-5.69 2.956-4.002.422-2.74-3.588-3.16-.213-13.063 3.801-4.846 9.078-6.532-10.133-11.377-.634-14.959-2.955-13.696-8.867-7.585v-6.32l11.822 2.106 5.278-4.003.634 10.956.421 7.796 4.434 5.268-3.167 4.845-2.111 7.165 5.489 8.849 5.278 6.953 2.745-3.794 9.921-.842 5.49 11.167h5.278l-.845-14.96 9.922-1.264 4.434-6.952 7.6-6.322 7.811-7.374-1.266-24.019-3.378-8.85-8.445.211-6.333 7.163-5.278.843-4.856-6.32-10.345 1.475-1.266 13.274-5.49 3.16.635 8.848-5.912 2.108-3.8-8.217-1.266-12.43 4.433-4.005 8.233-11.587 13.723-1.266 7.811 8.429 6.333-6.11-2.533-3.793-3.8-3.582 3.378-4.214-.634-5.478-5.7.843-6.121 8.639h-10.346l1.479-10.746-4.223-6.953-19.634-9.692-.421-8.216 3.165-4.425 36.946 1.053 9.289-13.906 33.145.633 16.256-1.687 2.744-7.795-9.922-8.427 5.067-5.268 4.01-14.117 20.268-1.686 2.322-4.213 11.19-1.686 2.743 4.424 8.234 5.9-15.2 17.067-21.323 29.918 8.867 9.482.845 4.003-21.534 5.056-4.856 12.221-18.156 13.906-3.378 15.801 2.533 4.004 8.234-.42 6.123-3.584 2.955-9.48 7.811-5.057 13.511-2.318 5.067-8.006 10.979-3.582-1.267-9.271 29.978 4.004 4.855-2.318 21.957-13.484 18.366-10.536.845 17.067-5.066 7.164 1.055 6.32 9.5 3.161v10.535l-6.967 8.849-.634 8.218h20.9c1.901 0 13.301 10.956 13.301 10.956l8.445 1.052 19.845 18.331 7.177-2.107 1.267-5.057-4.433-4.845-9.29-8.64.634-17.276-14.567-9.481-2.111-7.164 4.222-1.686 3.8-3.792 14.357-5.688 1.477-8.218-8.233-2.107-5.489 5.057-8.867-1.897-9.29 11.59-7.6 2.106-8.233-5.9-5.7-9.48 10.345-5.479 4.011-3.582-1.69-7.164-6.966-1.264-2.956 4.846-7.177 1.053-.211-15.801 7.388-1.687 10.767 6.322 14.99-.421 13.511-9.272 11.822 1.687 9.29-4.215 1.899-6.11 4.856-.21-.845 6.953 4.434 1.474 3.8-8.216 2.534 4.635-6.545 9.06 1.9 16.434 13.3-.633 4.856 4.847.21 8.638 9.29-.843 2.533 2.529-8.022 4.846-1.478 1.686 2.111 10.956 21.111-16.014 4.223-8.638 1.9 26.758 8.233-6.11 2.533-19.173 14.357-26.547 9.71 2.95 1.901-3.793-13.3-21.28-3.8 1.474.211 7.796h-3.379l-6.755-9.903-7.388-20.016 16.255-17.91 14.145-.632.422 9.061-11.822 17.277 4.433 2.95 5.91-8.85 5.7-8.006 1.901-6.954 2.533-1.474 2.324 5.9 13.722-3.582-8.656-1.475-1.267-3.793 6.545-6.742-23.434-26.126v-6.532l9.289 6.11-3.8-8.85 1.267-3.16 25.545 33.291 3.377-1.476.633-13.273 2.745-4.635h10.344L1106.8 483.24l.21-3.582 8.656 1.685 1.478-2.528-6.122-7.164 3.8-1.054 1.477-4.002-9.078-3.16 2.533-10.114-1.477-6.11-8.656-.632-.21 13.062h-10.767l-1.478-16.433h-10.978l-2.744-5.268-1.9-8.428-13.512-1.054.422-5.478-9.5-2.106.844-10.325 10.978-1.474 20.9 17.066-2.533 4.003 1.689 5.268 8.023-2.53 4.855-10.323 1.69-7.796-9.923-7.795-10.556-8.006 1.056-19.806 5.489-7.585 10.344-1.264 8.656 16.012 24.912 1.686 13.933 10.746 9.078 2.528 3.59-4.214-4.646-8.85v-8.638l3.59-10.534 10.766-4.214-.844-5.479-23.645-.21-5.277-3.583-.212-5.899 26.39.21 2.744 4.004 4.645 1.264 6.755-5.688 1.688-5.058-1.688-9.27-18.367-20.226 27.234-.422 2.111 8.428 6.756.42 4.01-3.791-.422-5.268-3.377-4.214 11.4-3.792 12.667-1.685.21 7.163-9.5 2.95-1.477 3.582 2.322 3.37 15.834-1.685 2.533-2.739 9.923-13.696.845-12.43-20.057-34.344-19.844-1.053-3.379 2.529-18.788-1.265-21.956 18.12-7.179-3.37 5.278-11.378 5.279-9.061 6.966-3.582 17.523-1.474 1.477 5.056 6.756.633 16.256-7.375 9.711-5.689-9.5-12.641 10.767-.212.21-5.688 6.546-1.054-1.056-5.266-1.267-22.967 9.078-26.126 24.49-1.264v-3.793l23.644-5.688 4.645-15.17-26.812-16.857 10.556.211.21-31.394-10.977-6.953 31.668-31.182-7.812.21ZM46.792 928.442l-1.266 5.267 4.222 2.108h6.333v-3.688zm-4.011 13.484-1.266 8.429 4.01 3.581 3.8-2.528 4.434-9.482zm124.347 45.721-4.012 18.7-5.805 11.43-8.762 12.642 3.589 11.167 7.178 5.689 1.478-2.95 20.479-18.33 5.91 8.006 6.123 1.053 5.277-4.846 1.056-6.953-7.177-3.16.844-11.378-10.556-13.484-8.656-5.689z"/>
    <path d="M236.232 985.892v-7.164l9.43-10.816 5.489-5.479h7.318l3.942 4.215 5.207-2.107v-8.568h9.289l5.63 3.932v14.187l-3.519 8.008-3.237-.141-3.378-4.776-4.222-.14-1.408 4.073-5.348 11.939-7.459 1.404-12.527-1.404-3.94-2.95zm243.556-110.756-1.69 4.845 1.69 5.268h5.49l4.01-4.003-4.01-6.11zm63.123-10.956 2.956 7.163-1.478 9.692-3.589 9.271 2.533 10.745 8.023 7.375 4.856-1.475 5.278-10.325 5.066-11.377-2.111-8.85-10.766-7.795-3.378-5.478zM506.6 962.153l2.533 4.846 11.189-1.054 9.711-3.792h7.179L542.7 967l2.744 1.686v25.775l3.8-1.967 4.433-6.742 7.811-.421 2.534-4.214 7.178.632 2.534 3.371 5.066-2.317v-9.061l7.178-.421 3.378 3.371v6.11l-6.123 3.793-.422 8.849 4.223 3.371 2.322 4.635-2.322 5.478-10.135 7.375h-9.288l-15.412-10.324-4.222-5.9-7.177 4.635-6.756.633-6.545-.633-.21 9.272-13.3 7.585-5.068 1.895-3.589 3.583h-9.29l-6.755-7.375 3.167-4.424 5.067-.843 4.855.632v-2.95l-7.6-1.897.423-36.66-2.534-2.108-.844-2.949 11.61-8.217zm-22.906-52.463 5.595 14.327 6.755 12.431-.844 6.532-1.267 4.003-10.24 1.896v23.599l-.949 8.216-16.678-1.474-5.489-20.649-8.867-8.427v-8.007l-9.079-8.428-9.077-.422-2.533-10.744-6.967-2.53v-8.637s6.545-4.214 7.6-4.214c1.056 0 6.333 1.264 6.333 1.264l1.9-4.004 2.744 4.004 1.056 6.742 3.378 4.214-2.955 8.85.633 4.845 5.7-4.846h5.489l5.278-1.686-7.177-8.849-6.334-1.054-1.9-8.216 1.478-10.746 8.444 1.474 1.478 3.161-.423 9.271-1.688 2.107 2.744.421 3.167-5.688 22.695 1.264Zm282.576-1.264c1.056.21 8.023-1.264 8.023-1.264l1.69-3.582s2.743 1.054 3.377 1.264c.633.21 4.222 5.689 4.222 5.689l-3.377 6.531-6.968-2.74-8.656-2.948 1.69-2.95Zm20.479 32.236 8.233 2.318 6.123 4.845.844 5.69-3.8 1.054-2.744-3.161-18.157-.422v-5.056l2.745-5.268zm2.85-24.652 10.24-7.585v-19.383l5.065-3.266h10.346l4.644 5.584v18.962l1.9 5.689-3.59 3.16-7.177 2.318 1.478 4.845-2.956 2.53-12.245-2.108zM465.362 778.567l7.038-7.866 6.332-3.09 3.801 1.123-1.127 4.354-9.71 6.743-3.238 2.107zM786.82 604.953l-3.168 4.565-2.04 3.582v3.09l1.618 3.231 3.59 3.582 5.136-.562 4.293-3.16 1.055-4.917-.28-3.3-3.238-4.706-2.464-1.897zm-20.55 125.434 8.585 3.09 5.63 3.09v8.288l-.562 4.495-4.645 1.545h-7.882l-7.88-9.41-2.534-4.917 1.83-3.653 3.799-2.528zm54.89 1.686 6.475-1.123 4.363 3.23 2.11 7.585 1.126 9.13-1.829 5.198h-7.741l-3.237-4.074 2.533-4.916 1.83-2.248-.562-6.04-4.364-2.81zm45.179-48.46 6.756-3.512 7.6-.562 2.252 4.074-1.407 4.635-6.897 4.214h-7.741l-.563-3.371-3.237-1.123zm43.349 24.441 4.222 3.511 2.815 1.546 6.897-1.968 1.547 4.496-6.332 5.619-9.15 1.264-7.6-7.234 2.112-4.706zm-29.978 11.377 5.348 4.214.562 6.742-4.362 4.215h-5.208l-4.362-4.215v-6.18l1.97-4.776h4.996zm-21.675 35.397 10.134-2.81h9.852v5.338l-2.956 4.074-2.04 3.09h-4.434l-6.615-4.214-2.251-.702zm-1.548 16.996 10.274-2.248 6.263 1.125 8.093 4.494 3.237 5.478-3.096 5.62-3.942 1.123-7.88-5.197-5.349-2.81-6.052-.912zm32.089 13.485 6.193 1.405 1.97 3.23.845 4.073-2.393 3.091h-2.815l-3.8-5.057v-3.933zm62.35-4.074 4.926 3.09v3.934l-1.83 2.949-4.786-1.826-3.096-4.916 1.126-2.247zm28.148-12.922 8.022 2.81 7.32 4.073-.704 6.04-3.8 2.809-9.852-1.405-5.49-4.916-1.97-7.304 2.955-2.107zm-9.57-24.793-.845-7.374 4.926-4.073 6.615-3.09 2.674 3.933-.704 6.742-8.163 6.883h-2.814zm30.682-71.285.844-12.36 5.207-.844 1.267 5.057 5.489 1.546v7.585l-6.404.702zm8.444 11.799 4.364 5.76 5.77 8.006-1.97 4.776h-6.194l-4.785-7.024-3.8-5.478 1.126-4.073zm27.867 97.201 9.993 9.973v5.9l-2.533 2.388-7.46-4.495-9.57-8.147 2.956-4.355zm3.237 28.795 6.756 7.866-1.97 5.057-8.585 5.478-2.252-1.545.844-16.855zM842.22 926.967s12.93-10.166 13.089-10.377c.158-.21 10.133-3.95 10.133-3.95s3.958.632 4.116.737c.159.106 3.167 2.37 3.273 2.581.105.21-1.003 6.742-1.003 6.742l-8.18.896-5.859 3.687-8.55 2.897-4.698-.421-2.322-2.792Zm110.043 31.043c.14-.211 10.204-8.147 10.204-8.147l6.895-3.441 2.674 4.776-3.377 6.811-6.509 7.235-9.887 1.615-1.478-5.058 1.478-3.792Zm-138.28-116.796 7.037-.984 3.237 3.793 3.66 7.585 1.688 1.685h7.038l2.954-7.304-7.177-4.635-2.111-4.355 6.334-5.618h3.94l3.66-5.479h4.644l1.267 4.075 13.37.28.564-2.668 5.066-.703 1.97 3.091 11.54 1.123 4.223 3.792 6.756-3.65 9.992-3.935 2.112 7.164-2.392 4.074-12.808 7.865-4.363 6.883-2.112 8.006-.421 8.148h4.081l9.852-6.882 9.852-6.041 6.474-4.495 3.66-3.23 6.614-1.826 3.238-6.462 17.31-.42 3.801-.564 2.251-2.387 2.535 1.405v4.073s2.25 3.09 2.533 3.09c.282 0 9.007 1.124 9.007 1.124l-1.97 4.776-9.43 7.445-13.37 5.197-7.319 4.354-7.179 2.388h-16.888l2.393 10.254 9.57-1.405.422-2.247 7.6-.562L942.2 888.55l3.94 8.849-.28 12.922-.424 11.09-3.377 5.767-5.49 5.197-8.022 2.81-6.474-3.231-9.57-11.8-3.66-5.337h-5.067l-13.51-17.84-7.882-8.146-6.896-3.055-6.897 2.634-7.741 5.197-5.63.281h-12.104l-3.94-4.073-9.15-1.125s-2.813-3.651-2.813-4.776c0-1.123-.564-8.99-.564-8.99l-4.855.984-4.434 4.635-11.664.422-7.618-3.231-4.221-8.427 1.266-5.9 5.911-6.461 5.49-4.635 4.503-6.603 2.956-4.494Z" fill="#fbe978"/>
    <path d="m878.02 820.85v4.214l5.63 3.372h2.675l0.844-3.794v-3.792l-6.615-0.983zm207.88-437.9c2.111 0.842 12.666 6.11 12.666 6.11l7.6 7.374v12.642h-8.021l-2.112-13.063-12.455-8.429-1.056-4.635h3.378zm34.201 182.04h14.99l17.1 3.162 10.554 12.22 5.068 2.738 7.6 2.318-1.69 10.746-7.177 3.581-6.334-5.688-8.022-10.324-4.433 2.738-1.9 7.375-7.178-3.16-11.612-8.323-6.966-10.85z" fill="#fdc523"/>
   </g>
   <path d="m322.09 726.17 7.6 2.809" stroke="#2F409A"/>
   <g stroke="#000">
    <path d="M223.284 691.479h15.904l7.881-16.575 13.794-10.816h16.326l27.867-18.4 8.163 1.263 7.318 35.96.986 9.691-8.304 12.712m33.989 35.046c1.9.984 17.382 7.445 17.382 7.445l17.875-10.534h7.459l8.888 9.404"/>
    <path d="m283.86 659.684-4.42-19.474-11.4-17.207-4.644-6.813v-24.862l-2.955-18.12-19.423-21.07h-6.334l21.534-61.945-.844-7.585-45.18-96.076 45.18-21.492-8.346-20.647 3.912-12.643-16.256-55.623-6.333-24.02-7.178-25.284-7.6-19.383-9.29-12.643L206.818 183"/>
    <path d="m255.37 482.61h24.489l-5.066 16.012 51.09-8.006 15.199-4.635 23.645-18.963 40.534-10.113 48.134 18.12v15.17l16.466 18.015-1.315 15.185m-8.184 190.98-8.542 20.226"/>
    <path d="m453.4 475.02 13.934-25.284-4.646-17.699 7.179-2.528 16.889-20.438-5.49-28.022 26.18-22.755-4.645-3.37-1.267-3.373-8.867-3.37 33.779-32.448 5.489-12.641 31.244-25.706v-7.584l-11.4-19.385 2.112-15.17-4.646-16.433 13.934-18.12-4.222-8.007-5.49-3.792-18.154 4.635-24.49 9.691-12.244 9.692-8.867-4.635-38.845 0.843-9.923-4.846m325.54 97.131-64.812-8.85v14.328l-27.023 32.026-24.911 19.383h-13.511l-4.646-2.528-7.177 7.586 4.222 6.32-0.423 4.636-3.8 6.742h20.48l24.277 25.705-24.278 78.8 4.856 6.742 2.533 31.095 2.956 16.855 11.821 11.889 18.157 3.371h28.712l-1.267 33.71 18.577-3.37 2.507 24.981"/>
    <path d="m564.49 526.87 9.1-10.265 29.838 18.821 41.448-49.865"/>
   </g>
  </g>
  <path d="m819.63 452.77h146.19v-42.599h-146.19zm-11.806 64.056h169.8v-42.598h-169.8z" fill="#000"/>
  <path d="m789.43 484.4h206.59v-42.599h-206.59z" fill="#000"/>
  <g id="easternosternsundom" fill="#fff" fill-rule="nonzero">
   <path id="easternosternsundom-label" d="m832.77 440.44h4.522v-21h-4.522zm15.66-4.067c-0.182 0.395-0.546 0.972-1.184 0.972-0.698 0-1.062-0.395-1.062-1.579v-7.344h3.46v-3.277h-3.46v-5.463l-4.249 2.367v3.096h-2.458v3.277h2.458v7.77c0 3.247 1.73 4.612 4.4 4.612 1.761 0 3.187-0.85 3.703-1.335zm10.015-8.315c1.244 0 2.185 0.668 2.185 1.67 0 1.061-1.184 1.334-3.278 1.79-2.458 0.485-5.614 1.365-5.614 4.795 0 2.822 2.124 4.491 4.825 4.491 2.337 0 3.733-1.335 4.34-2.276h0.091c0.182 0.729 0.364 1.214 0.85 1.912h3.217c-0.304-1.153-0.364-2.246-0.364-3.854v-6.1c0-3.824-2.732-5.706-6.191-5.706-3.4 0-6.04 1.76-7.223 4.31l3.763 2.003c0.425-1.821 1.639-3.035 3.399-3.035zm2.306 6.616c0 1.882-1.365 2.913-2.883 2.913-1.335 0-2.003-0.637-2.003-1.578 0-1.214 1.184-1.548 2.489-1.881 1.153-0.304 1.973-0.638 2.397-1.184zm-5.493-15.903c-1.305 0-2.276 0.972-2.276 2.277 0 1.335 0.971 2.276 2.276 2.276 1.336 0 2.307-0.941 2.307-2.276 0-1.305-0.971-2.277-2.307-2.277zm6.04 0c-1.305 0-2.276 0.972-2.276 2.277 0 1.335 0.97 2.276 2.276 2.276 1.335 0 2.306-0.941 2.306-2.276 0-1.305-0.971-2.277-2.306-2.277zm6.828 21.669h4.31v-15.295h-4.31zm2.155-21.911c-1.396 0-2.489 1.001-2.489 2.397s1.093 2.398 2.489 2.398 2.488-1.002 2.488-2.398-1.092-2.397-2.488-2.397zm19.21 12.109c0-3.794-1.851-5.858-4.795-5.858-2.519 0-3.824 1.487-4.582 2.883h-0.091l0.212-2.518h-4.28v15.295h4.28v-9.074c0-1.76 1.032-2.974 2.64-2.974 1.609 0 2.307 1.062 2.307 3.095v8.953h4.31v-9.802zm16.571 3.308s0.212-0.85 0.212-2.094c0-4.158-2.731-7.072-6.828-7.072-4.128 0-7.314 3.035-7.314 8.012 0 5.038 3.125 8.012 7.405 8.012 3.186 0 5.493-1.7 6.555-3.642l-3.612-2.033c-0.242 1.457-1.335 2.52-2.943 2.52-1.79 0-3.187-1.215-3.37-3.703zm-6.616-6.07c1.669 0 2.852 1.366 2.852 3.217h-6.039c0.334-2.094 1.608-3.217 3.187-3.217zm23.034 2.762c0-3.794-1.851-5.858-4.795-5.858-2.519 0-3.824 1.487-4.583 2.883h-0.09l0.212-2.518h-4.28v15.295h4.28v-9.074c0-1.76 1.032-2.974 2.64-2.974s2.307 1.062 2.307 3.095v8.953h4.309zm10.379 16.114c3.217-0.91 4.4-3.46 4.4-7.222v-14.385h-4.309v13.99c0 3.126-0.971 4.158-3.824 4.765l3.733 2.853zm2.246-28.223c-1.396 0-2.489 1.001-2.489 2.397s1.093 2.398 2.489 2.398 2.488-1.002 2.488-2.398-1.092-2.397-2.488-2.397zm11.866 9.529c1.244 0 2.185 0.668 2.185 1.67 0 1.061-1.183 1.334-3.277 1.79-2.459 0.485-5.615 1.365-5.615 4.795 0 2.822 2.125 4.491 4.826 4.491 2.336 0 3.732-1.335 4.34-2.276h0.09c0.182 0.729 0.365 1.214 0.85 1.912h3.217c-0.303-1.153-0.364-2.246-0.364-3.854v-6.1c0-3.824-2.731-5.706-6.191-5.706-3.4 0-6.04 1.76-7.223 4.31l3.763 2.003c0.425-1.821 1.639-3.035 3.4-3.035zm2.307 6.616c0 1.882-1.366 2.913-2.884 2.913-1.335 0-2.003-0.637-2.003-1.578 0-1.214 1.184-1.548 2.49-1.881 1.152-0.304 1.972-0.638 2.397-1.184zm-138.57 37.594c5.432 0 9.741-4.127 9.741-10.925 0-6.799-4.31-10.805-9.741-10.805-5.433 0-9.742 4.006-9.742 10.805 0 6.798 4.31 10.925 9.742 10.925zm5.19-10.925c0 3.823-1.67 6.98-5.19 6.98-3.551 0-5.19-3.157-5.19-6.98 0-3.824 1.639-6.86 5.19-6.86 3.52 0 5.19 3.036 5.19 6.86zm-8.225-16.57c-1.305 0-2.276 0.97-2.276 2.275 0 1.336 0.97 2.277 2.276 2.277 1.335 0 2.306-0.941 2.306-2.277 0-1.305-0.971-2.276-2.306-2.276zm6.039 0c-1.305 0-2.276 0.97-2.276 2.275 0 1.336 0.971 2.277 2.276 2.277 1.335 0 2.306-0.941 2.306-2.277 0-1.305-0.97-2.276-2.306-2.276zm15.994 24.369c-2.034 0-3.37-1.244-3.855-2.913l-3.732 2.094c1.244 2.428 4.066 3.945 7.647 3.945 3.308 0 6.161-1.821 6.161-4.886 0-2.792-2.185-3.885-4.583-4.643-2.276-0.729-4.279-0.85-4.279-2.003 0-0.88 0.91-1.366 2.003-1.366 1.67 0 2.823 1.062 3.187 2.428l3.672-2.064c-1.184-2.033-3.976-3.49-7.01-3.49-3.278 0-6.04 1.82-6.04 4.704 0 2.913 2.883 4.067 5.19 4.674 1.972 0.546 3.672 0.819 3.672 2.033 0 0.971-0.85 1.487-2.033 1.487zm16.418-1.305c-0.182 0.395-0.546 0.971-1.184 0.971-0.698 0-1.062-0.394-1.062-1.578v-7.344h3.46v-3.278h-3.46v-5.463l-4.248 2.368v3.095h-2.459v3.278h2.459v7.769c0 3.247 1.73 4.613 4.4 4.613 1.76 0 3.187-0.85 3.703-1.335zm16.54-2.428s0.212-0.85 0.212-2.094c0-4.158-2.731-7.071-6.828-7.071-4.127 0-7.314 3.035-7.314 8.012 0 5.038 3.126 8.012 7.405 8.012 3.187 0 5.493-1.7 6.555-3.642l-3.611-2.033c-0.243 1.456-1.336 2.519-2.944 2.519-1.79 0-3.187-1.214-3.369-3.703zm-6.616-6.07c1.67 0 2.853 1.366 2.853 3.217h-6.04c0.334-2.094 1.609-3.216 3.187-3.216zm9.499 12.565h4.28v-8.74c0-1.973 0.545-3.248 1.88-3.248 1.063 0 1.427 0.94 1.427 1.942 0 1.032-0.182 2.064-0.243 2.52l3.855-2.216s0.151-0.79 0.151-1.79c0-2.246-1.183-4.067-3.338-4.067-1.942 0-3.096 1.335-3.854 2.822h-0.091l0.212-2.519h-4.279zm20.152-2.762c-2.034 0-3.37-1.244-3.855-2.913l-3.733 2.094c1.245 2.428 4.067 3.945 7.648 3.945 3.308 0 6.16-1.821 6.16-4.886 0-2.792-2.184-3.885-4.582-4.643-2.276-0.729-4.279-0.85-4.279-2.003 0-0.88 0.91-1.366 2.003-1.366 1.67 0 2.822 1.062 3.187 2.428l3.672-2.064c-1.184-2.033-3.976-3.49-7.01-3.49-3.278 0-6.04 1.82-6.04 4.704 0 2.913 2.883 4.067 5.19 4.674 1.972 0.546 3.672 0.819 3.672 2.033 0 0.971-0.85 1.487-2.034 1.487zm8.74-2.731c0 3.793 1.76 5.857 4.704 5.857 2.519 0 3.733-1.487 4.491-2.883h0.091l-0.212 2.519h4.31v-15.296h-4.31v9.105c0 1.76-0.941 2.943-2.55 2.943-1.608 0-2.245-1.062-2.245-3.095v-8.953h-4.28v9.803zm30.409-4.309c0-3.794-1.852-5.858-4.795-5.858-2.52 0-3.824 1.487-4.583 2.883h-0.091l0.212-2.519h-4.279v15.296h4.28v-9.074c0-1.76 1.031-2.975 2.64-2.975 1.608 0 2.306 1.063 2.306 3.096v8.953h4.31v-9.803zm13.201 7.283-0.243 2.519h4.28v-21.972h-4.28v8.77h-0.09c-0.638-1.062-1.973-2.458-4.28-2.458-3.217 0-5.948 3.126-5.948 8.012s2.731 8.012 5.948 8.012c2.307 0 3.764-1.396 4.492-2.883zm-3.156-0.546c-1.973 0-3.065-1.852-3.065-4.583s1.092-4.583 3.065-4.583c1.942 0 3.035 1.852 3.035 4.583s-1.093 4.583-3.035 4.583zm17.329 3.429c4.158 0 7.375-3.035 7.375-8.012s-3.217-8.012-7.375-8.012c-4.188 0-7.405 3.035-7.405 8.012s3.217 8.012 7.405 8.012zm-3.065-8.012c0-2.731 0.94-4.734 3.065-4.734 2.094 0 3.035 2.003 3.035 4.734s-0.941 4.734-3.035 4.734c-2.124 0-3.065-2.003-3.065-4.734zm13.171 7.648h4.218v-9.196c0-1.79 0.941-2.853 2.398-2.853 1.396 0 2.124 0.941 2.124 2.701v9.348h4.219v-8.923c0-1.942 0.88-3.126 2.397-3.126 1.396 0 2.125 0.941 2.125 2.701v9.348h4.218v-10.106c0-3.551-1.73-5.554-4.613-5.554-2.397 0-3.733 1.335-4.643 2.822h-0.091c-0.607-1.881-1.943-2.822-3.885-2.822-2.367 0-3.611 1.548-4.37 2.883h-0.091l0.212-2.519h-4.218z" aria-label="Itäinen ja Östersundom"/>
   <path id="easternosternsundom-value" d="m822.18 487.64s-0.122 1.7-0.122 3.186v12.534h4.34v-21h-3.278c-1.396 1.699-3.793 3.064-6.312 3.671l1.79 3.733c1.275-0.303 2.762-1.214 3.49-2.124h0.091zm21.456 16.084c4.279 0 7.405-3.065 7.405-7.678 0-4.43-2.853-7.04-6.222-7.04-1.881 0-3.217 0.85-3.975 1.73h-0.03s0.303-1.184 0.454-2.49l0.274-2.093h8.133v-3.794h-11.623l-1.305 10.561 3.763 1.73c0.425-1.244 1.396-2.397 3.095-2.397 1.943 0 3.126 1.669 3.126 3.793 0 2.125-1.123 3.915-3.186 3.915-2.064 0-3.096-1.548-3.339-3.49l-4.097 2.246c0.85 2.792 3.551 5.007 7.527 5.007zm18.421-5.644v5.28h4.249v-5.28h2.458v-3.733h-2.458v-11.988h-4.249v11.988h-4.977c1.608-2.58 3.247-5.706 3.43-10.288l-4.098-2.064c-0.121 5.645-1.487 9.711-3.672 13.444l0.971 2.64h8.346zm16.935-16.085c-5.463 0-8.498 4.795-8.498 11.593 0 6.616 2.944 10.136 7.83 10.136 4.249 0 7.466-3.095 7.466-7.587 0-4.34-3.217-6.889-6.525-6.889-1.852 0-3.612 0.971-4.553 2.428h-0.09c0.394-3.611 1.911-6.04 4.37-6.04 1.669 0 2.518 1.184 2.73 2.702l3.885-2.307c-1.183-2.306-3.58-4.036-6.615-4.036zm2.67 14.355c0 2.185-1.214 3.854-3.338 3.854-2.125 0-3.46-1.7-3.46-3.854 0-2.185 1.305-3.854 3.43-3.854 2.124 0 3.368 1.669 3.368 3.854zm20.668 7.374c4.4 0 7.86-2.367 7.86-6.251 0-3.339-2.61-4.795-4.219-5.342v-0.09c1.548-0.547 3.43-1.882 3.43-4.492 0-3.369-3.005-5.554-7.072-5.554-4.036 0-7.101 2.185-7.101 5.554 0 2.61 1.881 3.945 3.46 4.491v0.091c-1.64 0.547-4.25 2.003-4.25 5.342 0 3.884 3.49 6.251 7.891 6.251zm-3.642-6.585c0-1.973 1.669-3.035 3.641-3.035 1.973 0 3.642 1.062 3.642 3.035 0 1.972-1.669 3.065-3.642 3.065-1.972 0-3.641-1.093-3.641-3.065zm0.485-9.074c0-1.578 1.396-2.55 3.156-2.55 1.73 0 3.126 0.972 3.126 2.55s-1.396 2.549-3.126 2.549c-1.76 0-3.156-0.971-3.156-2.55zm20.091 15.659c5.736 0 7.83-4.764 7.83-11.926 0-6.525-2.914-9.803-7.8-9.803-4.279 0-7.496 2.883-7.496 7.284 0 4.46 3.187 6.889 6.495 6.889 1.85 0 3.641-0.759 4.582-2.185l0.091 0.03c-0.182 3.763-1.062 6.07-3.642 6.07-1.972 0-2.822-1.396-3.034-2.914l-3.915 2.307c1.244 2.67 3.49 4.248 6.889 4.248zm-3.339-14.506c0-2.155 1.245-3.703 3.37-3.703 2.124 0 3.398 1.548 3.398 3.733 0 2.155-1.274 3.672-3.399 3.672-2.124 0-3.369-1.517-3.369-3.702zm20.516 14.506c4.28 0 7.405-3.065 7.405-7.678 0-4.43-2.853-7.04-6.221-7.04-1.882 0-3.217 0.85-3.976 1.73h-0.03s0.303-1.184 0.455-2.49l0.273-2.093h8.133v-3.794h-11.623l-1.305 10.561 3.763 1.73c0.425-1.244 1.396-2.397 3.096-2.397 1.942 0 3.125 1.669 3.125 3.793 0 2.125-1.122 3.915-3.186 3.915s-3.096-1.548-3.338-3.49l-4.097 2.246c0.85 2.792 3.55 5.007 7.526 5.007zm26.737-6.919 0.88-2.883h-4.795v-1.76h5.25l0.85-2.883h-5.736c0.546-2.185 1.7-3.764 3.794-3.764 2.397 0 3.338 2.003 3.338 4.492l4.006-2.489c-0.94-3.095-3.52-5.523-7.344-5.523-3.794 0-7.01 2.489-8.073 7.284h-2.58v2.883h2.216v0.667c0 0.395 0 0.76 0.03 1.093h-2.246v2.883h2.61c1.063 4.613 4.067 6.92 8.043 6.92 3.975 0 6.403-2.61 7.344-5.676l-4.006-2.519c-0.03 2.489-0.88 4.674-3.338 4.674-2.216 0-3.278-1.366-3.794-3.399h3.55z" aria-label="1 546 895 €"/>
  </g>
  <g fill="#000">
   <path d="m590.42 221.88h146.19v-42.598h-146.19z"/>
   <path d="m575.21 253.51h176.6v-42.599h-176.61z"/>
  </g>
  <g id="northeastern" fill="#fff" fill-rule="nonzero">
   <path id="northeastern-label" d="m606.63 206.06h4.43v-5.007l3.157-4.067 5.31 9.074h4.978l-7.375-12.625 6.616-8.376h-5.19l-5.037 6.646c-1.426 1.912-2.489 3.794-2.489 3.794h-0.09s0.12-2.094 0.12-4.006v-6.434h-4.43zm25.554 0.364c4.157 0 7.374-3.035 7.374-8.012s-3.217-8.012-7.375-8.012c-4.188 0-7.405 3.035-7.405 8.012s3.217 8.012 7.405 8.012zm-3.066-8.012c0-2.731 0.94-4.734 3.065-4.734 2.094 0 3.035 2.003 3.035 4.734 0 2.732-0.94 4.735-3.035 4.735-2.124 0-3.065-2.003-3.065-4.735zm13.171 7.648h4.31v-15.295h-4.31zm2.155-21.911c-1.396 0-2.489 1.001-2.489 2.397s1.093 2.398 2.489 2.398 2.488-1.002 2.488-2.398-1.092-2.397-2.488-2.397zm5.675 21.911h4.31v-21.972h-4.31zm7.83 0h4.31v-21.972h-4.31zm7.83 0h4.31v-15.295h-4.31zm2.155-21.911c-1.397 0-2.49 1.001-2.49 2.397s1.093 2.398 2.49 2.398c1.396 0 2.488-1.002 2.488-2.398s-1.092-2.397-2.488-2.397zm19.21 12.108c0-3.793-1.851-5.857-4.795-5.857-2.519 0-3.824 1.487-4.583 2.883h-0.09l0.212-2.518h-4.28v15.295h4.28v-9.074c0-1.76 1.032-2.974 2.64-2.974 1.609 0 2.307 1.062 2.307 3.095v8.953h4.309v-9.802zm16.57 3.309s0.213-0.85 0.213-2.094c0-4.158-2.732-7.072-6.829-7.072-4.127 0-7.314 3.035-7.314 8.012 0 5.038 3.126 8.012 7.405 8.012 3.187 0 5.493-1.7 6.556-3.642l-3.612-2.033c-0.243 1.457-1.335 2.52-2.944 2.52-1.79 0-3.186-1.215-3.368-3.703zm-6.616-6.07c1.67 0 2.853 1.366 2.853 3.217h-6.04c0.335-2.094 1.61-3.217 3.187-3.217zm23.035 2.761c0-3.793-1.852-5.857-4.795-5.857-2.52 0-3.824 1.487-4.583 2.883h-0.091l0.212-2.518h-4.279v15.295h4.28v-9.074c0-1.76 1.031-2.974 2.64-2.974 1.608 0 2.306 1.062 2.306 3.095v8.953h4.31v-9.802z" aria-label="Koillinen"/>
   <path id="northeastern-value" d="m595.82 221.8s-0.121 1.7-0.121 3.187v12.534h4.34v-21.001h-3.278c-1.396 1.7-3.794 3.065-6.313 3.672l1.791 3.733c1.275-0.304 2.762-1.214 3.49-2.125zm21.274 16.085c4.188 0 7.345-2.853 7.345-6.98 0-3.915-2.762-6.313-6.283-6.313-0.485 0-1.031 0.122-1.031 0.122l-0.061-0.091s1.79-1.002 2.853-1.852l3.945-3.125v-3.126h-13.535v3.793h7.435l-5.675 4.644 1.487 3.611c0.88-0.577 1.912-1.184 3.338-1.184 1.973 0 3.247 1.396 3.247 3.339 0 1.972-1.153 3.399-3.125 3.399-2.064 0-3.157-1.487-3.43-3.49l-4.097 2.245c0.85 2.793 3.642 5.008 7.587 5.008zm23.611-21.365h-14.931v6.616l4.067 2.063v-4.795h6.16c-2.367 4.431-5.068 10.926-5.857 17.117h4.886c0.759-6.282 2.55-12.291 5.675-18.3zm9.226 15.72v5.28h4.249v-5.28h2.458v-3.733h-2.458v-11.987h-4.249v11.987h-4.977c1.609-2.58 3.247-5.705 3.43-10.288l-4.098-2.063c-0.121 5.644-1.487 9.711-3.672 13.444l0.971 2.64zm29.681-15.72h-14.931v6.616l4.066 2.063v-4.795h6.16c-2.366 4.431-5.067 10.926-5.856 17.117h4.886c0.758-6.282 2.549-12.291 5.675-18.3zm5.463 10.44c0-3.582 0.85-6.98 3.672-6.98 2.853 0 3.702 3.398 3.702 6.98 0 3.58-0.85 7.101-3.702 7.101-2.823 0-3.672-3.52-3.672-7.101zm-4.553 0c0 6.98 3.339 10.925 8.225 10.925 4.916 0 8.255-3.945 8.255-10.925s-3.339-10.804-8.255-10.804c-4.886 0-8.225 3.823-8.225 10.804zm25.523 10.925c4.188 0 7.345-2.853 7.345-6.98 0-3.915-2.762-6.313-6.282-6.313-0.486 0-1.032 0.122-1.032 0.122l-0.061-0.091s1.79-1.002 2.853-1.852l3.945-3.125v-3.126h-13.535v3.793h7.435l-5.675 4.644 1.487 3.611c0.88-0.577 1.912-1.184 3.338-1.184 1.973 0 3.248 1.396 3.248 3.339 0 1.972-1.154 3.399-3.126 3.399-2.064 0-3.157-1.487-3.43-3.49l-4.097 2.245c0.85 2.793 3.642 5.008 7.587 5.008zm26.646-6.92 0.88-2.883h-4.795v-1.76h5.25l0.85-2.883h-5.736c0.547-2.185 1.7-3.763 3.794-3.763 2.398 0 3.338 2.003 3.338 4.491l4.006-2.488c-0.94-3.096-3.52-5.523-7.344-5.523-3.794 0-7.01 2.488-8.073 7.283h-2.58v2.883h2.216v0.668c0 0.394 0 0.759 0.03 1.092h-2.245v2.884h2.61c1.062 4.612 4.066 6.919 8.042 6.919s6.403-2.61 7.344-5.675l-4.006-2.52c-0.03 2.49-0.88 4.675-3.338 4.675-2.215 0-3.278-1.366-3.794-3.4z" aria-label="1 374 703 €"/>
  </g>
  <g fill="#000">
   <path d="m290.64 315.57h164.02v-42.599h-164.02z"/>
   <path d="m296.3 347.19h152.71v-42.599h-152.71z"/>
  </g>
  <g id="northern" fill="#fff" fill-rule="nonzero">
   <path id="northern-label" d="m306.86 300.91h4.462v-7.83h4.552c4.765 0 7.709-2.458 7.709-6.647 0-4.188-2.944-6.524-7.709-6.524h-9.013v21zm12.261-14.477c0 1.76-1.062 2.823-3.186 2.823h-4.613v-5.524h4.613c2.124 0 3.186 0.941 3.186 2.701zm13.019 14.841c4.159 0 7.375-3.035 7.375-8.012s-3.216-8.012-7.374-8.012c-4.188 0-7.405 3.035-7.405 8.012s3.217 8.012 7.405 8.012zm-3.064-8.012c0-2.732 0.94-4.735 3.065-4.735 2.094 0 3.035 2.003 3.035 4.735 0 2.731-0.941 4.734-3.035 4.734-2.125 0-3.065-2.003-3.065-4.734zm26.706-2.155c0-3.793-1.851-5.857-4.795-5.857-2.519 0-3.824 1.487-4.582 2.883h-0.092s0.213-1.851 0.213-3.763v-5.433h-4.28v21.973h4.28v-9.075c0-1.76 1.032-2.974 2.64-2.974 1.609 0 2.307 1.063 2.307 3.096v8.953h4.31v-9.803zm7.83 8.892v-14.385h-4.31v13.99c0 3.127-0.97 4.158-3.823 4.765 4.9808 5.3562 8.0778 0.0598 8.133-4.37zm-2.155-21.001c-1.396 0-2.488 1.002-2.488 2.398s1.092 2.397 2.488 2.397 2.489-1.001 2.489-2.397-1.093-2.398-2.489-2.398zm12.291 22.276c4.158 0 7.375-3.035 7.375-8.012s-3.217-8.012-7.375-8.012c-4.188 0-7.405 3.035-7.405 8.012s3.217 8.012 7.405 8.012zm-3.065-8.012c0-2.732 0.941-4.735 3.065-4.735 2.094 0 3.035 2.003 3.035 4.735 0 2.731-0.94 4.734-3.035 4.734-2.124 0-3.065-2.003-3.065-4.734zm13.171 7.648h4.31v-15.296h-4.31zm2.155-21.912c-1.396 0-2.488 1.002-2.488 2.398s1.092 2.397 2.488 2.397 2.489-1.001 2.489-2.397-1.093-2.398-2.489-2.398zm19.211 12.109c0-3.793-1.852-5.857-4.795-5.857-2.52 0-3.824 1.487-4.583 2.883h-0.091l0.212-2.519h-4.279v15.296h4.28v-9.075c0-1.76 1.031-2.974 2.64-2.974 1.608 0 2.306 1.063 2.306 3.096v8.953h4.31zm16.57 3.308s0.212-0.85 0.212-2.094c0-4.158-2.731-7.071-6.828-7.071-4.127 0-7.314 3.035-7.314 8.012 0 5.038 3.126 8.012 7.405 8.012 3.187 0 5.493-1.7 6.555-3.642l-3.611-2.033c-0.243 1.456-1.336 2.519-2.944 2.519-1.79 0-3.187-1.214-3.369-3.703zm-6.616-6.07c1.67 0 2.853 1.366 2.853 3.217h-6.04c0.334-2.094 1.609-3.217 3.187-3.217zm23.034 2.762c0-3.793-1.85-5.857-4.795-5.857-2.519 0-3.824 1.487-4.582 2.883h-0.091l0.212-2.519h-4.279v15.296h4.28v-9.075c0-1.76 1.03-2.974 2.64-2.974 1.608 0 2.306 1.063 2.306 3.096v8.953h4.31v-9.803z" aria-label="Pohjoinen"/>
   <path id="northern-value" d="m316.39 332.73c4.28 0 7.405-3.065 7.405-7.678 0-4.43-2.852-7.04-6.22-7.04-1.883 0-3.218 0.85-3.977 1.73h-0.03s0.304-1.184 0.455-2.49l0.273-2.093h8.134v-3.794h-11.624l-1.305 10.561 3.764 1.73c0.424-1.244 1.396-2.397 3.095-2.397 1.942 0 3.126 1.669 3.126 3.793 0 2.125-1.123 3.915-3.187 3.915-2.063 0-3.095-1.548-3.338-3.49l-4.097 2.246c0.85 2.792 3.55 5.007 7.526 5.007zm16.662 0c5.736 0 7.83-4.764 7.83-11.926 0-6.525-2.914-9.803-7.8-9.803-4.279 0-7.496 2.883-7.496 7.284 0 4.46 3.187 6.889 6.495 6.889 1.85 0 3.641-0.759 4.582-2.185l0.091 0.03c-0.182 3.763-1.062 6.07-3.642 6.07-1.972 0-2.822-1.396-3.034-2.914l-3.915 2.307c1.244 2.67 3.49 4.248 6.889 4.248zm-3.339-14.506c0-2.155 1.245-3.703 3.37-3.703 2.123 0 3.398 1.548 3.398 3.733 0 2.155-1.275 3.672-3.399 3.672s-3.369-1.517-3.369-3.702zm20.334 14.506c4.188 0 7.344-2.852 7.344-6.98 0-3.915-2.762-6.312-6.282-6.312-0.486 0-1.032 0.121-1.032 0.121l-0.06-0.09s1.79-1.002 2.852-1.852l3.946-3.126v-3.126h-13.536v3.794h7.435l-5.675 4.643 1.487 3.611c0.88-0.576 1.912-1.183 3.339-1.183 1.972 0 3.247 1.396 3.247 3.338 0 1.973-1.153 3.4-3.126 3.4-2.064 0-3.156-1.488-3.43-3.49l-4.096 2.245c0.85 2.792 3.642 5.007 7.587 5.007zm20.94-11.077c-0.212-0.698-0.546-1.76-0.546-3.156 0-2.276 1.153-3.733 3.065-3.733 1.73 0 2.792 1.184 2.792 2.944 0 4.977-9.53 7.435-9.53 13.566 3.4e-4 0.36592 0.0311 0.73118 0.092 1.092h13.778v-3.884h-8.437v-0.061c0.759-1.851 8.467-4.734 8.467-10.986 0-3.976-3.126-6.434-7.101-6.434-4.037 0-7.314 2.489-7.314 6.586 0 1.153 0.303 2.063 0.303 2.063zm26.494-10.287h-14.931v6.615l4.067 2.064v-4.795h6.16c-2.367 4.43-5.068 10.925-5.857 17.116h4.886c0.759-6.282 2.55-12.29 5.675-18.3zm6.039 10.287c-0.212-0.698-0.546-1.76-0.546-3.156 0-2.276 1.154-3.733 3.066-3.733 1.73 0 2.792 1.184 2.792 2.944 0 4.977-9.53 7.435-9.53 13.566 1e-5 0.36589 0.0304 0.73115 0.091 1.092h13.778v-3.884h-8.436v-0.061c0.758-1.851 8.467-4.734 8.467-10.986 0-3.976-3.126-6.434-7.102-6.434-4.036 0-7.314 2.489-7.314 6.586 0 1.153 0.304 2.063 0.304 2.063zm29.074 4.158 0.88-2.883h-4.795v-1.76h5.25l0.85-2.883h-5.735c0.546-2.185 1.7-3.764 3.793-3.764 2.398 0 3.339 2.003 3.339 4.492l4.005-2.489c-0.94-3.095-3.52-5.523-7.344-5.523-3.793 0-7.01 2.489-8.072 7.284h-2.58v2.883h2.215v0.667c0 0.395 0 0.76 0.03 1.093h-2.245v2.883h2.61c1.062 4.613 4.067 6.92 8.042 6.92 3.976 0 6.404-2.61 7.344-5.676l-4.005-2.519c-0.03 2.489-0.88 4.674-3.339 4.674-2.215 0-3.277-1.366-3.793-3.399z" aria-label="593 272 €"/>
  </g>
  <g fill="#000">
   <path d="m58.9 457.1h146.18v-42.598h-146.18z"/>
   <path d="m43.662 488.5h176.66v-42.598h-176.66z"/>
  </g>
  <g id="western" fill="#fff" fill-rule="nonzero">
   <path id="western-label" d="m75.09 441.29h13.657v-3.975h-9.165v-17.026h-4.491zm22.428-12.382c1.244 0 2.185 0.668 2.185 1.67 0 1.062-1.184 1.335-3.278 1.79-2.458 0.486-5.614 1.366-5.614 4.795 0 2.822 2.124 4.492 4.825 4.492 2.337 0 3.733-1.336 4.34-2.277h0.091c0.182 0.729 0.364 1.214 0.85 1.912h3.217c-0.304-1.153-0.364-2.245-0.364-3.854v-6.1c0-3.824-2.732-5.705-6.191-5.705-3.4 0-6.04 1.76-7.223 4.31l3.763 2.002c0.425-1.82 1.639-3.035 3.399-3.035zm2.306 6.616c0 1.882-1.365 2.914-2.883 2.914-1.335 0-2.003-0.638-2.003-1.578 0-1.214 1.184-1.548 2.489-1.882 1.153-0.304 1.973-0.637 2.397-1.184zm-5.493-15.902c-1.305 0-2.276 0.97-2.276 2.276 0 1.335 0.971 2.276 2.276 2.276 1.336 0 2.307-0.94 2.307-2.276 0-1.305-0.971-2.276-2.307-2.276zm6.04 0c-1.305 0-2.276 0.97-2.276 2.276 0 1.335 0.97 2.276 2.276 2.276 1.335 0 2.306-0.94 2.306-2.276 0-1.305-0.971-2.276-2.306-2.276zm20.363 11.866c0-3.794-1.85-5.857-4.795-5.857-2.519 0-3.823 1.487-4.582 2.883h-0.091l0.212-2.52h-4.278v15.296h4.28v-9.074c0-1.76 1.031-2.974 2.64-2.974 1.608 0 2.306 1.062 2.306 3.096v8.952h4.31v-9.802zm10.44 5.736c-0.182 0.394-0.546 0.97-1.183 0.97-0.698 0-1.062-0.394-1.062-1.577v-7.345h3.46v-3.277h-3.46v-5.463l-4.25 2.367v3.096h-2.457v3.277h2.458v7.77c0 3.247 1.73 4.613 4.4 4.613 1.76 0 3.187-0.85 3.703-1.336zm3.521 4.066h4.31v-15.295h-4.31zm2.154-21.911c-1.396 0-2.488 1.001-2.488 2.397s1.092 2.398 2.488 2.398 2.489-1.002 2.489-2.398-1.093-2.397-2.489-2.397zm19.211 12.109c0-3.794-1.851-5.857-4.795-5.857-2.519 0-3.824 1.487-4.583 2.883h-0.09l0.212-2.52h-4.28v15.296h4.28v-9.074c0-1.76 1.032-2.974 2.64-2.974s2.306 1.062 2.306 3.096v8.952h4.31zm16.57 3.308s0.213-0.85 0.213-2.094c0-4.158-2.732-7.071-6.829-7.071-4.127 0-7.314 3.035-7.314 8.012 0 5.037 3.126 8.012 7.405 8.012 3.187 0 5.493-1.7 6.555-3.642l-3.611-2.034c-0.243 1.457-1.335 2.52-2.944 2.52-1.79 0-3.186-1.215-3.368-3.703zm-6.616-6.07c1.67 0 2.853 1.366 2.853 3.217h-6.04c0.334-2.094 1.61-3.217 3.187-3.217zm23.035 2.762c0-3.794-1.852-5.857-4.795-5.857-2.52 0-3.824 1.487-4.583 2.883h-0.091l0.212-2.52h-4.279v15.296h4.28v-9.074c0-1.76 1.031-2.974 2.64-2.974 1.608 0 2.306 1.062 2.306 3.096v8.952h4.31z" aria-label="Läntinen"/>
   <path id="western-value" d="m64.463 458.76s-0.122 1.7-0.122 3.187v12.533h4.34v-21h-3.277c-1.396 1.699-3.794 3.065-6.313 3.672l1.79 3.732c1.275-0.303 2.762-1.214 3.49-2.124zm21.457 16.085c4.278 0 7.404-3.066 7.404-7.679 0-4.43-2.853-7.04-6.221-7.04-1.882 0-3.217 0.85-3.976 1.73h-0.03s0.303-1.184 0.455-2.489l0.273-2.094h8.133v-3.794h-11.623l-1.305 10.562 3.763 1.73c0.425-1.245 1.396-2.398 3.096-2.398 1.942 0 3.126 1.67 3.126 3.793 0 2.125-1.123 3.915-3.187 3.915s-3.096-1.547-3.338-3.49l-4.097 2.246c0.85 2.792 3.55 5.008 7.526 5.008zm16.57 0c4.187 0 7.344-2.853 7.344-6.98 0-3.915-2.762-6.313-6.283-6.313-0.485 0-1.031 0.121-1.031 0.121l-0.061-0.09s1.79-1.002 2.853-1.852l3.945-3.126v-3.126h-13.535v3.794h7.435l-5.675 4.643 1.487 3.612c0.88-0.577 1.912-1.184 3.338-1.184 1.973 0 3.247 1.396 3.247 3.338 0 1.973-1.153 3.4-3.125 3.4-2.064 0-3.157-1.488-3.43-3.49l-4.097 2.245c0.85 2.792 3.642 5.008 7.587 5.008zm18.33-5.645v5.28h4.248v-5.28h2.459v-3.733h-2.459v-11.988h-4.248v11.988h-4.977c1.608-2.58 3.247-5.706 3.429-10.288l-4.097-2.064c-0.122 5.645-1.487 9.712-3.672 13.445l0.97 2.64zm19.787-5.281c0-3.58 0.85-6.98 3.672-6.98 2.853 0 3.702 3.4 3.702 6.98 0 3.581-0.85 7.102-3.702 7.102-2.822 0-3.672-3.52-3.672-7.102zm-4.552 0c0 6.98 3.338 10.926 8.224 10.926 4.916 0 8.255-3.946 8.255-10.926s-3.339-10.804-8.255-10.804c-4.886 0-8.224 3.824-8.224 10.804zm22.7-5.159s-0.121 1.7-0.121 3.187v12.533h4.34v-21h-3.278c-1.396 1.699-3.794 3.065-6.313 3.672l1.791 3.732c1.275-0.303 2.762-1.214 3.49-2.124zm11.685 0s-0.122 1.7-0.122 3.187v12.533h4.34v-21h-3.278c-1.396 1.699-3.793 3.065-6.312 3.672l1.79 3.732c1.275-0.303 2.762-1.214 3.49-2.124h0.091zm24.642 9.165 0.88-2.883h-4.795v-1.76h5.25l0.85-2.883h-5.736c0.547-2.185 1.7-3.763 3.794-3.763 2.397 0 3.338 2.003 3.338 4.491l4.006-2.488c-0.94-3.096-3.52-5.524-7.344-5.524-3.794 0-7.01 2.489-8.073 7.284h-2.58v2.883h2.216v0.668c0 0.394 0 0.758 0.03 1.092h-2.245v2.883h2.61c1.062 4.613 4.066 6.92 8.042 6.92s6.403-2.61 7.344-5.676l-4.006-2.518c-0.03 2.488-0.88 4.673-3.338 4.673-2.216 0-3.278-1.365-3.794-3.399z" aria-label="1 534 011 €"/>
  </g>
  <g fill="#000">
   <path d="m551.49 662.82h186.32v-42.598h-186.32z"/>
   <path d="m562.64 694.44h164.02v-42.598h-164.02z"/>
  </g>
  <g id="southeastern" fill="#fff" fill-rule="nonzero">
   <path id="southeastern-label" d="m567.31 648.16h4.43v-5.008l3.157-4.066 5.31 9.074h4.978l-7.375-12.625 6.616-8.376h-5.19l-5.037 6.646c-1.427 1.912-2.489 3.793-2.489 3.793h-0.09s0.12-2.094 0.12-4.005v-6.434h-4.43v21zm25.644-12.382c1.244 0 2.185 0.667 2.185 1.669 0 1.062-1.183 1.335-3.277 1.79-2.459 0.486-5.615 1.366-5.615 4.795 0 2.823 2.124 4.492 4.825 4.492 2.337 0 3.733-1.335 4.34-2.276h0.091c0.182 0.728 0.365 1.214 0.85 1.912h3.217c-0.303-1.154-0.364-2.246-0.364-3.855v-6.1c0-3.823-2.732-5.705-6.191-5.705-3.4 0-6.04 1.76-7.223 4.31l3.763 2.002c0.425-1.82 1.639-3.034 3.4-3.034zm2.307 6.616c0 1.881-1.366 2.913-2.884 2.913-1.335 0-2.003-0.637-2.003-1.578 0-1.214 1.184-1.548 2.489-1.882 1.153-0.303 1.973-0.637 2.398-1.183zm13.565-6.616c1.245 0 2.185 0.667 2.185 1.669 0 1.062-1.183 1.335-3.277 1.79-2.458 0.486-5.615 1.366-5.615 4.795 0 2.823 2.125 4.492 4.826 4.492 2.336 0 3.733-1.335 4.34-2.276h0.09c0.183 0.728 0.365 1.214 0.85 1.912h3.217c-0.303-1.154-0.364-2.246-0.364-3.855v-6.1c0-3.823-2.731-5.705-6.191-5.705-3.4 0-6.04 1.76-7.223 4.31l3.763 2.002c0.425-1.82 1.64-3.034 3.4-3.034zm2.307 6.616c0 1.881-1.366 2.913-2.883 2.913-1.336 0-2.003-0.637-2.003-1.578 0-1.214 1.183-1.548 2.488-1.882 1.153-0.303 1.973-0.637 2.398-1.183zm21.668-9.53h-5.007l-3.278 4.37c-0.85 1.184-1.85 2.853-1.85 2.853h-0.092s0.213-1.882 0.213-3.763v-10.137h-4.28v21.973h4.28v-3.551l2.033-2.58 3.763 6.13h4.674l-5.615-9.225 5.16-6.07zm16.328 0h-5.008l-3.277 4.37c-0.85 1.184-1.851 2.853-1.851 2.853h-0.092s0.213-1.882 0.213-3.763v-10.137h-4.28v21.973h4.28v-3.551l2.033-2.58 3.763 6.13h4.674l-5.614-9.225zm8.225 15.66c4.157 0 7.374-3.035 7.374-8.012s-3.217-8.012-7.375-8.012c-4.188 0-7.405 3.035-7.405 8.012s3.217 8.012 7.405 8.012zm-3.066-8.012c0-2.731 0.94-4.734 3.065-4.734 2.094 0 3.035 2.003 3.035 4.734s-0.94 4.734-3.035 4.734c-2.124 0-3.065-2.003-3.065-4.734zm13.171 7.648h4.31v-15.296h-4.31zm2.155-21.912c-1.396 0-2.489 1.002-2.489 2.398s1.093 2.397 2.489 2.397 2.489-1.001 2.489-2.397-1.093-2.398-2.489-2.398zm19.21 12.109c0-3.793-1.85-5.857-4.794-5.857-2.52 0-3.824 1.487-4.583 2.883h-0.091l0.212-2.519h-4.279v15.296h4.28v-9.074c0-1.76 1.031-2.975 2.64-2.975 1.608 0 2.306 1.063 2.306 3.096v8.953h4.31v-9.803zm16.57 3.308s0.213-0.85 0.213-2.094c0-4.158-2.731-7.071-6.828-7.071-4.128 0-7.314 3.035-7.314 8.012 0 5.038 3.126 8.012 7.405 8.012 3.186 0 5.493-1.7 6.555-3.642l-3.611-2.033c-0.243 1.456-1.336 2.519-2.944 2.519-1.79 0-3.187-1.214-3.369-3.703h9.894zm-6.615-6.07c1.669 0 2.853 1.366 2.853 3.217h-6.04c0.334-2.094 1.609-3.217 3.187-3.217zm23.035 2.762c0-3.793-1.852-5.857-4.796-5.857-2.519 0-3.824 1.487-4.582 2.883h-0.091l0.212-2.519h-4.28v15.296h4.28v-9.074c0-1.76 1.032-2.975 2.64-2.975 1.609 0 2.307 1.063 2.307 3.096v8.953h4.31z" aria-label="Kaakkoinen"/>
   <path id="southeastern-value" d="m590.16 658.62h-14.931v6.616l4.066 2.064v-4.795h6.161c-2.367 4.43-5.068 10.925-5.857 17.116h4.886c0.759-6.282 2.55-12.29 5.675-18.3v-2.7zm9.256-0.364c-5.462 0-8.497 4.795-8.497 11.593 0 6.616 2.944 10.136 7.83 10.136 4.248 0 7.465-3.095 7.465-7.587 0-4.34-3.217-6.889-6.525-6.889-1.85 0-3.611 0.971-4.552 2.428h-0.09c0.394-3.611 1.911-6.04 4.37-6.04 1.669 0 2.518 1.184 2.73 2.702l3.885-2.307c-1.183-2.306-3.58-4.036-6.616-4.036zm2.671 14.355c0 2.185-1.214 3.854-3.338 3.854-2.125 0-3.46-1.7-3.46-3.854 0-2.185 1.305-3.854 3.43-3.854 2.124 0 3.368 1.669 3.368 3.854zm13.445 7.374c4.278 0 7.404-3.065 7.404-7.678 0-4.43-2.852-7.04-6.221-7.04-1.882 0-3.217 0.85-3.976 1.73h-0.03s0.303-1.184 0.455-2.49l0.273-2.093h8.134v-3.794h-11.624l-1.305 10.561 3.763 1.73c0.425-1.244 1.396-2.397 3.096-2.397 1.942 0 3.126 1.669 3.126 3.793 0 2.125-1.123 3.915-3.187 3.915-2.063 0-3.095-1.548-3.338-3.49l-4.097 2.246c0.85 2.792 3.55 5.007 7.526 5.007zm23.55 0c4.279 0 7.405-3.065 7.405-7.678 0-4.43-2.853-7.04-6.222-7.04-1.881 0-3.217 0.85-3.975 1.73h-0.03s0.303-1.184 0.454-2.49l0.274-2.093h8.133v-3.794h-11.623l-1.305 10.561 3.763 1.73c0.425-1.244 1.396-2.397 3.095-2.397 1.943 0 3.126 1.669 3.126 3.793 0 2.125-1.123 3.915-3.186 3.915-2.064 0-3.096-1.548-3.339-3.49l-4.097 2.246c0.85 2.792 3.551 5.007 7.527 5.007zm18.421-5.644v5.28h4.249v-5.28h2.458v-3.733h-2.458v-11.988h-4.25v11.988h-4.977c1.608-2.58 3.247-5.706 3.43-10.288l-4.098-2.064c-0.121 5.645-1.487 9.711-3.672 13.444l0.971 2.64h8.346zm22.276-15.721h-14.932v6.616l4.067 2.064v-4.795h6.16c-2.366 4.43-5.067 10.925-5.856 17.116h4.886c0.758-6.282 2.549-12.29 5.675-18.3v-2.7zm18.603 14.446 0.88-2.883h-4.795v-1.76h5.25l0.85-2.883h-5.735c0.546-2.185 1.7-3.764 3.793-3.764 2.398 0 3.338 2.003 3.338 4.492l4.006-2.489c-0.94-3.095-3.52-5.523-7.344-5.523-3.793 0-7.01 2.489-8.073 7.284h-2.58v2.883h2.216v0.667c0 0.395 0 0.76 0.03 1.093h-2.245v2.883h2.61c1.062 4.613 4.067 6.92 8.042 6.92 3.976 0 6.404-2.61 7.344-5.676l-4.006-2.519c-0.03 2.489-0.88 4.674-3.338 4.674-2.215 0-3.277-1.366-3.793-3.399z" aria-label="765 547 €"/>
  </g>
  <g fill="#000">
   <path d="m290.41 588.93h149.05v-42.599h-149.05z"/>
   <path d="m274.96 620.56h179.95v-42.598h-179.95z"/>
  </g>
  <g id="central" fill="#fff" fill-rule="nonzero">
   <path id="central-label" d="m304.33 574.28h4.431v-5.007l3.156-4.067 5.311 9.074h4.977l-7.374-12.625 6.616-8.376h-5.19l-5.038 6.647c-1.426 1.911-2.488 3.793-2.488 3.793h-0.091s0.121-2.094 0.121-4.006v-6.434h-4.43v21.001zm32.078-6.495s0.213-0.849 0.213-2.093c0-4.158-2.731-7.071-6.829-7.071-4.127 0-7.313 3.034-7.313 8.012 0 5.037 3.125 8.011 7.405 8.011 3.186 0 5.493-1.699 6.555-3.641l-3.612-2.034c-0.242 1.457-1.335 2.52-2.943 2.52-1.791 0-3.187-1.215-3.37-3.703h9.894zm-6.616-6.069c1.67 0 2.853 1.366 2.853 3.217h-6.04c0.335-2.094 1.61-3.217 3.187-3.217zm15.964 9.803c-2.034 0-3.369-1.245-3.855-2.914l-3.732 2.094c1.244 2.428 4.066 3.945 7.647 3.945 3.308 0 6.161-1.82 6.161-4.886 0-2.792-2.185-3.884-4.582-4.643-2.277-0.728-4.28-0.85-4.28-2.003 0-0.88 0.91-1.366 2.003-1.366 1.67 0 2.823 1.063 3.187 2.428l3.672-2.063c-1.183-2.034-3.975-3.49-7.01-3.49-3.278 0-6.04 1.82-6.04 4.704 0 2.913 2.883 4.066 5.19 4.673 1.973 0.546 3.672 0.82 3.672 2.034 0 0.97-0.85 1.487-2.033 1.487zm23.125-12.534h-5.007l-3.278 4.37c-0.85 1.183-1.851 2.853-1.851 2.853h-0.091s0.212-1.882 0.212-3.764v-10.136h-4.279v21.972h4.28v-3.55l2.033-2.58 3.763 6.13h4.673l-5.614-9.226 5.16-6.07zm2.034 15.295h4.309v-15.295h-4.31v15.295zm2.154-21.911c-1.396 0-2.488 1.001-2.488 2.397s1.092 2.398 2.488 2.398 2.489-1.002 2.489-2.398-1.093-2.397-2.489-2.397zm19.211 12.109c0-3.794-1.851-5.857-4.795-5.857-2.52 0-3.824 1.487-4.583 2.883h-0.09l0.212-2.52h-4.28v15.296h4.28v-9.074c0-1.76 1.031-2.974 2.64-2.974 1.608 0 2.306 1.062 2.306 3.096v8.952h4.31zm16.57 3.307s0.212-0.849 0.212-2.093c0-4.158-2.73-7.071-6.828-7.071-4.127 0-7.314 3.034-7.314 8.012 0 5.037 3.126 8.011 7.405 8.011 3.187 0 5.493-1.699 6.555-3.641l-3.611-2.034c-0.243 1.457-1.335 2.52-2.944 2.52-1.79 0-3.187-1.215-3.369-3.703h9.894zm-6.616-6.069c1.67 0 2.853 1.366 2.853 3.217h-6.04c0.334-2.094 1.609-3.217 3.187-3.217zm23.034 2.762c0-3.794-1.85-5.857-4.795-5.857-2.519 0-3.823 1.487-4.582 2.883h-0.091l0.212-2.52h-4.279v15.296h4.28v-9.074c0-1.76 1.031-2.974 2.64-2.974 1.608 0 2.306 1.062 2.306 3.096v8.952h4.31v-9.802z" aria-label="Keskinen"/>
   <path id="central-value" d="m296.25 590.02s-0.121 1.7-0.121 3.187v12.534h4.34v-21.001h-3.278c-1.396 1.7-3.793 3.065-6.312 3.672l1.79 3.733c1.275-0.304 2.762-1.214 3.49-2.125zm21.274 16.085c4.189 0 7.345-2.853 7.345-6.98 0-3.915-2.762-6.312-6.282-6.312-0.486 0-1.032 0.12-1.032 0.12l-0.06-0.09s1.79-1.002 2.852-1.851l3.945-3.126v-3.126h-13.535v3.793h7.435l-5.675 4.644 1.487 3.611c0.88-0.576 1.912-1.183 3.338-1.183 1.973 0 3.248 1.396 3.248 3.338 0 1.973-1.154 3.399-3.126 3.399-2.064 0-3.156-1.487-3.43-3.49l-4.097 2.246c0.85 2.792 3.642 5.007 7.587 5.007zm13.597-11.077c-0.213-0.698-0.547-1.76-0.547-3.156 0-2.276 1.154-3.733 3.065-3.733 1.73 0 2.792 1.183 2.792 2.944 0 4.977-9.529 7.435-9.529 13.565 0 0.607 0.091 1.093 0.091 1.093h13.778v-3.885h-8.437v-0.06c0.76-1.852 8.468-4.735 8.468-10.986 0-3.976-3.126-6.434-7.102-6.434-4.036 0-7.314 2.488-7.314 6.585 0 1.154 0.304 2.064 0.304 2.064l4.43 2.003zm18.816 11.077c4.188 0 7.344-2.853 7.344-6.98 0-3.915-2.762-6.312-6.282-6.312-0.486 0-1.032 0.12-1.032 0.12l-0.06-0.09s1.79-1.002 2.852-1.851l3.945-3.126v-3.126h-13.535v3.793h7.435l-5.675 4.644 1.487 3.611c0.88-0.576 1.912-1.183 3.338-1.183 1.973 0 3.248 1.396 3.248 3.338 0 1.973-1.154 3.399-3.126 3.399-2.064 0-3.156-1.487-3.43-3.49l-4.097 2.246c0.85 2.792 3.642 5.007 7.588 5.007zm20.94-11.077c-0.213-0.698-0.546-1.76-0.546-3.156 0-2.276 1.153-3.733 3.065-3.733 1.73 0 2.792 1.183 2.792 2.944 0 4.977-9.53 7.435-9.53 13.565 2.9e-4 0.36625 0.0311 0.73185 0.092 1.093h13.778v-3.885h-8.437v-0.06c0.759-1.852 8.467-4.735 8.467-10.986 0-3.976-3.126-6.434-7.101-6.434-4.037 0-7.314 2.488-7.314 6.585 0 1.154 0.303 2.064 0.303 2.064l4.43 2.003zm16.327-5.008s-0.121 1.7-0.121 3.187v12.534h4.34v-21.001h-3.278c-1.396 1.7-3.793 3.065-6.312 3.672l1.79 3.733c1.275-0.304 2.762-1.214 3.49-2.125zm11.684 0s-0.121 1.7-0.121 3.187v12.534h4.34v-21.001h-3.278c-1.396 1.7-3.793 3.065-6.312 3.672l1.79 3.733c1.275-0.304 2.762-1.214 3.49-2.125zm24.643 9.166 0.88-2.883h-4.795v-1.76h5.25l0.85-2.884h-5.735c0.546-2.185 1.7-3.763 3.793-3.763 2.398 0 3.338 2.003 3.338 4.492l4.006-2.489c-0.94-3.095-3.52-5.523-7.344-5.523-3.793 0-7.01 2.488-8.073 7.283h-2.58v2.883h2.216v0.668c0 0.395 0 0.759 0.03 1.093h-2.245v2.883h2.61c1.062 4.613 4.066 6.92 8.042 6.92s6.404-2.61 7.344-5.676l-4.006-2.519c-0.03 2.489-0.88 4.674-3.338 4.674-2.215 0-3.278-1.366-3.793-3.4h3.55z" aria-label="1 323 211 €"/>
  </g>
  <g fill="#000">
   <path d="m239 811.66h149.05v-42.599h-149.05z"/>
   <path d="m225.23 843.29h176.61v-42.6h-176.61z"/>
  </g>
  <g id="southern" fill="#fff" fill-rule="nonzero">
   <path id="southern-label" d="m252.48 795.84h14.537v-3.824h-10.106v-5.008h9.317v-3.763h-9.317v-4.583h9.863v-3.823h-14.294zm24.734-4.067c-0.182 0.394-0.546 0.971-1.184 0.971-0.698 0-1.062-0.394-1.062-1.578v-7.344h3.46v-3.278h-3.46v-5.463l-4.249 2.368v3.095h-2.458v3.278h2.458v7.769c0 3.247 1.73 4.613 4.4 4.613 1.761 0 3.187-0.85 3.703-1.336zm16.54-2.428s0.212-0.85 0.212-2.094c0-4.158-2.731-7.071-6.828-7.071-4.128 0-7.314 3.035-7.314 8.012 0 5.038 3.126 8.012 7.405 8.012 3.186 0 5.493-1.7 6.555-3.642l-3.611-2.033c-0.243 1.456-1.336 2.519-2.944 2.519-1.79 0-3.187-1.214-3.369-3.703zm-6.616-6.07c1.669 0 2.853 1.366 2.853 3.217h-6.04c0.334-2.094 1.609-3.217 3.187-3.217zm9.499 12.565h4.31v-21.973h-4.31zm14.02-12.383c1.245 0 2.186 0.668 2.186 1.67 0 1.062-1.184 1.335-3.278 1.79-2.458 0.486-5.614 1.366-5.614 4.795 0 2.823 2.124 4.492 4.825 4.492 2.337 0 3.733-1.336 4.34-2.276h0.091c0.182 0.728 0.364 1.214 0.85 1.912h3.217c-0.304-1.154-0.364-2.246-0.364-3.855v-6.1c0-3.824-2.732-5.705-6.191-5.705-3.4 0-6.04 1.76-7.223 4.31l3.763 2.002c0.425-1.82 1.639-3.035 3.399-3.035zm2.307 6.616c0 1.882-1.365 2.914-2.883 2.914-1.335 0-2.003-0.637-2.003-1.578 0-1.214 1.184-1.548 2.489-1.882 1.153-0.303 1.972-0.637 2.397-1.183v1.73zm-5.493-15.902c-1.305 0-2.276 0.971-2.276 2.276 0 1.335 0.971 2.276 2.276 2.276 1.336 0 2.307-0.94 2.307-2.276 0-1.305-0.971-2.276-2.307-2.276zm6.04 0c-1.305 0-2.277 0.971-2.277 2.276 0 1.335 0.972 2.276 2.277 2.276 1.335 0 2.306-0.94 2.306-2.276 0-1.305-0.971-2.276-2.306-2.276zm6.828 21.669h4.31v-15.296h-4.31zm2.155-21.912c-1.396 0-2.489 1.002-2.489 2.398s1.093 2.397 2.489 2.397 2.488-1.001 2.488-2.397-1.092-2.398-2.488-2.398zm19.21 12.109c0-3.793-1.851-5.857-4.795-5.857-2.519 0-3.824 1.487-4.582 2.883h-0.091l0.212-2.519h-4.28v15.296h4.28v-9.075c0-1.76 1.032-2.974 2.64-2.974 1.609 0 2.307 1.063 2.307 3.096v8.953h4.31v-9.803zm16.57 3.308s0.213-0.85 0.213-2.094c0-4.158-2.732-7.071-6.829-7.071-4.127 0-7.313 3.035-7.313 8.012 0 5.038 3.125 8.012 7.405 8.012 3.186 0 5.493-1.7 6.555-3.642l-3.612-2.033c-0.242 1.456-1.335 2.519-2.943 2.519-1.791 0-3.187-1.214-3.37-3.703zm-6.616-6.07c1.67 0 2.853 1.366 2.853 3.217h-6.04c0.335-2.094 1.61-3.217 3.187-3.217zm23.035 2.762c0-3.793-1.851-5.857-4.795-5.857-2.52 0-3.824 1.487-4.583 2.883h-0.09l0.212-2.519h-4.28v15.296h4.28v-9.075c0-1.76 1.031-2.974 2.64-2.974 1.608 0 2.306 1.063 2.306 3.096v8.953h4.31z" aria-label="Eteläinen"/>
   <path id="southern-value" d="m244.14 811.58s-0.122 1.7-0.122 3.186v12.534h4.34v-21h-3.277c-1.396 1.699-3.794 3.064-6.313 3.671l1.79 3.733c1.275-0.303 2.762-1.214 3.49-2.124zm22.7-5.645c-5.462 0-8.497 4.795-8.497 11.593 0 6.616 2.944 10.136 7.83 10.136 4.248 0 7.465-3.095 7.465-7.587 0-4.34-3.217-6.889-6.525-6.889-1.85 0-3.611 0.971-4.552 2.428h-0.09c0.394-3.611 1.911-6.04 4.37-6.04 1.668 0 2.518 1.184 2.73 2.702l3.885-2.307c-1.183-2.306-3.58-4.036-6.616-4.036zm2.671 14.355c0 2.185-1.214 3.854-3.338 3.854-2.125 0-3.46-1.7-3.46-3.854 0-2.185 1.305-3.855 3.43-3.855 2.124 0 3.368 1.67 3.368 3.855zm14.689-14.355c-5.463 0-8.498 4.795-8.498 11.593 0 6.616 2.944 10.136 7.83 10.136 4.249 0 7.466-3.095 7.466-7.587 0-4.34-3.217-6.889-6.525-6.889-1.852 0-3.612 0.971-4.553 2.428h-0.09c0.394-3.611 1.911-6.04 4.37-6.04 1.669 0 2.519 1.184 2.731 2.702l3.885-2.307c-1.184-2.306-3.582-4.036-6.616-4.036zm2.67 14.355c0 2.185-1.214 3.854-3.338 3.854s-3.46-1.7-3.46-3.854c0-2.185 1.305-3.855 3.43-3.855 2.124 0 3.368 1.67 3.368 3.855zm10.501-3.703c-0.213-0.698-0.546-1.76-0.546-3.156 0-2.276 1.153-3.733 3.065-3.733 1.73 0 2.792 1.184 2.792 2.944 0 4.977-9.53 7.435-9.53 13.566 1e-5 0.36589 0.0304 0.73115 0.091 1.092h13.779v-3.884h-8.437v-0.061c0.758-1.851 8.467-4.734 8.467-10.986 0-3.976-3.126-6.434-7.102-6.434-4.036 0-7.314 2.488-7.314 6.585 0 1.154 0.304 2.064 0.304 2.064l4.43 2.003zm25.705 11.078c4.188 0 7.344-2.853 7.344-6.98 0-3.916-2.762-6.313-6.282-6.313-0.486 0-1.032 0.121-1.032 0.121l-0.06-0.09s1.79-1.002 2.852-1.852l3.946-3.126v-3.126h-13.536v3.794h7.436l-5.676 4.643 1.487 3.611c0.88-0.576 1.912-1.183 3.339-1.183 1.972 0 3.247 1.396 3.247 3.338 0 1.973-1.153 3.4-3.126 3.4-2.064 0-3.156-1.488-3.43-3.49l-4.096 2.245c0.85 2.792 3.642 5.007 7.587 5.007zm17.905-21.73c-5.462 0-8.497 4.795-8.497 11.593 0 6.616 2.944 10.136 7.83 10.136 4.249 0 7.465-3.095 7.465-7.587 0-4.34-3.216-6.889-6.524-6.889-1.852 0-3.612 0.971-4.553 2.428h-0.09c0.394-3.611 1.911-6.04 4.37-6.04 1.669 0 2.518 1.184 2.73 2.702l3.885-2.307c-1.183-2.306-3.58-4.036-6.616-4.036zm2.671 14.355c0 2.185-1.214 3.854-3.338 3.854-2.125 0-3.46-1.7-3.46-3.854 0-2.185 1.305-3.855 3.43-3.855 2.124 0 3.368 1.67 3.368 3.855zm10.471-8.71s-0.122 1.7-0.122 3.186v12.534h4.34v-21h-3.278c-1.396 1.699-3.794 3.064-6.312 3.671l1.79 3.733c1.275-0.303 2.762-1.214 3.49-2.124h0.091zm24.642 9.165 0.88-2.883h-4.795v-1.76h5.25l0.85-2.883h-5.736c0.547-2.186 1.7-3.764 3.794-3.764 2.397 0 3.338 2.003 3.338 4.492l4.006-2.489c-0.94-3.095-3.52-5.523-7.344-5.523-3.794 0-7.01 2.488-8.073 7.284h-2.58v2.883h2.216v0.667c0 0.395 0 0.759 0.03 1.093h-2.245v2.883h2.61c1.062 4.613 4.066 6.92 8.042 6.92s6.403-2.61 7.344-5.676l-4.006-2.519c-0.03 2.489-0.88 4.674-3.338 4.674-2.216 0-3.278-1.366-3.794-3.4h3.551z" aria-label="1 662 361 €"/>
  </g>
 </g>
</svg>
