<svg id="helsinki-logo" xmlns="http://www.w3.org/2000/svg" viewBox="0 0 655.1 324.1"><style>.st0{fill:#fff}</style><path class="st0" d="M335 316.6c10.1-10.1 23.5-15.6 37.8-15.6l222.1-.2c33.2 0 60.2-26.7 60.2-59.5L655 0H0v241.5C0 274.3 26.9 301 59.8 301h222.4c14.3 0 27.7 5.5 37.8 15.6l7.4 7.4 7.6-7.4zM640.8 14.2v227.2c0 25-20.6 45.4-46 45.4l-222.1.2c-16.9 0-32.8 6.1-45.3 17.3C315 293.1 299 287 282.1 287H59.8c-25.2 0-45.7-20.4-45.7-45.4V14.2h626.7z"/><path class="st0" d="M357 198.4c0 7.5 4.4 11.7 9.7 13.9v.3c-5.7 1.2-11.3 4.1-11.3 9.6 0 4.1 3.3 6.5 6.9 7.7v.3c-4.9.9-10.2 3.9-10.2 9.1 0 8.6 12.1 12.3 25.4 12.3 14.3 0 27.1-4.5 27.1-15.9 0-9.4-6.9-13.7-17.4-13.7-5.3 0-9.8.8-14 .8-4 0-5.8-.9-5.8-2.9 0-2.6 4.5-4.2 9.8-4.2 11.5 0 20.7-6.1 20.7-15.7 0-5.6-3.3-9.1-6-11.2v-.4c.9.3 2.6.6 3.8.6 5.5 0 8.4-3 8.6-9.3l-12.4-7.1c.2 1.2.5 2.9.5 4.6 0 3.7-1.5 6-5.6 6-3.3 0-5.8-.9-10.1-.9-11.4 0-19.7 6.6-19.7 16.1m6.8 39.6c0-4.5 11.4-5 17.2-5 5.8 0 10.5 1.1 10.5 4.2 0 4-5.2 5.8-14.2 5.8-7.8 0-13.5-1.5-13.5-5m5.5-38.9c0-4.6 3.7-7.6 8.3-7.6 4.6 0 8.3 3 8.3 7.6s-3.7 7.6-8.3 7.6c-4.7 0-8.3-3-8.3-7.6m66.5-27.7c3.3 0 4.7 3 4.9 5.9l11.7-7.2c-3-4.3-8.7-8.9-17.3-8.9-10.3 0-17.8 5.8-17.8 17.1v5.2h-7.4v10.4h7.4V232h13.5v-38.1h10.6v-10.4h-10.6v-5.3c0-4.2 1.6-6.8 5-6.8m35.8 61.8c13.2 0 23.4-9.6 23.4-25.4 0-15.8-10.2-25.4-23.4-25.4-13.3 0-23.5 9.6-23.5 25.4 0 15.8 10.2 25.4 23.5 25.4m-9.8-25.4c0-8.7 3-15 9.7-15 6.6 0 9.6 6.4 9.6 15 0 8.7-3 15-9.6 15-6.7 0-9.7-6.4-9.7-15m41.4 24.2h13.6v-27.7c0-6.3 1.7-10.3 6-10.3 3.4 0 4.5 3 4.5 6.2 0 3.3-.6 6.5-.8 8l12.2-7s.5-2.5.5-5.7c0-7.1-3.8-12.9-10.6-12.9-6.2 0-9.8 4.2-12.2 9h-.3l.7-8h-13.6V232zm63.5-8.7c-6.5 0-10.7-3.9-12.2-9.2l-11.8 6.6c3.9 7.7 12.9 12.5 24.3 12.5 10.5 0 19.5-5.8 19.5-15.5 0-8.9-6.9-12.3-14.5-14.7-7.2-2.3-13.6-2.7-13.6-6.4 0-2.8 2.9-4.3 6.4-4.3 5.3 0 9 3.4 10.1 7.7l11.7-6.5c-3.8-6.5-12.6-11.1-22.2-11.1-10.4 0-19.2 5.8-19.2 14.9 0 9.2 9.1 12.9 16.5 14.8 6.3 1.7 11.7 2.6 11.7 6.5-.3 3-3 4.7-6.7 4.7M344.7 200.9c0-12-5.9-18.6-15.2-18.6-8 0-12.1 4.7-14.5 9.1h-.3l.7-8h-13.6V232h13.6v-28.8c0-5.6 3.3-9.4 8.4-9.4s7.3 3.4 7.3 9.8V232h13.7v-31.1zm-56.1-30.8c0 4.4-3.5 7.6-7.9 7.6s-7.9-3.2-7.9-7.6c0-4.4 3.5-7.6 7.9-7.6s7.9 3.2 7.9 7.6M273.9 232h13.7v-48.5h-13.7V232zm-24.7-13.5c0-3.8-5.4-4.7-11.6-6.4-7.3-1.9-16.5-5.6-16.5-14.8 0-9.1 8.8-14.9 19.1-14.9 9.6 0 18.5 4.6 22.2 11.1l-11.6 6.5c-1.2-4.3-4.8-7.7-10.1-7.7-3.5 0-6.4 1.5-6.4 4.3 0 3.7 6.4 4 13.6 6.4 7.6 2.4 14.5 5.9 14.5 14.7 0 9.7-9 15.5-19.5 15.5-11.4 0-20.3-4.8-24.2-12.5l11.8-6.6c1.5 5.3 5.8 9.2 12.2 9.2 3.8-.1 6.5-1.7 6.5-4.8m-44.9-55.7h-13.7v55.8c0 5 1.1 8.6 3.2 10.9 2.2 2.3 5.6 3.4 10.3 3.4 1.6 0 3.2-.2 4.9-.5 1.7-.4 3-.9 4-1.5l1.2-9.1c-1.1.4-2 .7-2.8.8-.8.2-1.7.2-2.8.2-1.8 0-2.6-.4-3.2-1.3-.7-.9-1-2.5-1-4.8v-53.9zm-46.4 29.3c-5 0-9 3.6-10.1 10.2H167c0-5.9-3.8-10.2-9.1-10.2m21 19.3h-31.4c.6 7.9 5 11.7 10.7 11.7 5.1 0 8.6-3.4 9.3-8l11.4 6.4c-3.4 6.2-10.7 11.5-20.8 11.5-13.6 0-23.5-9.4-23.5-25.4 0-15.8 10.1-25.4 23.2-25.4 13 0 21.7 9.2 21.7 22.4.1 4.1-.6 6.8-.6 6.8M109.8 232H124v-66.6h-14.1v26.4H83.3v-26.4H69.1V232h14.1v-27.6h26.6V232zM428.1 73.8c0 4.4-3.5 7.6-7.9 7.6s-7.9-3.2-7.9-7.6c0-4.4 3.5-7.6 7.9-7.6 4.5 0 7.9 3.2 7.9 7.6m-14.7 61.9h13.7V87.2h-13.7v48.5zM387 106.5l17.8 29.3H390l-11.9-19.4-6.4 8.2v11.3h-13.6V66h13.6v32.1c0 6-.7 11.9-.7 11.9h.3s3.2-5.3 5.9-9l10.4-13.9h15.9L387 106.5zm-42.6-1.9c0-12-5.9-18.6-15.2-18.6-8 0-12.1 4.7-14.5 9.1h-.3l.7-8h-13.6v48.5H315v-28.8c0-5.6 3.3-9.4 8.4-9.4s7.3 3.4 7.3 9.8v28.4h13.7v-31zm-56.2-30.8c0 4.4-3.5 7.6-7.9 7.6s-7.9-3.2-7.9-7.6c0-4.4 3.5-7.6 7.9-7.6s7.9 3.2 7.9 7.6m-14.7 61.9h13.7V87.2h-13.7v48.5zm-24.7-13.5c0-3.8-5.4-4.7-11.6-6.4-7.3-1.9-16.5-5.6-16.5-14.8 0-9.1 8.8-14.9 19.1-14.9 9.6 0 18.5 4.6 22.2 11.1l-11.6 6.5c-1.2-4.3-4.8-7.7-10.1-7.7-3.5 0-6.4 1.5-6.4 4.3 0 3.7 6.4 4 13.6 6.4 7.6 2.4 14.5 5.9 14.5 14.7 0 9.7-9 15.5-19.5 15.5-11.4 0-20.3-4.8-24.2-12.5l11.8-6.6c1.5 5.3 5.8 9.2 12.2 9.2 3.8 0 6.5-1.7 6.5-4.8M204 66.5h-13.7v55.8c0 5 1.1 8.6 3.2 10.9 2.2 2.3 5.6 3.4 10.3 3.4 1.6 0 3.2-.2 4.9-.5 1.7-.4 3-.9 4-1.5l1.2-9.1c-1.1.4-2 .7-2.8.8-.8.2-1.7.2-2.8.2-1.8 0-2.6-.4-3.2-1.3-.7-.9-1-2.5-1-4.8V66.5zm-46.4 29.4c-5 0-9 3.6-10.1 10.2h19.2c-.1-5.9-3.8-10.2-9.1-10.2m21 19.2h-31.4c.6 7.9 5 11.7 10.7 11.7 5.1 0 8.6-3.4 9.3-8l11.4 6.4c-3.4 6.2-10.7 11.5-20.8 11.5-13.6 0-23.5-9.4-23.5-25.4 0-15.8 10.1-25.4 23.2-25.4 13 0 21.7 9.2 21.7 22.4 0 4.1-.6 6.8-.6 6.8m-69.1 20.6h14.1V69.1h-14.1v26.4H82.9V69.1H68.8v66.6h14.1v-27.6h26.6v27.6z"/></svg>