<svg xmlns="http://www.w3.org/2000/svg" viewBox="0 0 495 230"><path d="M479.8 14.9v131.5c0 25.1-20.7 45.6-46.2 45.6H292.9c-16.9 0-32.9 6.1-45.4 17.4C235 198.2 219 192 202.1 192h-141c-25.3 0-45.8-20.4-45.8-45.6V14.9h464.5zM255 221.9c10.1-10.1 23.6-15.7 38-15.7h140.6c33.3 0 60.4-26.8 60.4-59.8V.6H1v145.7c0 33 26.9 59.8 60.1 59.8h141c14.3 0 27.8 5.6 38 15.7l7.5 7.5 7.4-7.4z"/><path d="M425.7 74.8c0 4.4-3.5 7.6-7.9 7.6s-7.9-3.2-7.9-7.6 3.5-7.6 7.9-7.6c4.4-.2 7.9 3 7.9 7.6m-14.8 62.1h13.7V88.2h-13.7v48.7zm-24.6-29.4l17.9 29.4h-14.9l-12-19.5-6.5 8.2v11.3h-13.6v-70h13.6v32.3c0 6-.7 12-.7 12h.3s3.2-5.3 5.9-9.1l10.4-13.9h16l-16.4 19.3zm-42.9-1.8c0-12.1-5.9-18.7-15.3-18.7-8 0-12.2 4.7-14.6 9.2h-.3l.7-8h-13.6v48.7h13.6V108c0-5.6 3.3-9.5 8.4-9.5s7.3 3.4 7.3 9.9v28.5h13.7l.1-31.2zm-56.2-30.9c0 4.4-3.5 7.6-7.9 7.6s-7.9-3.2-7.9-7.6 3.5-7.6 7.9-7.6c4.5-.2 7.9 3 7.9 7.6m-14.8 62.1h13.7V88.2h-13.7v48.7zm-23.6-13.6c0-3.9-5.4-4.7-11.7-6.5-7.3-1.9-16.5-5.6-16.5-14.9 0-9.2 8.8-15 19.2-15 9.7 0 18.6 4.6 22.3 11.1l-11.7 6.6c-1.2-4.3-4.8-7.7-10.2-7.7-3.5 0-6.4 1.5-6.4 4.4 0 3.7 6.4 4.1 13.6 6.4 7.6 2.4 14.6 5.9 14.6 14.8 0 9.8-9.1 15.6-19.6 15.6-11.4 0-20.4-4.8-24.4-12.6l11.9-6.7c1.5 5.3 5.8 9.3 12.3 9.3 3.9 0 6.6-1.6 6.6-4.8m-43.3-56h-13.7v56.1c0 5 1.1 8.7 3.2 11 2.2 2.3 5.6 3.4 10.3 3.4 1.6 0 3.3-.2 4.9-.5 1.7-.4 3-.9 4.1-1.5l1.2-9.2c-1.1.4-2 .7-2.9.8-.8.2-1.8.2-2.9.2-1.8 0-2.6-.5-3.2-1.4-.7-.9-1-2.5-1-4.8V67.3zm-45.6 29.5c-5 0-9.1 3.6-10.2 10.2h19.2c.1-5.8-3.7-10.2-9-10.2m21.1 19.4h-31.5c.6 7.9 5 11.8 10.7 11.8 5.1 0 8.6-3.4 9.4-8l11.5 6.5c-3.4 6.2-10.7 11.6-20.9 11.6-13.6 0-23.6-9.5-23.6-25.5 0-15.9 10.2-25.5 23.3-25.5s21.8 9.3 21.8 22.5c-.1 3.9-.7 6.6-.7 6.6m-69.7 20.7h14.2v-67h-14.2v26.5H84.6V70H70.4v66.9h14.2v-27.7h26.7v27.7z"/></svg>