<?xml version="1.0" encoding="UTF-8"?>
<svg width="1291.5" height="1053.2" version="1.1" viewBox="0 0 1291.5 1053.2" xmlns="http://www.w3.org/2000/svg" xmlns:cc="http://creativecommons.org/ns#" xmlns:dc="http://purl.org/dc/elements/1.1/" xmlns:rdf="http://www.w3.org/1999/02/22-rdf-syntax-ns#">
 <title id="title">Helsinki districts with their budgets</title>
 <g fill="none" fill-rule="evenodd">
  <path d="m206.396 196.858 7.6 12.665 35.045 115.26v23.644l3.8 17.31-42.645 23.221 46.445 96.262 25.333-4.644-5.91 17.31 56.578-8.022 11.4-3.8 22.8-18.998 39.268-10.134 44.334 19.844 14.357-21.11v-17.31l21.11-24.91-2.11-32.51 24.91-24.487-13.51-8.022 69.284-72.639-11.44-25.733 1.267-10.977-3.376-15.2 4.221-13.51 8.867-8.443v-9.711l-9.289-2.956-36.312 9.288-19 14.355-9.288-3.378-33.78.845-15.41-6.42v.72l-9.711 5.066-8.234-5.276-28.078-16.89v-8.865l-14.78-21.532 4.434-11.61 1.479-7.389-10.345-3.167-5.277-10.766H351.22l-39.69 20.056-22.378 1.477-17.734 12.665h-11.612l-15.2 10.978-9.288 1.689-26.762 11.497zM786.82 606.11l-3.167 4.574-2.04 3.589v3.095l1.619 3.238 3.588 3.588 5.138-.562 4.292-3.167 1.056-4.926-.281-3.306-3.238-4.715-2.463-1.9zm79.52 78.81 6.756-3.518 7.6-.563 2.252 4.082-1.407 4.644-6.897 4.222h-7.741l-.563-3.378-3.237-1.125zm43.349 24.488 4.223 3.519 2.815 1.548 6.896-1.971 1.547 4.504-6.332 5.63-9.149 1.266-7.6-7.248 2.111-4.715zm-29.979 11.4 5.349 4.222.563 6.755-4.363 4.222h-5.208l-4.362-4.222v-6.192l1.97-4.785h4.996zm-21.674 35.464 10.134-2.814h9.852v5.347l-2.956 4.081-2.04 3.097h-4.433l-6.616-4.222-2.251-.704zm-1.548 17.029 10.274-2.252 6.263 1.127 8.093 4.503 3.237 5.488-3.096 5.63-3.941 1.125-7.882-5.206-5.348-2.815-6.051-.915zm32.09 13.51 6.192 1.408 1.97 3.236.845 4.082-2.393 3.096h-2.815l-3.8-5.066v-3.94zm62.349-4.081 4.926 3.096v3.941l-1.83 2.955-4.786-1.83-3.096-4.925 1.126-2.251zm28.148-12.947 8.022 2.815 7.32 4.08-.704 6.052-3.8 2.815-9.852-1.407-5.489-4.926-1.971-7.318 2.956-2.111zm-9.57-24.84-.845-7.389 4.926-4.08 6.615-3.096 2.674 3.94-.704 6.755-8.163 6.896h-2.814zm30.682-71.422.844-12.384 5.208-.845 1.266 5.067 5.49 1.548v7.6l-6.405.704zm8.444 11.822 4.364 5.77 5.77 8.022-1.97 4.785h-6.193l-4.786-7.037-3.8-5.489 1.126-4.081zM1120.1 566.071h14.99l17.1 3.167 10.554 12.244 5.068 2.744 7.6 2.322-1.69 10.766-7.177 3.588-6.334-5.7-8.022-10.343-4.433 2.744-1.9 7.39-7.178-3.168-11.612-8.338-6.966-10.871z" fill="#fdc523"/>
  <path d="m1277.38 53.099-17.1-21.744 26.601-11.399-4.645-16.677-44.334 15.41-26.812-15.41-9.711 10.767 6.333 1.055-19.423 25.754-64.811 21.955 11.189 10.977-24.068 20.055-1.899 7.81-16.889-24.066-8.023 35.254-28.5 13.932-10.556-5.276-2.955.421-3.59 11.822-93.523 41.797 2.533 20.266-2.955 6.122v14.672l6.756 9.605v12.243l9.71 10.133 10.556-.21 9.923 7.176 2.956 9.71 7.177 5.279-.634 21.32 6.968-.632 3.378 12.454-27.656 20.266-17.523.844-7.177 5.067-21.535 46.653-135.113-50.031-25.545-24.488.28-1.083-62.137-7.36-5.91 19.42-46.868 46.02-12.245-.844-8.023-2.956-7.177 8.445 3.8 4.222 1.266 8.443-5.066 7.39 11.823-2.323 10.555 2.322 22.8 26.177-24.7 72.829 7.389 24.487v23.221l4.644 14.778 14.779 8.866h38.845l3.378 34.198h16.467l2.63 23.742 18.692.534 9.289-13.932 33.145.633 16.256-1.689 2.744-7.81-9.922-8.445 5.067-5.277 4.01-14.143 20.268-1.69 2.322-4.222 11.19-1.688 2.743 4.433 8.234 5.91-15.2 17.1-21.323 29.976 8.867 9.5.845 4.01-21.534 5.066-4.856 12.244-18.155 13.933-3.379 15.832 2.534 4.012 8.233-.423 6.123-3.589 2.955-9.499 7.811-5.066 13.511-2.322 5.068-8.022 10.978-3.588-1.267-9.29 29.978 4.012 4.856-2.322 21.956-13.511 18.367-10.555.844 17.099-5.066 7.178 1.055 6.333 9.5 3.167v10.554l-6.967 8.866-.634 8.233h20.901c1.9 0 13.3 10.977 13.3 10.977l8.445 1.056 19.845 18.366 7.177-2.111 1.267-5.067-4.433-4.855-9.289-8.655.634-17.31-14.567-9.5-2.111-7.178 4.222-1.688 3.8-3.8 14.356-5.7 1.477-8.232-8.233-2.112-5.489 5.067-8.867-1.9-9.29 11.61-7.599 2.111-8.234-5.91-5.7-9.5 10.345-5.488 4.011-3.59-1.69-7.176-6.966-1.267-2.954 4.855-7.179 1.056-.21-15.832 7.389-1.69 10.766 6.334 14.99-.422 13.51-9.29 11.823 1.69 9.289-4.222 1.9-6.123 4.855-.21-.844 6.965 4.433 1.479 3.8-8.234 2.534 4.646-6.545 9.077 1.9 16.464 13.3-.632 4.856 4.855.21 8.655 9.29-.845 2.534 2.534-8.023 4.855-1.477 1.69 2.11 10.977 21.112-16.044 4.222-8.656 1.9 26.81 8.233-6.122 2.535-19.21 14.356-26.599 9.71 2.956 1.9-3.8-13.3-21.321-3.8 1.478.211 7.81h-3.377l-6.756-9.921-7.39-20.054 16.257-17.944 14.144-.634.423 9.078-11.823 17.31 4.433 2.956 5.911-8.866 5.701-8.023 1.9-6.966 2.534-1.477 2.322 5.91 13.722-3.588-8.656-1.478-1.267-3.8 6.545-6.755-23.434-26.177v-6.544l9.289 6.122-3.8-8.866 1.267-3.167 25.545 33.354 3.377-1.477.634-13.3 2.744-4.643h10.344l-22.588-24.488.21-3.59 8.656 1.69 1.478-2.533-6.122-7.178 3.8-1.056 1.478-4.01-9.079-3.166 2.535-10.133-1.479-6.123-8.655-.632-.212 13.087h-10.766l-1.478-16.466h-10.978l-2.744-5.276-1.9-8.445-13.512-1.055.422-5.49-9.5-2.11.845-10.344 10.978-1.477 20.9 17.099-2.533 4.01 1.69 5.279 8.021-2.534 4.855-10.344 1.69-7.81-9.923-7.811-10.556-8.023 1.056-19.842 5.489-7.6 10.345-1.266 8.655 16.043 24.912 1.689 13.933 10.765 9.078 2.534 3.59-4.222-4.645-8.866v-8.655l3.589-10.555 10.766-4.222-.844-5.489-23.645-.212-5.277-3.588-.211-5.91 26.388.21 2.745 4.012 4.645 1.266 6.755-5.7 1.69-5.066-1.69-9.288-18.366-20.267 27.233-.421 2.111 8.444 6.756.422 4.011-3.8-.423-5.277-3.377-4.223 11.4-3.799 12.667-1.69.211 7.179-9.5 2.954-1.478 3.59 2.322 3.378 15.835-1.69 2.533-2.744 9.922-13.722.845-12.454-20.057-34.41-19.844-1.055-3.378 2.533-18.789-1.267-21.956 18.154-7.179-3.376 5.278-11.4 5.279-9.077 6.966-3.589 17.523-1.478 1.477 5.067 6.756.634 16.256-7.39 9.712-5.699-9.501-12.667 10.767-.21.211-5.7 6.545-1.056-1.056-5.277-1.266-23.01 9.077-26.176 24.49-1.267v-3.799l23.645-5.7 4.644-15.199-26.811-16.889 10.555.212.211-31.454-10.978-6.966 31.668-31.243-7.812.211ZM46.794 930.219l-1.267 5.277 4.223 2.112h6.332v-3.695zm-4.012 13.511-1.266 8.444 4.01 3.588 3.801-2.533 4.433-9.5zm124.347 45.808-4.012 18.735-5.805 11.452-8.762 12.666 3.59 11.189 7.178 5.7 1.477-2.957 20.479-18.365 5.91 8.022 6.123 1.055 5.277-4.856 1.056-6.966-7.177-3.166.844-11.4-10.556-13.51-8.656-5.7zm69.105-1.76v-7.176l9.43-10.838 5.488-5.489h7.319l3.941 4.223 5.207-2.111v-8.585h9.289l5.63 3.94v14.214l-3.519 8.023-3.237-.14-3.377-4.786-4.223-.14-1.407 4.08-5.348 11.962-7.46 1.408-12.526-1.408-3.94-2.954zM479.79 876.81l-1.69 4.855 1.69 5.278h5.488l4.012-4.01-4.012-6.123zm63.123-10.977 2.956 7.177-1.479 9.71-3.589 9.29 2.533 10.765 8.024 7.39 4.855-1.478 5.278-10.345 5.066-11.399-2.111-8.866-10.766-7.81-3.378-5.49zm-36.312 98.162 2.533 4.854 11.189-1.055 9.712-3.8h7.178l5.49 4.855 2.743 1.69v25.825l3.8-1.972 4.433-6.755 7.811-.421 2.534-4.223 7.178.634 2.534 3.378 5.066-2.322v-9.079l7.179-.421 3.377 3.377v6.123l-6.123 3.799-.421 8.866 4.222 3.378 2.322 4.644-2.322 5.488-10.134 7.39h-9.289l-15.411-10.344-4.223-5.912-7.177 4.644-6.756.634-6.544-.634-.211 9.29-13.3 7.6-5.068 1.898-3.589 3.59h-9.29l-6.755-7.39 3.167-4.432 5.067-.845 4.855.634v-2.956l-7.6-1.9.423-36.731-2.534-2.111-.844-2.955 11.611-8.234zm-22.906-52.565 5.595 14.356 6.756 12.454-.845 6.544-1.267 4.012-10.239 1.899v23.644l-.95 8.232-16.678-1.477-5.489-20.688-8.866-8.444v-8.022l-9.08-8.444-9.077-.422-2.533-10.766-6.967-2.534v-8.654s6.545-4.222 7.6-4.222c1.056 0 6.333 1.266 6.333 1.266l1.9-4.011 2.745 4.011 1.055 6.755 3.378 4.223-2.955 8.866.633 4.855 5.701-4.855h5.488l5.278-1.69-7.177-8.866-6.334-1.055-1.9-8.233 1.478-10.766 8.444 1.477 1.479 3.167-.423 9.289-1.689 2.111 2.744.422 3.167-5.7 22.695 1.267Zm-275.61-81.273-20.127 2.815.141-9.288-1.83-3.59-5.84-1.618-11.19-1.125 12.95-7.178 18.155-2.955 3.379 6.895 5.91 1.83-1.548 14.214ZM440.1 782.871l-4.434-1.9-.845 5.7-18.366 4.855-4.644-3.378-13.723-.634-.633-8.654 5.278-3.8-.212-5.066-.633-6.967 9.289 1.478 7.178 4.223 5.488-3.379.423-7.177-10.344-3.167-13.09-.844-2.532-7.599 3.172.187-10.562-9.053-21.533 10.133h-13.934l-12.891-15.853.223 5.72 4.434 6.332-3.167 2.111-14.355-12.454 1.267-5.278 7.867-1.02-.373-.457-16.361-1.266v3.588l-6.966 3.166-3.801 5.278h-5.278l-1.689-29.765 8.867-1.267 3.378 18.576-1.267-18.576 5.066-19.352-7.177-39.123h-11.4l-27.023 17.733h-15.412l-14.988 12.665-5.912 15.2h-15.199v4.644l-6.968 3.8-5.066 4.433 2.111 8.444 2.955 6.122 9.29.95h5.489l6.755-7.283 2.322-5.7 5.49 6.121v9.5l-5.068 7.388 10.346 12.245-1.056 5.066-5.278 1.266-13.09-13.087-2.322 3.376.422 14.778-32.405 25.332 2.005 3.8 10.133 3.166h10.134l5.912-4.222 12.033-.422 2.744 6.755v9.077l-5.91 4.223-6.334-2.745h-13.723l-18.367 2.745-29.978 7.81h-11.189l-5.278-5.067-7.39 5.067-7.6 4.223-5.488 3.377h-4.222l-2.533 5.489h-5.912l-12.245-10.767-10.978-1.477-1.688-9.922 2.744-.844 3.588 4.433 9.29.21 3.589-5.277-.211-9.71-6.334-2.322-6.121 2.744-5.279 2.533-2.745-5.066 5.701-1.056.422-4.856-2.533-1.266.211-10.133 4.223-4.855v-10.132l-8.024-6.756-6.317-.632-.107.261-1.387 3.96-.246.034-3.508 8.583 1.855-.174 8.867 12.456-2.112 9.71-2.956-3.378-7.6-1.688-4.855 9.499 2.533 15.2-.633 10.555-9.5 2.533-5.068-7.6-17.31-2.956-4.434 2.534v6.545l13.09 1.899 2.533 4.645-5.911 5.066-1.479 7.388s5.912 5.91 6.545 5.91c.634 0 5.91-5.91 5.91-5.91l7.39-11.188 6.967 3.8 1.055 4.854-7.177 1.9v9.5l12.245.845 4.433 10.555-16.467 14.776-1.478 5.278 1.689 7.81 16.678 15.622 9.077-7.6-1.899-12.243 4.645 1.478 4.222 13.088 5.278-.422 1.267-3.378-2.535-6.966 14.145-.21 2.323-2.957 7.178-.21 5.49 23.431 4.433 21.955h-11.401l-3.166 4.433.422 8.866 4.855 5.7 16.467-.211 1.056-10.556 8.022-2.322 8.234 9.078 9.711-.211 12.667-4.855-2.322-5.278-2.535-5.7.212-19.421 10.345 4.644 5.7-2.533-.633-6.121-5.49.632-2.744-4.011 3.8-7.177 1.478 1.9 3.378 1.056-.422-8.445-3.8-2.743-10.345 12.032-1.9-20.899s-9.923.633-10.556.211c-.633-.423 1.267-12.033 1.267-12.033l23.855-3.8 1.056-5.488.21-14.566 16.68-4.221 13.088 15.198 17.101-10.344 2.111 2.956-21.956 19.21 12.667 2.745-18.578 10.976 21.744 33.566 17.1-17.733-.21 6.755-3.378 7.811 6.967 5.066 10.134-3.378 2.11-8.655-.422-6.332 9.5-10.767.633-41.586 21.745 14.566-7.6 3.588-6.755-1.9-1.267 30.82-5.489 1.901-4.644 5.066.843 3.377-3.165 10.556-5.702 12.665 11.402 5.49 14.355 1.688v-5.488l8.867-8.022s0-6.544-.21-7.178c-.213-.632.21-8.866.21-8.866l6.334-2.111 2.533-8.866 4.644-5.277 6.122 1.477 9.922 8.867 2.323 8.866h8.445l1.9-6.544 2.322-2.111 2.322 6.755 6.122 7.178h6.756l-2.533-4.223v-5.911h14.566l1.056 10.134 10.345 10.554 12.245 6.333 2.955-1.689-6.333-7.6-4.856-8.866-1.9-14.354 13.089-16.044 3.167-12.454 10.978-8.867-1.056-18.788-11.61.422.421 15.2-4.644 1.055-8.867-12.244-13.3-17.31-4.223-13.3 3.801-1.266 4.644-3.588 10.978 9.921 32.933 17.733 31.668-29.976-15.411-11.4.21-4.644Z" fill="#fdc523"/>
  <g fill="#FBDBE9">
   <path d="M766.272 910.164c1.055.211 8.022-1.266 8.022-1.266l1.69-3.589s2.743 1.056 3.377 1.267c.633.21 4.223 5.7 4.223 5.7l-3.378 6.543-6.968-2.744-8.656-2.955 1.69-2.956Zm20.478 32.298 8.233 2.322 6.123 4.855.845 5.7-3.801 1.056-2.744-3.166-18.157-.423v-5.066l2.745-5.278zm2.85-24.698 10.24-7.6v-19.42l5.066-3.273h10.345l4.644 5.594v19l1.9 5.699-3.59 3.166-7.177 2.322 1.478 4.855-2.956 2.534-12.245-2.11zm-23.328-185.979 8.585 3.095 5.63 3.097v8.304l-.563 4.503-4.644 1.548h-7.883l-7.88-9.429-2.534-4.926 1.83-3.66 3.8-2.532zm54.89 1.689 6.474-1.126 4.363 3.237 2.111 7.6 1.126 9.146-1.83 5.208h-7.741l-3.237-4.081 2.533-4.926 1.83-2.252-.562-6.051-4.364-2.815zm215.337 49.256 9.992 9.992v5.911l-2.533 2.392-7.46-4.503-9.57-8.162 2.956-4.363zm3.237 28.85 6.755 7.881-1.97 5.067-8.585 5.489-2.252-1.549.844-16.887zM842.22 928.74s12.931-10.184 13.09-10.396c.158-.211 10.133-3.958 10.133-3.958s3.958.634 4.117.739c.158.106 3.166 2.375 3.272 2.586.105.211-1.003 6.755-1.003 6.755l-8.18.897-5.859 3.695-8.55 2.902-4.697-.422-2.323-2.797Zm110.044 31.103c.14-.21 10.204-8.163 10.204-8.163l6.896-3.447 2.674 4.785-3.378 6.825-6.509 7.248-9.887 1.618-1.478-5.067 1.478-3.8Zm-138.28-117.02 7.037-.985 3.237 3.8 3.66 7.6 1.688 1.688h7.038l2.955-7.318-7.178-4.644-2.111-4.363 6.334-5.63h3.94l3.66-5.488h4.644l1.267 4.082 13.37.281.564-2.674 5.066-.703 1.97 3.096 11.541 1.126 4.223 3.799 6.755-3.658 9.993-3.942 2.11 7.178-2.391 4.082-12.808 7.88-4.363 6.896-2.111 8.022-.422 8.163h4.081l9.852-6.896 9.852-6.052 6.474-4.503 3.66-3.237 6.614-1.829 3.238-6.474 17.31-.422 3.802-.564 2.25-2.392 2.535 1.408v4.08s2.25 3.096 2.533 3.096c.282 0 9.008 1.127 9.008 1.127l-1.97 4.785-9.431 7.459-13.37 5.206-7.319 4.364-7.178 2.392h-16.89l2.394 10.273 9.57-1.407.422-2.251 7.6-.564 13.512 11.54 3.94 8.866-.28 12.948-.423 11.11-3.378 5.778-5.49 5.207-8.021 2.815-6.475-3.237-9.57-11.822-3.66-5.347h-5.066l-13.512-17.874-7.88-8.162-6.897-3.06-6.897 2.638-7.741 5.207-5.629.282h-12.105l-3.94-4.081-9.149-1.127s-2.814-3.658-2.814-4.785c0-1.125-.564-9.007-.564-9.007l-4.855.985-4.433 4.644-11.665.423-7.618-3.237-4.22-8.444 1.266-5.911 5.91-6.473 5.49-4.644 4.503-6.616 2.956-4.503Z"/>
   <g fill="#fbe978">
    <path d="M878.022 822.417v4.222l5.63 3.378h2.674l.845-3.8v-3.8l-6.616-.986zM485.067 704.13l-10.556-.844-14.144 12.455-3.167-.66-5.686 20.56 4.42 5.221-8.867 17.732 1.476 5.7 9.924 6.544h11.61l5.279-5.7 7.811-9.287-3.8-7.39-11.824-6.122 3.167-3.377 11.612.423 7.388-2.745 8.658-4.855 7.388-6.333 7.6-4.012 2.745-5.487-10.133-5.067z"/>
    <path d="m795.616 804.403.634-13.933-4.434-2.322-6.544.634-.845 12.665-7.811 6.755 4.011 8.445-10.345 5.277.212-8.232 3.589-10.977 2.322-18.366-4.856-11.822-9.5-6.756-10.344 4.012-12.034 10.554 2.956 8.445 4.644 8.021-17.944 1.479-8.234 13.299-10.346 4.01h-15.621s-5.489-7.177-5.7-8.443c-.212-1.268 1.055-5.489 1.055-5.489l5.912-2.111 4.855 5.91h10.345l1.267-9.287h3.167l1.054-4.644 4.646-.423 3.8 2.745h6.755l3.167-5.278-1.9-4.433h-15.201l-2.11-4.433-4.645-8.656-5.278-5.7 2.956-4.01.422-2.744-3.589-3.167-.212-13.088 3.8-4.855 9.079-6.545-10.134-11.4-.632-14.987-2.958-13.721-8.866-7.6v-6.333l11.824 2.11 5.277-4.01.632 10.977.423 7.81 4.434 5.278-3.166 4.855-2.113 7.178 5.49 8.866 5.278 6.966 2.745-3.8 9.921-.844 5.49 11.188h5.277l-.844-14.987 9.923-1.268 4.434-6.966 7.6-6.333 7.81-7.388-1.267-24.065-3.377-8.867-8.445.211-6.333 7.178-5.278.845-4.855-6.333-10.346 1.477-1.266 13.3-5.49 3.166.634 8.866-5.912 2.111-3.8-8.233-1.267-12.455 4.434-4.01 8.234-11.611 13.723-1.267 7.81 8.445 6.334-6.123-2.533-3.8-3.801-3.589 3.379-4.22-.634-5.49-5.7.844-6.122 8.655h-10.345l1.479-10.765-4.224-6.967-19.633-9.71-.422-8.233 3.166-4.433 20.716.592-5.092-12.836-3.096-14.355-16.608 3.378 1.688-33.213-33.779 1.125-14.917-3.095-8.445-8.445-3.097-14.635-5.067-45.035-43.91 50.945-29.838-19.702-8.081 12.777c3.97 5.836 11.36 16.765 11.67 17.692.422 1.266-1.268 11.61-1.268 11.61l-10.978 10.555 6.545 15.832 10.344 2.744 6.966 4.856-5.277 40.32-2.956-5.91-7.177-10.556-4.856-6.755-11.19-.844-6.754-4.222-3.8 2.744-.845 7.388-4.012 4.644-8.233-2.11-9.5-6.334-5.7 5.278-8.235 2.745 13.725 12.876 9.076 5.912 11.4 7.387-6.332 11.4-13.934 1.055-4.856 9.077-7.81 2.111-9.711 9.922-12.457 4.433-9.288.212-.938 3.44-.176 1.248 8.502 2.489 12.244 8.655 21.957 8.445 15.833 15.409 12.878 6.544 12.245 1.69 6.334-8.022-1.057-7.178s-3.8-6.121-4.643-6.966c-.845-.845-3.59-5.489-3.59-5.489l8.445-10.555 6.966-9.077-5.066-8.656-5.067-4.22 6.545-1.9 3.588-6.334 8.867-3.167 3.589 8.866 2.745 8.866-5.278 6.966 2.956 5.701 6.755-5.067v8.866l12.245 3.589 5.489-2.955 10.133-.423 2.745-4.855 19.844-.633-7.6 12.877 15.623 3.589.844 15.62H637.07l-2.534 5.068-7.39 2.322 2.746-8.234-5.912-3.165.212-16.044-6.756-.422-1.9 13.72-17.523 2.957 2.533 5.7 2.956 4.854-6.756-.21-2.743-2.745-3.59 5.278-14.356.422-8.445 22.376-6.967-2.533-18.788 22.377-1.478 20.054 10.556 1.9 6.543 2.533-5.066 8.022-5.489 6.755.845 31.876 6.334-1.055 3.589-13.721 14.777-2.322 4.435 9.921 3.8 14.143 8.654 4.433.422-8.021-4.643-7.81 4.221-4.645-2.111-3.8-7.388-4.644-2.112-6.544 9.712-.422 21.322 24.909 7.39 3.379.843-6.123-4.222-11.61-.845-6.967 4.012-7.388-7.6-11.4 8.021 1.69 5.701 10.554-1.267 12.878 4.856 1.266 2.322-2.955 4.646-2.323 1.899 4.433 5.91 17.733 6.967.423 10.767-5.067 1.69 24.7-12.879 9.709-10.766-4.855 4.012 10.977 1.054 9.71-19.21 12.878-.634 8.233-6.756 5.488-11.4 1.055-3.8 14.567-10.134 3.589 3.379 6.965 18.366 2.322-3.8 8.867-6.544.633-1.688-3.59h-12.246l-.633 9.923 6.333 2.955 4.433-4.222 5.912 1.267-7.178 7.6 4.433 7.81 12.879.423 1.055 6.755-4.433 1.688-7.812 1.479-4.01 7.177 8.021 16.255 5.7 2.533 5.067-9.922 4.012-7.6 5.7-2.322 13.3 5.278 6.756-1.267 13.088-16.044 5.49 1.9 16.044 1.9 3.166 4.645h18.79l6.756-3.167 1.054-8.232-2.32-.845-1.267-9.5-9.5-1.688-6.122-3.8 1.9-7.6-2.534-7.388 2.956-7.6 6.544-1.056 4.01 8.656h4.434l3.378-10.344.634-9.078 5.7 5.912 6.755 2.11 3.166-6.966 3.379 6.122 10.767 4.644 18.579-6.966 7.81-6.122-1.478-7.177-11.189-6.545-2.744-11.399-6.966-2.534-12.246 1.69-7.811-10.767-3.8-4.644-5.91 2.533-.845-3.588-6.968-.634-3.589 6.333-12.032-6.544-8.657-6.544-.634-14.566-3.377-.422-14.145 2.744-.21-17.52 11.188 5.91 3.59-1.055 12.667-5.278 5.7-1.267 14.988 13.932 30.19.845 5.91-27.02 5.701 2.743 1.9 7.6-4.011 7.6v6.122l4.644 2.744.423 6.544-2.745 2.533-.422 7.81h7.81l.634-13.51-2.11-6.12 16.044-12.456h20.69l6.122-3.378 4.433-5.277v-18.577l-11.4-10.343-2.745-4.856Z"/>
    <path d="m446.856 190.103-5.912 5.7v8.865l-.983.513 11.469 3.077 46.642 3.452 29.922-14.149 27.17-6.822 7.735 6.26-10.135 14.635-3.377 12.385 3.94 16.325-1.125 7.319 12.284 26.96-43.811 43.97-25.052 27.583 9.851 11.822-25.896 25.684 4.504 6.966.563 15.2-12.386 25.331-10.133 6.193 2.251 17.45-11.822 19.14-.562 19.14 9.008 6.192 9.57 9.886-1.052 15.94 6.47 4.854 12.878 21.32 10.768-.421-.634 6.543-7.811 8.023-3.167 8.443 1.478 13.3 10.768.21 1.266-7.177 4.221-11.61 15.834-8.866 5.7-15.833v-28.498l13.934-2.111 5.912 8.022.21 7.81-7.178 8.445-1.267 7.81 4.01 3.8 6.125-3.8 5.91-8.233-.21-8.867 1.266-7.388 6.756 4.433s2.384 3.487 5.192 7.637l5.082-15.096 30.963 18.577 40.887-49.538 23.292-70.367v-12.947l-23.292-22.517-22.138 1.898 5.825-6.99v-8.156l-4.307-4.204 6.755-10.133 4.543 5.016 13.982 1.165 44.529-38.83 8.444-12.384v-14.637l64.67 5.443 15.554-60.188-4.012-3.8 6.968-39.053v-11.19l-2.112-17.626-32.51-27.337-46.025 1.266-3.8-6.755-22.167 5.067-4.643-11.4-6.124-5.066s-9.921 4.644-10.133 4.01c-.21-.632-14.144-20.897-14.144-20.897l3.8-3.59-4.223-10.765-6.967-15.41-4.222-12.034-3.167-.844-2.321 3.8-6.968 4.855-2.322 9.711-13.09-1.268-7.178-10.343-9.92-6.966-3.802-6.755h-21.111l-2.955 4.855-8.234 6.122-2.111-3.59-8.867.845-1.056 6.334-8.233 5.066-10.133-3.8-5.49 3.167-.844 8.866-12.455 20.687h-5.066l-11.401 9.289-20.056-1.056-4.644 9.922-4.645 5.7v12.243l-9.5 10.344-2.746 14.355-4.433 9.71-1.9 13.934 9.079-2.534v2.956Zm-293.239 497.14-.844 11.822-7.389 6.755-2.323 8.232 5.278 8.128v18.682l7.6 5.278h16.679l2.322-11.189-4.223-8.021 1.69-2.745 8.022-2.005v-12.35l-8.233-11.82-4.223-9.5-4.433-2.957z"/>
   </g>
   <path d="M181.906 600.48v15.411l-3.483 4.644-3.483-2.533 6.966-17.521ZM14.703 347.373l2.745 27.444 4.223 39.685 10.344 31.244 3.38 29.132 25.332-26.6 2.956 1.478-10.346 18.156-1.477 8.866 1.69 6.966-2.956 3.166-2.533 57.419 6.543 2.11 5.912 5.279 1.9 14.354-13.934 3.8-1.478 13.088-.633 7.389 3.378.845 4.222-6.123.423-8.021 5.488-.211 3.38 6.755-.635 9.922 16.467 6.755 16.255 9.5 16.046 14.565 9.288 12.666-1.266 17.1 3.378 4.22.633 4.223h-11.611l-9.712 6.755-12.877 5.489-26.812 19.421-6.333 6.122h-4.646l-7.388 8.866-6.334 16.255 6.546 12.033 9.5 10.554 12.877 15.2 12.113-1.136 1.146-8.278-3.97.548-5.278-3.378v-6.755l9.501-7.706 6.333-7.494-3.8-13.51-4.855-5.277 12.243-3.589 2.533-5.067 14.357-2.11 7.178-9.289 12.878-9.922 11.4-6.333 5.278-11.399-.21-11.822h10.765l-1.266 11.188 4.433 8.023-2.32 3.167h-5.702v6.965h14.99l2.744-6.965 6.333 4.854 14.144.634 2.324 10.765 5.277 7.811 2.745 3.167 9.711-4.644 4.643-1.9 1.057-12.244 7.388 1.9 2.535 8.232v1.646l15.094-1.012 20.689-26.387 12.562.95 13.933-10.766-2.639-12.244-5.91-8.866s-6.36-5.558-6.148-6.19c.21-.634-6.52-36.558-6.52-36.558l-4.223-20.899-26.283-21.216 21.956-61.114-46.164-100.482 44.897-22.8-5.91-19.42.844-18.577-23.645-84.018-13.934-39.687-7.178-8.867.669-11.82h-13.969l-2.111 11.61-39.9 34.62-24.28 44.12-12.455 4.433-6.332-6.121-3.167 1.055-4.434 3.589-10.133-1.056-30.401-15.41-34.2-20.055-8.024 3.378-4.01 23.01-9.078 5.278 4.433 19.631 7.388 55.942Z" fill="#fbff78"/>
  </g>
  <path d="m236.234 549.817 19.563-57.841 3.59-8.867h20.477l-3.8 15.2 43.49-7.6 24.489-4.644 23.644-21.533 40.112-8.021 44.334 18.154v18.577l16.467 12.666-3.589 15.833-1.477 52.563-8.445 5.067-6.334 10.133 6.756 4.644 1.055 8.232-3.165 5.7 8.022 1.478 7.177 13.3v14.987l3.167 5.7-6.123 4.222.845 9.5 2.745 10.766.21 7.388 8.023 5.911-1.267 6.333-11.61 1.9.421 8.021-.421 6.966-11.612.845-2.744 8.234 10.133 2.11-9.234 19.448-2.166-2.56-4.222 2.744 1.055 11.188-8.445 7.6-8.656-6.755-6.966-13.721 12.666-21.533-6.121-3.377-11.19 15.41-11.188 4.433-1.9-10.133 1.055-5.91-3.378-.423-.423 11.188 1.69 8.445-2.533 9.71 6.121 3.378-.632 1.267-17.946-4.328-12.245.211-7.388 5.806-9.184-.106-11.927-3.695-4.434-6.333-.423-10.765-25.755-1.69-3.378-18.577 8.867-16.149-6.017-22.06-4.75-21.11-27.129 9.395-4.327-19.633-14.039-12.56-2.533-38.42-1.056-11.928z" fill="#fdf6d0"/>
  <g stroke-width="5.067">
   <g stroke="#000">
    <path d="m153.62 687.24-0.844 11.822-7.389 6.755-2.323 8.232 5.278 8.128v18.682l7.6 5.278h16.679l2.322-11.189-4.223-8.021 1.69-2.745 8.022-2.005v-12.35l-8.233-11.82-4.223-9.5-4.433-2.957z"/>
    <path d="m344.043 746.14-14.356-12.455 1.266-5.278 11.401-1.477.422 10.766 4.434 6.332-3.167 2.111Zm-21.956-16.888-6.967 3.166-3.8 5.278h-5.278l-1.69-29.765 8.868-1.267 3.377 18.576h5.49v4.012Zm-72.202 20.265-5.278 1.266-13.088-13.087-2.322 3.377.422 14.777-32.407 25.332 2.007 3.8 10.133 3.166h10.133l5.911-4.222 12.034-.422 2.744 6.756v9.077l-5.91 4.222-6.335-2.745h-13.722l-18.367 2.745-29.977 7.81h-11.19l-5.277-5.066-7.39 5.066-7.6 4.223-5.49 3.377h-4.222l-2.533 5.489h-5.91l-12.245-10.767-10.978-1.477-1.69-9.922 2.745-.844 3.59 4.433 9.288.21 3.59-5.277-.212-9.71-6.333-2.322-6.123 2.744-5.278 2.533-2.744-5.066 5.7-1.055.422-4.856-2.533-1.267.21-10.133 4.223-4.854v-10.133l-8.022-6.756-6.334-.633-1.477 4.222-6.123.844-5.277-3.377v-6.756l9.5-7.704 6.333-7.494-3.8-13.51-4.856-5.278 12.245-3.589 2.533-5.066 14.356-2.112 7.178-9.288 12.878-9.921 11.4-6.334 5.279-11.399-.212-11.822h10.767l-1.267 11.189 4.434 8.021-2.322 3.167h-5.7v6.967h14.988l2.745-6.967 6.333 4.856 14.145.632 2.322 10.767 5.278 7.81 2.744 3.167 9.712-4.644 4.644-1.9 1.056-12.244 7.389 1.9 2.533 8.233v6.755l-6.966 3.8-5.068 4.433 2.112 8.444 2.956 6.122 9.288.95h5.49l6.755-7.283 2.322-5.7 5.489 6.122v9.5l-5.066 7.387 10.344 12.245-1.056 5.066Zm-41.8 80.64-20.126 2.815.14-9.289-1.829-3.588-5.84-1.619-11.19-1.125 12.949-7.178 18.155-2.955 3.378 6.895 5.91 1.83-1.546 14.214Zm-26.178-229.676v15.41l-3.484 4.644-3.483-2.533 6.967-17.521ZM1277.38 53.099l-17.101-21.743 26.6-11.4-4.644-16.677-44.334 15.41-26.812-15.41-9.711 10.767 6.334 1.055-19.424 25.754-64.811 21.955 11.189 10.977-24.068 20.054-1.899 7.81-16.89-24.065-8.022 35.254-28.5 13.932-10.556-5.277-2.956.422-3.589 11.822-93.523 41.797 2.533 20.267-2.956 6.12v14.673l6.756 9.604v12.244l9.711 10.133 10.556-.211 9.923 7.178 2.955 9.71 7.178 5.277-.634 21.321 6.967-.632 3.379 12.454-27.656 20.265-17.523.845-7.179 5.067-21.533 46.653-135.113-50.03-25.545-24.488 16.256-62.908-4.011-3.8 6.966-39.054v-11.188l-2.111-17.626-32.512-27.339-46.022 1.268-3.8-6.755-22.168 5.066-4.644-11.4-6.123-5.066s-9.921 4.645-10.133 4.011c-.211-.634-14.144-20.9-14.144-20.9l3.8-3.588-4.223-10.766-6.966-15.41-4.223-12.033-3.167-.844-2.322 3.8-6.966 4.854-2.323 9.711-13.089-1.266-7.178-10.344-9.922-6.967-3.8-6.755h-21.112l-2.956 4.856-8.233 6.121-2.111-3.588-8.867.845-1.055 6.332-8.233 5.067-10.134-3.8-5.489 3.166-.845 8.866-12.455 20.688H497.1l-11.4 9.29-20.056-1.057-4.644 9.923-4.646 5.7v12.243l-9.5 10.343-2.744 14.355-4.434 9.711-1.899 13.932 9.078-2.533v2.956l-5.912 5.7v8.866l-9.71 5.065-8.235-5.276-28.078-16.889v-8.866l-14.777-21.532 4.433-11.61 1.478-7.389-10.345-3.166-5.278-10.767H351.22l-39.69 20.055-22.378 1.478-17.733 12.666h-11.612l-15.2 10.977-9.29 1.688-28.5 12.245h-15.412l-2.11 11.61-39.9 34.62-24.279 44.12-12.455 4.433-6.334-6.121-3.167 1.054-4.433 3.59-10.134-1.056-30.4-15.41-34.2-20.054-8.024 3.377-4.01 23.01-9.079 5.277 4.434 19.632 7.389 55.943 2.745 27.442 4.221 39.687 10.346 31.242 3.378 29.133 25.333-26.599 2.955 1.478-10.344 18.154-1.477 8.866 1.688 6.967-2.955 3.166-2.534 57.419 6.545 2.111 5.91 5.278 1.9 14.355-13.932 3.799-1.479 13.088-.632 7.39 3.377.843 4.222-6.121.423-8.022 5.489-.21 3.378 6.754-.634 9.92 16.467 6.757 16.256 9.499 16.044 14.566 9.29 12.666-1.267 17.099 3.378 4.222.633 4.222h-11.61l-9.712 6.755-12.879 5.49-26.811 19.42-6.334 6.122h-4.644l-7.389 8.866-6.333 16.254 6.544 12.033 9.5 10.556 12.878 15.198 13.511-1.266 8.867 12.455-2.111 9.71-2.955-3.377-7.6-1.689-4.857 9.5 2.535 15.199-.634 10.555-9.5 2.533-5.067-7.6-17.312-2.955-4.433 2.534v6.544l13.09 1.899 2.532 4.645-5.91 5.066-1.478 7.389s5.91 5.91 6.545 5.91c.632 0 5.91-5.91 5.91-5.91l7.39-11.189 6.966 3.8 1.056 4.855-7.179 1.9v9.5l12.245.844 4.433 10.555-16.465 14.776-1.48 5.278 1.69 7.81 16.678 15.622 9.078-7.6-1.9-12.243 4.645 1.478 4.222 13.087 5.278-.421 1.266-3.378-2.533-6.966 14.145-.21 2.322-2.957 7.178-.21 5.489 23.432 4.433 21.953h-11.4l-3.167 4.433.422 8.866 4.856 5.701 16.468-.21 1.055-10.556 8.022-2.322 8.233 9.077 9.712-.211 12.667-4.855-2.323-5.278-2.533-5.7.21-19.421 10.346 4.644 5.7-2.533-.634-6.123-5.489.634-2.744-4.011 3.8-7.177 1.477 1.9 3.38 1.056-.424-8.445-3.8-2.743-10.345 12.031-1.899-20.897s-9.922.632-10.556.21c-.633-.423 1.266-12.032 1.266-12.032l23.857-3.8 1.056-5.488.21-14.567 16.679-4.221 13.089 15.198 17.1-10.344 2.11 2.956-21.955 19.21 12.667 2.745-18.578 10.976 21.744 33.565 17.101-17.732-.21 6.755-3.379 7.811 6.967 5.066 10.133-3.378 2.111-8.655-.421-6.332 9.499-10.767.634-41.586 21.744 14.566-7.6 3.588-6.755-1.9-1.267 30.821-5.49 1.9-4.644 5.066.845 3.378-3.167 10.555-5.7 12.666 11.4 5.488 14.356 1.69v-5.49l8.867-8.02s0-6.545-.211-7.179c-.211-.632.21-8.866.21-8.866l6.334-2.11 2.534-8.867 4.644-5.278 6.123 1.479 9.922 8.866 2.322 8.866h8.445l1.9-6.544 2.322-2.111 2.323 6.755 6.122 7.178h6.755l-2.533-4.222v-5.912h14.567l1.056 10.134 10.344 10.554 12.244 6.333 2.956-1.689-6.333-7.6-4.856-8.866-1.9-14.355 13.09-16.043 3.166-12.454 10.978-8.867-1.055-18.787-11.612.421.423 15.2-4.644 1.055-8.867-12.243-13.3-17.311-4.223-13.3 3.8-1.266 4.644-3.588 10.978 9.922 32.934 17.732 31.668-29.976-15.412-11.4.211-4.644-4.433-1.9-.845 5.7-18.367 4.855-4.645-3.378-13.722-.633-.634-8.655 5.279-3.8-.211-5.066-.634-6.967 9.29 1.479 7.177 4.222 5.489-3.379.423-7.177-10.345-3.166-13.09-.845-2.533-7.599 7.178.422 1.056-2.111-6.123-3.378 2.533-9.71-1.688-8.445.422-11.188 3.378.423-1.056 5.91 1.9 10.133 11.19-4.433 11.188-15.41 6.123 3.377-5.489 9.71-7.178 11.823 6.967 13.72 8.655 6.756 8.445-7.599-1.055-11.189 4.222-2.744 6.966 8.233-8.866 17.732 1.477 5.7 9.923 6.544h11.611l5.279-5.7 7.81-9.288-3.8-7.389-11.823-6.12 3.167-3.378 11.612.421 7.388-2.745 8.656-4.854 7.39-6.334 7.6-4.01 2.744-5.489-10.133-5.067-20.901-6.755-10.555-.844-14.145 12.456-10.133-2.112 2.743-8.233 11.612-.844.422-6.967-.422-8.021 11.611-1.9 1.268-6.333-8.023-5.911-.211-7.388-2.744-10.766-.845-9.5 6.122-4.223-3.167-5.7v-14.987l-7.177-13.299-8.023-1.477 3.167-5.701-1.055-8.232-6.756-4.644 6.333-10.133 8.445-5.067 1.477-52.563 10.978 8.232 12.879 21.321 10.766-.422-.633 6.544-7.811 8.022-3.167 8.444 1.477 13.3 10.768.21 1.266-7.177 4.223-11.61 15.833-8.867 5.7-15.832v-28.499l13.934-2.11 5.91 8.02.212 7.811-7.178 8.445-1.266 7.81 4.01 3.8 6.123-3.8 5.91-8.232-.21-8.866 1.267-7.389 6.755 4.433s1.172 1.713 2.843 4.17c4.043 5.948 11.004 16.255 11.302 17.151.422 1.266-1.266 11.611-1.266 11.611l-10.979 10.554 6.545 15.833 10.344 2.745 6.967 4.854-5.277 40.321-2.956-5.911-7.178-10.555-4.856-6.755-11.189-.845-6.755-4.222-3.8 2.745-.845 7.388-4.011 4.644-8.233-2.11-9.501-6.333-5.7 5.277-8.233 2.744 13.722 12.878 9.078 5.91 11.4 7.389-6.333 11.399-13.934 1.056-4.855 9.077-7.811 2.11-9.712 9.922-12.455 4.434-9.29.21-1.267 4.644 8.656 2.534 12.245 8.655 21.956 8.444 15.833 15.41 12.879 6.545 12.244 1.688 6.334-8.022-1.056-7.176s-3.8-6.123-4.644-6.968c-.845-.843-3.59-5.488-3.59-5.488l8.445-10.555 6.967-9.077-5.066-8.655-5.068-4.222 6.545-1.9 3.589-6.333 8.867-3.166 3.588 8.866 2.745 8.866-5.278 6.966 2.956 5.7 6.756-5.066v8.866l12.244 3.588 5.49-2.955 10.133-.422 2.745-4.855 19.844-.634-7.6 12.877 15.623 3.59.843 15.62H637.07l-2.533 5.066-7.39 2.322 2.746-8.232-5.912-3.167.212-16.043-6.755-.423-1.9 13.722-17.524 2.955 2.533 5.7 2.956 4.856-6.755-.211-2.744-2.745-3.59 5.278-14.356.421-8.444 22.378-6.967-2.534-18.79 22.376-1.477 20.056 10.556 1.899 6.544 2.534-5.066 8.021-5.49 6.755.846 31.877 6.333-1.056 3.589-13.722 14.778-2.322 4.433 9.922 3.8 14.144 8.656 4.433.422-8.022-4.644-7.81 4.222-4.645-2.112-3.8-7.388-4.644-2.111-6.544 9.711-.422 21.323 24.91 7.389 3.377.844-6.121-4.223-11.611-.843-6.966 4.01-7.39-7.6-11.398 8.023 1.688 5.7 10.556-1.267 12.877 4.856 1.267 2.322-2.956 4.644-2.322 1.9 4.433 5.911 17.732 6.968.422 10.766-5.066 1.69 24.699-12.88 9.71-10.765-4.856 4.01 10.978 1.056 9.71-19.211 12.878-.634 8.233-6.756 5.488-11.4 1.056-3.8 14.566-10.133 3.588 3.377 6.967 18.368 2.322-3.8 8.866-6.544.633-1.69-3.589h-12.245l-.633 9.922 6.333 2.956 4.434-4.222 5.912 1.266-7.179 7.6 4.434 7.81 12.878.422 1.056 6.755-4.434 1.69-7.812 1.477-4.01 7.178 8.022 16.254 5.7 2.534 5.067-9.922 4.011-7.6 5.7-2.321 13.3 5.277 6.756-1.267 13.088-16.043 5.49 1.9 16.045 1.899 3.167 4.645h18.789l6.755-3.166 1.056-8.234-2.322-.845-1.267-9.499-9.5-1.689-6.122-3.8 1.9-7.599-2.534-7.389 2.956-7.6 6.545-1.054 4.01 8.654h4.434l3.377-10.343.634-9.077 5.7 5.91 6.756 2.111 3.167-6.966 3.377 6.121 10.766 4.644 18.579-6.966 7.811-6.12-1.477-7.179-11.19-6.544-2.744-11.4-6.967-2.532-12.245 1.688-7.81-10.765-3.8-4.645-5.912 2.534-.844-3.589-6.967-.633-3.59 6.333-12.033-6.544-8.656-6.545-.632-14.565-3.378-.423-14.145 2.745-.211-17.522 11.189 5.91 3.589-1.055 12.667-5.277 5.7-1.267L714.55 861.4l30.19.845 5.91-27.02 5.7 2.743 1.901 7.6-4.012 7.6v6.12l4.645 2.746.423 6.544-2.745 2.533-.422 7.81h7.81l.634-13.51-2.112-6.122 16.046-12.455h20.69l6.121-3.377 4.433-5.278v-18.577l-11.4-10.344-2.745-4.855.634-13.933-4.433-2.322-6.545.634-.845 12.666-7.81 6.755 4.01 8.444-10.344 5.278.212-8.234 3.588-10.977 2.322-18.365-4.856-11.822-9.5-6.755-10.344 4.01-12.033 10.556 2.954 8.444 4.646 8.022-17.945 1.477-8.234 13.3-10.344 4.01h-15.622s-5.49-7.177-5.7-8.444c-.212-1.266 1.054-5.488 1.054-5.488l5.912-2.112 4.855 5.912h10.346l1.266-9.29h3.167l1.055-4.643 4.645-.422 3.8 2.744h6.755l3.167-5.278-1.9-4.433h-15.2l-2.11-4.433-4.645-8.654-5.278-5.7 2.956-4.011.421-2.745-3.588-3.165-.212-13.089 3.8-4.856 9.078-6.544-10.133-11.4-.634-14.987-2.955-13.722-8.867-7.6V676.9l11.822 2.11 5.278-4.01.634 10.977.422 7.81 4.433 5.279-3.167 4.855-2.111 7.178 5.489 8.866 5.278 6.966 2.745-3.8 9.922-.844 5.489 11.188h5.278l-.845-14.989 9.922-1.266 4.434-6.966 7.6-6.333 7.811-7.39-1.266-24.064-3.378-8.866-8.445.21-6.333 7.178-5.278.844-4.856-6.333-10.344 1.478-1.267 13.3-5.489 3.165.634 8.866-5.912 2.112-3.8-8.233-1.266-12.454 4.433-4.012 8.233-11.61 13.723-1.267 7.812 8.444 6.332-6.121-2.533-3.8-3.8-3.59 3.378-4.221-.633-5.489-5.7.845-6.122 8.655h-10.346l1.48-10.766-4.223-6.966-19.634-9.711-.422-8.233 3.165-4.433 36.946 1.056 9.289-13.933 33.145.634 16.256-1.69 2.744-7.81-9.922-8.444 5.067-5.278 4.01-14.143 20.268-1.69 2.322-4.22 11.19-1.69 2.743 4.433 8.234 5.91-15.2 17.1-21.322 29.976 8.866 9.5.845 4.01-21.534 5.066-4.855 12.245-18.157 13.932-3.378 15.832 2.533 4.011 8.234-.421 6.123-3.59 2.955-9.499 7.811-5.067 13.511-2.322 5.068-8.021 10.978-3.589-1.267-9.289 29.978 4.012 4.856-2.322 21.956-13.51 18.366-10.556.845 17.1-5.066 7.176 1.055 6.334 9.5 3.166v10.555l-6.967 8.866-.633 8.234h20.9c1.9 0 13.3 10.977 13.3 10.977l8.445 1.054 19.845 18.367 7.178-2.112 1.266-5.066-4.433-4.855-9.289-8.656.633-17.31-14.567-9.5-2.111-7.176 4.222-1.69 3.801-3.799 14.356-5.7 1.477-8.233-8.233-2.11-5.489 5.066-8.867-1.9-9.29 11.611-7.6 2.111-8.233-5.912-5.7-9.498 10.345-5.489 4.011-3.59-1.69-7.176-6.966-1.267-2.956 4.855-7.177 1.056-.21-15.833 7.387-1.689 10.768 6.333 14.99-.421 13.51-9.29 11.822 1.69 9.29-4.222 1.9-6.122 4.855-.212-.844 6.967 4.433 1.478 3.8-8.233 2.534 4.644-6.545 9.077 1.9 16.466 13.3-.633 4.856 4.856.21 8.654 9.29-.845 2.534 2.534-8.022 4.855-1.479 1.69 2.111 10.977 21.112-16.045 4.222-8.655 1.9 26.81 8.234-6.122 2.533-19.21 14.357-26.598 9.71 2.956 1.9-3.8-13.3-21.322-3.8 1.478.211 7.81h-3.378l-6.756-9.921-7.388-20.055 16.255-17.943 14.145-.634.423 9.078-11.823 17.31 4.433 2.956 5.911-8.866 5.7-8.022 1.9-6.967 2.533-1.477 2.324 5.91 13.722-3.588-8.656-1.478-1.267-3.8 6.545-6.755-23.434-26.176v-6.544l9.289 6.121-3.8-8.866 1.267-3.167 25.545 33.355 3.378-1.478.632-13.3 2.745-4.644h10.345l-22.59-24.487.212-3.589 8.656 1.689 1.477-2.533-6.122-7.178 3.8-1.056 1.477-4.01-9.077-3.167 2.533-10.132-1.478-6.123-8.656-.632-.21 13.087h-10.767l-1.478-16.465h-10.978l-2.744-5.278-1.9-8.444-13.512-1.056.422-5.488-9.5-2.11.844-10.345 10.978-1.477 20.9 17.098-2.532 4.012 1.688 5.277 8.023-2.534 4.855-10.343 1.69-7.81-9.923-7.811-10.556-8.022 1.056-19.843 5.489-7.6 10.344-1.267 8.656 16.043 24.912 1.69 13.933 10.766 9.078 2.533 3.59-4.222-4.646-8.866v-8.656l3.59-10.554 10.766-4.222-.844-5.489-23.645-.21-5.277-3.59-.212-5.91 26.39.21 2.744 4.011 4.645 1.267 6.755-5.7 1.689-5.067-1.689-9.288-18.367-20.265 27.234-.423 2.111 8.445 6.756.421 4.01-3.799-.421-5.278-3.378-4.222 11.4-3.8 12.667-1.687.211 7.177-9.5 2.955-1.478 3.589 2.322 3.377 15.835-1.689 2.533-2.744 9.922-13.722.845-12.455-20.057-34.409-19.844-1.055-3.379 2.534-18.788-1.268-21.956 18.155-7.179-3.377 5.279-11.4 5.278-9.078 6.966-3.588 17.523-1.477 1.477 5.065 6.756.634 16.256-7.389 9.712-5.7-9.501-12.665 10.767-.212.211-5.7 6.545-1.055-1.056-5.276-1.266-23.01 9.077-26.177 24.49-1.267v-3.8l23.644-5.699 4.645-15.2-26.812-16.888 10.556.212.211-31.455-10.978-6.966 31.668-31.242-7.811.21ZM46.794 930.219l-1.267 5.277 4.223 2.112h6.332v-3.695zm-4.012 13.511-1.266 8.444 4.01 3.588 3.801-2.533 4.433-9.5zm124.347 45.808-4.012 18.735-5.805 11.452-8.762 12.666 3.59 11.189 7.178 5.7 1.477-2.957 20.479-18.365 5.91 8.022 6.123 1.055 5.277-4.856 1.056-6.966-7.177-3.166.844-11.4-10.556-13.51-8.656-5.7z"/>
    <path d="M236.234 987.778v-7.176l9.43-10.838 5.488-5.489h7.319l3.941 4.223 5.207-2.111v-8.585h9.289l5.63 3.94v14.214l-3.519 8.023-3.237-.14-3.377-4.786-4.223-.14-1.407 4.08-5.348 11.962-7.46 1.408-12.526-1.408-3.94-2.954zM479.79 876.81l-1.69 4.855 1.69 5.278h5.488l4.012-4.01-4.012-6.123zm63.123-10.977 2.956 7.177-1.479 9.71-3.589 9.29 2.533 10.765 8.024 7.39 4.855-1.478 5.278-10.345 5.066-11.399-2.111-8.866-10.766-7.81-3.378-5.49zm-36.312 98.162 2.533 4.854 11.189-1.055 9.712-3.8h7.178l5.49 4.855 2.743 1.69v25.825l3.8-1.972 4.433-6.755 7.811-.421 2.534-4.223 7.178.634 2.534 3.378 5.066-2.322v-9.079l7.179-.421 3.377 3.377v6.123l-6.123 3.799-.421 8.866 4.222 3.378 2.322 4.644-2.322 5.488-10.134 7.39h-9.289l-15.411-10.344-4.223-5.912-7.177 4.644-6.756.634-6.544-.634-.211 9.29-13.3 7.6-5.068 1.898-3.589 3.59h-9.29l-6.755-7.39 3.167-4.432 5.067-.845 4.855.634v-2.956l-7.6-1.9.423-36.731-2.534-2.111-.844-2.955 11.611-8.234zm-22.906-52.565 5.595 14.356 6.756 12.454-.845 6.544-1.267 4.012-10.239 1.899v23.644l-.95 8.232-16.678-1.477-5.489-20.688-8.866-8.444v-8.022l-9.08-8.444-9.077-.422-2.533-10.766-6.967-2.534v-8.654s6.545-4.222 7.6-4.222c1.056 0 6.333 1.266 6.333 1.266l1.9-4.011 2.745 4.011 1.055 6.755 3.378 4.223-2.955 8.866.633 4.855 5.701-4.855h5.488l5.278-1.69-7.177-8.866-6.334-1.055-1.9-8.233 1.478-10.766 8.444 1.477 1.479 3.167-.423 9.289-1.689 2.111 2.744.422 3.167-5.7 22.695 1.267Zm282.577-1.266c1.055.211 8.022-1.266 8.022-1.266l1.69-3.589s2.743 1.056 3.377 1.267c.633.21 4.223 5.7 4.223 5.7l-3.378 6.543-6.968-2.744-8.656-2.955 1.69-2.956Zm20.478 32.298 8.233 2.322 6.123 4.855.845 5.7-3.801 1.056-2.744-3.166-18.157-.423v-5.066l2.745-5.278zm2.85-24.698 10.24-7.6v-19.42l5.066-3.273h10.345l4.644 5.594v19l1.9 5.699-3.59 3.166-7.177 2.322 1.478 4.855-2.956 2.534-12.245-2.11zM465.363 780.056l7.038-7.88 6.332-3.097 3.801 1.125-1.127 4.364-9.71 6.755-3.238 2.11zM786.82 606.11l-3.167 4.574-2.04 3.589v3.095l1.619 3.238 3.588 3.588 5.138-.562 4.292-3.167 1.056-4.926-.281-3.306-3.238-4.715-2.463-1.9zm-20.548 125.675 8.585 3.095 5.63 3.097v8.304l-.563 4.503-4.644 1.548h-7.883l-7.88-9.429-2.534-4.926 1.83-3.66 3.8-2.532zm54.89 1.689 6.474-1.126 4.363 3.237 2.111 7.6 1.126 9.146-1.83 5.208h-7.741l-3.237-4.081 2.533-4.926 1.83-2.252-.562-6.051-4.364-2.815zm45.178-48.554 6.756-3.518 7.6-.563 2.252 4.082-1.407 4.644-6.897 4.222h-7.741l-.563-3.378-3.237-1.125zm43.349 24.488 4.223 3.519 2.815 1.548 6.896-1.971 1.547 4.504-6.332 5.63-9.149 1.266-7.6-7.248 2.111-4.715zm-29.979 11.4 5.349 4.222.563 6.755-4.363 4.222h-5.208l-4.362-4.222v-6.192l1.97-4.785h4.996zm-21.674 35.464 10.134-2.814h9.852v5.347l-2.956 4.081-2.04 3.097h-4.433l-6.616-4.222-2.251-.704zm-1.548 17.029 10.274-2.252 6.263 1.127 8.093 4.503 3.237 5.488-3.096 5.63-3.941 1.125-7.882-5.206-5.348-2.815-6.051-.915zm32.09 13.51 6.192 1.408 1.97 3.236.845 4.082-2.393 3.096h-2.815l-3.8-5.066v-3.94zm62.349-4.081 4.926 3.096v3.941l-1.83 2.955-4.786-1.83-3.096-4.925 1.126-2.251zm28.148-12.947 8.022 2.815 7.32 4.08-.704 6.052-3.8 2.815-9.852-1.407-5.489-4.926-1.971-7.318 2.956-2.111zm-9.57-24.84-.845-7.389 4.926-4.08 6.615-3.096 2.674 3.94-.704 6.755-8.163 6.896h-2.814zm30.682-71.422.844-12.384 5.208-.845 1.266 5.067 5.49 1.548v7.6l-6.405.704zm8.444 11.822 4.364 5.77 5.77 8.022-1.97 4.785h-6.193l-4.786-7.037-3.8-5.489 1.126-4.081zm27.868 97.387 9.992 9.992v5.911l-2.533 2.392-7.46-4.503-9.57-8.162 2.956-4.363zm3.237 28.85 6.755 7.881-1.97 5.067-8.585 5.489-2.252-1.549.844-16.887zM842.22 928.74s12.931-10.184 13.09-10.396c.158-.211 10.133-3.958 10.133-3.958s3.958.634 4.117.739c.158.106 3.166 2.375 3.272 2.586.105.211-1.003 6.755-1.003 6.755l-8.18.897-5.859 3.695-8.55 2.902-4.697-.422-2.323-2.797Zm110.044 31.103c.14-.21 10.204-8.163 10.204-8.163l6.896-3.447 2.674 4.785-3.378 6.825-6.509 7.248-9.887 1.618-1.478-5.067 1.478-3.8Zm-138.28-117.02 7.037-.985 3.237 3.8 3.66 7.6 1.688 1.688h7.038l2.955-7.318-7.178-4.644-2.111-4.363 6.334-5.63h3.94l3.66-5.488h4.644l1.267 4.082 13.37.281.564-2.674 5.066-.703 1.97 3.096 11.541 1.126 4.223 3.799 6.755-3.658 9.993-3.942 2.11 7.178-2.391 4.082-12.808 7.88-4.363 6.896-2.111 8.022-.422 8.163h4.081l9.852-6.896 9.852-6.052 6.474-4.503 3.66-3.237 6.614-1.829 3.238-6.474 17.31-.422 3.802-.564 2.25-2.392 2.535 1.408v4.08s2.25 3.096 2.533 3.096c.282 0 9.008 1.127 9.008 1.127l-1.97 4.785-9.431 7.459-13.37 5.206-7.319 4.364-7.178 2.392h-16.89l2.394 10.273 9.57-1.407.422-2.251 7.6-.564 13.512 11.54 3.94 8.866-.28 12.948-.423 11.11-3.378 5.778-5.49 5.207-8.021 2.815-6.475-3.237-9.57-11.822-3.66-5.347h-5.066l-13.512-17.874-7.88-8.162-6.897-3.06-6.897 2.638-7.741 5.207-5.629.282h-12.105l-3.94-4.081-9.149-1.127s-2.814-3.658-2.814-4.785c0-1.125-.564-9.007-.564-9.007l-4.855.985-4.433 4.644-11.665.423-7.618-3.237-4.22-8.444 1.266-5.911 5.91-6.473 5.49-4.644 4.503-6.616 2.956-4.503Z" fill="#fbe978"/>
    <path d="M878.022 822.417v4.222l5.63 3.378h2.674l.845-3.8v-3.8l-6.616-.986zM1085.9 383.681c2.11.845 12.666 6.123 12.666 6.123l7.6 7.387v12.667h-8.022l-2.111-13.088-12.456-8.445-1.056-4.644h3.378Zm34.2 182.39h14.99l17.1 3.167 10.554 12.244 5.068 2.744 7.6 2.322-1.69 10.766-7.177 3.588-6.334-5.7-8.022-10.343-4.433 2.744-1.9 7.39-7.178-3.168-11.612-8.338-6.966-10.871z" fill="#fdc523"/>
   </g>
   <path d="m322.09 727.56 7.6 2.815" stroke="#2F409A"/>
   <g stroke="#000">
    <path d="M223.285 692.802h15.905l7.88-16.607 13.794-10.837h16.326l27.867-18.436 8.163 1.267 7.318 36.028.986 9.71-8.304 12.737m33.99 35.113c1.9.986 17.381 7.459 17.381 7.459l17.875-10.555h7.46l8.887 9.422"/>
    <path d="m283.86 660.95-4.418-19.512-11.4-17.24-4.645-6.825v-24.91l-2.955-18.155-19.423-21.11h-6.334l21.534-62.063-0.844-7.6-45.18-96.26 45.18-21.534-8.346-20.687 3.912-12.666-16.256-55.73-6.333-24.066-7.178-25.332-7.6-19.42-9.289-12.667 2.533-11.821"/>
    <path d="m255.38 483.53h24.489l-5.066 16.043 51.09-8.021 15.199-4.644 23.646-18.999 40.533-10.133 48.135 18.155v15.2l16.466 18.048-1.316 15.215m-8.184 191.35-8.542 20.265"/>
    <path d="m453.4 475.932 13.934-25.332-4.645-17.733 7.178-2.533 16.89-20.477-5.49-28.076 26.179-22.798-4.645-3.377-1.267-3.38-8.867-3.377 33.779-32.509 5.489-12.665 31.245-25.755v-7.599l-11.4-19.422 2.111-15.2-4.645-16.464 13.934-18.155-4.223-8.022-5.489-3.8-18.155 4.645-24.49 9.71-12.244 9.71-8.867-4.643-38.845.844-9.922-4.856m325.538 97.318-64.812-8.867v14.355l-27.023 32.087-24.911 19.421h-13.511l-4.646-2.533-7.177 7.6 4.222 6.333-.423 4.644-3.8 6.755h20.48l24.277 25.754-24.277 78.951 4.855 6.755 2.533 31.154 2.956 16.888 11.822 11.912 18.156 3.377h28.712l-1.267 33.776 18.577-3.378 2.507 25.03"/>
    <path d="m564.49 527.88 9.1-10.286 29.839 18.858 41.448-49.96"/>
   </g>
  </g>
  <path d="m794.02 453.64h197.41v-42.68h-197.41zm13.805 64.179h169.8v-42.68h-169.8z" fill="#000"/>
  <path d="m785.86 485.32h213.72v-42.68h-213.72z" fill="#000"/>
  <g id="easternosternsundom" fill="#fff" fill-rule="nonzero">
   <path id="easternosternsundom-label" d="m809.66 439.27h14.548v-3.827h-10.114v-5.011h9.325v-3.766h-9.325v-4.586h9.871v-3.827h-14.305zm23.66-12.391c1.245 0 2.187 0.668 2.187 1.67 0 1.063-1.185 1.336-3.28 1.792-2.46 0.486-5.62 1.367-5.62 4.799 0 2.824 2.127 4.495 4.83 4.495 2.338 0 3.736-1.337 4.343-2.278h0.091c0.182 0.729 0.365 1.215 0.85 1.913h3.22c-0.304-1.154-0.365-2.247-0.365-3.857v-6.105c0-3.827-2.733-5.71-6.195-5.71-3.402 0-6.044 1.762-7.229 4.313l3.766 2.005c0.425-1.823 1.64-3.037 3.402-3.037zm2.308 6.62c0 1.884-1.367 2.916-2.885 2.916-1.337 0-2.005-0.637-2.005-1.579 0-1.215 1.185-1.549 2.49-1.883 1.155-0.304 1.975-0.638 2.4-1.185v1.732zm13.85 3.007c-2.035 0-3.372-1.245-3.858-2.915l-3.735 2.095c1.245 2.43 4.07 3.949 7.653 3.949 3.311 0 6.166-1.823 6.166-4.89 0-2.794-2.187-3.888-4.586-4.647-2.278-0.729-4.283-0.85-4.283-2.005 0-0.88 0.912-1.366 2.005-1.366 1.67 0 2.824 1.063 3.189 2.43l3.675-2.066c-1.185-2.035-3.979-3.493-7.016-3.493-3.28 0-6.044 1.823-6.044 4.708 0 2.916 2.885 4.07 5.194 4.677 1.974 0.547 3.675 0.82 3.675 2.035 0 0.972-0.85 1.488-2.035 1.488zm16.431-1.306c-0.182 0.395-0.547 0.972-1.185 0.972-0.698 0-1.063-0.394-1.063-1.579v-7.35h3.463v-3.28h-3.463v-5.467l-4.252 2.369v3.098h-2.46v3.28h2.46v7.775c0 3.25 1.732 4.617 4.404 4.617 1.762 0 3.19-0.85 3.706-1.337zm16.553-2.429s0.212-0.85 0.212-2.096c0-4.16-2.733-7.077-6.833-7.077-4.131 0-7.32 3.038-7.32 8.019 0 5.041 3.128 8.018 7.41 8.018 3.19 0 5.498-1.701 6.561-3.645l-3.614-2.035c-0.243 1.458-1.337 2.521-2.946 2.521-1.792 0-3.19-1.215-3.372-3.705zm-6.621-6.075c1.67 0 2.855 1.367 2.855 3.22h-6.045c0.335-2.096 1.61-3.22 3.19-3.22zm9.506 12.574h4.282v-8.747c0-1.974 0.547-3.25 1.883-3.25 1.063 0 1.428 0.942 1.428 1.944 0 1.033-0.182 2.065-0.243 2.521l3.857-2.217s0.152-0.79 0.152-1.792c0-2.248-1.184-4.07-3.34-4.07-1.945 0-3.099 1.336-3.858 2.825h-0.091l0.212-2.521h-4.282zm27.061-9.81c0-3.796-1.852-5.862-4.798-5.862-2.521 0-3.827 1.489-4.587 2.886h-0.09l0.212-2.521h-4.283v15.307h4.283v-9.08c0-1.762 1.033-2.977 2.642-2.977 1.61 0 2.309 1.063 2.309 3.098v8.96h4.312v-9.81zm16.432-2.581c1.245 0 2.186 0.668 2.186 1.67 0 1.063-1.184 1.336-3.28 1.792-2.46 0.486-5.619 1.367-5.619 4.799 0 2.824 2.126 4.495 4.83 4.495 2.338 0 3.735-1.337 4.343-2.278h0.09c0.183 0.729 0.365 1.215 0.851 1.913h3.22c-0.304-1.154-0.365-2.247-0.365-3.857v-6.105c0-3.827-2.733-5.71-6.196-5.71-3.401 0-6.044 1.762-7.228 4.313l3.766 2.005c0.425-1.823 1.64-3.037 3.402-3.037zm2.308 6.62c0 1.884-1.367 2.916-2.885 2.916-1.337 0-2.005-0.637-2.005-1.579 0-1.215 1.184-1.549 2.49-1.883 1.155-0.304 1.975-0.638 2.4-1.185v1.732zm20.926-4.039c0-3.796-1.853-5.862-4.799-5.862-2.52 0-3.827 1.489-4.586 2.886h-0.09l0.212-2.521h-4.283v15.307h4.283v-9.08c0-1.762 1.032-2.977 2.642-2.977s2.308 1.063 2.308 3.098v8.96h4.313v-9.81zm13.212 7.289-0.243 2.521h4.282v-21.988h-4.282v8.777h-0.091c-0.638-1.063-1.974-2.46-4.283-2.46-3.22 0-5.953 3.129-5.953 8.019s2.734 8.018 5.953 8.018c2.309 0 3.766-1.397 4.495-2.886h0.122zm-3.159-0.546c-1.974 0-3.067-1.853-3.067-4.586 0-2.734 1.093-4.587 3.067-4.587 1.944 0 3.037 1.853 3.037 4.587 0 2.733-1.093 4.586-3.037 4.586zm-151.5 34.956c5.437 0 9.75-4.13 9.75-10.934s-4.313-10.813-9.75-10.813-9.75 4.01-9.75 10.813 4.313 10.934 9.75 10.934zm5.194-10.934c0 3.827-1.67 6.985-5.194 6.985-3.554 0-5.194-3.158-5.194-6.985s1.64-6.864 5.194-6.864c3.523 0 5.194 3.037 5.194 6.864zm-8.231-16.583c-1.306 0-2.278 0.972-2.278 2.278 0 1.336 0.972 2.277 2.278 2.277 1.336 0 2.308-0.941 2.308-2.277 0-1.306-0.972-2.278-2.308-2.278zm6.044 0c-1.306 0-2.278 0.972-2.278 2.278 0 1.336 0.972 2.277 2.278 2.277 1.336 0 2.308-0.941 2.308-2.277 0-1.306-0.972-2.278-2.308-2.278zm16.006 24.388c-2.035 0-3.371-1.245-3.857-2.915l-3.736 2.095c1.245 2.43 4.07 3.949 7.654 3.949 3.31 0 6.165-1.823 6.165-4.89 0-2.794-2.187-3.888-4.586-4.647-2.278-0.729-4.283-0.85-4.283-2.005 0-0.88 0.912-1.366 2.005-1.366 1.67 0 2.825 1.063 3.19 2.43l3.674-2.066c-1.184-2.035-3.979-3.493-7.016-3.493-3.28 0-6.044 1.823-6.044 4.708 0 2.916 2.885 4.07 5.194 4.677 1.974 0.547 3.675 0.82 3.675 2.035 0 0.972-0.85 1.488-2.035 1.488zm16.431-1.306c-0.182 0.395-0.547 0.972-1.184 0.972-0.699 0-1.063-0.395-1.063-1.58v-7.35h3.462v-3.28h-3.462v-5.466l-4.253 2.369v3.098h-2.46v3.28h2.46v7.775c0 3.25 1.732 4.617 4.404 4.617 1.762 0 3.19-0.85 3.706-1.337zm16.553-2.429s0.212-0.85 0.212-2.096c0-4.161-2.733-7.077-6.833-7.077-4.13 0-7.32 3.037-7.32 8.018 0 5.042 3.128 8.019 7.41 8.019 3.19 0 5.498-1.701 6.561-3.645l-3.614-2.035c-0.243 1.458-1.337 2.521-2.946 2.521-1.792 0-3.19-1.215-3.372-3.705zm-6.621-6.075c1.67 0 2.855 1.367 2.855 3.22h-6.044c0.334-2.096 1.61-3.22 3.189-3.22zm9.506 12.574h4.283v-8.747c0-1.974 0.546-3.25 1.883-3.25 1.063 0 1.427 0.942 1.427 1.944 0 1.033-0.182 2.065-0.243 2.521l3.857-2.217s0.152-0.79 0.152-1.792c0-2.248-1.184-4.07-3.34-4.07-1.945 0-3.099 1.336-3.858 2.825h-0.091l0.213-2.521h-4.283zm20.167-2.764c-2.035 0-3.371-1.245-3.857-2.915l-3.736 2.095c1.245 2.43 4.07 3.949 7.654 3.949 3.31 0 6.165-1.823 6.165-4.89 0-2.794-2.186-3.888-4.586-4.647-2.278-0.729-4.282-0.85-4.282-2.005 0-0.88 0.91-1.366 2.004-1.366 1.67 0 2.825 1.063 3.19 2.43l3.674-2.066c-1.184-2.035-3.978-3.493-7.016-3.493-3.28 0-6.044 1.823-6.044 4.708 0 2.916 2.886 4.07 5.194 4.677 1.974 0.547 3.675 0.82 3.675 2.035 0 0.972-0.85 1.488-2.035 1.488zm8.747-2.733c0 3.796 1.762 5.862 4.708 5.862 2.52 0 3.736-1.489 4.495-2.886h0.091l-0.213 2.521h4.313v-15.307h-4.313v9.111c0 1.762-0.941 2.946-2.55 2.946-1.61 0-2.248-1.063-2.248-3.098v-8.96h-4.283v9.81zm30.433-4.313c0-3.796-1.853-5.862-4.799-5.862-2.52 0-3.827 1.489-4.586 2.886h-0.091l0.212-2.521h-4.282v15.307h4.282v-9.081c0-1.762 1.033-2.976 2.643-2.976s2.308 1.063 2.308 3.097v8.96h4.313zm13.211 7.289-0.242 2.521h4.282v-21.99h-4.282v8.778h-0.091c-0.638-1.063-1.975-2.46-4.283-2.46-3.22 0-5.953 3.129-5.953 8.018 0 4.89 2.734 8.019 5.953 8.019 2.308 0 3.766-1.397 4.495-2.886h0.122zm-3.158-0.546c-1.974 0-3.068-1.853-3.068-4.587 0-2.733 1.094-4.586 3.068-4.586 1.944 0 3.037 1.853 3.037 4.586 0 2.734-1.093 4.587-3.037 4.587zm17.342 3.432c4.161 0 7.38-3.038 7.38-8.019 0-4.98-3.219-8.018-7.38-8.018-4.191 0-7.41 3.037-7.41 8.018s3.219 8.019 7.41 8.019zm-3.067-8.019c0-2.733 0.941-4.738 3.067-4.738 2.096 0 3.038 2.005 3.038 4.738 0 2.734-0.942 4.739-3.038 4.739-2.126 0-3.067-2.005-3.067-4.739zm13.181 7.654h4.222v-9.202c0-1.792 0.941-2.855 2.4-2.855 1.396 0 2.125 0.941 2.125 2.703v9.354h4.222v-8.93c0-1.943 0.88-3.127 2.4-3.127 1.396 0 2.125 0.941 2.125 2.703v9.354h4.222v-10.114c0-3.553-1.731-5.558-4.616-5.558-2.4 0-3.736 1.337-4.647 2.825h-0.091c-0.608-1.883-1.944-2.825-3.888-2.825-2.37 0-3.614 1.55-4.374 2.886h-0.09l0.212-2.521h-4.222z" aria-label="Eastern and Östersundom"/>
   <path id="easternosternsundom-value" d="m822.11 486.58s-0.121 1.701-0.121 3.19v12.543h4.343v-21.017h-3.28c-1.397 1.7-3.796 3.067-6.317 3.675l1.792 3.735c1.275-0.303 2.763-1.214 3.492-2.126h0.092zm21.473 16.097c4.283 0 7.411-3.067 7.411-7.684 0-4.434-2.855-7.046-6.226-7.046-1.883 0-3.22 0.85-3.979 1.731h-0.03s0.304-1.184 0.455-2.49l0.274-2.096h8.14v-3.795h-11.633l-1.306 10.57 3.766 1.73c0.425-1.245 1.397-2.4 3.098-2.4 1.944 0 3.128 1.671 3.128 3.797s-1.123 3.918-3.189 3.918c-2.065 0-3.098-1.549-3.34-3.492l-4.1 2.247c0.85 2.794 3.553 5.012 7.531 5.012zm18.437-5.649v5.285h4.251v-5.285h2.46v-3.735h-2.46v-11.997h-4.252v11.997h-4.98c1.609-2.582 3.25-5.71 3.431-10.297l-4.1-2.065c-0.121 5.65-1.488 9.72-3.675 13.455l0.972 2.642h8.352zm16.947-16.097c-5.467 0-8.504 4.799-8.504 11.602 0 6.621 2.946 10.145 7.836 10.145 4.252 0 7.471-3.098 7.471-7.593 0-4.344-3.22-6.895-6.53-6.895-1.853 0-3.614 0.972-4.556 2.43h-0.09c0.394-3.614 1.913-6.044 4.373-6.044 1.67 0 2.52 1.184 2.733 2.703l3.888-2.308c-1.185-2.309-3.584-4.04-6.621-4.04zm2.673 14.366c0 2.187-1.215 3.857-3.341 3.857s-3.463-1.7-3.463-3.857c0-2.187 1.306-3.857 3.432-3.857s3.372 1.67 3.372 3.857zm20.683 7.38c4.404 0 7.866-2.369 7.866-6.256 0-3.341-2.612-4.799-4.222-5.346v-0.09c1.55-0.547 3.432-1.884 3.432-4.496 0-3.371-3.006-5.558-7.076-5.558-4.04 0-7.107 2.187-7.107 5.558 0 2.612 1.883 3.949 3.462 4.495v0.091c-1.64 0.547-4.252 2.005-4.252 5.346 0 3.887 3.493 6.257 7.897 6.257zm-3.645-6.59c0-1.974 1.67-3.037 3.645-3.037 1.974 0 3.644 1.063 3.644 3.037s-1.67 3.067-3.644 3.067-3.645-1.093-3.645-3.067zm0.486-9.081c0-1.58 1.397-2.552 3.159-2.552 1.731 0 3.128 0.972 3.128 2.552 0 1.579-1.397 2.55-3.128 2.55-1.762 0-3.159-0.971-3.159-2.55zm20.106 15.671c5.74 0 7.836-4.768 7.836-11.936 0-6.53-2.915-9.81-7.805-9.81-4.283 0-7.502 2.886-7.502 7.29 0 4.464 3.189 6.894 6.5 6.894 1.852 0 3.644-0.76 4.586-2.187l0.09 0.03c-0.182 3.767-1.062 6.075-3.644 6.075-1.974 0-2.824-1.397-3.037-2.916l-3.918 2.308c1.245 2.673 3.493 4.253 6.894 4.253zm-3.34-14.517c0-2.157 1.245-3.706 3.37-3.706 2.127 0 3.402 1.55 3.402 3.736 0 2.156-1.275 3.675-3.401 3.675s-3.372-1.519-3.372-3.705zm20.53 14.517c4.283 0 7.412-3.067 7.412-7.684 0-4.434-2.855-7.046-6.227-7.046-1.883 0-3.22 0.85-3.978 1.731h-0.03s0.303-1.184 0.455-2.49l0.273-2.096h8.14v-3.795h-11.633l-1.306 10.57 3.767 1.73c0.425-1.245 1.397-2.4 3.097-2.4 1.944 0 3.129 1.671 3.129 3.797s-1.124 3.918-3.19 3.918c-2.065 0-3.097-1.549-3.34-3.492l-4.1 2.247c0.85 2.794 3.553 5.012 7.532 5.012zm26.759-6.924 0.88-2.886h-4.798v-1.761h5.254l0.85-2.886h-5.74c0.547-2.186 1.7-3.766 3.797-3.766 2.399 0 3.34 2.005 3.34 4.495l4.01-2.49c-0.942-3.098-3.524-5.528-7.35-5.528-3.797 0-7.016 2.49-8.08 7.29h-2.581v2.885h2.217v0.668c0 0.395 0 0.76 0.03 1.093h-2.247v2.886h2.612c1.063 4.616 4.07 6.925 8.049 6.925 3.978 0 6.408-2.612 7.35-5.68l-4.01-2.52c-0.03 2.49-0.88 4.676-3.34 4.676-2.218 0-3.28-1.366-3.797-3.401z" aria-label="1 546 895 €"/>
  </g>
  <g fill="#000">
   <path d="m608.74 205.99h121.2v-42.68h-121.2z"/>
   <path d="M602.915 237.68h132.848V195H602.915z"/>
   <path d="m581.04 266.81h176.61v-42.68h-176.61z"/>
  </g>
  <g id="northeastern" fill="#fff" fill-rule="nonzero">
   <path id="northeastern-label" d="m643.77 190.63v-21.019h-4.16v11.329c0 1.944 0.242 4.495 0.242 4.495h-0.121s-1.124-2.703-1.822-4.13l-5.892-11.694h-5.923v21.018h4.191v-11.33c0-1.913-0.182-4.403-0.182-4.464l0.122-0.03s1.063 2.703 1.761 4.13l5.862 11.694h5.922zm10.327 0.364c4.16 0 7.38-3.037 7.38-8.018s-3.22-8.018-7.38-8.018c-4.191 0-7.41 3.037-7.41 8.018 0 4.98 3.219 8.018 7.41 8.018zm-3.068-8.018c0-2.734 0.942-4.738 3.068-4.738 2.096 0 3.037 2.004 3.037 4.738 0 2.733-0.941 4.738-3.037 4.738-2.126 0-3.068-2.005-3.068-4.738zm13.182 7.654h4.282v-8.748c0-1.974 0.547-3.25 1.883-3.25 1.063 0 1.428 0.942 1.428 1.944 0 1.033-0.182 2.066-0.243 2.521l3.857-2.217s0.152-0.79 0.152-1.792c0-2.247-1.185-4.07-3.341-4.07-1.944 0-3.098 1.337-3.857 2.825h-0.091l0.212-2.52h-4.282zm21.625-4.07c-0.183 0.395-0.547 0.972-1.185 0.972-0.698 0-1.063-0.395-1.063-1.58v-7.35h3.462v-3.28h-3.462v-5.467l-4.252 2.37v3.097h-2.46v3.28h2.46v7.776c0 3.25 1.731 4.616 4.404 4.616 1.762 0 3.189-0.85 3.705-1.336l-1.61-3.098zm17.068-5.741c0-3.796-1.852-5.861-4.798-5.861-2.521 0-3.827 1.488-4.586 2.885h-0.091s0.212-1.853 0.212-3.766v-5.437h-4.282v21.99h4.282v-9.082c0-1.761 1.033-2.976 2.643-2.976s2.308 1.063 2.308 3.098v8.96h4.313v-9.81zm11.056 2.491v-3.523h-8.23v3.523zm-82.065 32.344s0.213-0.85 0.213-2.096c0-4.16-2.734-7.077-6.834-7.077-4.13 0-7.32 3.038-7.32 8.019 0 5.041 3.129 8.018 7.411 8.018 3.19 0 5.497-1.701 6.56-3.645l-3.614-2.035c-0.243 1.458-1.336 2.521-2.946 2.521-1.792 0-3.189-1.215-3.371-3.705zm-6.621-6.075c1.67 0 2.855 1.367 2.855 3.22h-6.044c0.334-2.096 1.61-3.22 3.189-3.22zm15.702 0.182c1.246 0 2.187 0.669 2.187 1.671 0 1.063-1.184 1.336-3.28 1.792-2.46 0.486-5.619 1.367-5.619 4.799 0 2.824 2.126 4.495 4.83 4.495 2.338 0 3.735-1.336 4.342-2.278h0.092c0.182 0.729 0.364 1.215 0.85 1.913h3.22c-0.304-1.154-0.365-2.247-0.365-3.857v-6.105c0-3.826-2.734-5.71-6.196-5.71-3.402 0-6.044 1.762-7.228 4.313l3.766 2.005c0.425-1.822 1.64-3.037 3.401-3.037zm2.309 6.622c0 1.883-1.367 2.915-2.886 2.915-1.336 0-2.004-0.637-2.004-1.579 0-1.215 1.184-1.549 2.49-1.883 1.154-0.304 1.974-0.638 2.4-1.184v1.73zm13.849 3.007c-2.035 0-3.371-1.246-3.857-2.916l-3.736 2.096c1.245 2.43 4.07 3.948 7.654 3.948 3.31 0 6.165-1.822 6.165-4.89 0-2.794-2.186-3.888-4.586-4.647-2.278-0.729-4.282-0.85-4.282-2.004 0-0.881 0.911-1.367 2.004-1.367 1.67 0 2.825 1.063 3.19 2.43l3.674-2.066c-1.184-2.035-3.978-3.493-7.015-3.493-3.28 0-6.044 1.823-6.044 4.708 0 2.916 2.885 4.07 5.193 4.677 1.974 0.547 3.675 0.82 3.675 2.035 0 0.972-0.85 1.489-2.035 1.489zm16.431-1.306c-0.182 0.394-0.546 0.971-1.184 0.971-0.699 0-1.063-0.394-1.063-1.579v-7.35h3.462v-3.28h-3.462v-5.467l-4.252 2.369v3.098h-2.46v3.28h2.46v7.775c0 3.25 1.731 4.617 4.404 4.617 1.761 0 3.189-0.85 3.705-1.336zm16.553-2.43s0.213-0.85 0.213-2.096c0-4.16-2.734-7.077-6.834-7.077-4.13 0-7.32 3.038-7.32 8.019 0 5.041 3.129 8.018 7.411 8.018 3.19 0 5.497-1.701 6.56-3.645l-3.614-2.035c-0.243 1.458-1.336 2.521-2.946 2.521-1.792 0-3.189-1.215-3.371-3.705zm-6.621-6.075c1.67 0 2.855 1.367 2.855 3.22h-6.044c0.334-2.096 1.61-3.22 3.189-3.22zm9.507 12.574h4.282v-8.747c0-1.974 0.547-3.25 1.883-3.25 1.063 0 1.427 0.942 1.427 1.944 0 1.033-0.182 2.066-0.243 2.521l3.858-2.217s0.152-0.79 0.152-1.792c0-2.247-1.185-4.07-3.341-4.07-1.944 0-3.098 1.337-3.858 2.825h-0.09l0.212-2.521h-4.283v15.307zm27.06-9.81c0-3.796-1.852-5.862-4.798-5.862-2.52 0-3.827 1.489-4.586 2.886h-0.091l0.212-2.521h-4.282v15.307h4.282v-9.08c0-1.762 1.033-2.977 2.643-2.977s2.308 1.063 2.308 3.098v8.96h4.313v-9.81z" aria-label="Northeastern"/>
   <path id="northeastern-value" d="m601.61 237.94s-0.121 1.7-0.121 3.189v12.543h4.343v-21.016h-3.28c-1.397 1.7-3.797 3.067-6.318 3.675l1.792 3.736c1.276-0.304 2.764-1.215 3.493-2.126h0.091zm21.291 16.096c4.191 0 7.35-2.854 7.35-6.985 0-3.918-2.764-6.317-6.287-6.317-0.486 0-1.033 0.121-1.033 0.121l-0.06-0.09s1.792-1.003 2.855-1.854l3.948-3.128v-3.128h-13.546v3.796h7.441l-5.68 4.647 1.489 3.615c0.88-0.578 1.913-1.185 3.34-1.185 1.975 0 3.25 1.397 3.25 3.34 0 1.975-1.154 3.403-3.128 3.403-2.065 0-3.158-1.489-3.432-3.493l-4.1 2.247c0.85 2.795 3.645 5.012 7.593 5.012zm23.629-21.381h-14.943v6.62l4.07 2.066v-4.799h6.166c-2.37 4.435-5.072 10.934-5.862 17.13h4.89c0.76-6.287 2.551-12.3 5.68-18.314v-2.703zm9.233 15.733v5.284h4.252v-5.284h2.46v-3.736h-2.46v-11.997h-4.252v11.997h-4.98c1.61-2.582 3.25-5.71 3.431-10.296l-4.1-2.066c-0.121 5.65-1.488 9.72-3.675 13.455l0.972 2.643zm29.704-15.733h-14.943v6.62l4.07 2.066v-4.799h6.165c-2.369 4.435-5.072 10.934-5.861 17.13h4.89c0.759-6.287 2.55-12.3 5.68-18.314v-2.703zm5.467 10.448c0-3.584 0.85-6.986 3.675-6.986 2.855 0 3.705 3.402 3.705 6.986s-0.85 7.107-3.705 7.107c-2.824 0-3.675-3.523-3.675-7.107zm-4.556 0c0 6.985 3.341 10.934 8.231 10.934 4.92 0 8.261-3.949 8.261-10.934 0-6.986-3.34-10.813-8.26-10.813-4.89 0-8.232 3.827-8.232 10.813zm25.543 10.933c4.191 0 7.35-2.854 7.35-6.985 0-3.918-2.764-6.317-6.287-6.317-0.486 0-1.033 0.121-1.033 0.121l-0.06-0.09s1.792-1.003 2.855-1.854l3.948-3.128v-3.128h-13.546v3.796h7.441l-5.68 4.647 1.489 3.615c0.88-0.578 1.913-1.185 3.34-1.185 1.975 0 3.25 1.397 3.25 3.34 0 1.975-1.153 3.403-3.128 3.403-2.065 0-3.158-1.489-3.432-3.493l-4.1 2.247c0.85 2.795 3.645 5.012 7.593 5.012zm26.667-6.924 0.88-2.885h-4.798v-1.762h5.254l0.85-2.885h-5.74c0.547-2.187 1.701-3.766 3.797-3.766 2.399 0 3.34 2.004 3.34 4.495l4.01-2.49c-0.942-3.099-3.524-5.529-7.35-5.529-3.797 0-7.016 2.49-8.08 7.29h-2.58v2.885h2.216v0.668c0 0.395 0 0.76 0.03 1.094h-2.247v2.885h2.612c1.063 4.616 4.07 6.925 8.049 6.925 3.978 0 6.408-2.612 7.35-5.68l-4.01-2.52c-0.03 2.49-0.88 4.677-3.34 4.677-2.218 0-3.28-1.367-3.797-3.402z" aria-label="1 374 703 €"/>
  </g>
  <g fill="#000">
   <path d="M291.84 316.17h152.31v-42.68H291.84z"/>
   <path d="m291.64 347.86h152.72v-42.68h-152.72z"/>
  </g>
  <g id="northern" fill="#fff" fill-rule="nonzero">
   <path id="northern-label" d="m324.44 300.8v-21.017h-4.161v11.329c0 1.944 0.243 4.495 0.243 4.495h-0.122s-1.123-2.703-1.822-4.13l-5.892-11.694h-5.923v21.018h4.192v-11.33c0-1.912-0.183-4.403-0.183-4.464l0.122-0.03s1.063 2.703 1.762 4.13l5.861 11.694h5.923zm10.327 0.365c4.16 0 7.38-3.037 7.38-8.018s-3.22-8.018-7.38-8.018c-4.192 0-7.411 3.037-7.411 8.018s3.219 8.018 7.41 8.018zm-3.068-8.018c0-2.734 0.941-4.738 3.067-4.738 2.096 0 3.038 2.004 3.038 4.738 0 2.733-0.942 4.738-3.038 4.738-2.126 0-3.067-2.005-3.067-4.738zm13.181 7.653h4.283v-8.746c0-1.975 0.546-3.25 1.883-3.25 1.063 0 1.427 0.941 1.427 1.944 0 1.032-0.182 2.065-0.243 2.52l3.857-2.217s0.152-0.79 0.152-1.792c0-2.247-1.184-4.07-3.34-4.07-1.944 0-3.099 1.337-3.858 2.825h-0.091l0.213-2.52h-4.283zm21.625-4.07c-0.182 0.396-0.547 0.973-1.185 0.973-0.698 0-1.063-0.395-1.063-1.58v-7.35h3.463v-3.28h-3.463v-5.467l-4.252 2.37v3.097h-2.46v3.28h2.46v7.776c0 3.25 1.732 4.616 4.404 4.616 1.762 0 3.19-0.85 3.706-1.336l-1.61-3.098zm17.069-5.74c0-3.796-1.853-5.861-4.799-5.861-2.52 0-3.827 1.488-4.586 2.885h-0.091s0.213-1.853 0.213-3.766v-5.437h-4.283v21.99h4.283v-9.082c0-1.761 1.032-2.976 2.642-2.976s2.308 1.063 2.308 3.098v8.96h4.313v-9.81zm16.583 3.311s0.213-0.85 0.213-2.096c0-4.16-2.734-7.076-6.834-7.076-4.13 0-7.32 3.037-7.32 8.018 0 5.042 3.129 8.018 7.411 8.018 3.19 0 5.497-1.7 6.56-3.644l-3.614-2.035c-0.243 1.457-1.336 2.52-2.946 2.52-1.792 0-3.189-1.214-3.371-3.705zm-6.621-6.074c1.67 0 2.855 1.366 2.855 3.22h-6.044c0.334-2.097 1.61-3.22 3.189-3.22zm9.506 12.573h4.283v-8.746c0-1.975 0.547-3.25 1.883-3.25 1.063 0 1.427 0.941 1.427 1.944 0 1.032-0.182 2.065-0.243 2.52l3.858-2.217s0.152-0.79 0.152-1.792c0-2.247-1.185-4.07-3.341-4.07-1.944 0-3.098 1.337-3.858 2.825h-0.09l0.212-2.52h-4.283zm27.062-9.81c0-3.796-1.853-5.861-4.799-5.861-2.52 0-3.827 1.488-4.586 2.885h-0.091l0.212-2.52h-4.282v15.306h4.282v-9.082c0-1.761 1.033-2.976 2.643-2.976s2.308 1.063 2.308 3.098v8.96h4.313z" aria-label="Northern"/>
   <path id="northern-value" d="m311.69 332.69c4.282 0 7.41-3.068 7.41-7.684 0-4.434-2.855-7.046-6.226-7.046-1.883 0-3.22 0.85-3.979 1.73h-0.03s0.304-1.184 0.456-2.49l0.273-2.095h8.14v-3.797h-11.633l-1.306 10.57 3.766 1.73c0.426-1.244 1.397-2.399 3.098-2.399 1.944 0 3.129 1.67 3.129 3.797 0 2.126-1.124 3.918-3.19 3.918-2.065 0-3.097-1.55-3.34-3.493l-4.1 2.248c0.85 2.794 3.553 5.011 7.532 5.011zm16.673 0c5.741 0 7.837-4.768 7.837-11.936 0-6.53-2.916-9.81-7.806-9.81-4.282 0-7.502 2.885-7.502 7.289 0 4.465 3.19 6.894 6.5 6.894 1.853 0 3.645-0.759 4.586-2.186l0.091 0.03c-0.182 3.766-1.063 6.074-3.644 6.074-1.975 0-2.825-1.397-3.038-2.915l-3.918 2.308c1.246 2.673 3.493 4.252 6.895 4.252zm-3.34-14.518c0-2.156 1.245-3.705 3.371-3.705s3.402 1.549 3.402 3.736c0 2.156-1.276 3.675-3.402 3.675s-3.371-1.519-3.371-3.706zm20.35 14.518c4.19 0 7.35-2.855 7.35-6.986 0-3.918-2.765-6.317-6.288-6.317-0.486 0-1.033 0.122-1.033 0.122l-0.06-0.092s1.792-1.002 2.855-1.852l3.948-3.129v-3.128h-13.546v3.797h7.441l-5.68 4.647 1.489 3.614c0.88-0.577 1.913-1.185 3.34-1.185 1.975 0 3.25 1.397 3.25 3.341 0 1.974-1.153 3.402-3.128 3.402-2.065 0-3.158-1.488-3.432-3.493l-4.1 2.248c0.85 2.794 3.645 5.011 7.593 5.011zm20.956-11.086c-0.213-0.698-0.547-1.761-0.547-3.158 0-2.278 1.154-3.736 3.068-3.736 1.73 0 2.794 1.184 2.794 2.946 0 4.98-9.537 7.441-9.537 13.576 0 0.608 0.091 1.094 0.091 1.094h13.789v-3.888h-8.443v-0.06c0.759-1.853 8.473-4.739 8.473-10.995 0-3.98-3.128-6.44-7.107-6.44-4.04 0-7.32 2.491-7.32 6.591 0 1.155 0.304 2.066 0.304 2.066zm26.514-10.296h-14.943v6.621l4.07 2.066v-4.8h6.166c-2.37 4.435-5.072 10.935-5.862 17.13h4.89c0.76-6.286 2.551-12.3 5.68-18.314v-2.703zm6.044 10.296c-0.212-0.698-0.546-1.761-0.546-3.158 0-2.278 1.154-3.736 3.067-3.736 1.732 0 2.795 1.184 2.795 2.946 0 4.98-9.537 7.441-9.537 13.576 0 0.608 0.09 1.094 0.09 1.094h13.79v-3.888h-8.444v-0.06c0.76-1.853 8.474-4.739 8.474-10.995 0-3.98-3.128-6.44-7.107-6.44-4.04 0-7.32 2.491-7.32 6.591 0 1.155 0.304 2.066 0.304 2.066zm29.096 4.161 0.882-2.885h-4.8v-1.762h5.255l0.85-2.885h-5.74c0.547-2.187 1.701-3.766 3.797-3.766 2.4 0 3.34 2.004 3.34 4.495l4.01-2.49c-0.942-3.099-3.523-5.528-7.35-5.528-3.797 0-7.016 2.49-8.08 7.289h-2.58v2.885h2.216v0.668c0 0.395 0 0.76 0.03 1.094h-2.247v2.885h2.612c1.063 4.617 4.07 6.925 8.049 6.925 3.978 0 6.408-2.612 7.35-5.68l-4.01-2.52c-0.03 2.49-0.88 4.677-3.34 4.677-2.217 0-3.28-1.367-3.797-3.402h3.554z" aria-label="593 272 €"/>
  </g>
  <g fill="#000">
   <path d="m59.975 457.98h144.04v-42.68h-144.04z"/>
   <path d="m43.663 489.44h176.66v-42.68h-176.66z"/>
  </g>
  <g id="western" fill="#fff" fill-rule="nonzero">
   <path id="western-label" d="m89.944 421.6h-4.707l-2.643 12.817c-0.243 1.245-0.546 3.523-0.546 3.523h-0.091s-0.152-1.974-0.335-3.25l-1.974-13.09h-4.707l3.918 21.017h5.497l2.551-12.057c0.365-1.701 0.608-3.675 0.608-3.675h0.09s0.213 1.974 0.578 3.675l2.581 12.057h5.498l3.948-21.017h-4.677l-1.974 13.09c-0.183 1.276-0.334 3.25-0.334 3.25h-0.092s-0.303-2.278-0.546-3.523zm25.088 14.518s0.212-0.85 0.212-2.096c0-4.16-2.733-7.076-6.834-7.076-4.13 0-7.32 3.037-7.32 8.018 0 5.041 3.13 8.018 7.412 8.018 3.189 0 5.497-1.7 6.56-3.645l-3.614-2.035c-0.243 1.458-1.337 2.521-2.946 2.521-1.792 0-3.19-1.215-3.372-3.705zm-6.622-6.075c1.67 0 2.855 1.367 2.855 3.22h-6.044c0.335-2.096 1.61-3.22 3.19-3.22zm15.976 9.811c-2.035 0-3.371-1.246-3.857-2.916l-3.736 2.096c1.245 2.43 4.07 3.948 7.654 3.948 3.31 0 6.165-1.822 6.165-4.89 0-2.794-2.186-3.888-4.586-4.647-2.278-0.729-4.282-0.85-4.282-2.004 0-0.881 0.91-1.367 2.004-1.367 1.67 0 2.825 1.063 3.19 2.43l3.674-2.066c-1.184-2.035-3.978-3.492-7.016-3.492-3.28 0-6.044 1.822-6.044 4.707 0 2.916 2.886 4.07 5.194 4.677 1.974 0.547 3.675 0.82 3.675 2.035 0 0.972-0.85 1.489-2.035 1.489zm16.431-1.306c-0.182 0.394-0.546 0.972-1.184 0.972-0.699 0-1.063-0.395-1.063-1.58v-7.35h3.462v-3.28h-3.462v-5.467l-4.252 2.37v3.097h-2.46v3.28h2.46v7.775c0 3.25 1.73 4.617 4.404 4.617 1.761 0 3.189-0.85 3.705-1.336zm16.553-2.43s0.213-0.85 0.213-2.096c0-4.16-2.734-7.076-6.834-7.076-4.13 0-7.32 3.037-7.32 8.018 0 5.041 3.129 8.018 7.411 8.018 3.19 0 5.497-1.7 6.56-3.645l-3.614-2.035c-0.243 1.458-1.336 2.521-2.946 2.521-1.792 0-3.189-1.215-3.371-3.705zm-6.621-6.075c1.67 0 2.855 1.367 2.855 3.22h-6.044c0.334-2.096 1.61-3.22 3.189-3.22zm9.506 12.574h4.283v-8.747c0-1.974 0.547-3.25 1.883-3.25 1.063 0 1.427 0.942 1.427 1.944 0 1.033-0.182 2.066-0.243 2.521l3.858-2.217s0.151-0.79 0.151-1.792c0-2.247-1.184-4.07-3.34-4.07-1.944 0-3.098 1.337-3.858 2.825h-0.09l0.212-2.521h-4.283zm27.062-9.81c0-3.796-1.853-5.861-4.799-5.861-2.52 0-3.827 1.488-4.586 2.885h-0.091l0.212-2.521h-4.282v15.307h4.282v-9.08c0-1.762 1.033-2.977 2.643-2.977s2.308 1.063 2.308 3.098v8.96h4.313v-9.81z" aria-label="Western"/>
   <path id="western-value" d="m59.208 458.4s-0.122 1.7-0.122 3.189v12.543h4.344v-21.017h-3.28c-1.398 1.7-3.797 3.068-6.318 3.675l1.792 3.736c1.276-0.304 2.764-1.215 3.493-2.126h0.09zm21.472 16.097c4.283 0 7.412-3.068 7.412-7.684 0-4.435-2.855-7.047-6.227-7.047-1.883 0-3.219 0.85-3.978 1.732h-0.03s0.303-1.185 0.455-2.49l0.273-2.097h8.14v-3.796h-11.633l-1.306 10.57 3.767 1.73c0.425-1.245 1.397-2.399 3.098-2.399 1.943 0 3.128 1.67 3.128 3.797 0 2.126-1.124 3.918-3.19 3.918-2.065 0-3.097-1.55-3.34-3.493l-4.1 2.247c0.85 2.795 3.553 5.012 7.532 5.012zm16.584 0c4.191 0 7.35-2.855 7.35-6.986 0-3.918-2.764-6.317-6.287-6.317-0.486 0-1.033 0.121-1.033 0.121l-0.06-0.09s1.792-1.003 2.855-1.853l3.948-3.129v-3.128h-13.547v3.796h7.441l-5.68 4.647 1.489 3.615c0.88-0.577 1.913-1.185 3.34-1.185 1.975 0 3.25 1.397 3.25 3.341 0 1.974-1.154 3.402-3.128 3.402-2.065 0-3.158-1.489-3.432-3.493l-4.1 2.247c0.85 2.795 3.645 5.012 7.593 5.012zm18.345-5.649v5.284h4.252v-5.284h2.46v-3.736h-2.46v-11.997h-4.252v11.997h-4.981c1.61-2.582 3.25-5.71 3.432-10.296l-4.1-2.065c-0.122 5.649-1.489 9.719-3.676 13.454l0.972 2.643zm19.802-5.285c0-3.584 0.85-6.986 3.675-6.986 2.855 0 3.705 3.402 3.705 6.986s-0.85 7.107-3.705 7.107c-2.824 0-3.675-3.523-3.675-7.107zm-4.556 0c0 6.985 3.341 10.934 8.231 10.934 4.92 0 8.261-3.949 8.261-10.934 0-6.986-3.34-10.812-8.26-10.812-4.89 0-8.232 3.826-8.232 10.812zm22.719-5.163s-0.122 1.7-0.122 3.189v12.543h4.343v-21.017h-3.28c-1.397 1.7-3.796 3.068-6.317 3.675l1.792 3.736c1.275-0.304 2.763-1.215 3.492-2.126zm11.693 0s-0.122 1.7-0.122 3.189v12.543h4.343v-21.017h-3.28c-1.397 1.7-3.796 3.068-6.317 3.675l1.792 3.736c1.275-0.304 2.764-1.215 3.493-2.126h0.09zm24.662 9.172 0.88-2.885h-4.798v-1.762h5.254l0.85-2.885h-5.74c0.547-2.187 1.701-3.766 3.797-3.766 2.4 0 3.34 2.004 3.34 4.495l4.01-2.49c-0.942-3.099-3.523-5.528-7.35-5.528-3.797 0-7.016 2.49-8.08 7.289h-2.58v2.885h2.216v0.668c0 0.395 0 0.76 0.03 1.094h-2.247v2.885h2.612c1.063 4.617 4.07 6.925 8.049 6.925 3.978 0 6.408-2.612 7.35-5.68l-4.01-2.52c-0.03 2.49-0.88 4.677-3.34 4.677-2.217 0-3.28-1.367-3.797-3.402z" aria-label="1 534 011 €"/>
  </g>
  <g fill="#000">
   <path d="m591.28 671.08h118.39v-42.68h-118.39z"/>
   <path d="m583.84 702.76h133.28v-42.68h-133.28z"/>
   <path d="m568.47 733.05h164.02v-42.68h-164.02z"/>
  </g>
  <g id="southeastern" fill="#fff" fill-rule="nonzero">
   <path id="southeastern-label" d="m612.65 647.41c3.037 0.912 6.105 1.185 6.105 3.433 0 1.549-1.336 2.55-3.462 2.55-3.068 0-4.92-2.064-5.498-4.798l-4.04 2.551c1.52 3.797 5.134 5.923 9.386 5.923 4.738 0 7.988-2.764 7.988-6.56 0-3.949-3.25-5.316-6.591-6.318-2.855-0.88-5.558-1.184-5.558-3.037 0-1.306 1.275-2.156 3.007-2.156 2.46 0 4.464 1.488 4.92 3.887l3.948-2.49c-1.61-3.25-5.102-5.072-8.747-5.072-4.525 0-7.502 2.703-7.502 6.226 0 3.614 2.916 4.92 6.044 5.862zm19.863 9.659c4.161 0 7.38-3.037 7.38-8.018s-3.219-8.019-7.38-8.019c-4.19 0-7.41 3.038-7.41 8.019 0 4.98 3.22 8.018 7.41 8.018zm-3.067-8.018c0-2.734 0.941-4.738 3.067-4.738 2.096 0 3.038 2.004 3.038 4.738 0 2.733-0.942 4.738-3.038 4.738-2.126 0-3.067-2.005-3.067-4.738zm13.09 2.156c0 3.797 1.762 5.862 4.708 5.862 2.52 0 3.736-1.488 4.495-2.885h0.091l-0.213 2.52h4.313v-15.307h-4.313v9.112c0 1.761-0.941 2.946-2.55 2.946-1.61 0-2.248-1.063-2.248-3.098v-8.96h-4.283zm24.359 1.428c-0.183 0.394-0.547 0.971-1.185 0.971-0.699 0-1.063-0.394-1.063-1.579v-7.35h3.462v-3.28h-3.462v-5.467l-4.252 2.369v3.098h-2.46v3.28h2.46v7.775c0 3.25 1.731 4.617 4.404 4.617 1.761 0 3.189-0.85 3.705-1.337l-1.61-3.097zm17.068-5.741c0-3.796-1.852-5.862-4.798-5.862-2.521 0-3.827 1.489-4.586 2.886h-0.092s0.213-1.853 0.213-3.766v-5.437h-4.282v21.99h4.282v-9.082c0-1.761 1.033-2.976 2.642-2.976 1.61 0 2.309 1.063 2.309 3.098v8.96h4.313v-9.81zm11.056 2.491v-3.523h-8.23v3.523zm-82.004 32.344s0.212-0.85 0.212-2.096c0-4.161-2.733-7.077-6.833-7.077-4.131 0-7.32 3.037-7.32 8.018 0 5.042 3.128 8.019 7.41 8.019 3.19 0 5.498-1.701 6.561-3.645l-3.614-2.035c-0.243 1.458-1.337 2.521-2.946 2.521-1.792 0-3.19-1.215-3.372-3.705zm-6.621-6.075c1.67 0 2.854 1.367 2.854 3.22h-6.044c0.335-2.096 1.61-3.22 3.19-3.22zm15.702 0.182c1.245 0 2.187 0.669 2.187 1.67 0 1.064-1.185 1.337-3.28 1.793-2.46 0.486-5.62 1.367-5.62 4.799 0 2.824 2.127 4.495 4.83 4.495 2.338 0 3.736-1.337 4.343-2.278h0.091c0.182 0.729 0.365 1.215 0.85 1.913h3.22c-0.304-1.154-0.365-2.247-0.365-3.857v-6.105c0-3.827-2.733-5.71-6.195-5.71-3.402 0-6.044 1.762-7.229 4.313l3.766 2.005c0.425-1.823 1.64-3.038 3.402-3.038zm2.308 6.622c0 1.883-1.367 2.915-2.885 2.915-1.337 0-2.005-0.638-2.005-1.58 0-1.214 1.185-1.548 2.49-1.882 1.155-0.304 1.975-0.638 2.4-1.185zm13.849 3.006c-2.034 0-3.37-1.245-3.857-2.915l-3.735 2.095c1.245 2.43 4.07 3.949 7.653 3.949 3.311 0 6.166-1.823 6.166-4.89 0-2.794-2.187-3.888-4.586-4.647-2.278-0.729-4.283-0.85-4.283-2.005 0-0.88 0.911-1.366 2.005-1.366 1.67 0 2.824 1.063 3.189 2.43l3.675-2.066c-1.185-2.035-3.979-3.493-7.016-3.493-3.28 0-6.044 1.823-6.044 4.708 0 2.916 2.885 4.07 5.194 4.677 1.974 0.547 3.675 0.82 3.675 2.035 0 0.972-0.85 1.488-2.035 1.488zm16.432-1.306c-0.182 0.395-0.547 0.972-1.185 0.972-0.698 0-1.063-0.395-1.063-1.58v-7.35h3.463v-3.28h-3.463v-5.466l-4.252 2.369v3.098h-2.46v3.28h2.46v7.775c0 3.25 1.732 4.617 4.404 4.617 1.762 0 3.19-0.85 3.706-1.337zm16.553-2.429s0.212-0.85 0.212-2.096c0-4.161-2.733-7.077-6.833-7.077-4.131 0-7.32 3.037-7.32 8.018 0 5.042 3.128 8.019 7.41 8.019 3.19 0 5.498-1.701 6.561-3.645l-3.614-2.035c-0.243 1.458-1.337 2.521-2.946 2.521-1.792 0-3.19-1.215-3.372-3.705zm-6.621-6.075c1.67 0 2.854 1.367 2.854 3.22h-6.044c0.335-2.096 1.61-3.22 3.19-3.22zm9.506 12.574h4.282v-8.747c0-1.974 0.547-3.25 1.883-3.25 1.063 0 1.428 0.942 1.428 1.944 0 1.033-0.182 2.065-0.243 2.521l3.857-2.217s0.152-0.79 0.152-1.792c0-2.248-1.184-4.07-3.34-4.07-1.945 0-3.099 1.336-3.858 2.825h-0.091l0.212-2.521h-4.282zm27.061-9.81c0-3.796-1.852-5.862-4.798-5.862-2.521 0-3.827 1.489-4.587 2.886h-0.09l0.212-2.521h-4.283v15.307h4.283v-9.081c0-1.762 1.033-2.976 2.642-2.976 1.61 0 2.309 1.063 2.309 3.097v8.96h4.312z" aria-label="Southeastern"/>
   <path id="southeastern-value" d="m595.94 698.74h-14.943v6.62l4.07 2.066v-4.799h6.165c-2.37 4.435-5.072 10.934-5.862 17.13h4.89c0.76-6.287 2.551-12.3 5.68-18.314zm9.263-0.365c-5.467 0-8.504 4.8-8.504 11.602 0 6.621 2.946 10.145 7.836 10.145 4.252 0 7.471-3.098 7.471-7.593 0-4.344-3.22-6.895-6.53-6.895-1.852 0-3.614 0.972-4.555 2.43h-0.092c0.395-3.614 1.914-6.044 4.374-6.044 1.67 0 2.52 1.184 2.734 2.703l3.887-2.308c-1.184-2.308-3.584-4.04-6.621-4.04zm2.673 14.366c0 2.187-1.215 3.857-3.341 3.857s-3.463-1.7-3.463-3.857c0-2.187 1.306-3.857 3.432-3.857 2.127 0 3.372 1.67 3.372 3.857zm13.455 7.381c4.282 0 7.41-3.068 7.41-7.684 0-4.435-2.855-7.047-6.226-7.047-1.883 0-3.22 0.85-3.979 1.731h-0.03s0.304-1.184 0.456-2.49l0.273-2.096h8.14v-3.796h-11.633l-1.306 10.57 3.766 1.73c0.425-1.245 1.397-2.399 3.098-2.399 1.944 0 3.128 1.67 3.128 3.797 0 2.126-1.123 3.917-3.189 3.917-2.065 0-3.098-1.548-3.34-3.492l-4.1 2.247c0.85 2.794 3.553 5.012 7.532 5.012zm23.568 0c4.283 0 7.41-3.068 7.41-7.684 0-4.435-2.854-7.047-6.225-7.047-1.883 0-3.22 0.85-3.98 1.731h-0.03s0.304-1.184 0.456-2.49l0.273-2.096h8.14v-3.796h-11.632l-1.306 10.57 3.766 1.73c0.425-1.245 1.397-2.399 3.098-2.399 1.944 0 3.128 1.67 3.128 3.797 0 2.126-1.124 3.917-3.189 3.917s-3.098-1.548-3.34-3.492l-4.101 2.247c0.85 2.794 3.553 5.012 7.532 5.012zm18.436-5.65v5.285h4.252v-5.285h2.46v-3.735h-2.46v-11.997h-4.252v11.997h-4.981c1.61-2.582 3.25-5.71 3.432-10.296l-4.1-2.066c-0.122 5.65-1.488 9.72-3.675 13.455l0.972 2.642zm22.292-15.732h-14.942v6.62l4.07 2.066v-4.799h6.165c-2.369 4.435-5.072 10.934-5.862 17.13h4.89c0.76-6.287 2.552-12.3 5.68-18.314v-2.703zm18.619 14.457 0.88-2.886h-4.798v-1.761h5.254l0.85-2.885h-5.74c0.547-2.187 1.701-3.767 3.797-3.767 2.4 0 3.34 2.005 3.34 4.495l4.01-2.49c-0.942-3.098-3.523-5.528-7.35-5.528-3.797 0-7.016 2.49-8.079 7.29h-2.582v2.885h2.217v0.668c0 0.395 0 0.76 0.03 1.093h-2.247v2.886h2.612c1.063 4.616 4.07 6.925 8.049 6.925s6.408-2.612 7.35-5.68l-4.01-2.52c-0.03 2.49-0.88 4.676-3.34 4.676-2.217 0-3.28-1.366-3.797-3.401z" aria-label="765 547 €"/>
  </g>
  <g fill="#000">
   <path d="m300 590.06h129.89v-42.681h-129.89z"/>
   <path d="m274.96 621.75h179.95v-42.68h-179.95z"/>
  </g>
  <g id="central" fill="#fff" fill-rule="nonzero">
   <path id="central-label" d="m324.98 575.06c4.465 0 7.897-3.311 8.687-6.713l-4.161-2.612c-0.122 2.855-1.58 5.376-4.526 5.376-3.492 0-5.072-3.158-5.072-6.985s1.58-6.864 5.072-6.864c2.946 0 4.404 2.399 4.526 5.254l4.16-2.612c-0.789-3.402-4.221-6.59-8.686-6.59-5.376 0-9.628 4.008-9.628 10.812 0 6.803 4.252 10.934 9.628 10.934zm24.48-6.865s0.213-0.85 0.213-2.095c0-4.161-2.734-7.077-6.834-7.077-4.13 0-7.32 3.037-7.32 8.018 0 5.042 3.129 8.019 7.411 8.019 3.19 0 5.497-1.701 6.56-3.645l-3.614-2.035c-0.243 1.458-1.336 2.52-2.946 2.52-1.792 0-3.189-1.214-3.371-3.705zm-6.621-6.074c1.67 0 2.855 1.367 2.855 3.22h-6.044c0.334-2.096 1.61-3.22 3.189-3.22zm23.052 2.764c0-3.797-1.852-5.862-4.798-5.862-2.521 0-3.827 1.488-4.587 2.885h-0.09l0.212-2.52h-4.283v15.307h4.283v-9.081c0-1.762 1.033-2.977 2.642-2.977 1.61 0 2.308 1.063 2.308 3.098v8.96h4.313zm10.448 5.74c-0.182 0.395-0.546 0.972-1.184 0.972-0.699 0-1.063-0.395-1.063-1.58v-7.35h3.462v-3.28h-3.462v-5.466l-4.252 2.369v3.098h-2.46v3.28h2.46v7.775c0 3.25 1.73 4.617 4.404 4.617 1.761 0 3.189-0.85 3.705-1.337zm3.675 4.07h4.283v-8.747c0-1.974 0.546-3.25 1.883-3.25 1.063 0 1.427 0.942 1.427 1.944 0 1.033-0.182 2.065-0.243 2.52l3.857-2.216s0.152-0.79 0.152-1.792c0-2.248-1.184-4.07-3.34-4.07-1.944 0-3.098 1.336-3.858 2.824h-0.09l0.212-2.52h-4.283zm19.955-12.392c1.245 0 2.186 0.669 2.186 1.67 0 1.064-1.184 1.337-3.28 1.793-2.46 0.486-5.619 1.366-5.619 4.798 0 2.825 2.126 4.496 4.83 4.496 2.338 0 3.735-1.337 4.343-2.278h0.09c0.183 0.729 0.365 1.215 0.851 1.913h3.22c-0.304-1.154-0.365-2.247-0.365-3.857v-6.105c0-3.827-2.733-5.71-6.196-5.71-3.401 0-6.044 1.762-7.228 4.313l3.766 2.005c0.425-1.823 1.64-3.038 3.402-3.038zm2.308 6.621c0 1.883-1.367 2.916-2.885 2.916-1.337 0-2.005-0.638-2.005-1.58 0-1.214 1.185-1.548 2.49-1.882 1.155-0.304 1.975-0.638 2.4-1.185zm7.38 5.771h4.313v-21.99h-4.313z" aria-label="Central"/>
   <path id="central-value" d="m291.03 590.48s-0.122 1.701-0.122 3.19v12.543h4.343v-21.017h-3.28c-1.397 1.7-3.796 3.067-6.317 3.675l1.792 3.735c1.275-0.303 2.763-1.215 3.492-2.126zm21.291 16.097c4.19 0 7.35-2.855 7.35-6.985 0-3.918-2.765-6.318-6.288-6.318-0.486 0-1.032 0.122-1.032 0.122l-0.061-0.091s1.792-1.002 2.855-1.853l3.948-3.128v-3.128h-13.546v3.796h7.441l-5.68 4.647 1.49 3.614c0.88-0.577 1.913-1.184 3.34-1.184 1.974 0 3.25 1.397 3.25 3.34 0 1.975-1.154 3.402-3.128 3.402-2.066 0-3.16-1.488-3.433-3.492l-4.1 2.247c0.85 2.794 3.645 5.011 7.593 5.011zm13.606-11.085c-0.213-0.699-0.547-1.762-0.547-3.159 0-2.278 1.154-3.736 3.068-3.736 1.731 0 2.794 1.185 2.794 2.946 0 4.981-9.537 7.441-9.537 13.577 0 0.607 0.091 1.093 0.091 1.093h13.79v-3.888h-8.444v-0.06c0.76-1.853 8.474-4.738 8.474-10.995 0-3.979-3.129-6.439-7.107-6.439-4.04 0-7.32 2.49-7.32 6.59 0 1.155 0.304 2.066 0.304 2.066zm18.83 11.085c4.192 0 7.35-2.855 7.35-6.985 0-3.918-2.763-6.318-6.286-6.318-0.486 0-1.033 0.122-1.033 0.122l-0.06-0.091s1.791-1.002 2.854-1.853l3.948-3.128v-3.128h-13.545v3.796h7.44l-5.679 4.647 1.488 3.614c0.881-0.577 1.914-1.184 3.341-1.184 1.974 0 3.25 1.397 3.25 3.34 0 1.975-1.154 3.402-3.128 3.402-2.066 0-3.159-1.488-3.432-3.492l-4.1 2.247c0.85 2.794 3.644 5.011 7.592 5.011zm20.957-11.085c-0.212-0.699-0.547-1.762-0.547-3.159 0-2.278 1.155-3.736 3.068-3.736 1.731 0 2.794 1.185 2.794 2.946 0 4.981-9.537 7.441-9.537 13.577 0 0.607 0.092 1.093 0.092 1.093h13.788v-3.888h-8.443v-0.06c0.76-1.853 8.474-4.738 8.474-10.995 0-3.979-3.129-6.439-7.107-6.439-4.04 0-7.32 2.49-7.32 6.59 0 1.155 0.304 2.066 0.304 2.066zm16.34-5.012s-0.121 1.701-0.121 3.19v12.543h4.343v-21.017h-3.28c-1.397 1.7-3.797 3.067-6.318 3.675l1.792 3.735c1.276-0.303 2.764-1.215 3.493-2.126zm11.693 0s-0.121 1.701-0.121 3.19v12.543h4.343v-21.017h-3.28c-1.397 1.7-3.797 3.067-6.317 3.675l1.792 3.735c1.275-0.303 2.763-1.215 3.492-2.126zm24.662 9.173 0.881-2.886h-4.799v-1.761h5.255l0.85-2.886h-5.74c0.547-2.186 1.7-3.766 3.796-3.766 2.4 0 3.341 2.005 3.341 4.495l4.01-2.49c-0.942-3.098-3.524-5.528-7.35-5.528-3.797 0-7.017 2.49-8.08 7.29h-2.581v2.885h2.217v0.668c0 0.395 0 0.76 0.03 1.093h-2.247v2.886h2.612c1.063 4.616 4.07 6.924 8.048 6.924 3.98 0 6.409-2.612 7.35-5.68l-4.009-2.52c-0.03 2.49-0.88 4.677-3.34 4.677-2.218 0-3.28-1.366-3.797-3.401z" aria-label="1 323 211 €"/>
  </g>
  <g fill="#000">
   <path d="m239.41 813.22h148.24v-42.68h-148.24z"/>
   <path d="m225.23 844.9h176.6v-42.68h-176.6z"/>
  </g>
  <g id="southern" fill="#fff" fill-rule="nonzero">
   <path id="southern-label" d="m257.72 788.56c3.038 0.911 6.105 1.185 6.105 3.432 0 1.55-1.336 2.551-3.462 2.551-3.068 0-4.92-2.065-5.498-4.798l-4.039 2.55c1.519 3.797 5.133 5.923 9.385 5.923 4.738 0 7.988-2.764 7.988-6.56 0-3.948-3.25-5.315-6.591-6.317-2.855-0.881-5.558-1.185-5.558-3.038 0-1.306 1.276-2.156 3.007-2.156 2.46 0 4.464 1.488 4.92 3.888l3.948-2.49c-1.61-3.25-5.102-5.073-8.747-5.073-4.525 0-7.502 2.703-7.502 6.226 0 3.615 2.916 4.92 6.044 5.862zm19.864 9.658c4.16 0 7.38-3.037 7.38-8.018 0-4.98-3.22-8.018-7.38-8.018-4.192 0-7.411 3.037-7.411 8.018s3.22 8.018 7.41 8.018zm-3.068-8.018c0-2.733 0.942-4.738 3.068-4.738 2.095 0 3.037 2.005 3.037 4.738 0 2.734-0.942 4.738-3.037 4.738-2.126 0-3.068-2.004-3.068-4.738zm13.09 2.157c0 3.796 1.762 5.861 4.708 5.861 2.52 0 3.736-1.488 4.495-2.885h0.091l-0.212 2.52h4.311v-15.307h-4.312v9.112c0 1.762-0.942 2.946-2.552 2.946s-2.247-1.063-2.247-3.098v-8.96h-4.283v9.81zm24.359 1.427c-0.183 0.395-0.547 0.972-1.185 0.972-0.698 0-1.063-0.395-1.063-1.58v-7.35h3.463v-3.28h-3.463v-5.467l-4.252 2.37v3.097h-2.46v3.28h2.46v7.776c0 3.25 1.731 4.616 4.404 4.616 1.762 0 3.19-0.85 3.705-1.336l-1.61-3.098zm17.069-5.74c0-3.797-1.853-5.862-4.799-5.862-2.52 0-3.827 1.488-4.586 2.885h-0.091s0.212-1.852 0.212-3.766v-5.436h-4.282v21.989h4.282v-9.081c0-1.762 1.033-2.977 2.643-2.977s2.308 1.063 2.308 3.098v8.96h4.313zm16.583 3.311s0.212-0.851 0.212-2.096c0-4.161-2.733-7.077-6.833-7.077-4.13 0-7.32 3.037-7.32 8.018 0 5.042 3.128 8.018 7.41 8.018 3.19 0 5.498-1.7 6.561-3.644l-3.614-2.035c-0.243 1.458-1.336 2.52-2.946 2.52-1.792 0-3.19-1.214-3.371-3.705h9.9zm-6.621-6.075c1.67 0 2.855 1.367 2.855 3.22h-6.044c0.334-2.096 1.61-3.22 3.189-3.22zm9.506 12.574h4.283v-8.747c0-1.974 0.546-3.25 1.883-3.25 1.063 0 1.427 0.941 1.427 1.944 0 1.032-0.182 2.065-0.243 2.52l3.857-2.217s0.152-0.79 0.152-1.791c0-2.248-1.184-4.07-3.34-4.07-1.944 0-3.099 1.336-3.858 2.824h-0.091l0.213-2.52h-4.283zm27.062-9.81c0-3.797-1.853-5.862-4.8-5.862-2.52 0-3.826 1.488-4.585 2.885h-0.092l0.213-2.52h-4.282v15.307h4.282v-9.081c0-1.762 1.033-2.977 2.642-2.977 1.61 0 2.309 1.063 2.309 3.098v8.96h4.313z" aria-label="Southern"/>
   <path id="southern-value" d="m244.05 813.64s-0.121 1.7-0.121 3.19v12.543h4.343v-21.018h-3.28c-1.398 1.701-3.797 3.068-6.318 3.675l1.792 3.736c1.276-0.304 2.764-1.215 3.493-2.126zm22.718-5.65c-5.467 0-8.504 4.8-8.504 11.603 0 6.621 2.946 10.144 7.836 10.144 4.252 0 7.472-3.098 7.472-7.593 0-4.343-3.22-6.894-6.53-6.894-1.853 0-3.615 0.972-4.556 2.43h-0.091c0.395-3.615 1.913-6.044 4.373-6.044 1.67 0 2.521 1.184 2.734 2.703l3.887-2.309c-1.184-2.308-3.584-4.04-6.62-4.04zm2.673 14.367c0 2.187-1.215 3.857-3.34 3.857-2.127 0-3.463-1.7-3.463-3.857 0-2.187 1.306-3.857 3.432-3.857s3.371 1.67 3.371 3.857zm14.7-14.367c-5.467 0-8.504 4.8-8.504 11.603 0 6.621 2.946 10.144 7.836 10.144 4.252 0 7.471-3.098 7.471-7.593 0-4.343-3.22-6.894-6.53-6.894-1.852 0-3.614 0.972-4.555 2.43h-0.092c0.395-3.615 1.914-6.044 4.374-6.044 1.67 0 2.52 1.184 2.733 2.703l3.888-2.309c-1.184-2.308-3.584-4.04-6.621-4.04zm2.673 14.367c0 2.187-1.215 3.857-3.341 3.857s-3.463-1.7-3.463-3.857c0-2.187 1.306-3.857 3.432-3.857s3.372 1.67 3.372 3.857zm10.508-3.706c-0.212-0.698-0.546-1.761-0.546-3.158 0-2.278 1.154-3.736 3.067-3.736 1.731 0 2.794 1.185 2.794 2.946 0 4.981-9.536 7.441-9.536 13.576 0 0.608 0.09 1.094 0.09 1.094h13.79v-3.888h-8.444v-0.06c0.76-1.853 8.474-4.739 8.474-10.995 0-3.979-3.128-6.44-7.107-6.44-4.04 0-7.32 2.491-7.32 6.592 9.2e-4 0.69941 0.10332 1.395 0.304 2.065zm25.725 11.086c4.192 0 7.35-2.855 7.35-6.985 0-3.918-2.763-6.318-6.287-6.318-0.485 0-1.032 0.122-1.032 0.122l-0.06-0.091s1.791-1.003 2.854-1.853l3.948-3.128v-3.129h-13.546v3.797h7.442l-5.68 4.647 1.488 3.614c0.881-0.577 1.914-1.184 3.341-1.184 1.974 0 3.25 1.397 3.25 3.34 0 1.975-1.154 3.402-3.128 3.402-2.066 0-3.159-1.488-3.432-3.493l-4.1 2.248c0.85 2.794 3.644 5.011 7.592 5.011zm17.919-21.747c-5.466 0-8.503 4.8-8.503 11.603 0 6.621 2.946 10.144 7.836 10.144 4.252 0 7.471-3.098 7.471-7.593 0-4.343-3.22-6.894-6.53-6.894-1.852 0-3.614 0.972-4.556 2.43h-0.09c0.394-3.615 1.913-6.044 4.373-6.044 1.67 0 2.52 1.184 2.733 2.703l3.888-2.309c-1.185-2.308-3.584-4.04-6.621-4.04zm2.674 14.367c0 2.187-1.215 3.857-3.341 3.857s-3.463-1.7-3.463-3.857c0-2.187 1.306-3.857 3.432-3.857s3.372 1.67 3.372 3.857zm10.478-8.717s-0.122 1.7-0.122 3.19v12.543h4.344v-21.018h-3.28c-1.398 1.701-3.797 3.068-6.318 3.675l1.792 3.736c1.276-0.304 2.764-1.215 3.493-2.126h0.09zm24.662 9.172 0.88-2.885h-4.798v-1.762h5.254l0.85-2.885h-5.74c0.54701-2.187 1.701-3.766 3.797-3.766 2.4 0 3.34 2.005 3.34 4.495l4.01-2.49c-0.942-3.098-3.523-5.528-7.35-5.528-3.797 0-7.016 2.49-8.079 7.29h-2.582v2.884h2.218v0.669c0 0.395 0 0.759 0.03 1.093h-2.248v2.885h2.612c1.063 4.617 4.07 6.925 8.049 6.925s6.408-2.612 7.35-5.68l-4.01-2.52c-0.03 2.49-0.88 4.677-3.34 4.677-2.217 0-3.28-1.367-3.797-3.402z" aria-label="1 662 361 €"/>
  </g>
 </g>
 <metadata>
  <rdf:RDF>
   <cc:Work rdf:about="">
    <dc:title>Helsinki districts with their budgets</dc:title>
   </cc:Work>
  </rdf:RDF>
 </metadata>
</svg>
