<?xml version="1.0" encoding="UTF-8" standalone="no"?>
<svg
   xmlns:dc="http://purl.org/dc/elements/1.1/"
   xmlns:cc="http://creativecommons.org/ns#"
   xmlns:rdf="http://www.w3.org/1999/02/22-rdf-syntax-ns#"
   xmlns:svg="http://www.w3.org/2000/svg"
   xmlns="http://www.w3.org/2000/svg"
   width="256px"
   height="256px"
   viewBox="312 111 256 256"
   version="1.1"
   id="svg9">
  <metadata
     id="metadata13">
    <rdf:RDF>
      <cc:Work
         rdf:about="">
        <dc:format>image/svg+xml</dc:format>
        <dc:type
           rdf:resource="http://purl.org/dc/dcmitype/StillImage" />
        <dc:title></dc:title>
      </cc:Work>
    </rdf:RDF>
  </metadata>
  <desc
     id="desc2">YLE</desc>
  <defs
     id="defs4" />
  <g
     id="yle"
     stroke="none"
     stroke-width="1"
     fill="none"
     fill-rule="evenodd"
     transform="translate(312.000000, 111.000000)">
    <rect
       id="bg"
       fill="#2760D8"
       x="0"
       y="0"
       width="256"
       height="256"
       rx="40"
       style="fill:#00d7a7;fill-opacity:1" />
  </g>
  <g
     transform="matrix(0.8722472,0,0,0.8722472,54.473887,27.564398)"
     id="g4784">
    <path
       class="st0"
       d="m 546.31754,206.47933 v 58.5866 c 0,11.18269 -9.22237,20.31597 -20.58329,20.31597 h -62.68542 c -7.52937,0 -14.65778,2.7177 -20.22684,7.75214 -5.56906,-4.98988 -12.69747,-7.75214 -20.22684,-7.75214 h -62.81908 c -11.27179,0 -20.40505,-9.08872 -20.40505,-20.31597 v -58.5866 z m -100.15411,92.22378 c 4.4998,-4.49981 10.5144,-6.99475 16.92996,-6.99475 h 62.64086 c 14.83602,0 26.90975,-11.94008 26.90975,-26.64243 V 200.10831 H 333 v 64.91307 c 0,14.70234 11.98463,26.64243 26.77607,26.64243 h 62.81908 c 6.371,0 12.3856,2.49494 16.92996,6.99475 L 442.86654,302 Z"
       id="path4"
       style="fill:#ffffff;fill-opacity:1;stroke-width:0.44552553" />
    <path
       class="st0"
       d="m 522.80354,233.5293 c 0,1.96032 -1.55934,3.386 -3.51966,3.386 -1.96031,0 -3.51965,-1.42568 -3.51965,-3.386 0,-1.96031 1.55934,-3.38599 3.51965,-3.38599 1.96032,-0.0891 3.51966,1.33658 3.51966,3.38599 m -6.59378,27.66714 h 6.1037 v -21.69709 h -6.1037 z m -10.95993,-13.09845 7.97491,13.09845 h -6.63833 l -5.34631,-8.68775 -2.89592,3.65331 v 5.03444 h -6.05914 v -31.18679 h 6.05914 v 14.39048 c 0,2.67315 -0.31186,5.3463 -0.31186,5.3463 h 0.13365 c 0,0 1.42569,-2.36128 2.6286,-4.05428 l 4.63347,-6.1928 h 7.12841 z m -19.11305,-0.80195 c 0,-5.39086 -2.6286,-8.33132 -6.81654,-8.33132 -3.5642,0 -5.43541,2.09397 -6.50467,4.09883 h -0.13366 l 0.31187,-3.5642 h -6.05915 v 21.69709 h 6.05915 v -12.87569 c 0,-2.49494 1.47023,-4.23249 3.74242,-4.23249 2.27218,0 3.25233,1.51479 3.25233,4.4107 v 12.69748 h 6.1037 z M 461.09825,233.5293 c 0,1.96032 -1.55934,3.386 -3.51965,3.386 -1.96032,0 -3.51965,-1.42568 -3.51965,-3.386 0,-1.96031 1.55933,-3.38599 3.51965,-3.38599 2.00486,-0.0891 3.51965,1.33658 3.51965,3.38599 m -6.59378,27.66714 h 6.1037 v -21.69709 h -6.1037 z m -10.5144,-6.05915 c 0,-1.73755 -2.40584,-2.09397 -5.21265,-2.89591 -3.25234,-0.8465 -7.35117,-2.49495 -7.35117,-6.63833 0,-4.09884 3.92062,-6.68289 8.55409,-6.68289 4.3216,0 8.28677,2.04942 9.93522,4.94534 l -5.21265,2.94047 c -0.53463,-1.91576 -2.13852,-3.43055 -4.54436,-3.43055 -1.55934,0 -2.85136,0.66829 -2.85136,1.96031 0,1.64845 2.85136,1.82666 6.05914,2.85137 3.386,1.06926 6.50468,2.6286 6.50468,6.59377 0,4.36615 -4.05429,6.9502 -8.73231,6.9502 -5.07899,0 -9.08872,-2.13852 -10.87082,-5.61362 l 5.30176,-2.98502 c 0.66828,2.36128 2.58404,4.14339 5.47996,4.14339 1.73755,0 2.94047,-0.71284 2.94047,-2.13853 m -19.29126,-24.94943 h -6.1037 v 24.99399 c 0,2.22762 0.49008,3.87607 1.42568,4.90078 0.98016,1.02471 2.49495,1.51478 4.58892,1.51478 0.71284,0 1.47023,-0.0891 2.18307,-0.22276 0.7574,-0.17821 1.33658,-0.40097 1.82666,-0.66829 l 0.53463,-4.09883 c -0.49008,0.17821 -0.89105,0.31187 -1.29203,0.35642 -0.35642,0.0891 -0.80194,0.0891 -1.29202,0.0891 -0.80195,0 -1.15837,-0.22276 -1.42568,-0.62373 -0.31187,-0.40098 -0.44553,-1.11382 -0.44553,-2.13853 z m -20.31596,13.14301 c -2.22763,0 -4.05428,1.60389 -4.54436,4.54436 h 8.55409 c 0.0446,-2.58405 -1.64845,-4.54436 -4.00973,-4.54436 m 9.40059,8.64319 h -14.03406 c 0.26732,3.51965 2.22763,5.2572 4.76713,5.2572 2.27218,0 3.83152,-1.51478 4.18794,-3.5642 l 5.12354,2.89592 c -1.51479,2.76225 -4.76712,5.16809 -9.31148,5.16809 -6.05915,0 -10.51441,-4.23249 -10.51441,-11.3609 0,-7.08386 4.54436,-11.3609 10.38075,-11.3609 5.83638,0 9.71245,4.14339 9.71245,10.02432 -0.0445,1.73755 -0.31186,2.94047 -0.31186,2.94047 m -31.05313,9.22238 h 6.32646 v -29.85021 h -6.32646 v 11.80643 h -11.89554 v -11.76188 h -6.32646 v 29.80566 h 6.32646 v -12.34106 h 11.89554 z"
       id="path6"
       style="fill:#ffffff;fill-opacity:1;stroke-width:0.44552553" />
  </g>
</svg>
