<?xml version="1.0" encoding="UTF-8" standalone="no"?>
<svg
   xmlns:dc="http://purl.org/dc/elements/1.1/"
   xmlns:cc="http://creativecommons.org/ns#"
   xmlns:rdf="http://www.w3.org/1999/02/22-rdf-syntax-ns#"
   xmlns:svg="http://www.w3.org/2000/svg"
   xmlns="http://www.w3.org/2000/svg"
   id="svg9"
   version="1.1"
   viewBox="312 111 256 256"
   height="256px"
   width="256px">
  <metadata
     id="metadata13">
    <rdf:RDF>
      <cc:Work
         rdf:about="">
        <dc:format>image/svg+xml</dc:format>
        <dc:type
           rdf:resource="http://purl.org/dc/dcmitype/StillImage" />
        <dc:title></dc:title>
      </cc:Work>
    </rdf:RDF>
  </metadata>
  <desc
     id="desc2">YLE</desc>
  <defs
     id="defs4" />
  <g
     transform="translate(312.000000, 111.000000)"
     fill-rule="evenodd"
     fill="none"
     stroke-width="1"
     stroke="none"
     id="yle">
    <rect
       style="fill:#00b8cd;fill-opacity:1"
       rx="40"
       height="256"
       width="256"
       y="0"
       x="0"
       fill="#2760D8"
       id="bg" />
    <g
       id="g4002"
       transform="matrix(1.1859131,0,0,1.1859131,-3.4007225,0.76147298)"
       style="fill:#ffffff;stroke:none">
      <path
         transform="matrix(0.45173148,0,0,0.45173148,20.936867,-133.67498)"
         id="path4004"
         d="m 37.963999,641.29416 c 0,-8.08685 5.796885,-8.21769 8.553858,-8.21769 7.809169,0 14.417433,1.875 24.821429,1.875 21.743343,0 22.292506,-10.90883 27.678571,-35.625 H 88.928572 c -25.155697,0 -26.952404,-20.40564 -30.714286,-33.57143 L 36.875,489.23718 c 0,0 -1.964286,-6.99023 -1.964286,-11.69643 0,-8.48931 5.881643,-10.17858 11.249999,-10.17858 h 6.428571 c 7.610869,0 9.285716,2.38096 13.125002,15.62501 l 20.446429,78.125 c 2.747273,9.26505 1.393724,13.75 17.678575,13.75 l 22.67857,-98.03571 c 1.2888,-5.42836 4.17096,-9.46429 11.16071,-9.46429 h 7.94643 c 6.35748,0 9.64286,3.7196 9.64286,10 0,5.05847 -3.125,17.85714 -3.125,17.85714 l -34.10715,137.94643 c -1.53667,3.9705 -7.42187,27.67857 -44.017853,27.67857 -21.468155,0 -36.053858,-1.70431 -36.053858,-11.53525 z"
         style="fill:#ffffff;stroke:none" />
      <path
         transform="matrix(0.45173148,0,0,0.45173148,20.936867,-133.67498)"
         id="path4006"
         d="M 188.51972,589.77545 V 425.6888 H 182.08 c -6.35454,0 -12.12183,-2.57874 -12.12183,-8.96511 v -9.97525 c 0,-4.96797 3.88803,-8.3969 10.48033,-8.3969 h 23.42291 c 12.54406,0 12.81631,12.45029 12.81631,21.78142 v 169.57936 c 0,4.22353 -0.93139,10.92227 -10.92228,10.92227 h -6.62912 c -6.51782,0 -10.6066,-2.52459 -10.6066,-10.85914 z"
         style="fill:#ffffff;stroke:none" />
    </g>
    <path
       style="fill:#ffffff;stroke:none;stroke-width:0.53571427"
       d="m 186.48608,90.638576 c -18.08236,0 -31.65737,8.000589 -31.65737,35.558024 v 6.14398 c 0,24.7643 12.72127,32.64509 29.83258,32.64509 h 8.00224 c 12.28474,0 20.02231,-2.90251 20.02231,-6.5625 v -4.33594 c 0,-2.46288 -1.57954,-4.38616 -4.15178,-4.38616 -3.55145,0 -7.37689,1.85827 -17.36049,1.85827 -14.91437,0 -20.95982,-1.76491 -20.95982,-18.4989 h 35.74219 c 4.54205,0 9.77678,-1.80423 9.77678,-8.83928 v -3.28125 c 0,-19.7565 -9.95258,-30.301334 -29.24664,-30.301334 z m 0.23437,11.568084 c 11.49885,0 15.21763,8.25385 15.21763,18.53236 H 170.5151 c 0,-9.87098 3.8479,-18.53236 16.20535,-18.53236 z"
       id="path4008" />
  </g>
</svg>
